<svg width="911" height="1678" viewBox="0 0 911 1678" fill="none" xmlns="http://www.w3.org/2000/svg">
<g clip-path="url(#clip0_49_76)">
<path d="M193.263 308.223C182.459 281.939 172.226 255.502 158.995 230.333C141.457 196.979 120.393 165.922 100.982 133.62C99.0058 130.346 102.376 126.442 106.022 127.431C107.161 127.738 107.981 128.511 108.587 129.511C119.913 147.648 131.248 165.739 142.245 184.069C152.484 201.145 161.85 218.75 170.273 236.777C180.678 259.048 189.412 281.787 197.929 304.818C199.164 306.431 198.785 308.328 197.098 309.287C195.411 310.246 194.294 309.468 193.238 308.209L193.263 308.223Z" fill="#5E88DC"/>
<path d="M273.168 301.941C240.261 233.152 227.627 158.635 215.57 83.9845C215.655 79.3344 220.541 78.0887 222.607 82.3312C232.717 141.276 241.058 200.4 260.972 257.056C265.948 271.21 271.149 285.494 278.046 298.774C279.013 300.649 278.635 301.997 277.037 302.975C275.445 303.972 274.174 303.171 273.143 301.926L273.168 301.941Z" fill="#5E88DC"/>
<path d="M342.663 297.582C318.869 230.703 323.66 160.73 326.906 91.0641C327.091 87.3381 332.639 87.4575 332.57 91.3004C331.641 139.491 326.886 187.755 332.888 235.863C335.159 254.039 339.989 271.591 344.707 289.28C345.455 292.227 348.826 296.29 346 298.758C344.888 299.732 343.132 298.935 342.638 297.567L342.663 297.582Z" fill="#5E88DC"/>
<path d="M401.467 305.447C400.519 304.75 400.275 302.576 401.757 301.799C413.581 269.43 425.492 237.461 429.887 203.154C433.53 174.794 429.591 146.924 428.273 118.584C428.207 116.996 429.258 115.637 430.845 115.487C432.432 115.336 433.877 116.47 433.963 118.053C435.052 138.679 437.836 159.083 437.084 179.779C436.088 207.45 430.493 233.966 422.038 260.297C418.18 272.318 413.423 283.904 409.192 295.792C407.428 298.99 406.938 303.39 403.926 305.634C403.08 306.262 402.409 306.125 401.456 305.408L401.467 305.447Z" fill="#5E88DC"/>
<path d="M373.842 290.601C371.297 289.698 370.734 286.806 370.284 284.497C368.741 276.374 367.224 268.583 366.493 260.412C362.483 214.77 374.278 171.803 386.938 128.435C388.071 124.539 393.783 126.22 392.771 130.252C383.665 166.456 372.823 201.625 372.11 239.341C371.816 255.119 373.882 270.56 376.48 286.091C377.57 287.637 377.124 289.362 375.601 290.383C375.063 290.739 374.436 290.843 373.848 290.62L373.842 290.601Z" fill="#5E88DC"/>
<path d="M291.731 308.524C285.662 307.404 287.844 296.381 287.453 291.69C286.806 274.685 286.408 257.741 284.84 240.772C281.843 208.213 274.092 176.843 266.533 145.083C266.155 143.515 267.134 141.964 268.727 141.6C270.301 141.242 271.822 142.187 272.225 143.769C276.055 158.695 280.361 173.346 283.856 188.361C292.841 226.86 292.968 265.428 293.644 304.779C294.094 306.222 293.689 307.471 292.431 308.295C292.215 308.437 292.019 308.574 291.756 308.539L291.731 308.524Z" fill="#5E88DC"/>
<path d="M153.032 311.629C134.812 288.896 120.69 263.479 102.416 240.549C84.1676 217.633 61.3488 198.245 40.8858 177.317C38.2662 174.638 42.231 170.744 44.9939 173.406C66.1414 193.812 88.2778 213.257 106.737 236.328C118.46 250.977 127.751 267.356 138.031 283.089C143.753 291.824 149.522 300.737 155.881 309.091C157.056 310.086 156.763 311.749 155.55 312.349C154.342 312.968 153.832 312.64 153.007 311.614L153.032 311.629Z" fill="#5E88DC"/>
<path d="M453.948 278.285C458.663 226.165 483.5 182.344 511.965 139.685C515.134 134.948 522.102 139.187 519.071 144.12C497.285 179.77 474.675 214.078 464.145 255.142C461.793 264.266 461.415 273.58 459.932 282.872C460.474 284.185 460.053 286.559 458.525 286.926C452.933 288.297 453.342 282.251 453.948 278.285Z" fill="#5E88DC"/>
<path d="M522.105 155.604C522.105 155.604 521.996 155.591 521.917 155.612C506.723 159.472 501.783 140.089 508.493 129.248C515.716 123.319 525.078 126.241 530.634 133.098C536.661 140.526 532.54 149.279 525.697 154.261C524.621 155.056 523.297 155.242 522.08 155.589L522.105 155.604Z" fill="#5E88DC"/>
<path d="M435.996 134.158C428.216 135.249 419.336 131.84 422.787 122.4C420.04 114.515 428.52 107.362 435.405 109.004C448.27 112.064 452.291 124.15 441.692 132.23C440.093 133.44 438.312 133.812 436.016 134.153L435.996 134.158Z" fill="#5E88DC"/>
<path d="M388.667 142.064C387.59 142.226 386.347 141.608 385.327 141.269C365.743 137.03 369.309 114.692 388.47 113.805C401.321 117.841 404.87 131.638 394.276 140.519C392.674 141.878 390.623 141.794 388.667 142.064Z" fill="#5E88DC"/>
<path d="M331.081 102.623C328.575 102.576 326.175 102.057 323.727 100.727C321.278 99.3968 319.273 96.7226 318.822 93.7796C310.503 83.3948 320.091 73.8319 331.627 74.692C343.005 79.144 348.502 92.4824 338.197 101.181C336.229 102.828 333.587 102.67 331.081 102.623Z" fill="#5E88DC"/>
<path d="M262.636 153.882C259.613 152.536 256.847 149.707 255.427 146.538C255.257 146.139 255.134 145.602 255.063 145.177C248.886 130.563 263.739 123.773 275.74 130.234C283.391 137.65 282.093 147.95 273.336 153.909C269.944 156.234 266.357 155.547 262.636 153.882Z" fill="#5E88DC"/>
<path d="M204.453 95.0979C201.282 89.1016 203.063 80.1308 209.717 77.7562C226.263 71.8436 236.385 86.9853 222.799 99.0562C216.265 100.934 208.119 101.997 204.473 95.0926L204.453 95.0979Z" fill="#5E88DC"/>
<path d="M107.923 150.375C96.7073 151.499 88.6168 143.229 95.1416 132.565C95.3075 121.512 109.366 117.196 117.042 124.077C125.723 131.871 119.733 143.428 111.597 148.946C110.505 149.682 109.262 150.248 107.908 150.4L107.923 150.375Z" fill="#5E88DC"/>
<path d="M45.915 187.569C36.3994 186.125 27.8879 177.546 36.8794 169.305C39.5981 162.259 48.0213 159.389 54.4314 163.123C64.8018 169.176 60.342 180.449 52.1231 186.053C50.2825 187.307 48.2335 187.941 45.9203 187.589L45.915 187.569Z" fill="#5E88DC"/>
<path d="M418.357 136.307C403.037 117.381 425.445 97.8543 438.673 119.622C444.693 124.897 444.497 132.049 438.864 137.446C438.288 137.981 437.608 138.438 436.993 138.666C431.317 140.905 422.503 141.45 418.337 136.312L418.357 136.307Z" fill="#5E88DC"/>
<path d="M307.128 185.464C296.597 185.518 291.13 176.63 297.296 167.541C300.095 157.325 312.426 155.711 317.971 164.578C322.372 171.618 318.941 179.552 312.607 183.912C311.036 184.988 309.192 185.44 307.147 185.459L307.128 185.464Z" fill="#5E88DC"/>
<path d="M175.218 159.176C173.906 158.619 172.343 156.651 171.485 155.338C171.277 155.035 171.03 154.509 170.855 154.091C164.883 149.311 164.996 140.744 169.865 135.573C173.125 132.122 178.547 130.986 182.48 132.256C195.453 136.429 198.169 151.379 187.262 159.647C183.679 162.361 179.102 160.819 175.193 159.162L175.218 159.176Z" fill="#5E88DC"/>
<path d="M210.287 244.944C196.01 215.323 181.01 187.416 177.643 154.111C178.657 152.296 180.955 152.589 181.443 154.571C185.098 169.946 189.652 184.889 196.436 199.087C203.219 213.285 210.081 227.378 216.768 241.454C217.79 243.61 217.087 245.404 215.217 246.391C213.367 247.373 211.379 247.208 210.287 244.944Z" fill="#5E88DC"/>
<path d="M327.69 273.323C325.843 273.607 324.197 272.59 323.682 270.827C319.482 256.021 315.359 241.342 311.539 226.456C307.978 212.535 305.608 198.485 303.859 184.227C303.2 181.531 304.478 178.336 307.533 180.116C308.708 180.794 308.903 182.39 309.153 183.717C314.481 212.673 322.337 240.888 330.162 269.301C330.558 270.78 329.775 272.194 328.511 272.998C328.256 273.151 327.971 273.269 327.665 273.309L327.69 273.323Z" fill="#5E88DC"/>
<path d="M130.74 274.33C118.646 249.702 110.433 224.414 106.367 197.169C105.252 189.777 104.686 182.618 103.993 175.219C103.81 173.197 105.286 171.449 107.328 171.261C109.375 171.093 111.017 172.491 111.294 174.551C115.599 208.282 120.739 240.478 135.58 271.258C136.499 273.189 136.1 274.542 134.58 275.414C133.055 276.267 131.6 276.044 130.754 274.305L130.74 274.33Z" fill="#5E88DC"/>
<path d="M107.913 192.529C98.1467 191.808 90.4696 183.976 89.6248 174.357C88.916 166.349 95.8579 160.474 103.409 162.867C109.785 164.898 114.644 170.569 117.018 176.905C119.034 182.302 116.822 188.24 112.028 191.405C110.843 192.188 109.484 192.636 107.907 192.51L107.913 192.529Z" fill="#5E88DC"/>
<path d="M381.841 285.753C379.483 285.075 378.609 282.837 379.925 280.73C382.884 271.507 385.949 261.495 389.315 252.606C393.482 241.58 398.022 231.553 402.592 220.926C403.403 219.061 405.779 218.15 407.444 219.161C411.586 221.685 408.382 226.368 407.169 229.567C404.717 236.034 402.596 242.075 400.156 248.349C395.619 260.045 391.259 271.609 385.475 282.751C385.463 283.811 384.675 284.972 383.855 285.382C383.035 285.792 382.592 285.953 381.836 285.733L381.841 285.753Z" fill="#5E88DC"/>
<path d="M407.04 231.376C391.318 228.299 387.404 208.642 401.206 199.979C411.212 199.706 414.696 207.583 415.782 216.525C417.462 221.928 416.397 227.179 411.519 230.345C410.133 231.245 408.779 231.713 407.04 231.376Z" fill="#5E88DC"/>
<path d="M267.244 260.51C270.115 207.425 283.288 156.271 296.18 104.939C296.922 101.951 301.393 103.415 300.624 106.304C288.856 154.969 276.796 203.417 270.313 253.116C270.042 255.26 269.921 257.489 269.908 259.648C269.899 260.327 270.065 261.022 269.239 261.412C268.409 261.782 267.585 261.39 267.263 260.505L267.244 260.51Z" fill="#5E88DC"/>
<path d="M302.651 117.889C286.439 123.395 275.162 104.654 287.452 93.1845C293.74 87.316 302.369 92.8638 306.351 99.1285C310.333 105.393 310.629 112.73 303.913 117.319C303.556 117.562 303.099 117.748 302.651 117.889Z" fill="#5E88DC"/>
<path d="M471.256 231.601C458.562 203.943 453.489 175.468 451.752 145.17C451.076 133.498 450.518 122.344 450.135 110.741C450.072 109.088 451.163 107.718 452.789 107.557C454.441 107.411 455.92 108.514 456.007 110.181C458.064 150.98 460.124 189.664 475.045 228.156C476.898 229.392 476.38 231.876 474.774 232.666C473.168 233.455 472.027 233.296 471.245 231.562L471.256 231.601Z" fill="#5E88DC"/>
<path d="M459.055 110.041C444.455 114.228 434.701 98.3321 445.739 88.1063C452.087 82.2219 460.377 86.1912 464.711 92.1926C469.045 98.194 468.049 104.652 461.822 108.856C461.088 109.348 460.075 109.746 459.035 110.046L459.055 110.041Z" fill="#5E88DC"/>
<path d="M369.701 186.108C364.132 181.177 362.927 172.499 362.124 165.636C358.365 134.337 367.321 106.879 375.758 77.4039C376.758 73.882 381.863 75.3455 380.86 79.016C371.277 114.228 360.88 146.404 370.612 182.885C371.981 183.574 372.047 185.163 370.838 186.015C370.501 186.253 370.058 186.414 369.701 186.108Z" fill="#5E88DC"/>
<path d="M384.061 93.012C377.636 93.7193 369.835 90.8655 366.998 85.0121C362.546 75.8097 369.878 66.3443 379.83 67.84C390.423 69.4388 395.26 85.0458 386.342 92.0626C385.697 92.5735 384.901 92.9137 384.061 93.012Z" fill="#5E88DC"/>
<path d="M208.385 214.584C177.839 187.569 167.12 150.486 153.685 113.434C152.174 109.296 157.84 107.334 159.371 111.234C171.456 142.14 181.78 173.413 200.645 201.234C202.835 204.282 212.125 210.244 209.681 214.216C209.474 214.546 208.735 214.47 208.391 214.604L208.385 214.584Z" fill="#5E88DC"/>
<path d="M151.974 123.612C138.274 118.303 140.027 102.367 154.722 100.035C164.112 100.456 172.207 106.929 167.605 116.571C166.443 119.016 163.739 120.438 161.291 121.791C158.843 123.144 155.059 124.792 151.974 123.612Z" fill="#5E88DC"/>
<path d="M404.016 507.94C338.063 536.324 249.562 570.307 185.972 520.05C177.261 513.172 173.278 504.773 167.563 495.825C149.412 481.081 132.09 465.882 117.495 447.375C90.7598 413.528 67.4963 379.151 55.5195 337.293C51.3002 322.492 50.4413 307.615 50.2285 291.994C49.992 275.26 47.941 259.562 54.5834 242.632C67.9389 208.565 94.5835 189.551 126.911 217.061C143.362 237.29 148.022 263.276 165.714 282.538C189.501 288.821 186.609 250.19 183.861 235.756C177.132 200.309 175.696 173.184 213.287 158.589C244.347 157.789 256.448 181.655 262.333 207.799C266.721 227.33 265.569 245.978 279.607 259.648C295.221 274.861 309.551 258.703 312.852 242.394C315.806 219.903 314.171 199.212 325.456 178.947C348.122 147.055 384.069 140.993 399.528 181.18C407.895 202.94 396.885 221.631 394.189 242.405C393.049 251.162 390.163 260.028 395.298 267.758C404.001 280.914 421.49 273.629 428.091 262.225C437.686 245.667 435.142 227.185 438.825 209.147C445.211 178.405 467.855 162.914 498.919 165.598C520.623 171.995 528.911 191.411 531.592 211.906C537.941 260.364 528.92 305.483 517.814 352.048C499.843 413.763 471.701 468.907 414.609 502.524C411.305 504.465 407.702 506.318 404.025 507.895L404.016 507.94Z" fill="#56BFD9"/>
<path d="M587.967 1626.23C573.196 1585.78 558.868 1545.39 544.3 1504.91C490.346 1481.86 430.927 1470.04 390.122 1424.77C348.552 1364.66 369.77 1316.72 443.357 1356.96C471.499 1378.16 494.811 1400.42 515.336 1429.14C481.345 1336.2 459.227 1239.46 432.817 1144.21C432.264 1144.27 431.782 1144.45 431.197 1144.39C424.772 1143.91 419.125 1141.14 413.076 1139.15C411.913 1139.46 410.84 1139.56 409.666 1139.19C402.792 1137.04 396.063 1134.96 389.145 1132.8C343.967 1118.77 305.056 1096.02 269.905 1064.36C217.812 1007.33 246.554 955.764 319.242 997.308C341.873 1010.24 358.33 1030.57 376.757 1048.79C394.227 1066.04 408.62 1086.08 422.023 1106.68C419.958 1099.29 417.826 1092.05 415.838 1084.55C395.971 1010.09 377.948 934.861 358.885 860.166C357.202 861.377 355.33 861.963 353.285 861.349C345.229 858.965 337.107 856.493 329.224 853.809C297.774 843.136 268.624 831.508 238.921 815.844C216.652 804.105 198.085 789.071 185.737 766.095C179.035 747.629 181.818 723.789 204.594 718.489C240.923 710.065 273.83 728.778 302.22 750.266C320.686 769.341 334.968 789.834 347.869 812.746C339.587 773.637 331.01 734.607 325.364 695.003C318.968 650.233 314.92 605.236 310.372 560.267C299.646 560.141 289.459 558.56 279.162 555.382C262.199 555.638 245.695 553.51 228.892 551.209C213.846 549.155 199.461 546.101 185.823 538.895C173.539 532.403 160.699 524.624 157.089 510.442C153.824 497.626 164.87 487.588 176.935 486.954C195.352 485.97 210.583 497.862 228.101 500.542C228.31 488.232 220.862 473.134 232.441 463.587C251.824 447.597 270.901 466.508 285.659 479.943C295.866 489.252 305.773 491.288 315.498 480.188C329.309 464.381 341.77 447.794 363.498 442.373C389.645 442.636 395.082 456.539 397.682 480.437C407.476 476.925 414.142 471.441 422.519 464.929C438.847 452.208 453.799 441.292 471.818 457.593C480.655 496.173 431.461 515.101 403.475 531.474C377.416 544.077 351.8 554.786 323.077 559.419C324.469 566.822 325.335 574.471 327.329 581.754C334.078 613.329 339.222 645.144 344.244 677.056C353.574 726.152 363.032 775.173 373.404 824.054C380.776 775.384 394.732 726.998 432.441 693.125C458.166 674.463 487.612 662.199 505.137 696.845C507.937 721.175 499.902 741.583 490.13 763.471C464.839 807.963 426.424 840.463 383.023 866.734C394.301 910.323 404.931 954.254 414.501 998.173C421.051 1028.22 427.693 1057.81 434.542 1087.71C437.17 1041.92 447.562 1000.34 483.927 969.893C512.124 951.309 544.764 946.155 553.263 986.389C549.708 1024.15 533.379 1054.22 510.214 1083.45C491.576 1106.96 472.965 1128.19 449.227 1146.38C472.394 1242.23 495.812 1339.17 529.56 1431.76C533.374 1442.21 536.592 1450.11 540.367 1460.26C538.713 1451.4 537.176 1443.07 535.666 1434.2C527.528 1386.56 527.441 1340.1 543.82 1294.13C553.348 1272.43 568.571 1256.69 593.454 1263.12C616.891 1279.22 621.346 1303.02 622.152 1330.08C621.009 1364.93 609.058 1395.64 597.498 1428.13C588.166 1450.87 581.222 1491.44 556.9 1502.48C559.471 1509.4 561.45 1516.07 563.747 1523.15C574.535 1556.39 585.903 1589.43 597.131 1622.66C597.97 1625.16 596.845 1627.74 594.349 1628.92C594.183 1629 593.966 1629.06 593.743 1629.1C591.369 1629.55 588.807 1628.5 587.962 1626.21L587.967 1626.23Z" fill="#2A422F"/>
</g>
<defs>
<clipPath id="clip0_49_76">
<rect width="513" height="1598" fill="white" transform="translate(0.943604 133.612) rotate(-15)"/>
</clipPath>
</defs>
</svg>
