<svg width="979" height="1778" viewBox="0 0 979 1778" fill="none" xmlns="http://www.w3.org/2000/svg">
<g clip-path="url(#clip0_49_205)">
<path d="M254.707 1697.09C265.904 1583.84 299.398 1474.23 325.145 1363.73C350.158 1249.2 389.39 1138.37 411.549 1023.17C429.274 935.848 449.332 849.053 467.376 761.819C478.535 703.805 491.353 646.135 505.832 588.87C517.432 543.851 527.553 497.973 546.428 455.306C557.476 430.742 568.668 406.237 579.847 381.708C581.042 379.05 583.943 377.534 586.785 378.638C589.407 379.662 591.049 382.919 589.854 385.576C582.033 402.977 574.675 420.602 567.468 438.268C547.329 483.775 534.813 531.909 522.722 580.036C508.799 636.202 495.398 692.448 484.748 749.311C473.909 807.33 460.89 864.926 449.539 922.828C438.067 982.006 427.498 1041.34 414.749 1100.26C402.284 1158.57 384.468 1215.52 369.309 1273.15C341.599 1387.45 309.149 1500.52 280.575 1614.59C273.743 1642.12 267.367 1669.74 261.14 1697.41C260.818 1699.21 259.819 1702.27 257.304 1701.59C257.21 1701.57 257.135 1701.55 257.06 1701.53C255.202 1701.03 254.867 1698.83 254.74 1697.12L254.707 1697.09Z" fill="#485424"/>
<path d="M648.981 301.544C649.093 301.574 649.187 301.599 649.3 301.629C649.346 301.38 649.364 301.163 649.411 300.914C649.256 301.114 649.121 301.32 648.986 301.525L648.981 301.544ZM649.59 454.217C631.323 445.217 620.781 426.679 605.568 413.79C591.796 402.575 584.946 389.855 585.039 377.345C560.98 398.744 525.421 406.459 495.774 391.433C485.679 386.394 476.24 379.881 465.361 376.564C460.574 375.06 455.645 374.162 450.721 373.245C444.341 372.058 437.955 370.89 431.907 368.465C414.769 361.257 404.916 343.527 402.004 325.866C398.661 308.915 401.959 290 412.833 276.295C418.187 270.949 425.073 267.623 432.445 265.937C424.395 258.066 419.046 245.748 413.414 236.814C398.419 211.248 388.187 178.567 398.494 149.56C405.025 134.871 416.612 121.357 432.709 117.361C445.347 114.409 459.481 113.388 471.627 118.654C481.031 123.649 487.727 131.238 493.018 140.019C490.776 112.277 492.365 73.9914 504.964 55.7987C517.93 39.0122 540.387 31.8508 560.615 38.3372C568.141 40.3538 574.821 44.4775 580.819 49.3441C586.973 54.152 594.083 60.4232 602.47 58.3246C610.058 56.1325 617.462 53.0463 625.439 52.6285C641.159 51.4684 656.893 61.4387 663.14 75.8084C667.946 83.9974 668.526 97.3717 678.408 101.106C688.666 100.736 700.374 102.082 706.024 111.926C709.172 118.121 709.679 124.635 708.759 131.149C708.923 130.911 709.05 130.664 709.2 130.402C718.936 109.531 740.789 87.0573 764.818 101.805C783.169 111.994 783.721 141.537 805.987 145.974C826.06 147.631 847.306 142.137 866.586 150.059C881.842 155.133 890.806 173.027 882.726 187.642C879.49 193.636 874.381 197.841 868.749 201.442C879.652 203.317 889.397 208.463 895.391 218.299C902.207 230.024 897.875 243.712 897.266 256.345C895.975 268.896 905.691 276.851 914.258 284.217C920.912 290.688 925.573 299.12 927.858 308.082C935.596 341.14 911.92 366.364 883.455 378.757C869.126 384.414 849.894 387.047 830.601 387.129C837.993 395.95 840.45 407.353 832.828 420.783C825.484 434.227 808.921 437.937 794.817 439.45C786.871 439.977 778.558 439.62 771.397 443.677C763.34 447.695 757.187 454.517 749.305 458.783C742.044 462.612 734.275 465.48 726.235 467.108C709.71 469.923 692.602 468.236 676.274 463.861C667.04 461.387 658.056 458.054 649.544 454.164L649.59 454.217Z" fill="#D63129"/>
<path d="M730.862 287.308C752.928 276.802 772.445 261.469 790.845 245.575C807.274 229.978 824.647 214.916 846.919 208.59C853.526 206.457 861.199 204.469 867.908 205.482C863.198 205.568 858.285 207.088 853.895 208.608C825.704 219.303 809.828 244.244 788.474 263.732C772.386 277.529 753.963 290.057 733.576 296.324C716.144 300.647 697.577 298.248 680.196 296.226C697.331 294.962 714.818 294.035 730.862 287.308Z" fill="#943834"/>
<path d="M663.785 213.26C671.365 182.194 689.509 154.642 708.57 129.449C696.104 149.548 684.158 175.139 677.68 199.238C668.906 243.545 660.411 271.569 625.89 302.66C648.809 275.382 658.317 247.93 663.785 213.26Z" fill="#943834"/>
<path d="M708.74 129.192C708.74 129.192 708.74 129.192 708.745 129.174C708.745 129.174 708.763 129.179 708.787 129.165C708.719 129.267 708.633 129.365 708.565 129.468C708.628 129.384 708.677 129.276 708.735 129.211L708.74 129.192Z" fill="#943834"/>
<path d="M545.592 237.564C538.413 222.844 535.439 206.615 529.451 191.43C524.425 179.48 516.91 168.714 508.368 159.081C504.539 154.977 501.269 150.439 497.892 146.154C502.984 151.623 508.971 157.13 514.686 162.303C542.549 186.087 546.289 225.055 566.063 254.256C580.201 273.859 603.396 284.138 621.395 299.242C587.793 281.487 561.731 276.053 545.569 237.578L545.592 237.564Z" fill="#943834"/>
<path d="M538.334 306.543C519.525 299.491 503.03 287.707 484.392 280.238C470.524 273.665 453.359 271.963 439.507 270.284C479.785 268.682 501.174 278.417 524.036 288.587C539.352 295.387 555.33 302.344 578.086 306.229C594.309 309.268 611.198 306.369 625.583 299.077C604.008 315.71 575.559 317.161 549.959 310.301C545.999 309.24 542.113 307.978 538.334 306.543Z" fill="#943834"/>
<path d="M767.242 378.703C750.166 369.238 735.703 354.599 718.608 345.954C696.863 335.52 672.298 330.507 648.365 329.365C647.173 329.308 645.93 329.518 644.813 329.259C666.467 327.496 689.096 327.423 710.705 331.382C730.098 335.13 746.34 347.409 760.05 361.102C771.285 372.925 785.794 381.461 801.572 385.487C807.797 387.256 814.542 388.58 820.622 389.988C808.167 389.025 795.458 388.034 783.372 384.795C777.835 383.312 772.425 381.359 767.237 378.722L767.242 378.703Z" fill="#943834"/>
<path d="M622.253 330.799C616.522 335.521 610.503 341.694 605.709 347.874C601.026 353.641 598.337 361.049 594.124 366.862C598.117 345.88 604.87 341.473 622.239 330.775L622.253 330.799Z" fill="#943834"/>
<path d="M612.772 339.908C602.351 348.544 600.103 363.917 590.009 372.761C594.753 357.534 597.54 347.134 612.772 339.908Z" fill="#943834"/>
<path d="M645.325 303.622C644.856 303.497 644.759 302.585 644.769 302.246C646.253 295.28 652.809 290.558 657.071 285.161C668.583 273.055 681.492 263.013 691.766 249.891C708.999 225.516 722.369 198.818 738.337 173.681C738.352 173.625 738.436 173.687 738.426 173.725C725.912 199.707 717.369 228.061 701.053 252.018C693.949 261.341 685.041 269.135 675.653 276.096C669.96 280.828 643.258 296.851 645.243 303.48C645.262 303.485 645.299 303.495 645.313 303.518C645.393 303.52 645.514 303.593 645.387 303.619L645.331 303.604L645.325 303.622Z" fill="#943834"/>
<path d="M724.863 246.487C742.575 231.434 752.73 210.052 764.864 190.668C766.379 188.317 767.813 185.442 769.332 183.374C754.423 216.944 744.154 247.913 708.823 265.286C689.095 275.251 668.067 283.761 650.639 297.38C673.157 277.379 702.025 266.181 724.863 246.487Z" fill="#943834"/>
<path d="M601.511 258.141C595.625 247.751 590.025 236.895 587.954 225.033C585.103 211.05 587.586 196.826 589.898 183.02C591.499 170.512 592.969 157.968 594.006 145.39C594.3 153.677 593.869 162.717 593.772 171.262C593.847 190.878 589.068 210.965 594.824 230.173C597.722 240.828 602.712 250.656 607.233 260.66C612.244 271.761 618.343 283.455 627.709 290.995C615.829 283.305 608.394 270.065 601.492 258.136L601.511 258.141Z" fill="#943834"/>
<path d="M624.943 242.086C623.067 228.365 621.139 214.468 623.798 200.715C625.983 189.932 628.087 178.625 630.78 168.2C628.606 189.227 625.616 210.296 628.91 231.258C632.095 249.777 626.926 268.392 622.74 286.042C623.528 271.465 626.838 256.558 624.924 242.081L624.943 242.086Z" fill="#943834"/>
<path d="M599.1 298.218C583.628 290.048 567.485 283.63 550.947 278.012C525.332 270.686 498.658 262.733 482.655 239.653C473.74 226.078 469.107 210.189 462.636 195.377C462.627 195.335 462.698 195.293 462.707 195.336C469.808 208.023 476.355 221.125 484.608 233.115C491.421 241.922 500.462 248.791 509.551 254.284C532.522 266.898 558.426 273.296 580.917 287.028C587.916 290.634 594.438 295.5 601.36 298.944C601.193 299.04 600.958 299.018 600.714 298.952C600.188 298.811 599.549 298.419 599.081 298.213L599.1 298.218Z" fill="#943834"/>
<path d="M667.437 332.283C720.867 292.557 753.827 317.364 806.804 293.291C810.317 291.818 813.816 290.321 817.261 288.648C812.984 291.848 807.741 294.749 803.016 297.668C755.544 328.146 717.932 300.281 667.512 332.303C667.507 332.322 667.502 332.34 667.464 332.33C667.427 332.32 667.408 332.315 667.418 332.278L667.437 332.283Z" fill="#943834"/>
<path d="M489.924 337.594C513.894 343.252 537.965 334.27 560.745 326.953C575.261 321.95 590.794 317.883 606.12 321.567C608.082 322.052 610.387 322.61 612.069 323.161C608.599 322.674 605.211 321.806 601.7 321.771C589.786 321.194 578.316 325.263 567.617 329.982C545.36 339.551 520.191 346.026 496.393 339.649C494.216 339.066 492.064 338.389 489.91 337.57L489.924 337.594Z" fill="#943834"/>
<path d="M696 411.785C648.151 388.421 672.259 356.854 632.474 337.321C670.792 349.64 663.117 374.906 687.143 399.271C695.124 407.325 704.938 413.938 714.473 419.491C708.152 417.335 702.012 414.724 696.019 411.79L696 411.785Z" fill="#943834"/>
<path d="M632.123 337.206C632.123 337.206 632.184 337.202 632.227 337.194C632.32 337.219 632.386 337.276 632.474 337.32C632.362 337.29 632.249 337.26 632.118 337.225L632.123 337.206Z" fill="#943834"/>
<path d="M600.327 332.228C602.524 330.784 605.087 328.876 607.371 328.16C605.218 329.212 603.28 330.665 601.309 332.089C592.877 338.561 585.725 346.785 577.364 353.438C562.94 365.005 544.495 372.658 526.22 373.898C554.715 367.851 577.872 349.59 600.332 332.209L600.327 332.228Z" fill="#943834"/>
<path d="M635.292 347.15C635.676 345.039 636.067 342.83 636.399 340.766C636.601 342.49 636.113 344.835 636.057 346.771C631.971 378.009 650.009 400.025 663.937 425.446C640.664 399.694 625.94 383.777 635.292 347.15Z" fill="#943834"/>
<path d="M614.299 339.613C579.815 327.999 569.005 291.321 612.75 284.813C634.328 282.507 655.599 293.659 658.426 316.589C661.785 339.863 635.762 345.545 617.688 340.702C616.525 340.391 615.395 340.027 614.294 339.632L614.299 339.613Z" fill="#5C1A17"/>
<path d="M612.432 294.708C604.694 278.47 612.636 260.539 618.179 244.882C620.118 237.494 620.865 229.827 621.912 222.241C622.242 219.21 626.985 219.677 626.627 222.739C625.656 230.568 625.505 238.636 623.247 246.239C618.016 260.129 611.403 274.675 613.886 289.806C614.196 290.976 614.479 292.098 615.189 293.052C616.277 294.471 614.678 295.934 613.421 295.597C613.027 295.491 612.659 295.212 612.418 294.684L612.432 294.708Z" fill="#5C1A17"/>
<path d="M601.482 299.54C580.261 285.947 584.629 257.259 584.989 235.646C584.916 232.991 589.052 232.872 589.101 235.541C589.849 255.72 588.366 277.998 602.713 294.196C603.757 295.703 606.197 297.182 604.758 299.251C604.165 300.038 603.256 300.277 602.43 300.056C602.073 299.96 601.761 299.776 601.482 299.54Z" fill="#5C1A17"/>
<path d="M581.928 238.588C576.512 237.479 578.225 230.937 582.06 228.785C586.3 224.972 596.281 225.936 594.928 233.239C593.501 237.585 587.935 240.419 583.505 239.232C582.961 239.087 582.432 238.884 581.928 238.588Z" fill="#5C1A17"/>
<path d="M621.687 231.415C617.152 230.623 614.358 224.16 619.317 221.867C620.318 217.005 626.515 217.901 629.694 220C638.542 226.315 631.375 234.072 622.723 231.753C622.366 231.658 622.028 231.567 621.687 231.415Z" fill="#5C1A17"/>
<path d="M646.473 322.762C648.727 312.401 661.036 307.45 670.676 306.532C681.146 306.118 691.492 305.269 701.707 302.956C704.544 302.428 705.538 306.9 702.712 307.611C695.833 309.188 688.948 311.086 681.902 311.632C670.557 311.631 655.565 310.45 649.747 322.332C649.918 323.645 648.629 324.326 647.616 324.054C647.071 323.908 646.602 323.481 646.497 322.748L646.473 322.762Z" fill="#5C1A17"/>
<path d="M565.889 345.816C565.422 345.007 565.707 344.017 566.484 343.521C569.271 341.753 571.7 339.969 574.297 338.009C581.758 332.685 587.509 325.413 595.457 320.823C600.231 317.796 606.064 316.22 611.622 317.549C613.15 317.475 613.06 319.765 611.502 319.347C603.322 318.121 596.462 324.13 590.741 329.116C583.893 335.752 576.594 341.824 568.212 346.378C567.808 346.612 567.35 346.67 566.937 346.56C566.524 346.449 566.151 346.188 565.931 345.807L565.889 345.816Z" fill="#5C1A17"/>
<path d="M642.301 366.934C641.611 357.575 640.739 347.764 634.622 340.19C633.1 337.689 624.991 326.06 630.043 324.999C631.215 324.83 632.382 325.727 632.442 326.93C636.767 334.587 644.134 340.726 645.954 349.624C646.848 355.296 646.882 361.1 647.12 366.817C647.15 368.133 646.084 369.256 644.75 369.281C644.529 369.282 644.312 369.264 644.106 369.209C643.092 368.937 642.335 368.01 642.282 366.929L642.301 366.934Z" fill="#5C1A17"/>
<path d="M646.082 328.05C645.899 327.457 646.211 326.817 646.781 326.567C654.022 324.242 661.677 323.899 669.131 325.433C673.758 326.109 678.336 327.115 682.931 327.984C683.814 328.14 684.407 329.083 684.317 329.945C684.215 330.923 683.288 331.681 682.32 331.542C670.907 330.818 659.444 326.378 647.994 328.723C647.693 328.944 647.339 328.99 647.001 328.899C646.588 328.789 646.231 328.472 646.101 328.055L646.082 328.05Z" fill="#5C1A17"/>
<path d="M594.342 313.723C584.705 306.674 575.787 298.591 565.445 292.52C563.319 291.146 561.188 289.79 559.042 288.491C558.384 288.093 558.101 287.273 558.471 286.567C558.85 285.904 559.731 285.617 560.413 286.001C571.663 292.436 582.352 299.766 591.62 308.869C592.977 309.957 594.263 311.167 595.717 312.12C596.339 312.427 596.442 313.32 595.967 313.817C595.688 314.104 595.281 314.196 594.925 314.101C594.718 314.045 594.513 313.91 594.361 313.728L594.342 313.723Z" fill="#5C1A17"/>
<path d="M552.031 288.382C547.216 282.103 559.669 272.039 564.52 279.456C567.422 284.841 559.815 291.313 554.522 289.895C553.602 289.649 552.748 289.158 552.031 288.382Z" fill="#5C1A17"/>
<path d="M564.221 352.19C561.77 350.829 560.707 347.888 560.922 345.21C560.988 344.362 561.23 343.461 561.639 342.685C559.592 334.934 571.627 332.585 573.447 340.055C574.874 345.165 571.712 354.338 565.575 352.694C565.143 352.578 564.689 352.396 564.245 352.176L564.221 352.19Z" fill="#5C1A17"/>
<path d="M637.033 375.784C632.419 370.483 639.8 363.206 645.016 367.763C649.812 363.676 655.551 370.485 652.68 375.269C650.641 378.827 645.986 379.531 641.989 378.46C640.074 377.947 638.289 377.026 637.033 375.784Z" fill="#5C1A17"/>
<path d="M681.828 336.904C678.826 334.671 679.639 330.361 681.583 327.683C682.227 326.709 683.435 324.678 684.821 325.211C689.114 323.826 691.893 329.219 690.913 332.879C690.159 335.917 686.44 338.461 683.343 337.631C682.818 337.491 682.317 337.256 681.833 336.885L681.828 336.904Z" fill="#5C1A17"/>
<path d="M701.701 311.384C698.73 309.784 698.452 305.866 700.039 303.173C698.618 298.567 705.407 295.074 708.217 299.227C712.753 303.843 709.75 313.702 703.181 311.942C702.712 311.816 702.22 311.624 701.706 311.366L701.701 311.384Z" fill="#5C1A17"/>
<path d="M631.072 308.394C630.738 307.842 630.911 307.044 631.501 306.719C634.366 305.112 637.172 303.349 639.756 301.285C656.4 288.341 662.619 268.962 671.095 250.69C671.396 248.517 674.801 248.947 674.533 251.149C666.928 268.044 661.703 286.945 646.909 299.439C642.7 303.361 637.725 306.314 632.596 308.863C632.345 308.977 632.08 308.987 631.837 308.921C631.517 308.836 631.234 308.619 631.082 308.357L631.072 308.394Z" fill="#5C1A17"/>
<path d="M667.079 251.264C663.934 248.289 667.718 244.675 671.08 244.59C674.844 244.13 682.5 245.738 680.365 251.001C678.445 253.666 674.372 254.003 670.956 253.088C669.473 252.69 668.112 252.064 667.098 251.269L667.079 251.264Z" fill="#5C1A17"/>
<path d="M625.675 295.057C619.714 283.219 630.592 272.653 636.746 263.498C638.198 261.231 639.594 258.949 640.893 256.581C641.253 255.913 642.143 255.669 642.811 256.029C643.511 256.418 643.69 257.25 643.344 257.942C640.545 264.033 637.281 270.361 633.513 275.79C630.053 280.819 627.022 286.425 628.275 292.635C629.491 294.028 627.885 295.891 626.44 295.504C626.159 295.428 625.897 295.278 625.661 295.034L625.675 295.057Z" fill="#5C1A17"/>
<path d="M608.591 366.171C607.897 365.985 607.484 365.271 607.633 364.567C610.534 353.815 606.436 340.806 615.426 332.33C616.847 331.081 618.739 329.576 620.714 330.085C623.239 331.023 622.097 334.983 619.467 334.439C616.618 337.116 615.206 341.184 614.46 344.868C613.528 351.801 612.802 358.789 610.16 365.344C609.952 365.973 609.215 366.319 608.596 366.153L608.577 366.148L608.591 366.171Z" fill="#5C1A17"/>
<path d="M605.911 374.145C603.236 372.945 600.667 369.621 602.591 366.716C603.651 365.089 605.744 364.483 607.508 365.257C609.072 363.926 611.343 364.534 612.571 366.03C615.751 369.78 611.281 375.725 606.89 374.548C606.571 374.462 606.243 374.334 605.906 374.164L605.911 374.145Z" fill="#5C1A17"/>
<path d="M637.84 260.391C634.032 252.831 644.872 251.491 648.761 256.194C652.926 261.818 646.786 264.538 641.944 263.241C640.274 262.793 638.753 261.863 637.859 260.396L637.84 260.391Z" fill="#5C1A17"/>
<path d="M587.47 302.586C584.73 297.647 588.347 290.528 594.343 293.302C596.787 294.238 595.323 298.051 592.884 297.096C592.602 297.02 592.224 296.778 591.975 297.033L591.99 296.977C590.646 298.166 591.909 299.832 592.287 301.201C592.938 303.347 590.79 304.683 589.12 304.236C588.407 304.045 587.765 303.511 587.494 302.573L587.47 302.586Z" fill="#ECCF28"/>
<path d="M614.024 306.784C613.519 300.935 621.824 297.868 626.159 300.982C628.687 302.283 629.023 306.135 625.704 306.433C624.406 306.548 623.716 305.297 622.606 304.858C620.518 304.319 618.056 304.947 616.426 306.301C615.83 306.725 615.708 307.779 614.824 307.703C614.786 307.692 614.749 307.682 614.711 307.672C614.317 307.567 613.998 307.18 614.029 306.765L614.024 306.784Z" fill="#ECCF28"/>
<path d="M628.237 328.66C626.149 327.819 624.735 325.589 625.301 323.326C625.583 320.625 629.763 320.94 629.599 323.653C633.154 323.6 634.291 325.735 633.796 327.434C633.391 328.794 631.903 329.844 629.726 329.26C629.275 329.14 628.765 328.943 628.261 328.647L628.237 328.66Z" fill="#ECCF28"/>
<path d="M645.691 316.295C645.158 310.78 657.665 309.746 656.44 315.594C655.913 316.962 654.267 317.547 652.988 316.842C652.008 316.217 650.557 315.929 649.493 316.147C649.408 316.164 649.317 316.201 649.232 316.218C649.185 316.246 649.137 316.273 649.071 316.295C649.212 317.722 647.887 318.312 646.855 318.036C646.16 317.849 645.595 317.255 645.673 316.29L645.691 316.295Z" fill="#ECCF28"/>
<path d="M606.206 330.181C602.918 327.288 597.473 323.435 599.419 318.423C600.065 316.464 604.098 315.15 604.191 318.032C604.191 319.159 602.811 319.051 602.982 319.841L602.963 319.836C603.855 323.716 612.103 325.363 609.782 329.671C609.16 330.49 608.032 330.872 607.056 330.61C606.756 330.53 606.471 330.393 606.224 330.186L606.206 330.181Z" fill="#ECCF28"/>
<path d="M639.693 338.832C638.276 338.191 636.988 336.84 636.973 335.246C636.636 333.426 639.461 332.492 640.171 334.272C640.472 334.574 641.433 334.59 641.641 334.565C642.886 334.497 643.995 333.888 645.056 333.307C648.064 331.538 650.804 336.176 647.796 337.945C645.751 339.268 643.21 339.895 640.864 339.267C640.451 339.156 640.048 339.008 639.674 338.827L639.693 338.832Z" fill="#ECCF28"/>
<path d="M624.313 291.956C626.232 288.849 630.411 288.117 633.766 288.956C634.936 289.169 635.663 290.511 635.385 291.623C634.869 293.698 632.66 293.388 631.079 292.904C629.645 292.701 628.455 292.865 627.237 293.504C626.867 294.512 626.052 294.776 625.301 294.575C624.288 294.303 623.449 293.153 624.313 291.956Z" fill="#ECCF28"/>
<path d="M604.851 294.548C602.278 293.416 603.046 287.545 606.295 288.859C607.775 289.718 607.185 291.391 606.193 292.392L606.212 292.397C606.171 292.548 606.117 292.674 606.063 292.8C606.048 292.857 606.028 292.932 606.008 293.007C606.703 293.716 605.934 294.858 605.09 294.632C604.996 294.607 604.921 294.587 604.837 294.524L604.851 294.548Z" fill="#ECCF28"/>
<path d="M607.545 281.789C606.856 279.331 609.936 277.822 611.935 277.493C615.336 277.036 615.444 282.417 612.027 282.105C611.58 282.046 611.074 281.91 610.642 282.096C610.206 282.744 609.383 282.966 608.688 282.78C608.2 282.649 607.768 282.312 607.545 281.789Z" fill="#ECCF28"/>
<path d="M640.563 290.093C639.333 286.424 644.496 286.298 646.797 287.096C650.886 288.875 647.641 293.78 643.991 291.112C643.442 291.508 642.738 291.581 642.119 291.416C641.443 291.234 640.825 290.767 640.568 290.074L640.563 290.093Z" fill="#ECCF28"/>
<path d="M654.068 305.603C654.068 305.603 654.073 305.584 654.078 305.565C651.305 302.851 656.269 300.317 658.36 302.648C661.18 305.034 658.225 308.105 655.898 307.481C655.147 307.28 654.478 306.699 654.068 305.603Z" fill="#ECCF28"/>
<path d="M660.618 331.079C659.445 330.202 659.329 328.46 660.331 327.421C660.906 326.851 661.329 326.401 661.591 325.646C662.067 324.546 663.429 324.267 664.302 325.065C666.318 327.074 664.364 332.264 661.493 331.495C661.211 331.419 660.907 331.278 660.599 331.074L660.618 331.079Z" fill="#ECCF28"/>
<path d="M612.456 342.137C611.367 341.322 611.342 339.465 612.446 338.573C614.775 337.085 615.262 339.247 616.735 340.206C617.813 340.836 619.348 340.966 620.882 341.095C623.734 341.336 626.549 341.567 626.472 345.008C625.938 347.902 623.296 348.301 620.425 347.532C617.028 346.622 613.342 344.085 612.451 342.156L612.456 342.137Z" fill="#ECCF28"/>
<path d="M579.444 313.172C578.265 311.789 580.981 307.809 582.407 309.62C582.799 310.409 581.769 310.575 581.65 311.167C582.084 312.551 581.419 313.982 580.293 313.681C580.03 313.61 579.75 313.455 579.457 313.195L579.444 313.172Z" fill="#ECCF28"/>
<path d="M592.602 348.668C590.322 347.796 588.007 343.896 591.431 342.982C593.092 342.864 595.005 342.33 596.34 343.654C598.706 345.857 596.138 349.736 593.398 349.002C593.135 348.932 592.883 348.824 592.607 348.649L592.602 348.668Z" fill="#ECCF28"/>
<path d="M653.807 351.245C653.172 349.787 653.498 348.044 654.606 346.912C655.047 346.467 655.581 346.127 656.154 345.939C659.618 340.368 667.218 346.388 662.353 350.88C660.696 352.488 658.2 353.992 656.173 353.449C655.235 353.197 654.407 352.533 653.807 351.245Z" fill="#ECCF28"/>
<path d="M671.088 317.004C668.269 314.538 672.557 310.698 674.622 313.726C676.755 315.826 674.628 318.657 672.564 318.104C672.057 317.968 671.526 317.624 671.088 317.004Z" fill="#ECCF28"/>
<path d="M665.115 291.702C662.147 289.639 664.483 287.831 666.956 289.56C668.579 290.558 667.249 292.596 665.898 292.234C665.616 292.158 665.36 291.989 665.115 291.702Z" fill="#ECCF28"/>
<path d="M620.815 273.856C620.272 270.552 625.489 268.65 626.551 272.194C627.33 274.616 624.513 276.195 622.524 275.662C621.717 275.446 621.048 274.864 620.834 273.861L620.815 273.856Z" fill="#ECCF28"/>
<path d="M640.433 281.869C639.011 280.12 641.355 278.052 643.134 279.072C645.947 280.51 643.82 283.642 641.849 283.114C641.343 282.978 640.845 282.583 640.428 281.888L640.433 281.869Z" fill="#ECCF28"/>
<path d="M593.228 280.347C591.612 278.043 595.614 276.097 597.246 277.661C598.715 278.86 597.609 281.561 595.678 280.662C595.229 280.984 594.657 281.092 594.132 280.952C593.775 280.856 593.449 280.648 593.209 280.342L593.228 280.347Z" fill="#ECCF28"/>
<path d="M580.958 292.431C579.082 289.072 584.262 286.556 586.384 289.298C588.761 290.86 586.754 294.749 584.109 293.658C583.645 293.815 583.145 293.802 582.676 293.676C581.982 293.49 581.344 293.017 580.963 292.412L580.958 292.431Z" fill="#ECCF28"/>
<path d="M579.873 324.332C577.338 321.48 580.513 318.488 582.955 321.537C585.076 323.232 582.94 325.798 581.101 325.305C580.65 325.185 580.207 324.885 579.854 324.327L579.873 324.332Z" fill="#ECCF28"/>
<path d="M592.25 340.224C590.841 338.277 593.564 336.069 595.346 337.452C597.429 339.137 595.331 341.713 593.492 341.221C593.041 341.1 592.604 340.781 592.25 340.224Z" fill="#ECCF28"/>
<path d="M612.416 322.168L612.442 322.295C611.112 318.7 617.378 314.986 619.181 318.991C620.101 321.189 618.285 323.237 616.069 323.247C615.431 323.68 614.693 323.804 613.999 323.618C613.304 323.432 612.714 322.932 612.421 322.149L612.416 322.168Z" fill="#ECCF28"/>
<path d="M632.847 311.606C632.791 310.163 633.704 308.858 634.123 307.522C634.671 305.999 637.064 306.077 637.462 307.672C637.777 309.346 636.051 310.533 635.294 311.86C635.102 312.573 634.372 312.82 633.772 312.659C633.303 312.533 632.899 312.164 632.847 311.606Z" fill="#ECCF28"/>
<path d="M598.635 309.038C596.954 304.202 605.149 303.42 606.367 307.509C607.222 310.172 603.88 312.436 601.722 310.731C601.301 310.799 600.887 310.769 600.493 310.663C599.704 310.452 599.012 309.884 598.635 309.038Z" fill="#ECCF28"/>
<path d="M634.933 305.546C632.53 302.729 635.531 300.314 638.487 300.542C641.98 300.493 641.998 305.829 638.496 305.837C637.8 306.334 636.94 306.466 636.152 306.255C635.701 306.134 635.281 305.901 634.933 305.546Z" fill="#ECCF28"/>
<path d="M640.02 323.95C641.87 320.422 647.47 321.52 647.969 325.437C648.571 329.421 645.387 330.72 642.74 330.011C640.413 329.388 638.522 327.211 640.02 323.95Z" fill="#ECCF28"/>
<path d="M643.968 304.486C642.834 303.237 645.231 301.424 646.115 302.929C646.771 304.01 645.458 305.006 644.444 304.734C644.275 304.689 644.098 304.601 643.973 304.467L643.968 304.486Z" fill="#ECCF28"/>
<path d="M614.944 293.892C610.046 291.674 615.788 284.662 618.89 289.074C620.246 291.369 617.885 294.7 615.314 294.011C615.183 293.976 615.07 293.946 614.962 293.897L614.944 293.892Z" fill="#ECCF28"/>
<path d="M651.708 287.909C648.882 287.795 649.371 283.419 652.151 284.003C653.024 283.976 653.913 284.335 654.592 284.879C656.625 286.45 654.662 289.123 652.785 288.62C652.41 288.519 652.046 288.301 651.708 287.909Z" fill="#ECCF28"/>
<path d="M662.484 303.17C660.946 301.329 663.119 298.25 665.344 299.329C668.529 300.806 666.29 304.733 663.85 304.079C663.4 303.959 662.914 303.668 662.484 303.17Z" fill="#ECCF28"/>
<path d="M659.711 319.75C655.811 315.466 664.366 312.587 663.884 318.293C663.703 319.794 662.061 320.742 660.747 320.39C660.372 320.289 660.021 320.095 659.711 319.75Z" fill="#ECCF28"/>
<path d="M633.667 347.358C633.618 345.212 635.622 343.516 637.69 343.829C639.755 342.953 642.32 343.741 642.951 346.043C643.79 349.065 640.829 351.108 638.042 350.623C637.464 350.83 636.86 350.829 636.297 350.678C634.852 350.291 633.698 348.895 633.648 347.353L633.667 347.358Z" fill="#ECCF28"/>
<path d="M663.571 341.307C661.389 340.441 660.931 337.421 662.719 335.928C665.219 333.278 669.435 336.762 667.48 339.779C667.49 339.741 667.495 339.723 667.505 339.685C666.889 341.009 665.354 341.785 663.89 341.392C663.777 341.362 663.664 341.332 663.552 341.302L663.571 341.307Z" fill="#ECCF28"/>
<path d="M571.768 303.53C571.842 300.552 575.641 299.739 575.722 303.04C576.026 305.133 574.335 306.189 573.053 305.866C572.265 305.655 571.641 304.904 571.75 303.525L571.768 303.53Z" fill="#ECCF28"/>
<path d="M591.394 328.929C590.004 326.383 592.961 324.057 594.594 326.748C596.266 328.463 594.234 330.494 592.619 330.062C592.132 329.931 591.699 329.594 591.394 328.929Z" fill="#ECCF28"/>
<path d="M587.245 314.236C586.312 312.236 589.534 310.423 590.506 312.575C591.483 314.184 589.71 315.621 588.359 315.259C587.908 315.138 587.494 314.806 587.245 314.236Z" fill="#ECCF28"/>
<path d="M566.784 326.036C563.874 322.782 569.421 319.198 571.477 323.008C573.325 325.495 570.652 328.039 568.456 327.45C567.818 327.279 567.213 326.835 566.765 326.031L566.784 326.036Z" fill="#ECCF28"/>
<path d="M582.005 340.396C580.431 337.64 585.631 337.223 584.743 340.164C584.475 340.937 583.603 341.267 582.871 341.071C582.514 340.975 582.193 340.748 582.005 340.396Z" fill="#ECCF28"/>
<path d="M618.806 329.775C619.365 327.39 623.045 328.295 622.453 330.652C622.193 331.849 621.083 332.236 620.145 331.985C619.207 331.733 618.513 330.944 618.782 329.789L618.806 329.775Z" fill="#ECCF28"/>
<path d="M621.432 312.994C619.405 310.5 623.328 307.346 625.292 309.924C626.921 311.95 624.623 314.372 622.652 313.844C622.221 313.729 621.792 313.453 621.432 312.994Z" fill="#ECCF28"/>
<path d="M620.005 288.065C618.981 286.182 620.829 284.464 622.389 283.674C625.531 282.082 627.262 287.032 623.891 287.9C623.478 288.916 622.284 289.32 621.289 289.053C620.764 288.913 620.288 288.584 620.005 288.065Z" fill="#ECCF28"/>
</g>
<defs>
<clipPath id="clip0_49_205">
<rect width="559" height="1690" fill="white" transform="translate(438.226 0.452759) rotate(15)"/>
</clipPath>
</defs>
</svg>
