<svg width="989" height="1715" viewBox="0 0 989 1715" fill="none" xmlns="http://www.w3.org/2000/svg">
<g clip-path="url(#clip0_49_47)">
<path d="M686.349 1246.53C700.402 1252.11 690.118 1259.21 681.962 1264.02C667.994 1273.06 657.158 1285.19 644.333 1295.54C613.506 1320.1 575.838 1337.65 536.866 1343.5C510.578 1346.81 484.019 1342.66 458.908 1334.9C436.397 1328.05 414.885 1318.66 394.442 1307.37C391.8 1306.9 389.109 1306.92 386.491 1306.43C386.435 1306.42 386.361 1306.4 386.305 1306.38C369.95 1317.8 356.466 1333.2 345.731 1349.56C343.067 1353.71 340.603 1357.93 338.249 1362.26C331.17 1387.49 322.462 1412.26 311.739 1436.23C294.627 1476.62 271.176 1513.99 253.695 1554.2C248.472 1566.26 243.726 1578.47 239.528 1590.05C236.354 1599.3 233.416 1608.63 230.789 1618.06C229.96 1621.01 226.865 1622.83 223.879 1622.01C220.908 1621.21 219.142 1618.07 219.933 1615.12C230.858 1564.69 253.587 1518.42 278.141 1473.44C306.336 1421.18 326.149 1365.59 337.417 1307.56C347.914 1255.61 354.038 1203.04 359.78 1150.4C358.113 1136.49 357.395 1122.16 352.739 1108.71C346.282 1085.41 340.072 1062.07 334.631 1038.55C333.487 1040 331.639 1040.87 329.681 1040.23C313.704 1035.67 300.855 1024.86 287.353 1015.66C273.35 1005.52 259.951 993.863 249.029 980.54C221.797 947.552 207.668 905.487 203.662 863.307C201.728 809.235 227.512 759.363 234.155 706.414C236.319 696.557 234.851 685.987 238.155 676.556C247.325 665.809 254.761 685.307 259.957 691.101C274.961 712.07 288.964 733.806 302.454 755.823C322.572 785.491 341.385 815.945 352.575 850.112C365.961 892.276 368.369 937.673 356.479 980.413C352.202 994.961 347.72 1012.06 339.761 1025.35C341.844 1033.99 344.115 1042.6 346.39 1051.2C351.722 1073.2 359.93 1095.02 363.338 1117.44C368.996 1065.64 375.054 1013.91 385.295 962.762C401.986 866.519 435.835 773.698 479.383 686.583C503.293 641.108 531.679 598.168 557.344 553.721C569.187 532.258 580.944 510.892 589.619 488.022C590.77 484.248 591.822 480.547 592.321 476.677C592.619 474.526 594.646 472.978 596.777 473.271C598.927 473.568 600.474 475.596 600.181 477.728C597.7 498.951 587.044 519.178 577.818 537.936C545.273 600.257 501.532 656.669 473.402 721.387C430.419 818.95 404.05 922.856 387.769 1027.97C374.924 1110.83 369.815 1194.68 356.393 1277.46C363.79 1249.11 376.945 1222.3 393.093 1198.07C401.62 1187.57 408.106 1174.21 418.465 1165.41C413.928 1149.06 416.238 1131.08 416.658 1114.28C419.324 1083.83 422.863 1052.19 439.149 1025.59C487.71 947.623 593.623 950.111 672.596 925.804C677.529 923.74 685.026 921.985 685.671 929.606C684.606 936.331 681.805 942.77 680.465 949.481C674.268 974.17 670.027 999.581 659.866 1023.09C648.233 1048.45 632.047 1071.64 614.237 1092.94C565.181 1150.31 500.963 1190.72 423.708 1170.36C423.557 1170.7 423.393 1171.01 423.268 1171.26C417.244 1184.08 408.936 1195.7 400.92 1207.12C390.439 1223.13 381.739 1240 374.525 1257.48C364.983 1283.07 356.418 1308.19 346.525 1333.23C355.564 1318.66 366.556 1305.28 382.29 1298.64C382.32 1298.53 382.349 1298.41 382.411 1298.33C382.421 1298.29 382.426 1298.27 382.431 1298.26C384.243 1291.79 388.46 1284.6 394.282 1277.13C413.562 1243.15 445.351 1215.22 482.043 1202.42C528.841 1186.09 580.136 1198.95 624.664 1216.72C646.206 1224.58 665.307 1237.55 686.303 1246.48L686.349 1246.53Z" fill="#436449"/>
<path d="M778.313 315.444C774.545 342.137 750.669 358.583 728.227 369.757C692.768 388.796 649.886 386.208 612.605 374.008C566.913 362.144 542.167 310.224 552.988 265.902C554.555 258.196 556.397 250.504 557.983 242.804C558.43 240.613 560.091 238.947 562.146 238.482C562.523 193.912 526.398 165.292 536.318 118.239C538.695 99.0399 548.054 79.3413 566.415 70.9969C588.732 60.0681 612.807 68.7297 617.16 94.5323C622.669 93.4391 624.74 86.5256 628.714 82.9897C643.459 68.0007 668.092 65.5192 687.287 72.3354C696.648 76.1782 710.27 78.5336 714.163 89.1165C715.531 95.3782 713.415 101.862 715.078 108.063C717.011 112.066 721.315 115.171 725.504 116.552C728.359 116.222 731.108 115.325 733.934 114.808C756.056 109.882 787.931 114.618 778.338 144.551C781.064 145.819 783.264 146.747 786.155 145.988C793.296 144.596 800.477 143.054 807.812 143.466C814.324 143.16 819.992 147.786 820.618 154.366C822.13 162.319 818.35 169.811 814.279 176.388C806.43 188.743 797.162 200.301 791.052 213.74C773.68 245.293 782.679 281.541 778.308 315.462L778.313 315.444Z" fill="#FF8C4E"/>
<path d="M587.739 152.85C604.619 169.422 619.474 195.33 607.112 218.585C598.777 235.651 581.215 245.623 571.556 261.537C566.328 271.389 565.281 282.799 565.022 293.723C565.116 297.532 565.82 301.366 565.916 305.096C566.236 306.576 565.279 308.291 563.673 308.637C562.47 308.892 561.397 308.366 560.725 307.529C536.163 333.968 497.283 357.527 460.311 345.589C438.92 339.24 423.38 321.832 416.981 300.838C414.029 292.539 414.016 283.374 408.613 276.051C401.061 263.671 384.244 256.377 384.729 239.857C384.613 232.119 390.536 225.839 394.278 219.672C400.881 209.591 390.282 198.924 389.729 188.36C385.647 169.421 393.417 152.085 407.928 139.981C411.295 136.7 414.762 133.567 418.933 131.299C425.304 128.027 432.732 129.28 439.625 129.852C448.019 131.365 456.356 133.758 464.381 136.645C467.894 137.427 471.673 140.929 475.192 139.98C484.379 131.548 487.505 120.177 493.72 109.912C503.651 91.6416 524.385 95.4645 539.974 103.704C550.627 109.487 555.598 120.876 561.225 130.928C570.833 137.864 580.163 143.013 587.734 152.868L587.739 152.85Z" fill="#EA8E19"/>
<path d="M926.09 344.007C931.533 354.746 930 368.715 922.245 377.969C917.182 385.794 909.386 392.01 899.587 391.137C883.954 390.712 870.619 381.642 857.079 374.967C844.03 368.543 830.803 365.158 816.539 363.566C815.281 364.544 813.559 364.879 811.93 364.423C804.259 362.666 800.508 372.874 795.677 377.235C788.356 384.794 779.18 390.958 768.371 391.328C761.239 391.867 753.17 393.23 746.85 389.107C738.682 384.748 742.519 375.479 742.461 368.194C737.755 348.312 721.865 331.985 718.9 311.254C718.041 302.719 721.062 294.049 720.936 285.75C717.591 267.328 704.253 250.689 706.876 231.316C708.533 212.501 716.345 190.556 733.781 181.127C745.869 175.762 759.529 177.75 772.022 174.067C778.964 171.784 786.485 169.717 791.543 164.141C798.306 156.952 804.253 148.428 813.065 143.699C829.926 138.498 849.355 145.556 862.089 157.094C869.189 164.991 873.304 175.414 877.718 184.942C881.562 195.412 877.674 206.579 878.819 217.162C898.085 225.053 924.475 227.006 934.907 247.506C943.4 268.782 942.528 294.399 926.401 311.866C921.732 316.809 915.398 320.389 911.681 326.165C914.562 333.39 922.697 336.983 926.066 344.02L926.09 344.007Z" fill="#EA8E19"/>
<path d="M800.956 337.922C810.062 340.561 812.469 353.494 805.035 359.249C798.694 364.043 790.768 364.946 783.05 365.149C766.798 366.59 750.134 367.86 734.906 374.176C693.043 396.757 643.464 400.739 598.4 385.717C552.637 373.375 533.036 342.889 537.848 296.181C537.861 284.394 539.742 272.988 541.044 261.368C541.993 254.114 541.742 246.359 544.689 239.52C549.761 230.025 562.586 221.612 573.196 227.183C576.971 229.589 578.677 234.069 581.399 237.507C587.414 235.116 589.484 228.281 593.37 223.587C596.958 218.812 602.277 214.86 608.076 213.427C614.787 210.744 622.089 214.991 626.007 220.502C629.098 224.198 629.293 231.121 634.126 232.994C638.733 228.95 642.634 223.901 648.806 222.189C653.973 220.288 659.959 217.709 665.061 221.108C671.861 225.001 670.639 234.094 674.365 239.872C682.821 236.92 690.87 231.469 700.048 233.47C707.319 235.458 713.63 241.77 713.811 249.565C713.621 261.046 710.728 261.665 722.487 267.703C729.158 270.666 734.86 263.949 741.81 264.237C746.766 264.091 752.041 264.39 756.39 267.029C769.409 273.863 757.025 282.933 755.85 291.998C757.972 295.594 760.386 300.702 764.922 301.38C772.032 300.995 779.561 299.865 786.355 302.741C790.93 304.166 793.715 308.557 794.847 313.023C796.064 321.335 786.974 326.209 784.151 333.18C784.862 333.868 785.784 334.514 786.794 334.685C791.594 335.194 796.533 335.781 800.909 337.949L800.956 337.922Z" fill="#F6F4EA"/>
<path d="M750.548 304.061C754.151 308.073 754.744 314.107 751.817 318.641C743.816 332.748 732.246 345.84 717.773 353.274C687.657 365.3 653.098 359.286 622.813 350.474C600.491 343.736 581.872 331.279 581.271 305.884C578.311 286.549 580.922 265.66 594.579 250.797C598.861 247.224 606.477 246.955 610.49 250.998C614.44 254.606 615.533 259.519 617.311 264.098C623.75 256.861 637.014 247.549 645.925 255.673C650.237 261.349 650.882 269.269 654.555 275.173C660.116 271.285 666.036 265.682 673.334 266.602C684.014 269.165 686.953 276.326 687.673 286.417C704.38 279.263 721.739 271.685 721.219 297.994C731.06 298.042 743.281 295.521 750.516 304.032L750.548 304.061Z" fill="#303938"/>
<path d="M904.793 353.875C925.573 354.703 930.258 373.843 920.16 389.838C906.829 412.177 896.958 436.757 880.404 456.858C834.754 508.955 784.173 517.269 718.806 504.614C696.16 501.394 673.571 495.58 651.636 490.001C639.754 487.316 627.725 485.108 615.654 483.427C614.038 482.994 612.55 483.273 611.155 483.875C610.28 484.317 609.437 484.789 608.561 485.311C608.513 485.338 608.466 485.365 608.419 485.392C607.933 485.72 607.442 486.066 606.956 486.394C606.744 486.517 606.561 486.607 606.345 486.669C604.091 491.143 597.627 491.941 594.409 488.051C579.037 468.159 552.238 461.635 531.821 449.054C503.227 432.371 474.826 413.628 452.995 388.42C442.735 375.374 431.573 361.31 424.945 346.15C415.292 323.708 407.906 299.641 408.401 275.058C408.374 265.133 413.044 244.138 426.713 250.848C436.094 256.329 437.921 267.932 445.407 274.837C454.946 275.939 464.154 273.965 472.386 269.021C479.173 264.048 487.087 260.293 495.692 261.165C506.272 262.466 516.162 269.239 522.745 277.436C529.152 287.995 531.584 300.537 533.404 312.616C533.869 335.026 532.531 358.368 543.728 378.615C551.752 396.141 566.754 408.724 577.951 423.993C588.936 439.384 598.208 456.267 602.888 474.609C608.239 464.372 617.249 456.45 626.852 450.18C653.616 428.673 688.961 426.851 718.669 411.669C725.128 408.142 731.51 404.455 737.525 400.211C748.972 389.954 758.38 377.578 772.355 370.887C784.864 357.19 800.097 344.025 819.561 341.513C838.361 336.433 846.639 342.833 856.592 358.286C862.114 365.462 871.337 369.228 880.253 367.753C888.153 362.859 894.51 353.768 904.822 353.843L904.793 353.875Z" fill="#FF8C4E"/>
<path d="M782.27 360.259C790.067 415.186 714.929 450.141 670.396 459.658C652.938 463.524 635.815 462.421 619.879 470.26C612.734 473.005 607.298 478.36 602.035 483.662C598.302 487.043 591.607 485.807 590.619 480.503L590.604 480.559C590.38 479.463 590.456 478.289 590.833 477.254C590.311 473.331 588.42 469.617 587.021 466.295C582.088 450.753 568.511 442.136 556.282 432.725C518.576 401.611 500.455 327.786 520.331 283.102C527.826 267.166 545.007 257.65 562.369 262.242C580.065 263.359 594.058 278.52 598.1 295.158C601.816 305.733 602.332 317.104 609.98 325.486C623.056 336.638 642.876 332.429 657.539 327.037C687.911 312.571 723.572 310.236 755.229 321.507C771.576 326.544 779.738 344.524 782.283 360.283L782.27 360.259Z" fill="#EA8E19"/>
<path d="M431.791 1160.7C425.569 1153.83 458.614 1136.3 463.662 1131.8C484.205 1116.05 504.884 1100.24 521.455 1080.22C571.498 1014.11 588.92 974.424 668.308 934.454C669.908 933.608 671.746 933.284 673.34 932.536C674.385 931.461 676.245 931.502 676.966 932.97C678.298 936.394 673.276 936.342 671.484 938.053C608.197 974.769 571.849 1023.42 529.584 1080.79C505.807 1110.17 475.196 1132.95 443.965 1153.52C441.152 1155.78 438.44 1158.1 435.85 1160.63C434.774 1161.68 432.909 1161.65 431.796 1160.68L431.791 1160.7Z" fill="#1A341F"/>
<path d="M319.55 1015.49C315.947 995.205 310.609 975.232 307.707 954.858C303.497 923.397 302.921 890.999 294.878 860.244C281.563 809.197 251.416 761.386 251.324 707.569C251.503 706.382 252.323 704.212 253.913 704.518C255.034 704.719 255.494 706.196 254.632 706.961C255.895 721.341 260.722 734.902 264.309 748.63C264.273 748.54 264.27 748.48 264.234 748.39C273.957 783.499 291.617 815.954 301.47 851.097C311.145 883.264 311.943 916.539 315.488 949.593C317.195 966.701 320.634 983.953 322.886 1000.81C323.621 1005.35 324.301 1009.79 325.083 1014.3C325.356 1015.81 324.491 1017.33 322.932 1017.65C321.471 1017.98 319.836 1017.02 319.568 1015.49L319.55 1015.49Z" fill="#1A341F"/>
<path d="M415.055 1288.54C414.263 1286.29 416.38 1284.93 418.199 1284.38C420.224 1283.51 422.579 1282.45 424.313 1281.7C430.91 1278.84 438.024 1275.47 444.021 1271.96C483.596 1246.48 531.681 1237.07 577.96 1244C599.656 1246.09 620.915 1248.1 642.439 1250.38C647.757 1251.71 670.443 1250.69 668.551 1258.57C667.818 1260.27 665.199 1260.16 664.613 1258.41C639.234 1254.02 613.191 1254.12 587.516 1251.8C553.594 1248.38 518.768 1247.16 486.635 1260.1C465.749 1266.95 448.064 1279.75 427.514 1287.13C423.774 1287.65 417.537 1292.94 415.055 1288.54Z" fill="#1A341F"/>
<path d="M437.142 1280.47C436.692 1280.07 436.502 1279.45 436.675 1278.87C441.698 1271.72 444.807 1263.01 448.877 1255.18C452.468 1247.2 456.415 1239.45 460.214 1231.59C460.988 1229.96 462.96 1229.22 464.612 1229.96C466.26 1230.72 466.958 1232.72 466.235 1234.38C459.017 1250.47 453.46 1268.24 439.497 1279.93C439.137 1280.83 437.868 1281.11 437.142 1280.47Z" fill="#1A341F"/>
<path d="M501.464 1323.1C492.435 1313.41 483.754 1302.72 473.37 1294.52C464.371 1287.99 454.342 1283.07 444.344 1278.26C441.345 1277.12 442.002 1273.63 444.991 1274.73C457.549 1279.35 470.016 1285.42 480.523 1293.83C489.494 1301.73 496.942 1311.15 504.86 1320.09C506.829 1322.25 503.418 1325.32 501.483 1323.11L501.464 1323.1Z" fill="#1A341F"/>
<path d="M495.839 1255.61C491.454 1252.88 496.976 1249.07 499.592 1247.48C506.597 1241.98 513.305 1235.89 519.283 1229.41C523.296 1224.91 527.354 1220.46 531.206 1215.82C532.196 1214.65 533.978 1214.39 535.27 1215.21C536.682 1216.11 537.18 1218.11 536.223 1219.53C529.587 1229.36 508.053 1257.13 495.714 1255.56L495.821 1255.61L495.839 1255.61Z" fill="#1A341F"/>
<path d="M566.983 1304.73C549.151 1284.36 528.295 1263.23 500.993 1257.25C497.479 1256.55 498.557 1251.04 502.094 1251.73C520.442 1252.64 535.281 1266.36 549.091 1277.15C557.335 1284.2 563.936 1292.92 571.047 1301.08C573.372 1303.69 569.335 1307.39 566.983 1304.73Z" fill="#1A341F"/>
<path d="M562.104 1247.16C560.229 1246.87 559.378 1244.26 561.678 1243.92C565.601 1242.58 569.263 1240.87 572.784 1238.73C580.35 1234.26 587.252 1229.08 593.229 1222.68C593.902 1222.02 595.068 1222.05 595.748 1222.63C599.04 1228.77 568.502 1250.03 562.109 1247.14L562.104 1247.16Z" fill="#1A341F"/>
<path d="M620.491 1299.01C607.602 1274.6 594.834 1257.32 567.062 1249.9C563.351 1249.56 565.028 1243.9 568.373 1245.75C598.815 1251.98 611.929 1270.27 624.599 1296.9C625.963 1299.54 621.864 1301.69 620.491 1299.01Z" fill="#1A341F"/>
<path d="M472.926 1130.14C471.274 1129.61 470.325 1127.81 470.843 1126.17C474.555 1119.6 477 1112.41 479.095 1105.18C484.712 1081.17 480.285 1056.39 479.573 1032.08C479.302 1029.08 484.035 1028.57 484.286 1031.65C486.895 1063.81 491.89 1097.99 476.899 1128.01C476.432 1129.68 474.583 1130.64 472.926 1130.14Z" fill="#1A341F"/>
<path d="M509.531 1096.87C507.286 1095.81 509.392 1093.74 510.853 1093.12C535.447 1077.48 564.591 1073.32 593.057 1070.87C595.444 1070.65 595.828 1074.42 593.366 1074.62C574.335 1076.85 554.829 1077.66 536.649 1084.22C525.777 1087.5 518.63 1092.25 509.512 1096.86L509.531 1096.87Z" fill="#1A341F"/>
<path d="M543.345 1049.86C548.641 1038.2 552.055 1025.83 553.625 1012.98C555.242 1002.86 557 992.737 558.575 982.624C559.083 979.613 563.819 980.364 563.296 983.431C559.817 1004.29 559.801 1026.49 550.318 1045.76C549.59 1047.43 548.481 1048.45 548.249 1050.06C547.824 1052.83 543.568 1052.67 543.345 1049.86Z" fill="#1A341F"/>
<path d="M582.336 1007.91C575.972 1003.06 622.913 988.79 627.442 988.231C636.696 986.309 645.909 984.317 655.176 982.498C656.289 982.278 657.402 982.955 657.64 984.074C657.887 985.156 657.177 986.32 656.063 986.539C646.789 988.316 637.522 990.135 628.262 991.856C612.302 994.809 596.429 1000.93 582.346 1007.87L582.336 1007.91Z" fill="#1A341F"/>
<path d="M312.313 977.641C309.37 975.398 309 971.057 307.425 967.947C305.222 962.795 301.983 958.243 298.078 954.468C280.372 939.567 256.948 934.346 236.552 924.061C233.724 922.805 235.73 918.364 238.581 919.685C268.619 933.43 308.219 938.982 315.705 976.718C315.308 978.125 313.386 978.685 312.313 977.641Z" fill="#1A341F"/>
<path d="M314.162 980.546C312.489 979.361 313.004 977.288 313.29 975.552C315.811 960.574 318.791 945.44 326.016 931.921C329.483 925.222 333.053 918.511 336.696 911.899C337.206 910.96 338.499 910.669 339.42 911.095C340.424 911.583 341.021 912.918 340.463 913.964C334.211 926.15 326.966 938.11 323.303 951.408C321.272 959.508 319.941 967.596 318.482 975.789C318.27 978.141 317.387 982.326 314.175 980.569L314.162 980.546Z" fill="#1A341F"/>
<path d="M302.549 885.402C300.675 873.528 292.627 864.262 284.659 855.813C272.363 842.939 258.822 831.663 245.846 819.542C244.808 818.587 244.62 816.983 245.535 815.874C246.453 814.826 248.153 814.644 249.196 815.581C266.873 831.928 286.72 846.786 299.909 867.249C301.809 869.889 309.282 887.246 303.733 887.153C302.971 886.949 302.467 886.157 302.526 885.416L302.549 885.402Z" fill="#1A341F"/>
<path d="M301.224 871.704C302.478 851.347 311.571 832.493 317.967 813.375C318.793 810.888 319.78 807.129 323.201 808.106C324.872 808.633 325.917 810.526 325.361 812.229C319.484 832.084 310.482 851.341 306.867 871.742C307.94 876.65 300.096 876.58 301.242 871.709L301.224 871.704Z" fill="#1A341F"/>
<path d="M274.563 801.147C271.024 791.695 263.707 784.457 257.348 776.838C253.968 772.885 250.583 768.95 247.156 765.025C246.241 763.983 246.315 762.37 247.366 761.417C248.389 760.496 250.039 760.579 250.959 761.603C255.972 767.188 260.962 772.787 265.894 778.45C269.038 782.021 283.973 800.721 277.472 803.739C275.898 804.114 274.457 802.732 274.605 801.139L274.563 801.147Z" fill="#1A341F"/>
<path d="M273.811 788.797C272.089 773.976 278.442 759.108 280.606 744.492C280.825 743.455 281.793 742.739 282.844 742.901C283.872 743.077 284.61 744.111 284.416 745.135C282.332 756.327 280.082 767.474 277.943 778.652C277.285 782 277.176 784.859 276.836 788.134C277.054 789.845 274.407 790.51 273.811 788.797Z" fill="#1A341F"/>
</g>
<defs>
<clipPath id="clip0_49_47">
<rect width="589" height="1617" fill="white" transform="translate(419.29 0.326782) rotate(15)"/>
</clipPath>
</defs>
</svg>
