<svg width="860" height="1240" viewBox="0 0 860 1240" fill="none" xmlns="http://www.w3.org/2000/svg">
<g clip-path="url(#clip0_49_429)">
<path d="M297.542 1163.62C300.09 1155.83 302.291 1147.95 304.673 1140.12C313.352 1108.95 325.417 1078.82 333.61 1047.52C339.513 1022.99 343.225 998.185 346.135 973.315C326.604 951.542 302.579 934.148 284.125 911.577C272.65 896.429 264.51 878.781 257.727 861.183C229.817 796.361 242.863 724.828 260.742 659.16C273.612 607.959 293.433 558.278 299.794 505.631C300.544 501.054 300.718 496.292 302.028 491.849C303.775 487.717 310.524 488.603 311.023 493.188C311.049 498.316 310.331 503.497 310.569 508.667C308.63 574.379 304.912 640.894 317.117 705.795C323.151 733.36 336.737 758.586 344.633 785.369C355.768 824.468 346.955 865.531 347.663 905.245C348.107 916.261 348.469 927.806 349.801 938.732C350.811 928.404 351.797 918.054 352.853 907.722C356.943 874.668 361.734 841.727 367.627 808.948C383.439 722.033 410.089 637.248 443.864 555.668C460.48 515.058 474.576 472.567 491.625 432.341C493.537 428.372 493.438 420.962 499.46 422.278C501.768 423.001 502.921 425.423 502.311 427.701C500.133 435.439 497.618 443.102 495.337 450.783C483.382 490.007 473.257 529.795 458.834 568.224C442.076 616.983 422.476 664.505 406.635 713.451C388.735 764.137 378.945 817.071 371.268 870.125C366.49 899.571 364.039 929.343 360.404 958.917C369.349 940.1 379.359 921.806 389.961 903.806C406.469 873.379 415.225 839.759 424.634 806.701C435.449 768.616 442.988 729.474 457.682 692.592C484.538 626.381 531.771 571.451 576.184 516.481C579.731 513.248 585.777 516.922 584.219 521.626C583.287 524.324 581.662 526.776 580.502 529.383C572.326 546.664 565.499 564.53 558.273 582.215C547.681 607.513 541.174 633.801 536.325 660.623C527.761 703.256 522.215 747.189 503.988 786.921C489.384 817.634 471.098 845.634 449.821 871.955C435.098 889.327 417.75 904.21 402.816 921.199C387.453 938.401 373.315 957.091 361.856 977.066C359.789 980.888 357.847 984.804 356.001 988.746C349.765 1024.69 341.396 1060.26 329.072 1094.64C322.389 1115.74 315.542 1137.3 307.191 1157.73C305.124 1161.39 305.336 1168.94 299.819 1168.07C298.032 1167.51 296.917 1165.5 297.519 1163.7L297.542 1163.62Z" fill="#699063"/>
<path d="M462.248 803.456C470.598 783.244 477.568 762.454 483.766 741.546C500.53 684.541 509.79 623.411 546.324 574.726C548.171 571.945 550.139 569.213 552.17 566.526C549.608 571.14 546.333 576.247 543.666 581.144C515.512 627.237 510.608 681.838 496.275 732.885C488.55 759.546 478.454 785.662 466.007 810.492C454.481 832.607 439.588 853.448 427.283 874.803C438.769 850.891 451.745 827.81 462.251 803.442L462.248 803.456Z" fill="#53734E"/>
<path d="M511.843 724.923C503.575 736.046 493.705 747.589 484.375 757.728C491.864 745.622 501.321 734.564 511.843 724.923Z" fill="#53734E"/>
<path d="M506.095 753.157C497.066 765.729 483.604 775.504 473.302 786.991C480.769 773.465 494.581 763.44 506.095 753.157Z" fill="#53734E"/>
<path d="M470.933 720.735C474.316 741.739 478.031 765.005 471.848 785.857C474.767 764.294 470.308 742.466 470.933 720.735Z" fill="#53734E"/>
<path d="M463.482 806.407C460.762 782.097 457.792 757.051 455.952 732.843C461.754 756.936 465.597 781.562 463.64 806.374L463.647 806.347C463.657 806.424 463.734 806.578 463.765 806.631L463.89 806.665C463.927 806.749 463.892 806.769 463.836 806.755C463.725 806.725 463.487 806.557 463.469 806.403L463.482 806.407Z" fill="#53734E"/>
<path d="M495.667 635.601C497.678 661.224 496.215 688.417 497.135 714C491.406 688.245 493.71 661.634 495.667 635.601Z" fill="#53734E"/>
<path d="M512.008 651.71C512.553 628.722 517.399 606.023 524.169 584.093C522.566 606.693 516.972 629.683 512.146 651.807C512.142 651.821 512.129 651.817 512.125 651.831C512.121 651.845 512.09 651.851 512.076 651.847C512.024 651.819 512.011 651.756 512.008 651.71Z" fill="#53734E"/>
<path d="M513.604 645.587C518.231 632.878 527.14 621.808 535.699 611.433C530.048 623.406 520.281 634.008 513.673 645.606C513.673 645.606 513.642 645.612 513.628 645.609C513.614 645.605 513.614 645.605 513.604 645.587Z" fill="#53734E"/>
<path d="M527.63 663.057C518.856 678.406 505.524 692.028 493.372 704.641C501.811 688.71 514.264 675.032 527.63 663.057Z" fill="#53734E"/>
<path d="M321.907 873.855C315.77 856.624 304.795 841.774 296.242 825.727C260.207 761.988 277.456 690.166 290.606 622.635C291.766 616.471 293.02 610.182 293.406 603.958C293.778 609.075 292.794 614.915 292.23 620.242C283.612 682.645 281.249 747.827 303.522 807.729C310.128 827.155 320.274 845.207 325.855 865.013C330.13 881.298 330.194 898.956 332.15 915.394C329.004 901.511 326.293 887.446 321.917 873.873L321.907 873.855Z" fill="#53734E"/>
<path d="M315.959 753.807C315.688 777.777 309.919 802.417 307.98 826.163C304.999 801.992 311.16 777.442 315.959 753.807Z" fill="#53734E"/>
<path d="M305.938 838.12C288.811 829.556 273.165 818.576 258.335 806.608C276.61 813.723 293.102 825.66 308.482 837.909C310.135 838.798 311.881 840.621 313.801 840.406C313.918 840.303 313.901 839.644 314.069 839.793C314.037 840.856 312.993 840.919 311.673 840.565C309.588 840.007 306.781 838.421 305.924 838.117L305.938 838.12Z" fill="#53734E"/>
<path d="M305.326 703.217C302.772 728.48 293.914 753.424 292.974 778.554C289.34 753.151 298.259 727.092 305.326 703.217Z" fill="#53734E"/>
<path d="M258.949 698.203C269.137 719.601 275.106 743.739 283.144 765.826C270.424 745.536 265.287 721.13 258.949 698.203Z" fill="#53734E"/>
<path d="M285.416 694.368C284.957 694.245 285.266 692.259 285.28 692.039C289.001 671.704 299.351 652.311 309.298 634.7C303.409 655.289 291.077 673.63 285.445 694.093C285.471 694.16 285.484 694.223 285.497 694.286C285.603 694.225 285.606 694.27 285.577 694.322C285.534 694.37 285.499 694.391 285.443 694.376L285.416 694.368Z" fill="#53734E"/>
<path d="M278.539 681.346C273.705 665.477 273.04 647.836 273.197 631.577C274.647 639.394 275.849 647.249 276.617 655.166C277.982 664.3 276.45 674.355 279.601 682.94C279.601 682.94 279.705 682.998 279.743 683.023C279.802 683.024 279.83 683.031 279.857 683.039C279.924 683.012 280.003 683.108 279.922 683.131C279.845 683.14 279.79 683.125 279.72 683.106C279.039 682.924 278.771 681.869 278.525 681.342L278.539 681.346Z" fill="#53734E"/>
<path d="M288.583 630.966C290.468 615.87 289.04 599.856 291.177 584.931C292.435 600.245 292.649 616.067 288.597 630.97L288.583 630.966Z" fill="#53734E"/>
<path d="M442.626 801.31C443.566 822.15 438.356 842.816 431.128 861.899C434.65 841.749 436.434 820.641 442.626 801.31Z" fill="#53734E"/>
<path d="M436.953 855.332C436.953 855.332 436.915 855.307 436.923 855.279C448.036 840.318 460.668 825.303 475.457 814.081C466.104 830.809 452.01 843.72 437.035 855.25C437.045 855.267 437.052 855.299 437.03 855.323C437.013 855.333 436.985 855.326 436.967 855.336L436.953 855.332Z" fill="#53734E"/>
<path d="M506.638 224.064C491.272 231.826 474.967 238.369 462.045 250.076C455.039 256.655 448.304 263.559 441.858 270.719C461.695 251.992 486.058 237.887 509.556 224.235C508.59 224.17 507.603 224.129 506.638 224.064ZM369.498 475.51C337.969 451.877 361.199 405.536 373.989 377.15C386.156 353.421 398.168 329.546 412.74 307.235C404.672 318.56 397.134 330.236 390.058 342.081C372.61 373.014 326.5 463.274 282.517 442.378C246.826 422.438 275.89 377.78 290.069 352.491C307.302 321.916 333.635 298.737 361.054 277.62C380.949 262.348 401.412 247.57 423.963 236.448C429.629 233.59 435.426 231.02 441.308 228.636C440.088 228.964 438.864 229.306 437.654 229.652C406.167 239.495 377.267 256.3 351.507 276.73C327.108 297.137 306.266 321.281 283.263 343.149C263.693 360.101 237.469 395.934 208.418 381.733C185.776 364.01 204.031 330.568 213.261 309.907C225.086 285.729 239.201 261.956 260.929 245.403C292.687 219.375 332.617 206.762 371.906 197.043C388.48 193.163 468.601 172.799 475.246 190.136C479.671 188.628 483.624 192.441 487.229 194.553C492.847 197.934 499.262 204.119 498.431 211.057C502.268 211.966 505.352 212.465 508.897 212.685C510.6 212.888 511.906 214.072 512.555 215.541C519.196 215.996 525.808 216.442 532.355 217.021C535.365 218.408 535.653 222.445 533.502 224.637C519.856 244.383 506.128 264.151 493.825 284.777C476.234 315.465 463.954 348.84 453.769 382.628C447.825 403.143 441.811 423.921 430.409 442.183C419.421 460.289 399.204 484.377 376.428 478.275C374.149 477.664 371.833 476.746 369.516 475.499L369.498 475.51Z" fill="#C9E3FD"/>
<path d="M462.366 493.01C445.995 479.9 444.722 453.968 444.573 434.456C445.29 412.825 452.635 390.751 460.103 371.106C467.19 352.104 474.273 333.176 483.328 315.058C497.478 284.818 519.894 259.637 539.555 233.063C539.459 230.7 540.941 228.447 543.281 227.496C543.446 227.436 543.632 227.352 543.801 227.278C544.445 226.319 544.807 225.523 545.263 224.544C545.646 222.949 547.988 222.936 548.415 224.51C553.722 221.436 557.091 227.207 557.241 231.981C558.486 240.011 559.622 248.056 560.67 256.093C567.578 309.244 560.459 363.831 539.975 413.319C531.164 437.472 499.85 503.813 467.832 495.234C466.012 494.746 464.185 494.003 462.38 493.013L462.366 493.01Z" fill="#C9E3FD"/>
<path d="M703.263 537.49C644.957 501.785 678.355 385.924 657.291 327.849C650.377 309.129 638.356 291.126 626.617 275.624C620.848 268.139 613.426 262.264 605.164 257.743C604.245 257.006 602.872 256.459 601.458 255.902C610.156 267.075 619.759 277.761 625.631 290.753C634.735 312.307 639.989 335.39 645.585 358.029C651.563 389.359 646.871 422.103 635.075 451.559C626.138 472.686 606.371 511.439 578.561 504.166C529.304 482.214 568.138 371.859 567.714 327.918C569.968 305.165 568.93 282.021 563.38 259.767C562.996 254.587 555.531 242.033 562.939 240.236C560.935 236.097 563.58 230.672 568.145 229.811C573.285 228.97 579.408 226.964 583.839 230.771C585.734 233.095 587.558 235.683 589.341 238.364C590.04 237.256 591.14 236.375 592.666 235.905C598.998 234.342 606.42 231.046 611.178 226.961C614.295 223.777 618.805 222.678 622.907 224.655C663.29 245.093 700.312 275.021 724.178 313.854C744.576 346.175 759.012 381.96 765.599 419.632C769.271 439.835 769.271 460.513 768.127 480.958C767.035 494.54 766.088 508.637 759.303 520.783C750.189 537.232 729.47 545.629 711.599 540.841C708.723 540.07 705.936 538.966 703.259 537.504L703.263 537.49Z" fill="#C9E3FD"/>
<path d="M261.785 307.576C260.969 306.896 260.845 305.582 261.553 304.775C269.533 295.837 277.557 286.792 285.594 277.974C324.057 238.097 377.985 212.264 433.36 207.436C435.783 207.564 440.421 205.874 440.881 209.273C440.789 210.781 439.301 211.276 437.992 211.104C388.856 215.385 341.572 235.987 303.689 267.252C289.424 279.358 277.318 293.74 264.58 307.372C264.047 307.974 263.258 308.194 262.535 308C262.257 307.926 262.008 307.8 261.778 307.604L261.785 307.576Z" fill="#A8BCD1"/>
<path d="M331.241 383.382C330.42 382.998 330.074 382.012 330.43 381.184C336.521 367.513 342.421 353.775 348.775 340.234C372.752 288.883 418.19 251.545 468.493 227.345C470.736 226.755 474.273 223.505 475.971 226.118C476.257 226.939 475.833 227.912 474.997 228.195C473.033 228.8 471.545 229.518 469.766 230.321C423.65 253.901 381.665 288.19 356.641 334.169C348.972 348.891 342.096 364.049 335.043 379.086C334.012 380.655 333.784 384.063 331.366 383.415L331.241 383.382Z" fill="#A8BCD1"/>
<path d="M391.655 409.439C390.398 408.85 389.765 407.266 390.39 405.989C401.574 383.872 412.005 361.285 425.319 340.334C449.239 301.369 476.988 264.233 512.398 234.971C513.433 234.221 514.394 232.915 515.798 233.232C517.563 233.928 517.047 235.964 515.53 236.569C476.159 271.052 446.66 314.939 420.385 359.749C411.598 375.81 403.467 391.927 395.082 408.155C394.508 409.296 393.246 409.895 392.05 409.575C391.912 409.538 391.762 409.483 391.631 409.418L391.655 409.439Z" fill="#A8BCD1"/>
<path d="M472.91 431.48C469.642 429.279 474.36 425.348 475.146 422.745C484.04 406.118 493.458 389.646 501.894 372.836C518.136 338.959 530.035 302.891 539.455 266.62C540.779 261.125 541.842 255.544 542.93 249.985C543.105 248.886 543.581 247.554 544.898 247.475C546.331 247.353 547.229 249.172 546.189 250.218C546.189 250.218 546.171 250.228 546.185 250.232C538.274 298.876 522.525 346.983 498.649 390.173C490.997 403.724 483.248 417.19 475.575 430.705C475.112 431.489 474.102 431.814 473.24 431.583C473.143 431.557 473.032 431.527 472.914 431.466L472.91 431.48Z" fill="#A8BCD1"/>
<path d="M594.416 416.146C600.978 368.421 605.187 317.192 584.531 272.327C583.858 270.166 582.372 268.041 582.55 265.767C583.01 264.104 585.689 264.39 585.691 266.162C608.164 313.196 608.668 366.566 598.998 416.942C598.731 418.493 597.292 419.031 596.083 418.707C595.054 418.431 594.19 417.545 594.433 416.136L594.416 416.146Z" fill="#A8BCD1"/>
<path d="M709.963 425.268C708.634 403.326 708.802 380.907 703.251 359.546C692.205 322.004 667.856 288.252 636.393 265.099C632.915 262.514 629.43 259.958 625.848 257.539C625.12 257.032 624.874 256.058 625.362 255.295C627.05 252.383 635.607 261.196 638.014 262.273C681.286 293.995 711.624 345.087 711.84 399.422C712.329 407.934 712.787 416.453 713.182 424.984C713.286 426.263 712.03 426.894 711.043 426.63C710.487 426.481 710.01 426.04 709.963 425.268Z" fill="#A8BCD1"/>
<path d="M525.386 244.198C503.631 234.17 479.696 219.554 470.272 196.694C470.329 196.367 470.435 196.083 470.607 195.831C470.365 195.29 470.211 194.697 470.2 194.069C470.545 173.663 478.576 154.139 486.808 135.757C498.642 109.824 520.85 88.9193 549.182 82.9044C614.916 61.7078 662.038 123.029 655.52 184.655C654.407 201.536 651.967 218.538 645.849 234.42C644.912 235.971 643.99 238.522 642.962 241.194C643.566 244.274 642.154 246.486 639.705 248.122C637.841 251.077 635.486 252.917 632.283 251.642C632.086 251.544 631.865 251.425 631.689 251.304C626.218 252.711 620.214 253.44 617.102 254.66C595.211 260.481 572.451 258.654 550.744 252.838C542.087 250.518 533.601 247.56 525.4 244.201L525.386 244.198Z" fill="#ECCF28"/>
<path d="M507.568 172.731C508.867 168.553 513.214 166.502 517.3 167.597C521.385 168.692 523.651 173.408 522.438 177.325C521.14 181.503 516.792 183.554 512.707 182.459C508.621 181.364 506.355 176.648 507.568 172.731Z" fill="#5E4B45"/>
<path d="M557.921 173.137C559.168 169.094 563.396 167.101 567.37 168.166C571.345 169.231 573.544 173.81 572.342 177.626C571.095 181.669 566.867 183.662 562.893 182.597C558.918 181.532 556.72 176.954 557.917 173.151L557.921 173.137Z" fill="#5E4B45"/>
<path d="M534.008 144.206C535.633 139.029 541.043 136.459 546.116 137.818C551.188 139.177 554.011 145.04 552.509 149.922C550.884 155.099 545.474 157.669 540.401 156.31C535.329 154.951 532.506 149.088 534.008 144.206Z" fill="#5E4B45"/>
<path d="M590.842 131.373C592.118 127.279 596.378 125.279 600.394 126.355C604.41 127.431 606.611 132.055 605.416 135.903C604.141 139.998 599.881 141.998 595.865 140.922C591.849 139.845 589.647 135.221 590.842 131.373Z" fill="#5E4B45"/>
<path d="M609.071 187.855C609.816 185.464 612.306 184.286 614.655 184.915C617.003 185.544 618.291 188.241 617.597 190.497C616.853 192.888 614.362 194.066 612.014 193.437C609.665 192.808 608.377 190.11 609.071 187.855Z" fill="#5E4B45"/>
<path d="M573.283 206.297C574.523 202.283 578.719 200.296 582.68 201.357C586.64 202.418 588.801 206.972 587.625 210.751C586.385 214.765 582.189 216.752 578.228 215.691C574.268 214.63 572.107 210.076 573.283 206.297Z" fill="#5E4B45"/>
<path d="M612.356 226.845C613.729 222.39 618.4 220.188 622.777 221.36C627.155 222.533 629.573 227.573 628.267 231.778C626.895 236.234 622.223 238.436 617.846 237.263C613.469 236.09 611.051 231.051 612.356 226.845Z" fill="#5E4B45"/>
<path d="M531.617 211.493C532.513 208.593 535.545 207.172 538.366 207.928C541.187 208.684 542.769 211.951 541.931 214.689C541.035 217.59 538.003 219.01 535.182 218.255C532.361 217.499 530.779 214.231 531.617 211.493Z" fill="#5E4B45"/>
<path d="M508.448 127.591C509.584 123.906 513.432 122.109 517.031 123.073C520.63 124.038 522.63 128.191 521.553 131.654C520.417 135.339 516.569 137.137 512.97 136.172C509.371 135.208 507.371 131.054 508.448 127.591Z" fill="#5E4B45"/>
<path d="M552.971 105.952C553.838 103.162 556.75 101.799 559.487 102.532C562.225 103.266 563.718 106.42 562.91 109.047C562.044 111.837 559.131 113.2 556.394 112.466C553.656 111.733 552.163 108.579 552.971 105.952Z" fill="#5E4B45"/>
<path d="M593.006 99.3956C593.478 97.8548 595.079 97.1076 596.579 97.5097C598.08 97.9119 598.913 99.6387 598.467 101.082C597.995 102.623 596.394 103.37 594.893 102.968C593.393 102.566 592.559 100.839 593.006 99.3956Z" fill="#5E4B45"/>
<path d="M618.591 142.709C620.287 137.268 625.968 134.577 631.332 136.015C636.696 137.452 639.619 143.609 638.032 148.752C636.35 154.196 630.656 156.883 625.291 155.446C619.927 154.009 617.005 147.851 618.591 142.709Z" fill="#5E4B45"/>
<path d="M577.833 160.191C579.073 156.177 583.287 154.18 587.247 155.241C591.208 156.302 593.368 160.856 592.202 164.652C590.949 168.663 586.749 170.664 582.788 169.603C578.828 168.542 576.667 163.988 577.833 160.191Z" fill="#5E4B45"/>
<path d="M501.785 197.873C503.002 193.941 507.114 191.991 510.977 193.026C514.84 194.062 516.972 198.503 515.828 202.216C514.611 206.148 510.499 208.098 506.635 207.062C502.772 206.027 500.641 201.586 501.785 197.873Z" fill="#5E4B45"/>
<path d="M559.059 229.089C559.683 227.038 561.829 226.035 563.844 226.574C565.859 227.114 566.968 229.421 566.36 231.357C565.736 233.408 563.591 234.411 561.576 233.872C559.561 233.332 558.451 231.025 559.059 229.089Z" fill="#5E4B45"/>
<path d="M584.427 248.257C585.541 244.655 589.308 242.881 592.865 243.834C596.423 244.787 598.368 248.866 597.292 252.27C596.178 255.872 592.411 257.646 588.854 256.693C585.296 255.74 583.351 251.66 584.427 248.257Z" fill="#5E4B45"/>
<path d="M513.015 229.777C514.542 224.857 519.674 222.436 524.496 223.728C529.318 225.02 531.972 230.569 530.551 235.205C529.028 240.112 523.892 242.547 519.07 241.255C514.248 239.962 511.594 234.413 513.015 229.777Z" fill="#5E4B45"/>
<path d="M479.923 174.791C480.392 173.264 481.975 172.527 483.462 172.926C484.949 173.324 485.772 175.033 485.329 176.463C484.86 177.99 483.278 178.727 481.791 178.328C480.304 177.93 479.481 176.221 479.92 174.805L479.923 174.791Z" fill="#5E4B45"/>
<path d="M629.089 196.583C630.096 193.325 633.504 191.722 636.7 192.578C639.896 193.435 641.649 197.12 640.708 200.188C639.701 203.446 636.293 205.049 633.097 204.192C629.901 203.336 628.148 199.651 629.089 196.583Z" fill="#5E4B45"/>
<path d="M487.375 147.595C488.109 145.186 490.628 144.015 492.976 144.644C495.325 145.274 496.64 147.978 495.929 150.244C495.194 152.652 492.676 153.824 490.328 153.194C487.979 152.565 486.663 149.86 487.375 147.595Z" fill="#5E4B45"/>
<path d="M483.612 201.102C484.213 199.194 486.211 198.24 488.073 198.739C489.935 199.238 490.991 201.412 490.438 203.199C489.834 205.121 487.839 206.06 485.977 205.561C484.115 205.063 483.059 202.889 483.612 201.102Z" fill="#5E4B45"/>
<path d="M531.692 102.319C532.803 98.7314 536.552 96.9671 540.096 97.9166C543.639 98.8662 545.575 102.928 544.503 106.317C543.392 109.905 539.643 111.67 536.099 110.72C532.556 109.771 530.62 105.709 531.692 102.319Z" fill="#5E4B45"/>
<path d="M564.275 129.301C565.231 126.178 568.485 124.653 571.542 125.472C574.599 126.291 576.306 129.815 575.388 132.74C574.432 135.863 571.179 137.388 568.122 136.569C565.064 135.75 563.357 132.226 564.289 129.305L564.275 129.301Z" fill="#5E4B45"/>
<path d="M571.822 90.1316C572.611 87.5742 575.288 86.3115 577.817 86.9892C580.346 87.6669 581.718 90.5504 580.962 92.9828C580.173 95.5402 577.496 96.8029 574.967 96.1252C572.438 95.4475 571.066 92.564 571.822 90.1316Z" fill="#5E4B45"/>
<path d="M616.766 112.387C617.471 110.09 619.874 108.962 622.125 109.565C624.376 110.168 625.617 112.763 624.949 114.922C624.244 117.219 621.842 118.347 619.591 117.744C617.34 117.14 616.099 114.545 616.766 112.387Z" fill="#5E4B45"/>
<path d="M587.344 100.35C588.572 96.3765 592.751 94.3997 596.67 95.4498C600.589 96.4998 602.733 101.004 601.574 104.773C600.346 108.746 596.167 110.723 592.248 109.673C588.329 108.623 586.185 104.118 587.344 100.35Z" fill="#5E4B45"/>
</g>
<defs>
<clipPath id="clip0_49_429">
<rect width="588" height="1126" fill="white" transform="translate(291.733 0.0910645) rotate(15)"/>
</clipPath>
</defs>
</svg>
