<svg width="698" height="1730" viewBox="0 0 698 1730" fill="none" xmlns="http://www.w3.org/2000/svg">
<g clip-path="url(#clip0_49_352)">
<path d="M383.462 1725.01C376.276 1687.03 366.339 1649.15 364.429 1610.39C360.22 1535.27 371.656 1460.68 377.384 1385.98C380.279 1329.34 384.57 1272.69 385.494 1215.97C384.016 1099.42 375.845 983.011 374.099 866.418C369.911 763.431 365.969 660.342 356.34 557.663C352.316 512.201 345.109 466.699 346.505 420.95C347.532 412.873 344.35 398.178 356.094 398.486C360.179 399.041 363.095 402.905 362.54 406.954C361.185 420.169 362.109 433.445 362.602 446.681C367.201 504.207 376.173 561.28 380.916 618.785C384.735 660.979 386.603 702.268 389.251 743.331V743.29C389.272 743.393 389.272 743.475 389.272 743.578C398.08 895.582 400.605 1047.85 404.691 1200.02C403.172 1302.14 393.337 1404.08 384.652 1505.71C382.189 1551.53 380.875 1597.64 386.459 1643.31C389.683 1669.74 392.208 1696.21 396.766 1722.42C397.484 1726.86 393.46 1729.98 389.6 1729.98C386.952 1729.98 384.406 1728.5 383.503 1725.01H383.462Z" fill="#6A8C67"/>
<path d="M375.372 1396.17C358.968 1357.33 334.823 1322.57 317.146 1284.41C292.508 1229.78 299.16 1167.49 308.173 1109.94C308.42 1108.32 309.919 1107.13 311.561 1107.35C313.142 1107.58 314.477 1109.16 314.148 1110.78C312.916 1116.66 312.177 1122.66 311.807 1128.66C310.432 1170.69 309.364 1214.55 322.956 1254.69C332.482 1282.85 348.312 1308.02 362.704 1333.75C372.354 1352.29 380.546 1371.55 388.964 1390.64C391.222 1396.29 386.5 1400.69 381.839 1400.69C379.273 1400.69 376.707 1399.38 375.352 1396.17H375.372Z" fill="#6A8C67"/>
<path d="M379.335 1461.98C376.296 1461.12 374.654 1457.97 375.393 1454.95C380.3 1436.23 384.036 1417.13 391.243 1399.13C411.959 1345.67 438.937 1294.89 461.46 1242.21C513.445 1128.13 551.017 1004.88 552.639 878.852C553.07 875.071 552.536 867.405 558.182 870.097C559.106 870.816 559.496 872.07 559.188 873.2C556.581 882.593 558.511 893.013 558.08 902.754C556.909 976.639 541.449 1049.64 520.631 1120.3C499.73 1184.09 472.464 1245.75 444.665 1306.81C425.756 1348.7 407.257 1391.16 393.111 1434.87C390.73 1442.56 388.451 1450.24 386.356 1458.01C385.699 1460.54 383.277 1462.18 380.813 1462.18C380.341 1462.18 379.827 1462.12 379.335 1461.98Z" fill="#6A8C67"/>
<path d="M452.837 1284.18C450.845 1283.32 449.88 1280.91 450.763 1278.92C461.973 1253.85 471.767 1227.66 483.654 1202.94C502.851 1165.8 522.705 1128.03 551.099 1097.01C578.057 1068.49 606.883 1040.21 640.533 1019.59C642.976 1017.97 648.889 1016.65 647.555 1021.55C646.261 1023.5 643.469 1023.44 641.745 1025.08C593.414 1062.32 549.416 1107.41 519.009 1160.68C496.774 1196.69 479.794 1235.21 462.035 1273.41C459.756 1276.89 459.099 1284.43 454.397 1284.43C453.925 1284.43 453.412 1284.37 452.837 1284.18Z" fill="#6A8C67"/>
<path d="M321.991 1381.31C326.96 1380.82 331.928 1380.12 336.856 1379.22C341.722 1378.17 346.587 1376.95 351.412 1375.6C318.706 1358.87 281.668 1354.43 249.783 1336.94C258.16 1368.73 290.907 1384.44 321.991 1381.33V1381.31ZM388.594 1407.37C383.338 1398.82 375.372 1392.86 367.509 1386.88C324.27 1414.34 250.974 1404.82 235.986 1349.6C233.337 1341.46 230.832 1333.26 227.794 1325.22C224.55 1319.04 228.82 1310.55 236.314 1311.87C255.018 1320.89 273.127 1331.37 292.98 1337.49C319.178 1347.63 346.711 1352.48 368.084 1371.24C370.26 1371.61 372.231 1372.86 373.401 1374.94C373.709 1375.5 373.935 1376.05 374.079 1376.65C382.312 1384.39 391.304 1392.55 394.651 1403.75C395.903 1405.11 396.047 1407.35 394.569 1408.81C393.891 1409.47 392.988 1409.78 392.085 1409.78C390.565 1409.78 389.067 1408.91 388.594 1407.39V1407.37Z" fill="#6A8C67"/>
<path d="M311.746 1391.94C281.545 1388.44 250.132 1368.84 244.24 1337.58C243.049 1334.84 245.328 1331.21 248.243 1333.63C257.174 1327.12 267.625 1337.39 276.597 1339.67C291.687 1345.8 306.983 1351.88 322.135 1357.62C327.186 1357.86 330.368 1362.34 335.316 1363.39C342.707 1366.51 352.336 1366.45 357.921 1372.7C364.162 1380.55 356.915 1392.76 347.019 1391.2C340.367 1392.31 333.612 1392.88 326.837 1392.88C321.786 1392.88 316.756 1392.57 311.746 1391.94Z" fill="#6A8C67"/>
<path d="M302.754 1184.85C270.745 1170.04 258.242 1128.07 269.185 1095.8C275.016 1077.32 289.306 1056.38 310.72 1056.71C353.26 1061.48 353.527 1118.2 339.73 1148.83C335.316 1160.4 329.075 1172.58 317.926 1178.83C314.97 1180.35 311.828 1182.9 308.379 1181.52C309.734 1184.05 307.27 1185.24 304.93 1185.24C304.15 1185.24 303.349 1185.12 302.754 1184.83V1184.85Z" fill="#6A8C67"/>
<path d="M542.353 975.776C496.342 961.081 506.957 863.911 551.12 854.189C588.322 847.12 603.515 892.211 597.13 921.95C592.572 943.9 571.302 974.646 548.451 979.147C545.946 979.044 543.667 977.79 542.353 975.797V975.776Z" fill="#6A8C67"/>
<path d="M617.436 1069.1C609.49 1066.45 592.634 1065.1 595.077 1053.34C592.408 1017.56 623.328 979.352 660.592 981.079C689.131 981.572 708.019 1015.38 692.313 1039.61C683.156 1055.68 664.514 1062.07 647.35 1065.24C639.466 1066.64 631.438 1069.72 623.349 1069.72C621.378 1069.72 619.407 1069.54 617.436 1069.1Z" fill="#6A8C67"/>
<path d="M548.081 961.164C551.222 942.913 554.117 924.478 552.064 905.981C550.524 890.341 554.589 875.132 557.998 860.026C558.49 858.3 561.221 859.019 560.687 860.787C559.024 868.37 557.238 875.769 555.842 883.271C553.46 895.191 555.411 907.255 555.739 919.237C556.047 933.377 552.947 947.229 550.873 961.143C550.894 962.047 550.175 962.499 549.477 962.499C548.779 962.499 548.081 962.047 548.081 961.143V961.164Z" fill="#4E6C4C"/>
<path d="M550.38 950.291C550.175 949.572 550.586 948.914 551.078 948.668C555.431 944.331 560.112 940.118 563.233 934.733C566.333 929.924 568.181 924.601 570.337 919.319C570.645 918.621 571.466 918.292 572.184 918.579C572.882 918.888 573.211 919.751 572.924 920.45C570.049 927.684 567.154 935.062 562.206 941.166C560.523 942.523 554.302 951.196 551.509 951.196C550.996 951.196 550.627 950.929 550.401 950.291H550.38Z" fill="#4E6C4C"/>
<path d="M552.187 948.997C539.684 940.694 534.12 925.629 528.227 912.435C527.919 911.736 528.31 910.893 528.987 910.605C529.706 910.318 530.527 910.667 530.835 911.366C536.46 923.964 541.634 938.104 553.234 946.346C554.918 946.859 554.24 949.141 552.844 949.141C552.639 949.141 552.434 949.1 552.187 948.997Z" fill="#4E6C4C"/>
<path d="M554.549 918.888C554.076 918.21 554.261 917.285 554.918 916.792C559.045 912.948 563.5 908.961 567.237 904.789C570.973 900.72 574.361 896.322 577.831 892.026C578.324 891.43 579.207 891.327 579.802 891.8C580.397 892.273 580.5 893.177 580.028 893.773C574.566 900.658 569.044 907.584 562.556 913.503C560.523 915.435 558.429 917.367 556.396 919.278C556.17 919.402 555.945 919.463 555.698 919.463C555.267 919.463 554.815 919.278 554.569 918.908L554.549 918.888Z" fill="#4E6C4C"/>
<path d="M553.05 913.688C552.968 912.64 552.536 911.633 552.29 910.77C549.046 899.61 542.066 890.197 536.645 880.065C536.255 879.407 536.522 878.523 537.179 878.153C537.836 877.783 538.719 878.03 539.089 878.688C541.963 883.723 544.817 888.738 547.753 893.732C550.894 898.808 553.337 904.419 555.021 910.05C555.452 911.695 557.115 915.332 554.466 915.743C553.358 915.743 552.988 914.634 553.07 913.688H553.05Z" fill="#4E6C4C"/>
<path d="M553.809 887.135C556.848 880.969 563.171 876.324 566.703 870.22C567.442 869.213 568.14 867.22 569.721 868.042C570.357 868.432 570.624 869.336 570.214 869.974C566.313 876.242 561.2 881.586 556.622 887.34C556.417 887.998 555.821 888.347 555.205 888.347C554.589 888.347 553.932 887.977 553.83 887.135H553.809Z" fill="#4E6C4C"/>
<path d="M597.746 1056.55C597.274 1054.96 599.039 1053.98 599.943 1052.93C606.04 1047.44 612.446 1042.06 619.365 1037.78C636.694 1024.92 657.923 1020.35 677.756 1013.45C679.296 1012.56 680.733 1015.01 679.132 1015.91C672.377 1019.68 664.37 1020.13 657.184 1022.66C638.808 1028.92 621.151 1037.99 606.615 1050.85C604.501 1052.79 602.181 1054.14 600.641 1056.46C600.292 1057.02 599.614 1057.39 598.998 1057.39C598.485 1057.39 598.013 1057.14 597.746 1056.55Z" fill="#4E6C4C"/>
<path d="M615.054 1041.26C614.315 1033.88 618.565 1026.7 621.829 1020.27C623.492 1017.23 625.176 1014.19 626.88 1011.17C627.249 1010.51 628.173 1010.3 628.81 1010.69C629.467 1011.11 629.672 1011.97 629.303 1012.63C624.786 1021.36 618.277 1030.14 617.682 1040.21C618.195 1041.26 617.23 1042.18 616.306 1042.18C615.793 1042.18 615.321 1041.91 615.074 1041.26H615.054Z" fill="#4E6C4C"/>
<path d="M643.592 1027.77C636.078 1027.05 670.119 990.553 666.341 1001.86C658.683 1009.58 649.588 1016.8 645.091 1026.81C644.906 1027.38 644.393 1027.79 643.798 1027.79C643.736 1027.79 643.675 1027.79 643.572 1027.77H643.592Z" fill="#4E6C4C"/>
<path d="M647.021 1053.38C636.304 1051.65 623.923 1051.37 616.327 1042.43C615.895 1041.83 616.142 1040.82 616.799 1040.47C617.456 1040.1 618.195 1040.33 618.565 1040.78C621.234 1043.56 624.375 1045.76 628.009 1046.99C634.291 1048.98 640.882 1049.58 647.37 1050.59C649.074 1050.83 648.807 1053.4 647.226 1053.4C647.164 1053.4 647.103 1053.4 647 1053.38H647.021Z" fill="#4E6C4C"/>
<path d="M673.938 1039.41C662.892 1037.66 648.623 1038.46 641.375 1028.49C641.293 1027.98 641.539 1027.46 641.929 1027.16C642.545 1026.68 643.449 1026.83 643.9 1027.44C646.118 1029.93 649.423 1032.01 652.626 1033.14C659.709 1035.36 666.998 1035.64 674.307 1036.63C676.011 1036.86 675.724 1039.45 674.163 1039.45C674.102 1039.45 674.04 1039.45 673.938 1039.43V1039.41Z" fill="#4E6C4C"/>
<path d="M303.985 1177.85C300.885 1176.74 302.384 1170.34 301.583 1167.49C296.779 1138.78 303.513 1110.64 311.828 1083.26C312.341 1081.58 315.031 1082.26 314.538 1084.02C310.309 1099.79 305.258 1115.45 303.41 1131.71C301.747 1146.36 303.862 1160.85 305.135 1175.42C306.079 1176.24 305.422 1177.87 304.232 1177.87C304.149 1177.87 304.067 1177.87 303.985 1177.85Z" fill="#4E6C4C"/>
<path d="M303.965 1121.78C301.747 1121.33 300.598 1119 299.756 1117.11C296.943 1109.43 293.371 1101.99 290.784 1094.3C293.555 1086.16 301.07 1117.67 304.129 1118.8H304.15C306.059 1117.87 326.693 1092 324.044 1102.03C318.46 1107.8 313.019 1113.33 307.804 1119.25C306.778 1120.3 305.689 1121.8 304.067 1121.8H303.944L303.965 1121.78Z" fill="#4E6C4C"/>
<path d="M285.507 1143.95C284.645 1143.56 283.536 1143.81 282.982 1142.87C283.002 1134.99 299.612 1151.33 301.768 1153.08C311.212 1145.5 317.741 1134.93 325.81 1125.93C326.282 1125.33 327.165 1125.23 327.781 1125.7C328.376 1126.16 328.479 1127.08 328.007 1127.68C324.455 1131.97 320.903 1136.29 317.351 1140.56C312.608 1145.19 307.763 1154.81 301.09 1155.83C295.547 1152.42 291.687 1146.42 285.507 1143.95Z" fill="#4E6C4C"/>
<path d="M261.67 1341.26C260.131 1339.69 262.594 1337.23 264.155 1338.87C291.112 1368.69 306.798 1379.36 348.189 1376.01C349.359 1375.76 350.037 1376.58 350.098 1377.39C350.16 1378.15 349.688 1378.95 348.497 1378.8C342.214 1378.85 335.911 1379.19 329.649 1379.26C328.294 1379.34 326.939 1379.38 325.584 1379.38C298.298 1379.38 278.999 1360.72 261.691 1341.23L261.67 1341.26Z" fill="#4E6C4C"/>
<path d="M286.02 1376.93H286C283.721 1376.93 248.571 1373.69 258.262 1370.19C271.792 1372.66 285.445 1375.5 299.181 1373.21C300.556 1373.11 302.527 1372.56 303.431 1373.93C304.252 1375.29 302.527 1376.91 301.275 1375.82C296.409 1376.3 291.584 1376.91 286.718 1376.91H286L286.02 1376.93Z" fill="#4E6C4C"/>
<path d="M302.569 1373.34C302.219 1370.81 302.486 1368.03 301.48 1365.77C300.084 1362.18 298.298 1358.75 296.676 1355.31C295.752 1353.75 298.257 1352.33 299.119 1353.96C302.137 1360.04 305.566 1366.23 305.361 1372.99C305.997 1374.34 305.135 1375.13 304.211 1375.13C303.431 1375.13 302.61 1374.57 302.569 1373.38V1373.34Z" fill="#4E6C4C"/>
<path d="M307.537 1394.75C307.106 1393.99 307.332 1392.84 308.173 1392.45C316.037 1388.65 323.777 1384.58 331.25 1380.04C333.961 1378.09 336.137 1382.32 332.688 1382.42C325.645 1387.62 317.597 1391.75 309.631 1395.49C309.426 1395.6 309.241 1395.66 309.036 1395.66C308.42 1395.66 307.824 1395.29 307.516 1394.75H307.537Z" fill="#4E6C4C"/>
<path d="M335.316 1380.88C332.77 1378.54 332.606 1374.41 330.368 1371.71C328.561 1368.8 326.631 1366.08 324.722 1363.27C324.291 1362.65 324.373 1361.77 325.009 1361.31C325.605 1360.86 326.549 1360.97 326.98 1361.6C328.315 1363.68 340.921 1380.94 335.829 1380.94C335.685 1380.94 335.501 1380.92 335.316 1380.9V1380.88Z" fill="#4E6C4C"/>
<path d="M163.613 535.055C174.597 488.279 207.735 451.511 236.643 414.62C182.789 456.402 113.373 500.096 42.9922 476.605C-19.936 452.23 -6.447 361.369 36.7096 323.738C95.0183 277.537 186.218 267.651 253.93 297.76C205.25 259.944 165.502 207.495 153.635 146.085C144.437 100.356 144.129 37.3022 192.131 13.4616C320.903 -45.8931 444.747 103.213 389.908 225.355C413.848 195.205 442.304 165.301 479.568 152.703C528.207 137.247 587.706 143.516 627.557 176.975C655.706 201.699 656.26 244.448 643.777 277.352C618.359 330.869 542.558 360.465 486.549 364.822C529.315 378.016 572.41 403.974 588.076 448.12C607.991 497.876 594.009 564.692 546.952 593.999C518.803 609.475 483.161 605.385 454.212 593.999C409.372 575.81 374.346 535.384 360.569 489.224C357.202 510.701 352.439 531.705 345.089 551.949C325.235 599.918 285.199 677.379 226.09 678.078C159.363 670.371 150.001 588.162 163.613 535.076V535.055Z" fill="#F3D619"/>
<path d="M280.477 322.936C283.577 301.192 301.152 283.497 321.355 276.304C338.067 270.672 358.886 272.296 373.771 281.996C380.957 288.614 386.603 297.123 389.991 306.269C406.785 345.112 367.735 367.678 333.448 366.589C332.421 366.63 331.374 366.651 330.327 366.651C303.985 366.651 281.853 351.052 280.457 322.936H280.477Z" fill="#303938"/>
<path d="M337.492 193.581C324.044 226.526 334.002 263.335 332.955 297.308C328.212 263.191 319.281 224.841 337.492 193.581Z" fill="#303938"/>
<path d="M295.321 264.116C279.943 248.846 261.034 236.145 242.187 227.184C259.515 232.959 276.884 241.94 291.277 253.532C308.646 267.384 315.36 290.464 322.258 310.256C314.292 294.472 307.312 277.311 295.342 264.116H295.321Z" fill="#303938"/>
<path d="M447.807 246.503C433.312 280.578 395.986 298.52 363.464 310.852C393.009 292.725 429.965 276.55 447.807 246.503Z" fill="#303938"/>
<path d="M463.595 322.936C448.792 321.703 429.328 319.73 413.417 321.847C397.649 323.717 381.532 328.136 366.195 330.047C399.702 316.894 428.589 311.304 463.595 322.936Z" fill="#303938"/>
<path d="M464.56 323.121C464.334 323.101 464.129 323.08 463.903 323.039H463.924C463.821 323.018 463.698 322.998 463.595 322.957C464.129 322.998 464.622 323.039 465.135 323.08C465.197 323.08 464.95 323.121 465.032 323.121C464.991 323.121 464.95 323.121 464.909 323.142C464.807 323.121 464.683 323.121 464.581 323.121H464.56Z" fill="#303938"/>
<path d="M354.8 342.913C377.159 377.811 391.223 415.36 382.99 457.327C383.729 417.353 368.679 379.722 354.8 342.913Z" fill="#303938"/>
<path d="M360.487 340.508C387.589 361.266 414.669 386.504 449.531 390.882C448.936 390.902 448.32 390.902 447.725 390.902C411.384 390.902 383.605 365.5 360.467 340.488L360.487 340.508Z" fill="#303938"/>
<path d="M331.6 351.792C326.426 392.074 309.467 433.692 319.035 473.851C303.534 433.98 321.191 390.388 331.6 351.792Z" fill="#303938"/>
<path d="M320.267 357.834C306.244 389.484 291.79 429.91 256.969 443.495C287.334 423.272 299.407 386.278 320.267 357.834Z" fill="#303938"/>
<path d="M260.911 346.654C277.561 339.543 296.265 335.185 313.471 331.26C293.678 339.584 272.408 344.907 253.54 355.018C239.62 363.034 226.049 374.05 216.399 386.052C227.527 369.836 242.884 355.142 260.911 346.633V346.654Z" fill="#303938"/>
<path d="M249.68 334.096C236.52 334.076 216.112 328.136 208.638 322.34C245.635 335.37 284.809 322.628 322.196 317.634C300.803 325.382 277.808 334.199 254.341 334.199C252.78 334.199 251.22 334.178 249.68 334.096Z" fill="#303938"/>
<path d="M442.119 244.263C433.127 259.985 421.855 276.221 406.765 287.237C396.807 295.006 384.735 300.74 374.161 306.906C400.893 290.628 423.025 268.946 442.119 244.283V244.263Z" fill="white"/>
<path d="M469.754 313.441C440.785 312.825 410.604 311.818 383.297 320.696C410.275 308.098 441.483 306.885 469.754 313.441Z" fill="white"/>
<path d="M376.317 357.464C391.674 379.085 422.615 384.449 446.328 394.519C420.172 388.374 390.525 383.051 376.317 357.464Z" fill="white"/>
<path d="M365.148 362.232C370.075 366.075 376.153 371.008 380.115 376.475C387.917 388.354 389.416 403.871 391.448 417.25C385.104 397.664 381.881 376.023 365.148 362.232Z" fill="white"/>
<path d="M331.682 366.055C324.434 390.532 330.84 416.181 336.158 440.207C324.414 415.935 320.759 391.354 331.682 366.055Z" fill="white"/>
<path d="M317.597 366.075C314.641 395.773 296.615 423.765 277.521 445.962C293.124 420.744 311.5 395.506 317.597 366.075Z" fill="white"/>
<path d="M294.993 343.221C269.678 350.168 251.22 371.07 231.982 387.162C247.812 366.651 268.446 346.099 294.993 343.221Z" fill="white"/>
<path d="M235.021 340.467H235.206C221.943 339.543 207.879 338.145 195.129 335.864C223.688 336.85 252.678 341.104 280.539 333.212C283.68 332.308 287.088 330.911 289.881 329.924C289.675 330.15 289.203 330.294 288.957 330.438C274.256 337.611 257.77 340.632 241.427 340.632C239.271 340.632 237.156 340.591 235.021 340.488V340.467Z" fill="white"/>
<path d="M257.667 237.336C280.539 251.168 303.842 270.405 308.913 297.739C298.853 272.686 275.673 255.71 257.667 237.336Z" fill="white"/>
<path d="M334.002 284.771C322.874 258.135 337.02 227.451 343.344 201.432C340.757 228.746 326.837 257.724 334.043 284.648C334.146 284.668 334.105 284.792 334.043 284.792C334.043 284.792 334.022 284.771 334.002 284.771Z" fill="white"/>
<path d="M321.868 307.933C321.868 305.159 324.188 302.877 326.96 302.877C329.731 302.877 332.031 305.2 332.01 307.974C332.01 310.749 329.69 313.03 326.918 313.03C324.147 313.03 321.847 310.708 321.868 307.933Z" fill="white"/>
<path d="M330.327 288.429C330.347 286.127 332.277 284.196 334.597 284.196C336.917 284.196 338.827 286.148 338.827 288.47C338.806 290.772 336.876 292.704 334.556 292.704C332.236 292.704 330.327 290.752 330.327 288.429Z" fill="white"/>
<path d="M306.695 300.637C306.716 298.377 308.605 296.506 310.863 296.506C313.122 296.506 314.99 298.418 314.99 300.678C314.969 302.939 313.081 304.809 310.822 304.809C308.564 304.809 306.695 302.898 306.695 300.637Z" fill="white"/>
<path d="M291.605 327.54C291.605 324.848 293.864 322.607 296.574 322.607C299.284 322.607 301.522 324.889 301.501 327.581C301.501 330.273 299.243 332.514 296.533 332.514C293.822 332.514 291.585 330.232 291.605 327.54Z" fill="white"/>
<path d="M312.527 345.975C312.527 343.427 314.682 341.331 317.208 341.331C319.733 341.331 321.868 343.489 321.848 346.016C321.848 348.565 319.692 350.661 317.146 350.661C314.6 350.661 312.485 348.503 312.506 345.975H312.527Z" fill="white"/>
<path d="M349.996 318.908C350.016 316.832 351.741 315.085 353.855 315.085C355.97 315.085 357.674 316.853 357.674 318.949C357.654 321.025 355.929 322.772 353.814 322.772C351.7 322.772 349.996 321.004 349.996 318.908Z" fill="white"/>
<path d="M376.255 306.864C376.276 305.015 377.816 303.494 379.684 303.494C381.552 303.494 383.051 305.056 383.051 306.926C383.031 308.776 381.491 310.297 379.622 310.297C377.754 310.297 376.255 308.714 376.255 306.864Z" fill="white"/>
<path d="M353.958 288.84C353.958 286.251 356.134 284.093 358.742 284.093C361.349 284.093 363.505 286.292 363.485 288.881C363.485 291.471 361.308 293.629 358.701 293.629C356.093 293.629 353.938 291.43 353.958 288.84Z" fill="white"/>
<path d="M329.362 325.053C329.362 323.532 330.614 322.299 332.092 322.299C333.571 322.299 334.823 323.574 334.823 325.053C334.823 326.533 333.571 327.787 332.092 327.787C330.614 327.787 329.362 326.513 329.362 325.053Z" fill="white"/>
<path d="M346.115 347.065C346.115 344.126 348.579 341.7 351.515 341.7C354.451 341.7 356.894 344.187 356.874 347.106C356.874 350.045 354.41 352.47 351.474 352.47C348.538 352.47 346.095 349.983 346.136 347.065H346.115Z" fill="white"/>
<path d="M379.705 325.937C379.705 323.738 381.552 321.929 383.77 321.929C385.987 321.929 387.773 323.799 387.773 325.978C387.773 328.157 385.926 329.986 383.708 329.986C381.491 329.986 379.705 328.115 379.705 325.916V325.937Z" fill="white"/>
<path d="M367.324 347.948C367.324 345.009 369.788 342.584 372.724 342.584C375.66 342.584 378.103 345.071 378.083 347.989C378.083 350.928 375.619 353.354 372.683 353.354C369.747 353.354 367.304 350.867 367.345 347.948H367.324Z" fill="white"/>
<path d="M293.945 309.269C293.945 307.666 295.28 306.351 296.861 306.351C298.442 306.351 299.776 307.687 299.776 309.269C299.776 310.852 298.442 312.188 296.861 312.188C295.28 312.188 293.945 310.852 293.945 309.269Z" fill="white"/>
<path d="M316.386 332.678C316.386 330.849 317.926 329.349 319.753 329.349C321.58 329.349 323.1 330.89 323.079 332.719C323.079 334.548 321.539 336.049 319.712 336.049C317.885 336.049 316.365 334.507 316.386 332.678Z" fill="white"/>
<path d="M339.545 309.947C339.566 307.543 341.578 305.508 344.021 305.508C346.464 305.508 348.456 307.543 348.456 309.988C348.435 312.393 346.423 314.428 343.98 314.428C341.537 314.428 339.545 312.393 339.545 309.947Z" fill="white"/>
<path d="M336.117 351.113C336.117 348.914 337.965 347.126 340.141 347.126C342.317 347.126 344.124 348.976 344.124 351.154C344.124 353.333 342.276 355.142 340.079 355.142C337.882 355.142 336.096 353.292 336.096 351.113H336.117Z" fill="white"/>
<path d="M360.118 305.015C360.118 303.288 361.555 301.87 363.259 301.87C364.963 301.87 366.4 303.309 366.4 305.015C366.4 306.721 364.963 308.159 363.259 308.159C361.555 308.159 360.118 306.721 360.118 305.015Z" fill="white"/>
<path d="M362.931 330.273C362.931 328.938 364.019 327.869 365.333 327.869C366.647 327.869 367.735 328.979 367.735 330.273C367.735 331.568 366.647 332.678 365.333 332.678C364.019 332.678 362.931 331.568 362.931 330.273Z" fill="white"/>
<path d="M338.19 332.02C338.19 329.431 340.387 327.273 342.974 327.273C345.561 327.273 347.717 329.472 347.717 332.062C347.717 334.651 345.52 336.809 342.933 336.809C340.346 336.809 338.19 334.61 338.19 332.02Z" fill="white"/>
<path d="M309.241 318.291C309.262 316.133 311.068 314.345 313.224 314.345C315.38 314.345 317.166 316.175 317.166 318.333C317.146 320.491 315.339 322.279 313.183 322.279C311.027 322.279 309.241 320.449 309.241 318.291Z" fill="white"/>
<path d="M299.099 345.215C299.119 342.934 301.029 341.022 303.328 341.022C305.628 341.022 307.516 342.975 307.516 345.256C307.496 347.537 305.587 349.449 303.287 349.449C300.988 349.449 299.099 347.496 299.099 345.215Z" fill="white"/>
<path d="M313.717 290.443C313.717 287.936 315.832 285.86 318.337 285.86C320.842 285.86 322.915 287.998 322.915 290.484C322.915 292.971 320.801 295.068 318.296 295.068C315.791 295.068 313.717 292.93 313.717 290.443Z" fill="white"/>
<path d="M369.049 296.588C369.049 294.287 370.978 292.396 373.278 292.396C375.577 292.396 377.487 294.328 377.466 296.629C377.466 298.931 375.536 300.822 373.237 300.822C370.937 300.822 369.028 298.89 369.049 296.588Z" fill="white"/>
<path d="M367.242 318.6C367.263 316.36 369.131 314.49 371.39 314.49C373.648 314.49 375.496 316.401 375.496 318.641C375.475 320.881 373.607 322.751 371.348 322.751C369.09 322.751 367.242 320.84 367.242 318.6Z" fill="white"/>
</g>
<defs>
<clipPath id="clip0_49_352">
<rect width="698" height="1730" fill="white"/>
</clipPath>
</defs>
</svg>
