<svg width="889" height="1730" viewBox="0 0 889 1730" fill="none" xmlns="http://www.w3.org/2000/svg">
<g clip-path="url(#clip0_49_293)">
<path d="M645.771 1665.48C641.892 1666.31 638.323 1663.76 637.41 1660.03C635.242 1651.17 632.527 1642.49 630.139 1633.7C618.369 1587.14 606.823 1540.54 594.349 1494.15C588.936 1475.32 582.902 1456.67 576.446 1438.16C557.194 1433.95 540.1 1421.22 523.804 1409.22C496.175 1411.25 468.332 1405.71 441.29 1400.46C374.586 1386.83 317.279 1341.82 282.379 1284.04C238.328 1209.55 222.191 1122.97 205.078 1039.21C204.272 1033.98 202.474 1029.86 203.18 1025.05C204.553 1019.16 211.971 1018.92 215.42 1023.19C228.066 1038 241.553 1052.01 256.195 1064.85C272.444 1079.73 288.502 1095 306.827 1107.37C336.238 1126.81 366.426 1145.04 394.935 1165.82C437.048 1194.5 467.936 1236.89 489.673 1282.27C504.166 1313.38 518.013 1345.66 523.729 1379.69C527.696 1380.46 529.781 1387.83 525.079 1389.56C525.043 1389.66 524.985 1389.75 524.908 1389.85C531.716 1394.97 538.557 1400.06 545.384 1405.17C553.585 1411.51 562.048 1417.52 570.948 1422.76C557.606 1385.9 542.736 1349.56 527.794 1313.34C506.36 1263.82 479.863 1214.87 459.153 1165.45C451.982 1148.61 444.816 1131.79 437.744 1114.95C415.302 1079.31 381.309 1052.31 357.286 1017.59C354.69 1014.2 352.156 1010.74 349.716 1007.27C321.976 1007.68 296.807 1005.16 273.378 986.983C222.96 947.56 201.698 861.997 177.106 803.906C171.904 791.073 165.937 779.495 158.449 768.009C155.464 763.44 152.786 758.668 149.23 754.533C146.689 751.683 148.957 746.965 152.783 747.259C154.68 747.282 155.991 748.582 156.796 749.697C164.918 759.409 174.862 767.425 184.618 775.11C203.794 790.182 226.157 800.554 247.495 811.965C280.978 830.473 313.147 853.318 333.527 886.427C349.722 911.636 356.433 941.466 359.713 970.938C360.792 979.172 361.426 987.521 361.53 995.847C361.605 997.84 361.753 1000.54 361.237 1002.77C374.468 1020.6 389.059 1037.39 403.614 1054.12C409.391 1060.43 415.087 1066.82 420.501 1073.44C412.832 1054.82 405.305 1036.12 397.97 1017.33C368.004 941.859 346.701 863.404 327.88 784.515C298.879 668.6 278.641 548.158 290.554 428.506C294.906 388.761 304.651 349.795 314.644 311.165C322.73 279.945 333.096 249.447 343.398 218.923C345.008 213.683 346.523 208.912 347.698 203.921C348.108 202.098 349.853 200.866 351.728 201.245C353.498 201.588 354.855 203.463 354.404 205.276C342.356 248.246 328.702 290.819 320.696 334.817C301.461 423.423 300.571 514.738 309.989 604.649C316.327 665.2 330.012 724.083 344.434 783.043C353.03 821.227 362.977 858.987 374.135 896.39C372.452 865.269 377.773 836.708 385.313 807.77C377.573 797.293 371.894 773.289 370.391 766.355C358.996 717.358 377.076 668.67 395.342 623.863C406.414 595.75 415.513 566.712 421.301 537.057C422.283 531.619 422.443 520.604 430.704 523.577C436.33 526.996 435.286 535.334 437.022 540.989C442.014 568.437 446.401 595.975 452.796 623.143C458.301 645.507 459.872 668.538 459.325 691.514C459.67 727.874 446.582 764.065 422.393 791.297C415.175 799.492 407.206 808.374 396.592 811.814C392.744 826.466 389.312 841.243 387.512 856.353C384.52 883.578 383.247 911.644 387.323 938.819C406.731 998.839 429.073 1057.9 453.451 1116.17C482.417 1192.07 521.748 1262.09 553.296 1336.66C564.365 1362.88 575.251 1389.17 585.748 1415.63C585.877 1412.68 586.047 1409.74 586.273 1406.78C586.244 1405.46 586.197 1404.15 586.154 1402.85C586.913 1365.18 588.652 1327.53 590.792 1289.94C574.576 1283.05 562.265 1267.8 551.456 1254.37C510.016 1200.12 512.086 1127.17 518.484 1062.44C527.895 973.941 548.219 886.506 551.319 797.41C551.219 794.935 552.801 792.666 555.281 792.135C558.004 791.553 560.556 793.367 561.201 796.018C562.899 803.593 564.486 811.192 566.254 818.733C572.864 846.908 581.815 874.445 591.559 901.677C608.134 952.101 629.36 1001.2 640.988 1053.11C648.927 1092.06 654.195 1132.28 650.145 1171.98C645.414 1206.58 639.135 1242.06 623.451 1273.5C621.008 1277.94 618.402 1282.26 615.212 1286.22C614.866 1286.61 614.507 1286.94 614.137 1287.21C612.523 1289.6 610.796 1291.92 609.17 1294.26C606.962 1297.52 603.9 1300.17 600.79 1302.59C600.807 1303.58 600.824 1304.57 600.822 1305.56C600.72 1317.58 600.166 1329.58 599.338 1341.57C599.35 1345.82 599.376 1350.05 599.425 1354.29C599.513 1386.16 598.496 1418.52 598.838 1450.4C614.322 1494.99 625.088 1541.14 637.209 1586.78C643.628 1609.86 647.108 1633.62 651.234 1657.19C651.961 1660.96 649.591 1664.74 645.806 1665.55L645.787 1665.56L645.771 1665.48Z" fill="#778353"/>
<path d="M593.275 1302.83C574.563 1290.84 561.057 1272 549.979 1253.3C531.878 1226.47 525.065 1194.07 526.484 1162.13C526.231 1161.4 526.836 1160.49 527.686 1160.55C528.637 1160.62 529.006 1161.61 528.648 1162.31C528.722 1164.48 529.151 1166.67 529.364 1168.85C533.833 1208.17 553.038 1245.35 580.076 1273.94C585.638 1278.97 590.963 1284.27 596.521 1289.28C599.086 1291.42 602.736 1293.35 602.853 1297.09C603.095 1300.42 600.672 1302.94 597.8 1303.56C596.326 1303.87 594.727 1303.69 593.279 1302.85L593.275 1302.83Z" fill="#778353"/>
<path d="M527.276 1405.94C519.854 1404.43 519.868 1392 517.29 1386.06C515.101 1378.37 512.826 1370.74 510.436 1363.12C504.603 1342.78 495.61 1323.62 488.433 1303.74C480.438 1284.77 472.549 1264.48 458.062 1249.53C456.81 1249.06 457.648 1247.14 458.912 1247.67C459.71 1248.03 460.341 1248.79 460.955 1249.38C487.368 1277.96 501.642 1315.34 516.573 1350.69C522.739 1366.58 528.292 1382.79 532.264 1399.35C533.06 1402.07 531.697 1405.37 529.049 1405.93C528.508 1406.05 527.944 1406.05 527.31 1405.91L527.276 1405.94Z" fill="#778353"/>
<path d="M263.947 570.824C253.882 562.425 246.63 550.674 242.14 538.43C234.746 518.263 231.917 499.383 232.561 480.053C230.193 483.388 227.708 486.63 225.219 489.854C214.311 504.416 200.759 517.828 183.459 524.297C167.915 529.123 149.896 530.675 134.933 523.264C103.904 506.475 85.3345 476.275 73.2807 444.076C63.692 419.757 56.8214 393.1 62.2604 367.011C66.688 342.21 80.8041 324.504 102.665 312.554C113.749 306.205 125.419 300.588 137.512 296.403C121.041 292.884 104.438 289.023 90.0009 280.057C62.166 262.155 42.0148 227.749 48.4051 194.161C54.0444 170.193 70.4523 139.768 88.1179 122.61C100.48 110.292 115.946 102.089 131.683 94.8812C146.942 87.171 163.033 81.2528 179.87 78.2763C193.833 74.9002 207.581 75.6269 220.701 81.169C234.954 86.0788 248.986 92.4205 259.981 102.981C275.752 118.274 285.616 138.224 294.611 158.126C294.568 157.745 294.511 157.387 294.469 157.006C291.869 134.546 293.519 115.177 303.366 94.5612C315.518 66.6653 337.804 41.7512 369.309 37.5103C420.218 29.5293 473.001 71.8979 497.792 113.407C520.451 149.696 530.197 195.086 495.699 227.097C501.469 227.268 507.264 227.92 513.018 229.108C553.176 237.333 586.203 268.206 604.673 303.87C617.261 328.991 620.871 358.549 616.113 386.092C612.116 410.352 599.252 431.905 580.536 447.708C568.198 458.5 554.708 468.465 539.065 473.741C501.466 485.507 481.762 461.03 460.551 434.983C461.573 437.3 462.554 439.606 463.397 442C477.451 479.174 480.859 532.316 434.266 546.162C423.758 549.092 412.582 549.18 401.914 547.444C391.07 545.979 380.308 542.527 369.307 543.339C358.619 544.337 350.397 551.849 342.292 558.088C331.517 567.16 317.503 575.131 303.125 578.206C289.605 581.097 275.769 579.687 263.951 570.843L263.947 570.824Z" fill="#D75299"/>
<path d="M245.545 427.599C251.068 388.95 274.339 361.348 306.261 340.634C314.67 335.091 324.324 331.173 333.354 327.253C323.438 333.138 313.317 338.794 304.568 346.399C277.732 368.639 257.996 393.807 250.491 428.472C248.297 442.107 249.47 456.348 249.629 469.947C247.8 455.925 244.369 441.796 245.541 427.58L245.545 427.599Z" fill="#A63761"/>
<path d="M372.25 343.803C363.82 337.395 353.881 333.688 344.116 329.886C343.609 329.702 341.924 329.029 342.975 328.472C343.013 328.464 343.039 328.498 342.983 328.51C342.884 328.589 342.75 328.696 342.673 328.79C342.681 328.828 342.685 328.846 342.693 328.884C350.633 332.179 359.8 332.461 367.849 335.811C382.949 342.217 397.208 350.988 409.111 362.329C426.908 377.247 438.131 397.902 448.942 417.903C426.626 390.064 401.254 364.712 372.254 343.822L372.25 343.803Z" fill="#A63761"/>
<path d="M371.154 289.893C382.668 269.409 402.719 254.471 423.348 243.877C441.785 234.609 457.295 235.369 477.068 238.279C479.523 238.632 482.272 238.902 484.553 239.448C479.239 239.765 473.984 240.362 468.714 240.982C448.167 242.021 429.71 250.825 411.79 260.138C397.05 268.088 381.027 275.962 371.21 289.881L371.214 289.9C371.214 289.9 371.196 289.904 371.192 289.885L371.154 289.893Z" fill="#A63761"/>
<path d="M314.577 237.628C309.349 227.043 304.076 216.429 300.187 205.266C293.26 187.009 294.843 167.146 294.667 147.991C294.659 147.954 294.715 147.942 294.723 147.979C297.095 161.808 298.898 175.894 302.52 189.456C308.443 207.576 316.357 225.252 322.366 243.315C325.979 254.011 331.204 264.674 332.818 275.778C329.086 262.065 320.597 250.364 314.559 237.632L314.577 237.628Z" fill="#A63761"/>
<path d="M314.343 298.727C299.449 289.175 282.242 285.405 265.07 282.348C231.757 276.033 197.055 280.373 165.006 290.64C157.439 292.921 149.684 295.594 142.305 297.933C148.531 294.944 154.844 292.092 161.134 289.225C185.926 277.487 213.143 268.331 240.862 269.366C267.62 271.563 293.477 282.222 314.466 298.661C314.57 298.6 314.597 298.633 314.559 298.641C314.522 298.649 314.474 298.699 314.418 298.711C314.381 298.719 314.362 298.723 314.317 298.693L314.343 298.727Z" fill="#A63761"/>
<path d="M334.539 276.073C338.263 275.706 341.883 274.757 345.612 274.505C346.726 274.423 347.843 274.36 348.977 274.371C345.512 274.039 341.965 274.232 338.571 274.958C337.21 275.249 335.868 275.633 334.562 276.088L334.539 276.073ZM303.266 332.283C291.95 320.133 295.165 300.878 302.633 287.558C307.522 278.594 314.891 270.738 323.449 265.163C340.718 254.721 364.96 257.28 379.983 270.626C405.601 294.21 391.565 331.441 361.533 342.935C358.23 344.266 354.754 345.341 351.211 346.098C333.998 349.779 314.851 346.423 303.289 332.298L303.266 332.283Z" fill="#A63761"/>
<path d="M294.056 414.513C295.54 389.445 309.974 362.465 328.275 345.542C329.971 343.99 331.794 342.117 333.501 340.797C329.481 345.713 325.622 350.829 322.027 356.084C310.811 375.042 303.605 397.063 301.73 418.938C301.432 432.772 304.024 446.807 305.488 460.401C300.916 445.404 293.67 430.492 294.06 414.532L294.056 414.513Z" fill="#EF92C3"/>
<path d="M372.867 395.748C368.171 383.275 361.432 371.55 353.676 360.726C353.729 360.793 353.741 360.849 353.79 360.897C349.348 355.079 344.446 349.574 339.53 344.188C338.811 343.289 339.81 343.309 340.476 343.323C340.488 343.379 340.271 343.367 340.039 343.377C339.808 343.388 339.539 343.406 339.461 343.501C339.432 343.546 339.417 343.569 339.388 343.614C345.23 349.776 352.497 354.756 358.244 361.114C366.303 369.709 373.26 379.534 377.901 390.38C382.513 401.097 383.918 412.772 385.148 424.27C386.48 438.34 387.965 452.671 389.134 466.62C384.017 442.963 380.706 418.725 372.871 395.767L372.867 395.748Z" fill="#EF92C3"/>
<path d="M447.558 276.928C426.359 273.367 403.968 280.009 386.684 292.111C403.211 278.747 426.26 267.888 448.353 271.706C466.827 275.382 482.774 287.029 498.766 296.15C481.77 289.721 465.426 280.596 447.558 276.928Z" fill="#EF92C3"/>
<path d="M417.796 309.741C407.091 306.374 396.127 306.358 385.141 307.694C385.085 307.706 382.177 307.879 382.263 307.548C382.255 307.511 382.292 307.503 382.3 307.541L382.308 307.578C382.308 307.578 382.308 307.578 382.353 307.607C391.468 306.731 400.48 303.731 409.823 304.015C445.3 303.118 468.656 334.362 488.676 359.22C466.204 341.225 445.158 319.961 417.804 309.778L417.796 309.741Z" fill="#EF92C3"/>
<path d="M402.328 299.24C399.453 299.386 395.855 299.98 393.377 300.062C450.547 289.259 483.295 315.452 525.382 348.659C488.141 324.89 448.977 294.959 402.346 299.236L402.328 299.24Z" fill="#EF92C3"/>
<path d="M197.081 402.875C202.408 391.398 208.709 380.279 216.966 370.653C233.394 352.082 256.368 340.323 279.426 332.057C284.509 330.385 289.756 328.931 294.959 327.818C296.972 327.29 299.073 326.9 301.132 326.498C304.658 325.842 308.184 325.185 311.454 323.881C302.274 327.736 290.831 329.306 281.352 333.771C258.071 343.821 235.049 356.995 218.508 376.584C200.752 399.066 189.817 425.902 175.845 450.482C182.769 434.529 189.826 418.645 197.077 402.856L197.081 402.875Z" fill="#EF92C3"/>
<path d="M312.971 323.225C312.477 323.467 311.979 323.691 311.473 323.877C311.975 323.672 312.473 323.449 312.971 323.225Z" fill="#EF92C3"/>
<path d="M200.787 344.603C222.855 328.61 278.186 312.31 304.882 315.398C276.932 314.198 225.225 338.323 201.352 353.903C183.563 366.835 173.561 387.64 160.736 404.816C172.223 383.752 179.879 358.456 200.791 344.622L200.787 344.603Z" fill="#EF92C3"/>
<path d="M202.567 317.365C213.45 310.532 225.655 306.049 238.175 303.313C247.689 301.2 257.474 300.356 267.203 301.26C277.753 301.988 287.846 305.135 298.357 305.773C299.488 305.863 303.111 305.751 300.718 307.238C300.973 306.969 301.322 306.778 301.451 306.379C301.439 306.324 301.39 306.276 301.359 306.224C289.488 305.973 277.255 305.586 265.425 307.355C253.445 309.332 241.046 314.09 229.825 318.069C203.644 326.594 181.084 342.751 157.745 356.909C154.195 359.092 150.559 361.605 147.107 363.611C165.555 348.197 182.81 331.127 202.563 317.346L202.567 317.365Z" fill="#EF92C3"/>
<path d="M350.102 242.065C344.064 219.756 349.754 196.479 353.584 174.264C353.576 174.227 353.639 174.252 353.621 174.256C353.784 193.804 351.388 213.333 352.807 232.826C353.083 245.972 360.112 257.498 360.049 270.52C359.211 260.401 352.478 251.894 350.084 242.069L350.102 242.065Z" fill="#EF92C3"/>
<path d="M364.603 274.306L364.566 274.314L364.558 274.276C381.045 252.611 395.148 228.277 400.711 201.4C402.652 190.414 401.793 179.831 401.665 168.838C401.554 161.021 401.292 152.866 401.343 145.17C403.921 162.426 407.866 179.78 407.086 197.287C405.247 214.493 397.915 231.001 388.599 245.437C381.566 255.777 372.917 264.941 364.647 274.238L364.655 274.275L364.603 274.306Z" fill="#EF92C3"/>
<path d="M371.312 267.195C369.601 265.942 369.153 263.483 368.604 261.552C367.079 254.603 367.409 247.394 367.263 240.326C367.08 213.936 372.058 188.335 377.127 162.617C377.094 166.291 376.729 170.328 376.596 174.082C375.599 193.585 373.834 213.058 371.485 232.44C370.653 239.854 369.664 247.36 369.228 254.807C369.256 258.858 368.623 263.83 371.3 267.139C371.397 267.138 371.484 267.178 371.543 267.087C371.662 267.101 371.533 267.226 371.421 267.25C371.384 267.258 371.328 267.27 371.297 267.218L371.312 267.195Z" fill="#EF92C3"/>
<path d="M227.271 200.984C218.707 194.858 209.782 188.692 201.423 182.521C228.829 199.695 258.963 213.848 282.516 236.351C297.025 251.485 307.445 270.575 316.193 289.32C284.43 239.647 274.68 233.814 227.294 200.999L227.271 200.984Z" fill="#EF92C3"/>
<path d="M271.445 270.94C248.452 263.55 225.229 255.448 204.834 242.334C183.765 228.349 169.271 206.99 152.433 188.532C149.229 184.77 145.744 180.873 142.762 177.142C154.305 188.989 166.03 200.681 177.861 212.233C186.981 221.322 196.547 230.121 207.485 236.949C229.145 250.144 252.677 259.506 276.039 268.982C287.49 274.198 300.266 278.312 310.594 285.115C298.425 278.823 284.415 275.597 271.441 270.921L271.445 270.94Z" fill="#EF92C3"/>
<path d="M329.715 403.162C330.273 383.246 333.299 363.016 339.267 344.05C335.415 364.612 335.287 386.445 337.219 407.428C342 439.817 351.636 471.558 358.56 503.39C347.091 470.735 329.726 438.502 329.719 403.181L329.715 403.162Z" fill="#EF92C3"/>
<path d="M321.401 427.936C315.96 422.371 313.841 414.105 311.802 406.759C307.123 388.801 307.728 369.655 312.521 351.759C318.44 331.106 332.27 314.066 346.208 298.173C343.131 304.487 339.736 311.045 336.469 317.381C322.917 340.368 314.146 366.469 314.597 393.386C315.284 404.805 315.614 417.198 321.111 427.491C321.236 427.62 321.355 427.809 321.549 427.807C321.698 427.775 321.798 427.695 321.939 427.626C321.977 427.618 321.985 427.655 321.951 427.682C321.814 427.77 321.681 427.876 321.513 427.912C321.476 427.92 321.438 427.928 321.401 427.936Z" fill="#A63761"/>
<path d="M350.127 421.461C337.74 404.937 331.913 381.978 334.437 361.408C336.715 347.345 342.923 334.335 348.623 321.413C350.499 317.326 352.461 313.278 354.505 309.252C353.512 316.642 352.17 324.321 350.841 331.783C344.782 361.087 337.956 393.364 350.194 421.408C350.258 421.433 350.202 421.445 350.164 421.453C350.127 421.461 350.108 421.465 350.09 421.469L350.127 421.461Z" fill="#A63761"/>
<path d="M353.598 356.803C347.202 344.771 341.717 332.252 336.578 319.62C336.57 319.583 336.607 319.575 336.615 319.612C358.924 348.974 373.347 368.905 375.956 407.004C371.602 389.289 362.257 372.583 353.602 356.822L353.598 356.803Z" fill="#A63761"/>
<path d="M425.043 316.363C415.012 313.32 404.07 313.495 393.958 315.911C403.25 310.94 414.527 307.222 425.382 308.099C440.897 310.067 454.389 320.542 465.507 330.764C451.53 327.141 438.558 321.197 425.043 316.363Z" fill="#A63761"/>
<path d="M380.139 305.37C379.476 305.551 378.21 306.289 377.827 305.864C377.912 305.534 378.61 305.424 378.964 305.348C414.985 279.545 431.715 286.558 470.038 301.884C433.028 298.35 416.376 288.239 380.143 305.388L380.139 305.37Z" fill="#A63761"/>
<path d="M413.063 319.257C401.953 318.278 390.324 316.337 379.727 320.496C395.59 310.413 421.176 316.43 438.932 320.395C430.14 320.227 421.721 319.98 413.063 319.257Z" fill="#A63761"/>
<path d="M379.615 320.52C379.615 320.52 379.708 320.5 379.746 320.492C379.386 320.725 379.026 320.958 378.685 321.187C378.913 320.884 379.285 320.707 379.615 320.52Z" fill="#A63761"/>
<path d="M379.533 295.24C410.841 265.003 432.24 269.223 471.321 282.535C435.04 282.043 412.382 273.119 379.533 295.24Z" fill="#A63761"/>
<path d="M224.824 316.388C236.733 307.327 250.779 300.969 266.027 301.687C274.721 301.758 283.332 303.272 291.838 304.924C299.067 306.811 307.726 306.812 313.867 310.999C310.535 308.825 306.3 308.99 302.461 308.64C291.363 308.361 279.409 307.816 268.555 308.675C260.628 309.453 252.646 310.517 245.126 313.198C235.591 316.855 226.693 321.938 217.391 326.131C210.514 329.357 203.552 332.913 196.81 336.13C205.999 329.308 215.36 322.743 224.861 316.38L224.824 316.388Z" fill="#A63761"/>
<path d="M221.432 357.976C232.513 346.868 244.335 335.855 259.271 330.282C273.936 324.259 289.867 324.616 305.386 324.048C306.866 323.946 308.361 323.645 309.827 323.566C307.663 324.029 305.074 324.504 302.733 324.868C287.121 326.549 270.888 329.338 256.991 336.855C244.432 343.422 234.27 352.441 223.474 361.323C213.453 369.454 203.336 377.956 193.412 385.989C202.644 376.544 211.984 367.233 221.417 357.998L221.432 357.976Z" fill="#A63761"/>
<path d="M243.418 380.99C248.582 370.484 253.822 359.787 261.879 351.14C271.662 340.349 289.95 329.474 304.187 330.116C295.52 330.351 287.38 335.876 280.223 340.527C264.03 351.713 255.086 369.347 245.439 385.882C238.375 397.808 231.278 410.034 224.159 421.796C230.354 408.086 236.775 394.522 243.403 381.012L243.418 380.99Z" fill="#A63761"/>
<path d="M356.504 273.912C354.723 269.143 354.853 263.732 353.695 258.772C351.945 250.409 349.242 242.327 346.591 234.214C343.335 224.281 340.409 214.062 340.553 203.518C341.18 185.206 347.751 167.69 352.165 150.031C352.157 149.993 352.221 150.019 352.202 150.023C351.018 168.376 347.252 186.697 348.032 205.117C349.24 219.975 354.031 234.262 355.638 249.073C356.208 253.925 356.427 258.871 356.282 263.758C356.564 267.17 355.235 271.355 357.059 274.32C357.096 274.312 357.16 274.337 357.179 274.333C357.235 274.321 357.347 274.297 357.28 274.35C357.243 274.358 357.205 274.366 357.187 274.37C356.87 274.438 356.638 274.176 356.481 273.897L356.504 273.912Z" fill="#A63761"/>
<path d="M363.296 253.696C363.96 238.653 364.578 224.126 365.996 209.234C368.622 186.223 369.165 162.955 371.295 140.088C373.824 160.027 376.845 180.173 375.479 200.321C374.301 219.16 369.822 237.614 366.212 256.115C364.956 262.645 363.374 269.654 363.995 276.113C362.29 268.871 363.167 261.116 363.315 253.692L363.296 253.696Z" fill="#A63761"/>
<path d="M363.325 282.283C363.255 281.225 364.56 280.303 365.17 279.509C369.323 274.857 373.409 270.16 376.939 265.056C386.452 250.811 392.896 234.708 397.853 218.493C404.207 198.78 404.995 177.937 408.496 157.645C409.658 169.099 410.142 181.029 410.428 192.671C410.884 217.325 402.202 242.021 386.09 260.7C379.671 269.074 370.585 274.918 363.361 282.178C363.361 282.178 363.361 282.178 363.369 282.215L363.385 282.29C363.385 282.29 363.385 282.29 363.348 282.298L363.325 282.283Z" fill="#A63761"/>
<path d="M310.365 279.761C300.826 271.268 290.748 263.262 282.083 253.841C269.382 240.408 258.088 225.718 244.932 212.713C229.772 198.635 213.694 185.553 198.191 171.88C198.146 171.851 198.179 171.824 198.221 171.835C215.798 183.173 233.751 194.079 250.268 206.93C262.106 216.784 272.229 228.37 281.348 240.736C291.397 254.444 302.631 267.216 313.358 280.35C315.456 283.412 318.971 286.99 318.676 290.72C318.211 286.08 313.426 282.949 310.343 279.746L310.365 279.761Z" fill="#A63761"/>
<path d="M296.431 285.822C286.779 281.45 276.948 277.428 267.133 273.481C223.782 258.351 209.301 223.376 186.669 187.217C192.45 194.095 198.317 201.559 204.2 208.551C219.674 227.652 235.449 247.157 256.481 260.058C268.55 267.248 281.148 273.448 292.862 281.261C297.562 284.274 302.756 287.493 305.955 292.056C303.233 289.361 299.799 287.345 296.412 285.826L296.431 285.822Z" fill="#A63761"/>
<path d="M183.307 358.62C189.365 353.755 195.42 348.871 201.722 344.325C216.068 334.079 232.774 327.756 249.468 322.47C262.713 318.564 276.36 315.9 290.206 316.079C296.404 316.431 303.742 316.09 309.096 318.963C285.295 313.267 255.611 325.661 233.472 334.394C216.638 340.667 201.417 349.832 186.561 359.699C179.484 364.177 172.284 368.993 165.348 373.402C171.277 368.389 177.29 363.495 183.345 358.612L183.307 358.62Z" fill="#A63761"/>
<path d="M319.438 309.964C320.27 303.915 326.728 300.193 331.98 298.212C335.357 296.768 340.19 298.758 339.254 302.956C338.472 306.595 334.983 308.609 332.297 310.822C330.471 312.13 328.829 313.846 326.727 314.686C326.307 314.912 325.853 315.067 325.424 315.159C322.291 315.829 318.998 313.471 319.46 309.979L319.438 309.964Z" fill="#5C1A18"/>
<path d="M375.732 305.551C371.75 305.447 367.283 306.168 363.911 303.535C362.452 302.364 361.646 300.508 361.927 298.634C362.634 294.368 367.535 293.398 371.095 292.987C374.846 292.38 383.047 294.254 380.207 299.484C381.374 302.024 379.617 304.935 377.062 305.481C376.633 305.573 376.188 305.59 375.732 305.551Z" fill="#5C1A18"/>
<path d="M339.591 327.694C337.506 325.604 338.674 322.039 341.313 321.065C342.025 316.368 348.224 315.901 352.047 315.629C356.185 315.193 360.771 318.308 358.789 322.808C357.243 325.792 353.809 327.15 350.75 328.077C349.743 328.293 348.659 328.603 347.54 328.842C344.724 329.444 341.772 329.685 339.573 327.698L339.591 327.694Z" fill="#5C1A18"/>
<path d="M338.079 288.521C337.035 286.014 338.862 283.341 341.299 282.605C342.381 277.088 350.181 278.268 354.023 280.001C359.754 283.457 356.401 288.933 350.955 290.097C350.087 290.322 349.069 290.579 348.025 290.802C344.332 291.592 340.002 291.952 338.097 288.517L338.079 288.521Z" fill="#5C1A18"/>
<path d="M307.604 304.147C301.69 303.851 303.564 297.384 306.757 294.712C306.151 290.512 312.508 285.31 316.541 285.93C321.317 286.742 321.369 291.821 318.394 294.779C316.719 296.795 314.935 298.756 313.134 300.643C311.843 301.992 310.384 303.65 308.482 304.056C308.202 304.116 307.915 304.139 307.623 304.143L307.604 304.147Z" fill="#5C1A18"/>
<path d="M320.375 338.513C318.644 338.259 317.059 337.233 316.005 335.859C315.593 335.303 315.255 334.634 315.085 333.93C308.493 333.837 304.785 323.337 311.691 320.612C317.535 318.485 327.066 327.213 326.621 333.159C326.528 335.734 324.587 337.963 322.181 338.478C321.603 338.602 320.982 338.617 320.36 338.536L320.375 338.513Z" fill="#5C1A18"/>
<path d="M376.618 287.535L376.412 287.579C373.541 288.193 371.5 285.762 369.632 283.958C367.617 282.106 366.11 280.712 364.222 279.088C362.884 278.028 363.346 275.998 364.792 275.279C366.977 274.188 369.507 275.168 371.577 276.091C374.597 274.255 377.964 277.144 379.639 279.594C381.49 282.416 380.273 286.753 376.823 287.491L376.636 287.531L376.618 287.535Z" fill="#5C1A18"/>
<path d="M327.763 275.943C325.455 272.808 328.784 269.405 332.03 269.081C332.198 263.487 340.545 262.755 344.205 265.463C348.892 269.961 344.054 274.604 339.064 275.437C337.3 275.854 335.222 276.805 333.189 277.24C331.157 277.674 329.263 277.572 327.763 275.943Z" fill="#5C1A18"/>
<path d="M352.144 336.966C350.471 334.066 353.164 331.247 355.707 330.099C358.92 328.436 362.808 325.733 366.403 327.772C372.586 332.516 365.151 338.241 359.983 339.151C359.629 339.227 359.2 339.319 358.734 339.418C355.992 340.005 351.963 340.496 352.14 336.947L352.144 336.966Z" fill="#5C1A18"/>
<path d="M379.379 324.159C378.745 324.294 378.174 324.085 377.78 323.701C372.183 322.792 373.161 313.045 378.937 313.701C379.356 311.193 378.729 307.895 381.451 306.396C384.529 304.743 388.667 307.31 388.959 310.681C389.14 312.261 388.615 313.816 387.802 315.121C385.739 318.059 383.669 321.603 380.499 323.373C380.249 323.758 379.879 324.032 379.454 324.143L379.379 324.159Z" fill="#5C1A18"/>
<path d="M289.304 363.843C288.561 363.378 288.331 362.393 288.778 361.654C291.187 357.511 293.951 353.565 296.746 349.671C299.543 345.972 302.656 341.288 307.331 340.074C308.09 340.068 308.407 341.092 307.799 341.534C300.676 347.348 296.415 355.691 291.512 363.312C291.281 363.693 290.907 363.949 290.478 364.041C290.086 364.124 289.663 364.059 289.304 363.843Z" fill="#5C1A18"/>
<path d="M379.791 286.232C377.848 285.263 380.224 283.058 380.874 281.905C391.934 266.959 409.566 259.131 425.187 249.92C427.125 248.862 428.802 251.78 426.857 252.898C411.421 262.148 393.397 269.24 382.137 283.799C381.399 284.542 381.292 286.048 380.322 286.255C380.173 286.287 379.997 286.286 379.791 286.232Z" fill="#5C1A18"/>
<path d="M305.382 295.396C283.607 275.009 252.256 274.224 224.208 270.646C222.84 270.451 223.12 268.206 224.56 268.464C249.869 271.907 277.349 272.739 298.731 288.373C299.693 289.494 308.266 294.838 306.18 295.752C306.142 295.76 306.105 295.768 306.086 295.772C305.807 295.832 305.483 295.687 305.363 295.4L305.382 295.396Z" fill="#5C1A18"/>
<path d="M261.984 396.68C261.417 396.216 261.388 395.442 261.777 394.891C267.745 386.866 273.821 378.896 279.929 370.978C288.953 359.374 306.733 337.276 322.927 339.411C323.683 339.756 323.411 340.946 322.584 340.908C322.262 340.86 321.922 340.64 321.574 340.656C300.659 343.802 286.21 367.976 273.771 383.217C270.403 387.624 267.073 392.022 263.755 396.477C263.589 396.707 263.329 396.86 263.068 396.916C262.695 396.996 262.287 396.908 261.984 396.68Z" fill="#5C1A18"/>
<path d="M423.463 396.611C417.767 388.486 411.966 380.423 406.156 372.401C396.628 358.855 384.894 343.381 367.404 341.114C365.801 341.281 365.507 338.809 367.138 338.596C379.322 339.209 390.026 347.589 397.945 356.35C408.19 368.416 417.081 381.631 426.393 394.443C427.303 395.692 426.372 397.081 425.234 397.324C424.619 397.456 423.977 397.281 423.467 396.629L423.463 396.611Z" fill="#5C1A18"/>
</g>
<defs>
<clipPath id="clip0_49_293">
<rect width="556" height="1650" fill="white" transform="translate(0 116.274) rotate(-12.0712)"/>
</clipPath>
</defs>
</svg>
