<svg width="1047" height="1759" viewBox="0 0 1047 1759" fill="none" xmlns="http://www.w3.org/2000/svg">
<g clip-path="url(#clip0_49_113)">
<path d="M224.658 927.074C204.997 931.289 191.081 909.539 204.969 893.355C210.217 886.133 218.417 883.659 226.462 881.226C228.154 880.718 229.845 880.209 231.493 879.675C235.045 876.323 235.373 870.586 237.441 866.247C240.123 854.136 248.68 844.034 260.612 840.19C262.292 839.5 264.08 839.076 265.864 838.635C268.811 837.919 271.775 837.199 274.246 835.392C278.192 832.064 280.408 827.242 283.319 823.083C290.313 813.492 300.186 803.203 312.877 803.088C327.672 803.795 336.954 818.867 339.935 831.989C343.274 846.585 332.798 859.38 321.761 867.526C303.901 882.189 283.447 893.024 264.048 905.386C255.607 911.026 247.305 916.98 238.554 922.15C235.841 923.671 233.018 925.609 229.971 926.573C228.271 927.121 226.506 927.354 224.671 927.052L224.658 927.074Z" fill="#A63761"/>
<path d="M624.929 698.629C605.709 702.284 585.867 704.037 566.32 703.718C550.581 702.174 533.632 699.7 520.282 690.74C507.213 682.001 506.889 651.919 525.859 651.12C530.843 651.114 535.374 653.482 539.108 656.598C542.143 658.831 544.365 662.575 548.162 663.515C553.325 663.627 557.646 659.976 562.172 657.914C573.41 651.414 581.756 652.722 591.407 661.177C596.303 666.217 600.261 666.448 606.455 663.515C618.605 656.973 627.865 656.523 639.094 665.422C649.923 677.31 642.164 693.421 628.476 697.808C627.336 698.169 626.138 698.453 624.917 698.651L624.929 698.629Z" fill="#A63761"/>
<path d="M605.225 965.993C603.33 964.433 602.498 962.015 602.16 959.65C600.721 957.728 599.87 955.445 599.303 953.123C595.582 941.787 605.926 931.464 616.097 928.351C620.314 926.999 624.797 926.85 628.997 925.503C631.573 924.573 633.799 922.887 635.279 920.626C639.201 915.07 644.564 910.624 650.804 907.862C656.04 905.352 661.88 904.064 667.663 905.247C672.211 905.819 677.071 909.003 681.525 906.609C686.125 903.586 689.058 898.683 693.702 895.685C706.77 885.056 722.387 888.829 726.751 905.735C729.252 913.484 730.356 922.568 726.289 929.99C717.182 943.139 687.777 952.2 663.786 959.551C654.45 962.404 645.915 965.005 639.727 967.475C628.827 970.968 615.115 972.925 605.196 966.019L605.225 965.993Z" fill="#A63761"/>
<path d="M512.678 1087.26C496.682 1092.06 481.939 1083.62 471.79 1071.59C457.161 1054.48 444.533 1030.78 450.48 1007.77C452.869 999.874 453.327 991.314 458.267 984.322C468.447 969.667 488.644 976.755 496.324 990.188C500.711 996.914 504.087 1003.17 513.174 1002.49C526.275 1005.15 528.736 1017.99 530.538 1029.19C532.149 1033.61 537.433 1032.46 540.875 1034.41C545.496 1036.98 550.933 1041.84 550.527 1047.56C545.715 1065.23 531.061 1081.37 513.478 1087.01C513.22 1087.08 512.949 1087.17 512.695 1087.26L512.678 1087.26Z" fill="#A63761"/>
<path d="M663.666 389.628C646.072 388.121 627.772 332.022 621.169 315.993C616.321 301.69 608.28 286.841 610.814 271.354C611.194 266.433 613.56 258.931 619.887 260.836C637.442 257.646 646.341 274.943 646.228 290.095C646.886 301.44 655.459 305.18 663.367 311.056C673.883 320.257 665.588 333.059 667.685 344.332C670.548 351.707 677.224 357.396 677.952 365.694C679.772 374.142 677.005 386.349 668.416 389.094C666.987 389.551 665.416 389.75 663.666 389.628Z" fill="#A63761"/>
<path d="M360.609 551.294C345.372 556.171 329.262 556.481 313.555 553.544C302.687 550.401 284.448 550.967 281.43 537.43C281.464 533.765 278.928 530.642 279.25 526.881C279.559 519.284 285.377 512.537 292.647 510.589C298.26 508.66 303.552 511.802 309.035 511.866C314.717 511.433 318.9 507.819 323.118 504.197C326.461 501.307 329.856 498.403 334.07 497.108C343.82 493.461 354.167 497.483 362.962 501.847C369.663 505.424 375.306 500.367 380.093 496.112C399.803 479.809 409.517 508.002 401.094 523.423C393.432 538.659 376.564 546.133 361.121 551.138C360.949 551.185 360.777 551.231 360.609 551.294Z" fill="#A63761"/>
<path d="M161.616 254.628C160.699 254.929 159.772 255.122 158.795 255.125C157.643 255.102 156.607 254.678 155.785 253.956C128.386 249.759 138.04 211.778 158.604 204.385C160.905 203.325 163.38 202.846 165.834 202.355C168.451 201.857 171.047 201.346 173.446 200.168C177.112 198.207 177.025 193.541 178.395 190.109C180.15 184.875 183.037 180.076 186.753 175.96C198.368 163.007 218.717 157.223 235.072 163.752C255.21 172.96 256.399 164.444 268.171 150.563C287.147 130.763 308.155 157.001 298.158 177.164C293.258 185.752 284.048 190.453 275.912 195.44C257.79 206.296 239.074 216.038 220.291 225.668C201.263 236.176 182.249 247.216 161.788 254.582C161.736 254.596 161.667 254.614 161.616 254.628Z" fill="#A63761"/>
<path d="M622.944 299.879C622.636 299.278 623.07 298.626 623.714 298.546C624.729 298.201 625.781 297.716 626.748 297.327C643.512 290.361 657.197 278.109 669.393 264.982C670.302 263.963 671.987 265.358 671.014 266.412C660.201 278.707 648.064 290.194 632.905 296.878C630.056 298.305 626.986 299.183 624.068 300.353C623.66 300.481 623.146 300.286 622.944 299.879Z" fill="#5C1A17"/>
<path d="M704.236 346.022C693.241 346.402 682.049 345.911 671.309 348.623C662.917 350.447 655.275 354.452 647.627 358.163C646.469 358.455 646.263 356.793 647.433 356.609C655.804 352.501 664.258 347.872 673.472 345.736C683.453 343.227 693.833 343.511 704.048 343.322C705.63 343.23 705.933 345.531 704.59 345.964C704.47 345.997 704.349 346.029 704.219 346.027L704.236 346.022Z" fill="#5C1A17"/>
<path d="M645.583 332.271C645.225 332.312 644.751 332.476 644.244 332.649C642.997 333.094 641.508 333.603 641.122 332.507C641.01 332.02 641.383 331.551 641.888 331.507C645.817 330.252 649.605 328.609 653.33 326.798C666.114 320.622 676.579 310.82 687.589 302.017C688.676 301.043 690.267 302.777 689.124 303.748C676.274 314.779 663.36 326.604 646.947 331.85C646.504 331.988 646.061 332.125 645.596 332.25L645.583 332.271Z" fill="#5C1A17"/>
<path d="M672.949 272.19C665.057 274.434 660.559 261.367 668.094 258.203C672.67 256.054 676.174 259.14 677.264 263.002C678.281 266.588 677.201 270.829 673.001 272.176C672.984 272.18 672.967 272.185 672.949 272.19Z" fill="#5C1A17"/>
<path d="M690.592 308.746C684.206 308.961 681.953 298.764 687.306 295.723C691.723 293.672 694.714 296.563 695.539 300.127C696.296 303.432 695.168 307.353 691.566 308.521C691.256 308.605 690.946 308.688 690.592 308.746Z" fill="#5C1A17"/>
<path d="M706.561 351.529C701.699 352.333 699.378 346.567 700.874 342.64C700.452 339.411 703.2 336.847 706.308 336.734C713.326 337.014 713.892 349.325 707.717 351.293C707.36 351.407 706.976 351.492 706.561 351.529Z" fill="#5C1A17"/>
<path d="M189.093 218.389C186.248 215.902 184.5 211.792 181.994 208.918C177.219 202.535 171.811 196.618 166.213 190.954C159.931 184.735 153.581 178.608 147.26 172.455C146.812 172.021 146.722 171.344 147.147 170.861C147.546 170.421 148.302 170.348 148.729 170.769C156.402 178.111 164.249 185.277 171.56 192.992C178.44 200.27 184.528 208.313 189.619 216.975C190.191 217.32 189.946 218.198 189.404 218.38C189.318 218.403 189.215 218.431 189.115 218.402L189.093 218.389Z" fill="#5C1A17"/>
<path d="M221.764 194.643C214.353 184.351 207.719 173.444 202.631 161.828C197.39 148.813 194.471 135.027 190.71 121.542C190.273 119.499 193.493 118.765 193.931 120.882C198.793 138.614 202.043 156.945 210.676 173.317C214.352 180.419 218.392 187.294 223.219 193.663C223.609 194.223 223.229 194.804 222.704 194.982C222.377 195.07 222.03 195.015 221.764 194.643Z" fill="#5C1A17"/>
<path d="M251.584 187.89C243.529 169.887 245.98 149.401 247.653 130.286C247.722 129.03 249.723 129.122 249.611 130.426C248.73 144.989 246.962 159.753 249.944 174.187C250.793 178.39 251.62 182.785 252.947 186.842C253.141 187.362 252.778 187.865 252.317 188.007C252.059 188.077 251.799 188.072 251.567 187.894L251.584 187.89Z" fill="#5C1A17"/>
<path d="M249.894 134.652C243.92 135.514 238.593 126.381 245.096 123.364C249.101 121.497 255.548 125.364 253.745 130.075C253.059 131.718 252.581 133.932 250.761 134.512C250.502 134.581 250.205 134.643 249.894 134.652Z" fill="#5C1A17"/>
<path d="M188.829 115.898C192.013 114.343 197.309 113.09 199.849 116.231C201.729 120.011 197.774 124.338 194.117 125.023C193.821 125.158 193.503 125.28 193.197 125.38C186.717 127.449 182.866 119.693 188.811 115.902L188.829 115.898Z" fill="#5C1A17"/>
<path d="M146.991 178.823C144.913 179.269 142.946 177.304 143.296 175.234C143.022 170.489 146.753 165.464 151.571 164.838C159.938 165.329 154.376 176.752 148.661 178.579C148.102 178.766 147.549 178.84 146.991 178.823Z" fill="#5C1A17"/>
<path d="M250.824 129.03C250.97 128.954 251.116 128.878 251.257 128.785C251.309 128.771 251.369 128.718 251.433 128.682C250.903 128.289 250.128 128.497 249.528 128.602C249.946 128.785 250.373 128.929 250.82 129.013L250.824 129.03ZM250.039 135.333C247.046 134.363 244.655 131.366 244.723 128.172C244.185 127.061 245.672 126.201 246.495 127.07C244.437 121.731 253.144 121.079 255.837 124.031C260.896 127.476 258.21 133.716 253.602 135.191C252.496 135.543 251.281 135.628 250.039 135.333Z" fill="#5C1A17"/>
<path d="M323.718 531.934C320.416 519.747 315.883 508 309.388 497.13C306.545 491.891 303.731 486.626 300.934 481.357C300.603 480.744 300.884 479.93 301.506 479.634C302.141 479.316 302.899 479.593 303.234 480.224C308.616 490.524 314.535 500.625 319.055 511.36C321.771 517.777 323.281 524.721 325.124 531.391C325.3 531.842 325.012 532.215 324.638 532.333C324.293 532.426 323.902 532.346 323.705 531.955L323.718 531.934Z" fill="#5C1A17"/>
<path d="M372.018 524.826C367.168 509.619 369.549 493.491 371.335 477.965C371.426 477.202 372.073 476.586 372.883 476.645C373.637 476.702 374.284 477.396 374.198 478.176C373.24 490.176 371.254 502.266 372.413 514.307C372.7 517.516 372.967 520.787 373.751 523.918C374.182 524.357 374.091 525.12 373.595 525.474C373.518 525.532 373.432 525.555 373.368 525.59C372.809 525.777 372.116 525.464 372.036 524.821L372.018 524.826Z" fill="#5C1A17"/>
<path d="M339.234 520.723C337.721 510.254 334.04 500.513 328.778 491.417C326.283 486.861 323.758 482.331 321.234 477.801C320.917 477.239 321.211 476.477 321.765 476.2C322.365 475.891 323.049 476.17 323.366 476.731C328.742 486.184 334.519 495.547 338.08 505.874C339.719 510.475 340.281 515.328 340.964 520.149C341.272 520.749 340.891 521.258 340.396 521.409C339.936 521.55 339.38 521.404 339.221 520.745L339.234 520.723Z" fill="#5C1A17"/>
<path d="M321.195 479.103C320.413 479.147 319.614 478.992 318.941 478.618C310.989 478.293 316.64 466.033 322.683 469.085C326.857 470.81 326.461 477.6 322.429 478.884C322.054 479.002 321.636 479.096 321.19 479.086L321.195 479.103Z" fill="#5C1A17"/>
<path d="M372.473 480.282C366.985 479.167 364.501 469.549 371.579 469.093C378.722 468.804 380.949 478.288 375.441 480.059C374.623 480.315 373.634 480.414 372.473 480.282Z" fill="#5C1A17"/>
<path d="M303.731 484.835C302.797 485.141 301.769 485.232 300.872 485.121C294.356 483.544 297.358 474.007 303.382 474.645C307.186 474.715 309.167 479.834 306.91 482.71C306.178 483.7 305.039 484.411 303.795 484.8C303.778 484.804 303.743 484.814 303.726 484.818L303.731 484.835Z" fill="#5C1A17"/>
<path d="M321.1 473.442C321.239 473.756 321.081 474.131 320.799 474.317C320.868 474.299 320.936 474.28 321.005 474.262C321.524 473.993 322.547 473.812 322.635 473.179C322.093 473.361 321.518 473.349 320.979 473.198C321.036 473.275 321.077 473.356 321.1 473.442ZM321.999 480.587C318.683 481.789 316.227 480.065 315.303 477.857C314.226 475.284 315.235 472.023 319.418 471.991C317.675 468.932 321.935 466.498 324.542 467.683C329.872 470.279 327.929 478.739 322.778 480.396C322.52 480.466 322.262 480.535 321.999 480.587Z" fill="#5C1A17"/>
<path d="M548.317 687.937C545.713 683.594 546.607 676.246 546.332 671.224C546.26 656.417 551.508 642.512 556.247 628.706C556.841 626.995 559.517 627.885 558.91 629.617C552.735 647.574 547.382 666.53 549.996 685.659C550.802 686.459 550.261 687.748 549.344 688.049C549.017 688.137 548.684 688.134 548.317 687.937Z" fill="#5C1A17"/>
<path d="M569.03 685.507C568.406 685.453 568.033 684.888 568.114 684.294C569.02 678.512 569.554 672.719 571.069 667.07C573.527 656.534 579.886 647.537 585.025 638.184C585.302 637.703 585.869 637.477 586.38 637.728C586.851 637.971 587.095 638.607 586.818 639.088C582.131 647.988 576.492 656.644 573.644 666.343C571.922 672.251 570.956 678.363 570.111 684.442C570.11 684.922 569.831 685.329 569.41 685.479C569.289 685.511 569.169 685.544 569.034 685.524L569.03 685.507Z" fill="#5C1A17"/>
<path d="M591.714 693.608C590.525 680.006 597.293 666.948 603.677 655.286C605.382 652.208 607.087 649.129 608.83 646.058C609.247 645.338 610.115 644.994 610.883 645.379C611.607 645.739 611.956 646.698 611.562 647.431C604.128 661.793 594.983 676.245 593.467 692.64C593.812 693.305 593.39 693.935 592.843 694.1C592.434 694.228 591.978 694.11 591.71 693.591L591.714 693.608Z" fill="#5C1A17"/>
<path d="M611.457 650.487C603.418 651.7 604.303 639.222 611.5 639.139C615.06 639.053 620.377 643.463 617.656 647.091C616.145 648.271 613.824 649.742 611.884 650.354C611.728 650.396 611.591 650.433 611.453 650.47L611.457 650.487Z" fill="#5C1A17"/>
<path d="M588.737 644.39C585.514 644.902 582.381 642.308 582.094 639.098C577.79 633.512 586.851 629.497 591.197 632.69C596.404 634.895 595.071 642.6 590.312 644.134C589.817 644.285 589.303 644.367 588.737 644.39Z" fill="#5C1A17"/>
<path d="M555.238 633.555C551.948 634.436 548.854 631.85 548.324 628.631C547.316 623.492 552.217 618.763 557.318 619.815C564.792 620.489 564.303 631.827 558.709 633.622C557.706 633.946 556.547 633.961 555.234 633.537L555.238 633.555Z" fill="#5C1A17"/>
<path d="M611.326 651.169C607.565 650.57 604.888 646.229 606.994 642.858C609.172 639.616 610.365 642.139 611.284 644.533C611.177 642.273 614.075 640.961 615.736 642.473C618.712 645.035 617.083 650.051 613.77 651.123C613.021 651.361 612.2 651.396 611.326 651.169Z" fill="#5C1A17"/>
<path d="M584.685 643.943C580.964 643.703 578.342 638.534 581.281 635.789C582.825 634.176 586.446 634.738 585.151 637.485C585.364 637.797 585.629 638.096 585.939 638.289C588.638 639.265 588.144 643.071 585.829 643.803C585.484 643.895 585.113 643.957 584.697 643.921L584.685 643.943Z" fill="#5C1A17"/>
<path d="M655.517 947.366C644.508 939.219 635.88 928.588 628.964 916.834C625.177 910.076 620.033 903.626 617.158 896.55C617.353 895.279 619.254 894.862 619.927 895.992C629.393 911.199 637.616 927.625 650.608 940.207C652.648 942.171 654.878 944.084 656.857 946.028C657.261 946.363 657.285 947.003 656.941 947.372C656.826 947.495 656.685 947.588 656.534 947.647C656.19 947.739 655.782 947.664 655.522 947.383L655.517 947.366Z" fill="#5C1A17"/>
<path d="M669.13 940.561C657.716 921.667 653.857 899.548 648.647 878.382C648.338 876.951 650.617 876.433 650.906 877.924C655.595 897.698 659.379 917.953 668.753 936.12C669.339 937.274 669.863 938.334 670.545 939.296C670.894 939.701 670.835 940.307 670.464 940.647C670.374 940.726 670.263 940.793 670.142 940.825C669.785 940.939 669.36 940.868 669.13 940.561Z" fill="#5C1A17"/>
<path d="M684.968 938.957C679.789 926.11 680.426 911.464 679.24 897.806C678.936 892.33 678.628 886.836 678.324 881.361C678.218 879.727 680.785 879.519 680.882 881.192C682.416 899.872 681.412 919.139 686.221 937.366C687.036 937.923 686.573 938.952 685.875 939.176C685.583 939.254 685.279 939.225 684.972 938.975L684.968 938.957Z" fill="#5C1A17"/>
<path d="M680.272 883.534C674.774 883.272 672.992 873.521 678.648 872.097C685.495 870.706 688.016 881.422 682.249 883.263C681.673 883.454 681.012 883.539 680.268 883.517L680.272 883.534Z" fill="#5C1A17"/>
<path d="M651.683 882.683C649.411 882.886 645.948 881.746 645.791 879.092C642.703 875.839 646.8 870.938 650.549 870.801C657.844 870.324 659.332 880.357 652.972 882.393C652.58 882.517 652.145 882.615 651.683 882.683Z" fill="#5C1A17"/>
<path d="M617.606 902.079C615.383 901.844 613.018 900.115 612.861 897.738C612.829 897.137 612.923 896.522 613.142 895.964C612.675 891.326 618.302 889.172 622.072 890.562C628.786 892.88 626.193 900.222 621.038 901.862C619.983 902.2 618.825 902.288 617.602 902.062L617.606 902.079Z" fill="#5C1A17"/>
<path d="M651.961 884.824C651.961 884.824 651.909 884.838 651.875 884.847C647.451 886.254 642.535 882.309 643.568 877.62C644.181 873.911 648.282 870.541 651.24 874.069C655.456 871.406 658.606 877.578 656.448 880.963C655.498 882.658 653.876 884.182 651.991 884.797C651.991 884.797 651.974 884.802 651.957 884.807L651.961 884.824Z" fill="#5C1A17"/>
<path d="M677.326 884.804C670.161 883.973 670.532 871.577 678.141 872.824C679.407 870.38 683.222 870.078 685.298 871.626C690.644 876.139 687.657 882.977 682.265 884.699C680.767 885.174 679.073 885.259 677.321 884.786L677.326 884.804Z" fill="#5C1A17"/>
<path d="M242.988 888.67C229.395 877.634 211.107 874.706 195.072 868.479C193.336 867.855 194.341 865.13 196.087 865.788C209.045 870.181 222.425 873.741 234.527 880.247C238.103 882.224 241.457 884.335 244.475 887.053C244.932 887.448 244.944 888.183 244.54 888.605C244.413 888.75 244.254 888.848 244.082 888.894C243.708 889.013 243.3 888.937 242.988 888.67Z" fill="#5C1A17"/>
<path d="M274.309 865.396C258.022 853.402 245.994 836.906 233.433 821.311C232.982 820.73 233.032 819.885 233.591 819.422C234.15 818.958 235.021 819.039 235.485 819.598C244.566 830.679 253.136 842.267 263.211 852.51C267.093 856.455 271.189 860.232 275.771 863.343C276.742 864.006 276.228 865.325 275.363 865.612C275.036 865.7 274.676 865.667 274.313 865.414L274.309 865.396Z" fill="#5C1A17"/>
<path d="M297.241 853.473C284.049 841.314 280.146 823.509 275.382 806.969C274.761 804.79 274.14 802.612 273.507 800.455C273.309 799.714 273.706 798.925 274.443 798.709C275.162 798.498 275.973 798.908 276.189 799.644C281.822 817.706 284.789 837.737 298.655 851.654C299.652 852.273 299.149 853.497 298.319 853.775C297.992 853.863 297.61 853.817 297.246 853.49L297.241 853.473Z" fill="#5C1A17"/>
<path d="M273.495 804.132C267.647 805.183 265.019 796.618 269.132 793.153C270.673 791.946 272.633 791.199 274.613 791.352C277.968 791.745 280.998 795.955 279.26 799.117C279.461 801.518 277.333 803.086 275.155 803.78C274.613 803.962 274.035 804.08 273.517 804.145L273.495 804.132Z" fill="#5C1A17"/>
<path d="M233.723 825.424C232.5 825.272 231.188 824.718 230.538 823.6C230.026 822.722 229.702 821.72 230.005 820.715C227.254 817.132 232.368 813.066 235.981 814.35C241.479 816.127 240.737 823.692 236.025 825.195C235.345 825.414 234.554 825.497 233.723 825.424Z" fill="#5C1A17"/>
<path d="M190.166 865.879C187.888 861.375 195.059 856.37 198.706 859.713C201.846 862.749 199.696 870.711 195.934 872.383C192.375 873.503 188.303 869.332 190.171 865.896L190.166 865.879Z" fill="#5C1A17"/>
<path d="M232.715 824.697C225.274 826.008 227.265 813.935 233.744 815.375C235.349 815.646 236.303 817.071 236.923 818.418C237.843 820.406 234.713 821.817 233.845 819.816C233.69 819.857 233.525 819.864 233.366 819.889C233.319 819.92 233.281 819.985 233.251 820.012C235.089 821.015 234.824 824.021 232.836 824.665C232.784 824.679 232.75 824.688 232.698 824.702L232.715 824.697Z" fill="#5C1A17"/>
<path d="M274.849 804.637C272.564 804.862 269.812 804.03 268.639 801.926C267.543 799.56 266.764 796.169 268.766 794.063C270.094 792.267 276.357 791.383 274.466 794.936C273.467 795.481 272.444 795.866 271.666 796.683C271.613 796.901 271.639 797.134 271.642 797.354L271.608 797.364C271.661 797.7 271.788 798.035 271.802 798.087C271.987 798.573 272.207 799.049 272.444 799.521C273.677 800.262 274.938 799.592 275.99 798.903C275.094 797.556 274.789 795.662 276.369 794.666C278.703 793.247 280.421 795.87 280.892 797.904C281.909 801.213 278.563 803.476 275.706 804.389C275.396 804.472 275.12 804.546 274.827 804.625L274.849 804.637Z" fill="#5C1A17"/>
<path d="M659.811 1694.6C635.916 1649.25 619.559 1600.13 606.546 1550.73C589.994 1488.68 574.933 1426.07 563.57 1362.85C543.309 1252.85 543.452 1140.64 530.19 1029.82C526.063 993.537 518.669 957.743 511.643 921.942C506.039 892.758 500.447 863.552 492.938 834.768C472.222 760.004 444.383 687.186 412.195 616.605C394.115 575.937 370.754 537.886 348.331 499.546C329.535 468.468 308.883 438.46 292.125 406.172C269.385 363.338 249.982 316.287 249.52 267.151C249.524 265.857 250.383 264.723 251.745 264.635C253.015 264.553 254.209 265.562 254.256 266.842C256.783 302.87 268.988 337.947 283.366 370.725C298.931 403.869 317.481 435.473 337.344 466.191C360.635 502.877 382.479 540.504 403.246 578.661C433.156 637.981 458.027 699.723 478.964 762.703C494.886 808.065 507.172 854.605 515.956 901.862C525.36 949.155 535.882 996.279 541.188 1044.26C552.29 1129.8 554.461 1216.25 566.639 1301.67C572.943 1348.83 582.259 1395.52 592.699 1441.93C602.888 1491.12 613.477 1540.42 626.716 1588.87C634.68 1617.42 643.54 1646.21 655.387 1673.33C658.164 1679.77 661.023 1686.17 663.947 1692.53C664.476 1693.68 664.071 1695.06 662.913 1695.63C662.801 1695.7 662.703 1695.74 662.599 1695.77C661.545 1696.11 660.326 1695.62 659.811 1694.6Z" fill="#778353"/>
<path d="M456.727 712.995C451.712 699.587 453.021 685.038 452.452 670.992C451.996 642.829 454.206 614.764 456.916 586.768C459.257 555.676 464.836 524.677 473.553 494.776C484.898 449.53 507.445 406.95 542.538 375.705C551.486 367.547 560.505 359.444 569.571 351.383C570.509 350.541 572.012 350.637 572.858 351.592C573.71 352.564 573.587 354.037 572.65 354.879C562.002 364.619 551.398 374.66 541.146 384.774C501.377 423.033 483.207 476.847 473.945 529.936C466.121 572.817 461.759 616.488 460.176 660.06C459.686 673.596 459.281 687.109 459.016 700.658C459.199 704.375 459.057 708.254 460.422 711.765C461.122 712.999 460.246 714.139 459.157 714.486C458.224 714.791 457.106 714.481 456.741 713.047L456.727 712.995Z" fill="#778353"/>
<path d="M518.036 946.834C506.406 922.311 492.726 898.134 470.409 882.033C455.898 870.67 439.197 862.572 424.576 851.35C405.178 837.254 386.887 820.608 374.397 799.971C361.986 779.424 355.786 755.736 350.381 732.739C342.904 694.843 341.886 655.347 346.425 617.02C347.605 605.367 352.109 593.858 350.527 582.096C350.244 581.452 350.501 580.552 351.246 580.297C354.924 579.349 354.833 597.061 354.353 599.682C352.879 614.441 351.332 629.478 351.183 644.289C351.447 677.525 351.542 711.232 360.745 743.44C368.629 776.518 383.823 806.345 409.062 829.492C431.239 851.688 459.707 866.142 483.28 886.449C492.998 894.738 501.842 904.314 507.856 915.664C512.803 925.305 516.577 935.464 521.176 945.254C521.559 946.13 521.265 947.169 520.385 947.608C520.299 947.631 520.222 947.689 520.153 947.707C519.37 947.954 518.425 947.598 518.053 946.83L518.036 946.834Z" fill="#778353"/>
<path d="M567.89 1357.61C567.072 1357.87 566.177 1357.35 566.007 1356.51C554.798 1294.21 628.25 1259.76 662.307 1218.86C699.371 1174.36 716.51 1121.45 707.565 1063.88C705.608 1048.86 700.948 1034.43 697.026 1019.86C693.748 1006.32 691.229 992.577 688.369 978.942C687.775 976.24 692.203 974.85 692.905 978.022C695.488 990.143 698.821 1002.86 701.978 1014.64C716.139 1056.87 722.904 1103.14 710.162 1146.62C697.079 1184.96 675.708 1221.32 645.058 1248.2C614.434 1278.41 568.424 1307.23 568.621 1355.03C569.03 1355.94 569.026 1357.23 567.925 1357.6C567.925 1357.6 567.907 1357.61 567.89 1357.61Z" fill="#778353"/>
<path d="M625.038 1585.29C621.55 1585.5 621.634 1580.44 620.84 1578.03C615.667 1546.94 630.57 1517.25 643.024 1489.65C655.728 1466.08 664.959 1440.99 673.524 1415.69C685.176 1379.25 696.857 1342.42 702.688 1304.51C711.11 1229.82 703.725 1152.02 669.977 1084.16C655.14 1052.36 632.623 1025.17 614.376 995.389C603.877 978.189 595.072 960.073 586.545 941.826C573.726 913.006 559.091 884.433 555.375 852.786C553.843 839.146 552.614 825.461 552.721 811.733C552.99 787.308 556.162 762.419 556.402 738.095C556.404 730.727 556.251 723.402 555.366 716.106C554.739 713.763 555.281 710.756 558.075 710.229C569.305 706.038 563.891 779.827 563.569 787.926C559.472 853.331 570.926 883.052 598.705 940.211C609.125 962.215 620.143 984.04 633.767 1004.15C651.019 1029.05 668.628 1053.84 681.816 1081.21C707.448 1133.11 718.425 1190.89 717.409 1248.57C718.051 1290.38 709.785 1331.41 697.27 1371.11C686.712 1405.79 676.524 1440.81 661.2 1473.76C645.846 1505.7 626.241 1537.96 625.823 1574.37C625.864 1577.07 625.927 1579.79 626.258 1582.47C626.893 1583.46 626.368 1584.88 625.249 1585.25C625.18 1585.27 625.111 1585.29 625.025 1585.31L625.038 1585.29Z" fill="#778353"/>
<path d="M619.466 1574.49C614.359 1572.31 610.472 1566.28 606.227 1562.64C597.32 1553.93 588.276 1545.33 578.728 1537.32C551.729 1516.57 522.345 1498.28 500.257 1471.87C446.448 1411.22 414.709 1333.9 395.487 1255.9C379.803 1186.82 372.821 1116.04 355.666 1047.26C345.669 1013.33 339.297 977.834 321.965 946.641C311.841 929.598 301.108 912.903 290.097 896.412C288.953 894.761 289.438 892.435 291.076 891.312C292.748 890.181 295.036 890.657 296.158 892.295C300.579 898.662 304.896 905.057 309.252 911.46C323.121 931.247 336.003 951.964 343.658 975.022C351.909 1001.82 359.941 1028.76 366.53 1056.04C383.811 1126.94 391.909 1199.75 408.966 1270.71C428.51 1350.13 462.435 1428.57 521.32 1486.74C540.686 1505.33 563.741 1519.02 584.304 1536.01C596.324 1546.42 607.516 1557.73 617.967 1569.72C618.818 1570.97 620.401 1571.71 620.875 1573.13C620.916 1573.77 620.513 1574.26 620.001 1574.42C619.811 1574.47 619.639 1574.51 619.444 1574.47L619.466 1574.49Z" fill="#778353"/>
<path d="M519.4 1492.94C512.417 1488.59 508.169 1480.86 503.824 1474.09C499.604 1467.3 496.219 1459.97 494.629 1452.11C487.994 1416.94 498.469 1381.47 498.005 1346.11C497.689 1310.62 492.302 1275.01 481.347 1241.22C462.86 1192.55 432.354 1151.27 446.684 1096.01C449.342 1085.53 454.452 1075.79 460.795 1067.08C461.713 1065.82 463.415 1065.42 464.74 1066.3C466.005 1067.16 466.404 1068.99 465.508 1070.27C463.375 1073.33 461.374 1076.54 459.708 1079.91C433.35 1134.59 466.288 1184.4 486.249 1234.29C496.301 1263.54 501.883 1294.5 504.892 1325.23C506.994 1348.1 506.26 1371.13 504.126 1393.97C502.162 1413.03 500.425 1432.46 503.725 1451.46C506.157 1463.85 512.737 1474.9 518.705 1485.87C519.618 1487.9 521.202 1490.02 520.799 1492.31C521.26 1492.92 520.905 1493.46 520.428 1493.61C520.019 1493.73 519.497 1493.58 519.39 1492.9L519.4 1492.94Z" fill="#778353"/>
<path d="M367.074 594.649C336.5 603.616 303.435 586.203 288.397 559.159C285.762 553.736 281.809 549.182 279.179 543.775C277.228 537.873 277.78 530.561 280.289 524.904C285.619 516.404 297.253 517.995 304.928 522.105C309.357 523.817 312.756 528.372 317.591 528.018C326.662 523.556 329.226 511.625 338.292 507.147C344.183 504.257 351.469 505.536 356.621 509.399C361.321 512.534 364.771 517.832 369.98 519.63C373.425 519.464 375.624 516.161 378.086 514.116C382.051 509.897 387.753 506.301 393.739 507.965C414.688 515.793 403.856 547.239 398.187 562.605C392.516 576.31 382.403 589.766 367.793 594.437C367.552 594.502 367.316 594.584 367.057 594.653L367.074 594.649Z" fill="#F479BA"/>
<path d="M644.983 409.829C618.493 416.54 589.269 406.498 570.02 387.653C543.44 361.154 545.133 321.578 568.587 293.617C579.068 280.913 591.558 269.295 606.721 262.555C608.928 261.557 611.296 260.886 613.657 260.327C614.904 259.328 616.893 259.035 618.378 259.616C619.859 259.422 621.793 260.436 621.543 262.054C629.878 273.04 626.197 287.486 629.137 299.973C631.677 304.906 637.078 307.354 640.608 311.43C649.741 320.984 649.163 334.746 649.945 347.036C650.979 358.612 666.393 360.39 669.635 371.043C675.062 386.815 662.998 404.227 647.813 409.09C646.896 409.391 645.944 409.627 644.987 409.847L644.983 409.829Z" fill="#F479BA"/>
<path d="M255.986 302.862C224.942 311.18 194.48 292.589 171.194 273.7C164.405 267.931 160.078 260.191 152.023 256.109C144.128 251.726 138.578 242.799 145.71 234.962C154.248 222.722 171.489 221.186 180.352 210.023C184.189 203.603 184.871 196.017 187.306 189.05C192.05 175.261 207.444 169.179 221.103 171.298C228.559 171.904 235.719 174.712 243.221 175.009C251.44 174.949 258.224 169.531 264.628 164.972C285.478 145.279 302.036 157.662 305 183.196C310.402 211.696 309.776 243.196 294.918 268.852C287.057 283.477 275.146 296.842 259.039 301.988C258.037 302.312 257.025 302.602 255.986 302.862Z" fill="#F479BA"/>
<path d="M307.253 947.481C280.284 953.507 234.186 943.888 213.301 925.759C202.901 913.129 214.184 894.597 226.953 888.572C229.885 886.974 233.393 886.145 236.871 885.342C243.805 883.725 250.657 882.147 252.928 874.43C256.988 861.397 260.406 849.071 276.642 848.745C282.56 847.677 290.737 851.597 294.641 845.492C298.87 836.604 298.501 826.271 304.692 818.298C314.772 804.852 331.034 815.929 336.68 827.765C346.616 845.209 351.869 865.09 352.258 885.147C351.144 910.758 335.59 938.503 310.305 946.608C309.303 946.932 308.291 947.222 307.235 947.486L307.253 947.481Z" fill="#F479BA"/>
<path d="M575.649 764.029C555.599 763.9 538.239 751.14 523.55 738.7C503.28 719.077 496.764 684.764 511.701 660.231C511.519 658.175 513.064 656.358 514.956 655.703C515.642 654.264 517.962 653.827 518.589 655.616C529.719 660.148 532.454 673.595 540.347 681.413C545.131 682.661 548.965 677.054 553.084 675.268C562.1 669.085 573.399 672.114 581.996 677.528C587.183 680.144 592.735 684.325 598.844 682.522C607.289 679.723 613.927 672.867 622.846 671.216C643.614 668.439 648.786 686.089 643.381 702.991C639.103 717.689 628.227 729.336 618.508 740.747C610.631 749.874 600.502 758.311 588.888 762.033C584.654 763.389 580.232 764.112 575.644 764.012L575.649 764.029Z" fill="#F479BA"/>
<path d="M692.518 1012.13C658.902 1019.54 607.63 1000.19 601.507 962.798C599.101 960.71 599.235 956.797 599.987 953.955C604.906 941.855 622.803 945.109 633.291 945.456C643.364 945.766 643.38 932.321 649.79 927.095C658.528 919.529 669.78 927.758 679.286 928.848C682.361 929.021 684.653 926.69 686.376 924.437C691.73 917.889 694.564 908.895 701.901 904.233C707.227 900.886 714.113 901.293 719.112 905.068C729.452 914.095 731.107 929.641 732.285 942.582C733.774 968.677 724.492 1002.26 697.468 1010.9C695.867 1011.4 694.231 1011.84 692.51 1012.17L692.518 1012.13Z" fill="#F479BA"/>
<path d="M497.272 1099.36C460.058 1109.19 423.14 1094.41 424.485 1051.4C426.146 1034.93 433.688 1019.53 442.664 1005.82C448.047 999.449 454.966 984.616 464.815 987.054C477.741 992.914 473.647 1009.34 473.894 1020.66C477.71 1021.47 480.789 1019.59 483.898 1017.69C486.215 1016.27 488.553 1014.87 491.234 1014.54C497.508 1013.28 503.479 1017.44 506.531 1022.7C510.947 1030.36 507.153 1039.35 508.087 1047.59C508.427 1055.96 515.789 1053.6 520.712 1050.47C530.252 1043.56 541.901 1049.13 539.805 1061.36C536.547 1080.14 520.392 1092.21 503.081 1097.75C501.14 1098.36 499.215 1098.9 497.267 1099.35L497.272 1099.36Z" fill="#F479BA"/>
<path d="M347.124 500.552C346.688 500.651 346.262 500.506 345.809 500.609C344.264 500.838 343.839 498.423 345.369 498.068C345.369 498.068 345.403 498.059 345.248 498.101C345.928 497.882 346.661 497.722 347.349 498.018C348.464 498.458 348.311 500.16 347.257 500.498C347.205 500.512 347.154 500.526 347.102 500.54L347.124 500.552Z" fill="#A63761"/>
<path d="M352.604 502.26C351.215 502.041 349.666 501.219 348.484 500.668C347.547 500.273 346.466 500.304 345.642 499.638C343.619 497.67 348.02 497.487 349.2 497.688C350.843 498.171 354.884 499.193 354.143 501.459C353.98 501.817 353.652 502.108 353.261 502.231C353.037 502.291 352.821 502.312 352.604 502.26Z" fill="#A63761"/>
<path d="M364.27 504.728C358.036 502.41 352.302 498.241 345.505 497.958C344.23 498.023 343.733 496.513 345.063 496.101C346.959 495.39 348.918 496.36 350.814 496.683C353.605 497.246 356.38 497.887 358.727 499.548C360.544 501.092 362.561 502.416 364.756 503.305C365.509 503.565 365.318 504.576 364.725 504.772C364.587 504.809 364.423 504.816 364.257 504.75L364.27 504.728Z" fill="#A63761"/>
<path d="M364.86 512.583C364.3 512.216 363.736 511.832 363.193 511.46C362.926 511.292 362.655 511.106 362.384 510.92C361.229 511.71 359.893 510.24 358.873 509.738C358.706 510.151 358.16 510.316 357.796 510.063C356.526 509.111 355.179 508.29 353.874 507.551C352.856 506.716 350.735 506.656 350.422 505.281C349.315 504.802 346.114 504.848 347.341 502.95C346.597 502.651 345.329 502.399 345.54 501.327C345.203 501.104 345.072 500.751 345.052 500.332C343.16 495.337 361.907 501.631 362.54 503.991C363.534 504.74 365.683 505.66 364.761 507.181C365.773 507.926 367.77 509.108 366.565 510.538C368.513 511.604 368.306 512.97 367.269 513.304C366.658 513.504 365.786 513.35 364.878 512.578L364.86 512.583Z" fill="#A63761"/>
<path d="M360.806 512.543C358.42 510.597 355.896 508.689 353.25 507.293C352.517 507.175 351.486 506.565 352.239 505.791C353.039 505.263 354.021 506.034 354.758 506.372C357.193 507.88 359.601 509.561 361.795 511.41C362.317 511.842 361.987 512.54 361.492 512.691C361.268 512.751 361.038 512.721 360.806 512.543Z" fill="#A63761"/>
<path d="M369.487 519.651C364.533 517.286 360.916 512.679 356.516 509.557C354.613 508.312 352.723 507.047 350.72 506.051C350.441 505.904 350.156 505.666 350.154 505.316C350.34 503.254 354.787 506.069 355.859 506.483C357.804 506.645 359.398 508.6 361.068 509.592C361.474 509.317 361.95 509.578 362.313 509.831C365.556 512.009 368.631 514.803 370.247 518.285C370.247 518.285 370.238 518.25 370.233 518.233C370.247 518.285 370.295 518.327 370.305 518.361C370.719 518.804 370.484 519.513 369.977 519.686C369.839 519.723 369.674 519.73 369.514 519.681L369.487 519.651Z" fill="#A63761"/>
<path d="M362.427 503.228C359.989 501.499 357.188 500.145 354.235 499.736C353.886 499.811 353.493 499.584 353.383 499.244C353.077 496.169 362.239 501.007 363.254 501.972C363.858 502.364 363.573 503.161 363.026 503.326C362.837 503.376 362.629 503.358 362.41 503.232L362.427 503.228Z" fill="#A63761"/>
<path d="M542.701 1039.58C540.841 1035.46 535.495 1035.28 532.702 1032.03C529.636 1029.54 528.269 1025.96 526.903 1022.45C526.664 1022.1 526.755 1021.62 527.085 1021.4C528.558 1020.77 528.71 1023.13 529.196 1023.97C531.11 1027.19 533.841 1030.08 536.879 1032.18C538.977 1033.19 541.128 1034.25 542.863 1035.84C543.668 1036.84 545.351 1038.92 544.015 1040C543.963 1040.01 543.911 1040.03 543.864 1040.06C543.421 1040.19 542.895 1040.02 542.662 1039.57L542.701 1039.58Z" fill="#A63761"/>
<path d="M542.97 1053.26C538.526 1050.39 534.398 1046.97 529.861 1044.23C528.971 1043.81 527.261 1042.66 528.621 1041.74C527.961 1041.07 526.093 1040.65 526.713 1039.45C527.425 1038.52 528.377 1039.59 529.067 1039.96C528.45 1039.31 526.656 1038.34 527.769 1037.39C527.086 1036.63 525.219 1036.01 525.757 1034.77C526.421 1033.88 527.328 1034.85 527.916 1035.32C527.35 1034.86 526.567 1033.8 527.571 1033.35C526.958 1032.64 525.989 1032.13 525.611 1031.27C525.587 1029.59 527.21 1030.41 527.924 1031.15C527.729 1030.63 528.207 1030 528.744 1030C528.756 1028.39 530.39 1028.84 531.123 1029.72C528.67 1026.9 528.106 1022.94 526.456 1019.74C525.975 1019.19 526.629 1018.18 527.362 1018.58C529.329 1021.3 529.785 1025.27 532.087 1027.87C533.691 1029.66 535.29 1031.55 537.207 1032.92C538.503 1033.56 544.946 1038.79 541.675 1039.54C542.558 1040.35 547.629 1043.98 543.95 1043.89C544.448 1044.65 546.065 1045.38 545.364 1046.41C546.247 1046.95 545.787 1048.4 544.733 1047.99C545.283 1048.52 546.278 1049.55 545.179 1050.06C544.283 1050.3 543.783 1049.13 543.08 1048.71C543.662 1049.36 545.217 1050.27 544.019 1051.04C544.408 1051.32 544.565 1051.91 544.182 1052.27C544.363 1052.74 544.029 1053.21 543.603 1053.35C543.414 1053.4 543.193 1053.4 542.996 1053.29L542.97 1053.26Z" fill="#A63761"/>
<path d="M535.811 1048.46C533.95 1047.64 531.985 1046.79 529.98 1046.68C529.378 1046.91 528.713 1046.22 529.037 1045.64C529.363 1045 530.184 1045.16 530.783 1045.26C532.769 1045.58 534.754 1046.02 536.527 1046.99C537.165 1047.37 536.877 1048.3 536.318 1048.49C536.163 1048.53 536.016 1048.53 535.833 1048.47L535.811 1048.46Z" fill="#A63761"/>
<path d="M533.008 1047.71C531.906 1047.25 530.645 1046.89 529.763 1046.14C529.421 1045.83 528.831 1045.77 528.744 1045.24C528.673 1044.83 528.917 1044.43 529.318 1044.34C530.23 1044.3 530.861 1045.28 531.618 1045.55C532.392 1046.03 534.166 1046.04 533.952 1047.24C533.887 1047.48 533.678 1047.66 533.459 1047.74C533.304 1047.78 533.157 1047.78 533.013 1047.73L533.008 1047.71Z" fill="#A63761"/>
<path d="M541.829 1057.68C541.469 1056.34 541.002 1055.08 540.367 1053.88C537.943 1050.41 533.92 1048.15 529.84 1047.32C529.077 1047.03 529.434 1045.6 530.382 1045.9C535.088 1046.86 540.339 1049.85 542.329 1054.52C542.606 1055.55 544.11 1057.51 542.685 1058.19C542.331 1058.25 541.926 1058.04 541.811 1057.69L541.829 1057.68Z" fill="#A63761"/>
<path d="M543.086 1056.31C542.712 1056.43 542.289 1056.23 542.148 1055.84C541.296 1054.04 540.257 1052.23 538.735 1050.96C538.067 1050.33 536.362 1050.3 536.761 1049.11C538.223 1046.78 545.238 1055.38 543.091 1056.33C543.091 1056.33 543.091 1056.33 543.074 1056.33L543.086 1056.31Z" fill="#A63761"/>
<path d="M541.867 1053C541.114 1051.98 542.285 1050.84 543.06 1051.94C543.582 1052.58 543.248 1053.33 542.753 1053.48C542.46 1053.56 542.121 1053.47 541.862 1052.98L541.867 1053Z" fill="#A63761"/>
<path d="M534.279 1074.64C533.967 1074.37 533.929 1073.89 534.196 1073.57C535.633 1072.04 536.937 1070.37 538.071 1068.6C541.301 1062.33 540.639 1053.59 535.101 1048.9C534.798 1048.67 534.427 1048.46 534.197 1048.15C533.642 1047.32 534.935 1046.49 535.49 1047.32C542.709 1052.42 544.164 1064.81 538.073 1071.3C537.219 1071.97 536.19 1074.33 535.032 1074.7C534.791 1074.76 534.553 1074.77 534.296 1074.64L534.279 1074.64Z" fill="#A63761"/>
<path d="M533.063 1075.13C532.996 1075.02 532.985 1074.91 532.975 1074.81C532.618 1074.44 532.795 1073.86 533.206 1073.6C536.428 1071.5 537.191 1067.45 538.751 1064.25C539.38 1063.08 539.013 1061.57 539.827 1060.62C540.463 1058.79 539.851 1055.61 541.454 1054.42C541.633 1052.75 543.839 1052.99 543.284 1054.71C543.575 1054.28 544.215 1054.25 544.597 1054.58C545.485 1055.89 543.934 1057.62 543.607 1059.01C543.94 1058.19 545.234 1057.43 545.502 1058.71C545.085 1060.19 544.378 1061.61 543.827 1063.07C543.037 1064.95 537.035 1074.38 534.091 1075.32C533.682 1075.45 533.323 1075.41 533.05 1075.15L533.063 1075.13Z" fill="#A63761"/>
<path d="M533.596 1074.71C533.264 1074.51 533.152 1074.02 533.371 1073.67C534.506 1071.98 535.652 1070.4 536.575 1068.67C536.929 1067.86 538.291 1068.32 537.977 1069.22C537.009 1071.05 535.8 1072.74 534.639 1074.47C534.534 1074.63 534.397 1074.74 534.225 1074.78C534.018 1074.84 533.793 1074.83 533.592 1074.7L533.596 1074.71Z" fill="#A63761"/>
<path d="M524.774 1083.13C524.505 1082.82 524.522 1082.33 524.838 1082.06C527.038 1079.87 529.949 1078.33 531.32 1075.45C535.511 1069.45 539.948 1057 534.098 1051.02C533.775 1050.85 533.51 1050.55 533.147 1050.57C531.976 1050.61 532.188 1048.85 533.312 1049.05C544.923 1048.97 539.133 1068.23 535.491 1074.21C533.386 1078.41 529.585 1080.83 525.749 1083.26C525.702 1083.29 525.638 1083.33 525.569 1083.34C525.276 1083.42 524.964 1083.36 524.757 1083.14L524.774 1083.13Z" fill="#F479BA"/>
<path d="M524.88 1080.43C524.419 1080.57 523.888 1080.38 523.668 1079.9C523.422 1079.4 523.632 1078.8 524.122 1078.56C525.647 1077.71 527.461 1076.76 528.86 1075.78C534.572 1070.5 539.638 1061.98 536.862 1054.1C536.065 1054.3 535.339 1053.31 536.035 1052.73C533.937 1049.18 528.514 1049.54 525.277 1051.04C523.921 1051.7 522.748 1052.69 521.485 1053.49C521.141 1053.59 520.763 1053.49 520.554 1053.19C520.126 1050.35 523.761 1048.34 526.069 1047.45C534.946 1044.05 542.776 1052.26 540.645 1061.12C538.579 1069.46 533.585 1077.63 525.047 1080.36C524.978 1080.38 524.927 1080.4 524.858 1080.41L524.88 1080.43Z" fill="#F479BA"/>
<path d="M475.422 1019.96C475.065 1019.79 474.862 1019.31 475.064 1018.96C478.172 1013.68 481.923 1008.8 485.535 1003.88C493.131 993.499 502.109 984.28 511.035 975.076C511.324 974.777 511.768 974.713 512.102 974.993C512.414 975.26 512.474 975.761 512.185 976.06C506.041 982.488 499.753 988.789 494.005 995.591C487.786 1003.18 481.844 1011.05 476.571 1019.35C476.447 1019.65 476.231 1019.94 475.943 1020.04C475.788 1020.08 475.606 1020.09 475.414 1020L475.422 1019.96Z" fill="#5C1A17"/>
<path d="M503.968 1020.3C503.603 1020.18 503.336 1019.73 503.477 1019.36C506.489 1015.31 509.85 1011.45 512.529 1007.11C518.996 997.277 524.149 986.738 529.764 976.408C529.961 976.042 530.395 975.87 530.774 976.045C531.132 976.208 531.335 976.689 531.138 977.056C527.85 983.254 524.54 989.44 521.165 995.588C516.55 1004.14 511.165 1012.43 504.878 1019.84C504.769 1020.05 504.599 1020.24 504.375 1020.3C504.237 1020.34 504.09 1020.34 503.947 1020.29L503.968 1020.3Z" fill="#5C1A17"/>
<path d="M510.263 1051.17C509.151 1050.67 510.163 1049.35 510.44 1048.59C513.723 1042.1 517.831 1036.07 522.04 1030.14C528.978 1020.54 536.679 1011.52 544.077 1002.26C544.344 1001.95 544.837 1001.93 545.149 1002.2C545.461 1002.46 545.477 1002.94 545.232 1003.26C538.235 1011.95 531.042 1020.53 524.387 1029.45C519.673 1036.26 514.552 1043.06 511.241 1050.68C511.176 1050.92 510.984 1051.1 510.76 1051.16C510.605 1051.2 510.441 1051.21 510.28 1051.16L510.263 1051.17Z" fill="#5C1A17"/>
<path d="M545.314 1004.53L545.383 1004.52C543.07 1004.36 540.807 1002.33 541.242 999.883C542.033 996.495 546.512 997.566 547.978 999.869C549.378 1001.58 548.756 1003.94 546.97 1004.51C546.493 1004.66 545.948 1004.7 545.314 1004.53Z" fill="#5C1A17"/>
<path d="M530.99 982.155C527.09 981.796 523.389 974.461 528.463 973.138C533.957 971.796 538.309 980.322 533.326 981.916C532.698 982.121 531.925 982.199 530.99 982.155Z" fill="#5C1A17"/>
<path d="M509.98 978.238C504.995 975.826 508.561 967.91 513.334 971.875C515.983 973.971 515.198 977.727 512.728 978.499C511.962 978.742 511.026 978.697 509.976 978.221L509.98 978.238Z" fill="#5C1A17"/>
</g>
<defs>
<clipPath id="clip0_49_113">
<rect width="642" height="1649" fill="white" transform="translate(0 166.162) rotate(-15)"/>
</clipPath>
</defs>
</svg>
