<svg width="500" height="368" viewBox="0 0 500 368" fill="none" xmlns="http://www.w3.org/2000/svg">
<g clip-path="url(#clip0_81_116)">
<path d="M453.989 190.409C444.461 202.919 451.258 219.907 454.165 227.167C458.852 238.881 469.582 254.116 476.918 252.2C478.729 251.726 481.612 249.868 487.073 212.992C490.736 188.24 490.115 184.531 487.425 182.011C480.463 175.495 462.333 179.462 453.989 190.414V190.409Z" fill="#97D0FC"/>
<path d="M221.009 77.3318C217.768 74.2144 212.447 74.4839 187.748 81.5333C150.82 92.0751 150.333 95.0109 139.786 95.0109C115.649 95.0109 105.488 79.6406 96.7279 85.7348C88.2136 91.6532 87.9323 113.042 97.9526 123.718C100.988 126.953 107.668 132.08 160.793 125.294C203.33 119.862 211.522 114.981 216.825 107.926C224.149 98.181 226.904 83.0041 221.009 77.3318Z" fill="#97D0FC"/>
<path d="M263.252 71.5717C264.477 63.3503 288.982 58.0121 309.755 60.5318C326.977 62.6237 327.938 68.4542 344.762 71.0326C374.401 75.5798 394.318 61.0064 397.975 66.8311C401.028 71.6947 390.293 86.813 375.919 95.5383C348.301 112.297 315.059 100.689 300.298 95.5383C296.876 94.3429 261.711 81.8439 263.246 71.5717H263.252Z" fill="#97D0FC"/>
<path d="M245.35 93.1241C239.25 92.7432 238.723 108.201 224.331 124.943C215.846 134.811 211.217 135.039 207.179 144.198C203.511 152.513 206.048 155.232 202.626 164.854C197.317 179.791 186.524 186.377 187.572 187.608C188.803 189.049 205.187 181.824 216.45 165.956C225.726 152.888 220.891 148.945 230.279 134.043C241.201 116.704 253.906 112.28 252.335 102.183C251.679 97.9584 248.614 93.3233 245.344 93.1241H245.35Z" fill="#97D0FC"/>
<path d="M145.915 159.604C144.913 153.005 118.433 148.183 96.9037 155.402C84.809 159.457 75.8435 166.782 67.4992 173.609C60.2213 179.556 56.1721 182.861 56.9984 185.164C58.897 190.473 85.3774 186.406 105.658 180.265C110.147 178.906 147.146 167.702 145.915 159.609V159.604Z" fill="#97D0FC"/>
<path d="M45.4428 200.212C42.2199 204.964 45.3491 213.25 51.7421 229.617C57.4496 244.231 60.3912 251.55 64.6982 252.024C71.5483 252.78 80.5255 240.223 81.1525 228.919C81.3107 226.06 79.3887 219.426 75.5505 206.166C73.8746 200.376 73.3707 199.099 72.0522 197.763C65.9229 191.581 50.5174 192.729 45.4428 200.212Z" fill="#97D0FC"/>
<path d="M74.4958 260.076C71.4076 258.283 66.7315 267.834 49.6385 278.282C29.7561 290.43 20.1167 287.271 15.2883 297.215C11.913 304.171 15.5578 307.921 10.7762 323.79C8.49673 331.349 6.85013 333.236 7.97521 334.642C11.7724 339.383 39.6709 329.491 57.3382 308.736C73.8922 289.287 79.2832 262.859 74.4899 260.076H74.4958Z" fill="#97D0FC"/>
<path d="M125.98 223.241C120.741 227.396 119.112 233.074 117.091 240.469C114.243 250.911 112.954 264.084 115.104 264.623C117.313 265.18 119.194 251.392 131.676 234.515C138.133 225.784 143.372 221.712 142.059 219.579C140.606 217.206 131.881 218.553 125.974 223.235L125.98 223.241Z" fill="#97D0FC"/>
<path d="M118.081 297.883C114.261 298.317 114.882 322.172 115.28 337.443C115.456 344.088 115.907 354.143 118.609 354.595C121.064 355.011 122.136 346.936 128.933 343.918C135.825 340.859 142.212 345.822 143.812 343.566C145.704 340.894 136.838 333.845 128.933 320.461C120.782 306.667 120.437 297.614 118.081 297.883Z" fill="#97D0FC"/>
<path d="M343.537 145.423C341.322 146.817 345.752 159.545 352.638 170.104C362.757 185.621 375.573 192.436 383.618 197.763C422.1 223.223 432.419 268.063 436.304 266.205C438.689 265.063 435.273 247.981 425.979 231.199C414.037 209.629 403.049 207.812 374.864 178.513C355.151 158.021 346.039 143.852 343.531 145.429L343.537 145.423Z" fill="#97D0FC"/>
<path d="M389.05 168.528C389.408 164.338 402.44 166.331 422.311 156.099C435.607 149.255 436.321 144.989 445.064 143.319C461.073 140.266 479.11 150.661 478.67 157.324C478.524 159.598 476.25 160.951 454.692 169.929C430.409 180.037 428.042 180.511 425.457 180.781C407.157 182.715 388.611 173.597 389.05 168.528Z" fill="#97D0FC"/>
<path d="M267.161 96.2356C268.831 94.5363 272.821 98.7436 284.312 102.189C293.155 104.838 297.895 104.475 305.437 108.957C307.798 110.364 311.83 112.76 311.39 114.325C310.658 116.927 298.147 115.35 290.037 114.325C277.755 112.778 274.978 110.996 273.348 109.655C268.192 105.43 265.309 98.1283 267.166 96.2356H267.161Z" fill="#97D0FC"/>
<path d="M351.067 114.963C344.809 121.691 354.817 139.815 361.919 148.921C366.584 154.898 370.293 159.51 376.622 160.301C384.31 161.262 392.982 156.228 395.35 149.097C398.133 140.706 391.054 132.783 384.673 125.64C380.835 121.345 374.981 114.981 365.418 113.211C361.72 112.526 354.559 111.207 351.067 114.963Z" fill="#97D0FC"/>
<path d="M301.177 46.1752C298.651 37.7722 323.889 23.0583 341.434 15.8917C361.164 7.83448 369.977 9.82095 372.942 10.6413C383.032 13.4423 392.906 21.523 391.67 26.5683C390.504 31.3499 380.554 28.6134 366.988 35.4928C350.253 43.9836 351.835 55.0294 338.808 57.7249C329.82 59.5825 320.977 56.0021 310.101 51.5955C304.564 49.3512 301.78 48.191 301.177 46.1694V46.1752Z" fill="#97D0FC"/>
<path d="M401.303 18.8684C399.668 20.14 408.575 29.0352 410.931 43.9016C413.117 57.6897 407.937 65.7294 410.931 67.3584C414.822 69.4679 428.792 58.7562 428.258 47.7515C427.995 42.3546 423.125 37.6198 413.38 28.1445C409.419 24.2946 402.71 17.7727 401.303 18.8684Z" fill="#97D0FC"/>
<path d="M161.086 135.215C154.33 137.389 146.63 142.756 147.433 146.184C148.57 151.025 166.964 153.328 182.439 147.937C199.386 142.03 210.402 127.738 208.814 125.417C207.244 123.12 194.985 134.981 175.437 134.283C171.03 134.125 166.864 133.351 161.086 135.215Z" fill="#97D0FC"/>
<path d="M240.329 93.9795C238.459 93.9795 236.543 93.6221 234.627 92.7958C227.871 89.9011 223.786 82.3244 224.695 74.3609C224.759 73.8042 225.163 73.3471 225.714 73.2241C229.341 72.392 232.746 70.9974 235.828 69.0812C237.059 68.3136 237.809 67.7393 238.471 67.2236C239.368 66.5322 240.141 65.9345 241.542 65.3602C245.526 63.7195 253.355 62.9401 257.375 67.8096C262.467 73.98 256.871 83.5784 256.631 83.9827C253.794 88.7643 247.436 93.9795 240.329 93.9795ZM227.238 75.5739C226.851 82.0431 230.226 88.0435 235.664 90.3699C243.423 93.6865 251.263 87.8443 254.357 82.6349C254.404 82.5529 259.262 74.2437 255.336 69.4914C252.382 65.9169 246.077 66.3505 242.544 67.8038C241.471 68.2432 240.92 68.671 240.082 69.3156C239.409 69.8371 238.565 70.4876 237.223 71.3255C234.158 73.2299 230.806 74.6597 227.238 75.5739Z" fill="#0073CB"/>
<path d="M256.097 67.3527C262.332 65.9639 268.461 64.1357 274.403 61.8445C277.374 60.696 280.298 59.442 283.164 58.0591C284.599 57.3676 286.023 56.6527 287.471 55.9261C288.924 55.1995 290.412 54.4611 292.006 53.8224C293.6 53.1896 295.27 52.6798 296.958 52.3399C298.639 51.9707 300.392 51.7949 302.155 51.7598C303.919 51.7715 305.677 51.9649 307.376 52.2989C309.064 52.6563 310.693 53.131 312.269 53.6408C315.404 54.6838 318.399 55.7913 321.417 56.7523L323.684 57.4496L325.964 58.0884L328.255 58.6509L329.403 58.9322L330.558 59.1666C336.711 60.4792 343.016 60.9772 349.356 61.0769C355.708 61.1355 362.107 60.7722 368.512 60.3034L387.785 58.8677L397.424 58.2114L407.052 57.52C407.784 57.4672 408.417 58.018 408.47 58.7447C408.517 59.4185 408.054 60.0104 407.409 60.1393C404.227 60.7839 401.022 61.2995 397.811 61.78C394.594 62.243 391.371 62.6356 388.171 62.9989C384.966 63.3798 381.749 63.7021 378.532 64.0302C376.921 64.1943 375.309 64.3349 373.698 64.4697C372.086 64.6103 370.469 64.751 368.852 64.8682C362.382 65.3252 355.872 65.671 349.309 65.5948C347.668 65.542 346.028 65.5362 344.381 65.419C343.561 65.3662 342.734 65.3311 341.914 65.2666L339.447 65.0322C336.166 64.6689 332.878 64.1943 329.65 63.4559L328.437 63.1981L327.235 62.8934L324.833 62.2781L322.454 61.5867L320.098 60.8425C316.975 59.817 313.928 58.6216 310.951 57.5903C309.468 57.0863 307.992 56.6351 306.527 56.3011C305.062 55.9905 303.603 55.8089 302.138 55.7737C299.214 55.7855 296.19 56.3304 293.377 57.3852C290.553 58.4575 287.664 60.0045 284.67 61.3288C281.675 62.6649 278.622 63.872 275.54 64.9561C269.37 67.13 263.035 68.8294 256.607 69.9662C255.886 70.0951 255.201 69.6146 255.078 68.8938C254.955 68.1965 255.406 67.5285 256.091 67.3703L256.097 67.3527Z" fill="#0073CB"/>
<path d="M252.909 85.9107C260.228 88.6765 267.629 91.2372 275.089 93.5987C278.821 94.7707 282.572 95.9309 286.322 97.0443C290.072 98.1694 293.828 99.2417 297.602 100.25C301.376 101.252 305.167 102.189 308.97 103.015C312.773 103.859 316.588 104.521 320.473 105.189C324.335 105.846 328.19 106.508 332.052 107.053C333.98 107.358 335.908 107.569 337.836 107.82C339.764 108.002 341.697 108.242 343.625 108.348C344.592 108.401 345.553 108.506 346.52 108.524L349.409 108.612C350.37 108.629 351.331 108.594 352.292 108.588C352.772 108.576 353.253 108.582 353.733 108.565L355.169 108.471L356.605 108.377L357.319 108.33C357.56 108.307 357.794 108.272 358.029 108.248L360.871 107.897C361.808 107.744 362.74 107.551 363.677 107.381C364.621 107.235 365.535 106.971 366.449 106.731C368.307 106.309 370.082 105.629 371.875 105.031C373.616 104.275 375.391 103.601 377.049 102.67C378.749 101.832 380.384 100.859 381.972 99.8101C383.56 98.7671 385.095 97.6303 386.578 96.429C392.508 91.6357 397.582 85.7349 401.333 79.1074C405.083 72.4917 407.474 65.0849 407.849 57.5375C408.042 53.7696 407.714 49.9842 406.946 46.2808C406.554 44.4291 406.038 42.6067 405.44 40.8077C404.825 39.0146 404.11 37.2449 403.313 35.5163C402.516 33.7818 401.631 32.0883 400.682 30.4066C399.721 28.7131 398.754 27.0196 397.74 25.3964C395.713 22.1325 393.457 19.0151 390.925 16.1672C388.4 13.3193 385.593 10.7293 382.487 8.60806C379.388 6.48681 375.977 4.84606 372.385 3.90849C368.939 2.9592 365.154 3.29321 361.457 4.01397C357.747 4.75816 354.097 5.99458 350.522 7.42438C343.379 10.3367 336.523 14.0694 329.901 18.1654C326.579 20.2046 323.333 22.3552 320.127 24.576C318.522 25.6777 316.945 26.8321 315.369 27.9689C313.81 29.1408 312.24 30.2952 310.711 31.5082C304.552 36.2898 298.663 41.423 293.043 46.8316C287.418 52.2402 282.068 57.9359 277.005 63.8778C276.53 64.4345 275.698 64.4989 275.142 64.0301C274.591 63.5614 274.52 62.7293 274.983 62.1726C280.058 56.1253 285.425 50.324 291.08 44.8041C296.729 39.2842 302.653 34.0396 308.865 29.1467C310.406 27.9044 311.988 26.7266 313.558 25.5253C315.152 24.3592 316.74 23.1755 318.358 22.0446C321.586 19.7651 324.885 17.5736 328.243 15.4875C334.953 11.3036 341.92 7.4654 349.303 4.41244C353.007 2.91818 356.816 1.59973 360.806 0.785213L362.306 0.492223C362.81 0.404326 363.32 0.351587 363.83 0.28127C364.34 0.210952 364.843 0.140634 365.365 0.117195C365.881 0.0878958 366.396 0.0351576 366.918 0.0175781H368.488L370.07 0.111335C371.125 0.234391 372.203 0.398466 373.217 0.673877C377.231 1.69934 381.005 3.51002 384.386 5.80121C387.779 8.09826 390.797 10.8641 393.474 13.8819C396.164 16.8997 398.532 20.1695 400.647 23.5682C401.713 25.2734 402.692 26.9844 403.671 28.7072C404.649 30.4417 405.587 32.229 406.436 34.0572C407.28 35.8913 408.048 37.7665 408.704 39.6826C409.349 41.6046 409.9 43.5618 410.327 45.5542C411.159 49.533 411.523 53.6348 411.318 57.7074C410.925 65.8701 408.358 73.8043 404.385 80.8361C400.407 87.8796 395.068 94.1027 388.804 99.189C387.24 100.461 385.616 101.668 383.917 102.769C382.23 103.877 380.483 104.914 378.661 105.811C376.885 106.801 374.987 107.522 373.123 108.324C371.201 108.969 369.297 109.684 367.316 110.129C366.338 110.381 365.359 110.657 364.357 110.815C363.361 110.997 362.371 111.196 361.374 111.354L358.368 111.717C358.116 111.747 357.87 111.782 357.618 111.805L356.868 111.852L355.362 111.946L353.856 112.04C353.352 112.057 352.854 112.057 352.35 112.063C351.348 112.063 350.346 112.104 349.344 112.081L346.35 111.981C345.348 111.963 344.363 111.852 343.367 111.793C341.375 111.682 339.406 111.43 337.431 111.237C335.468 110.973 333.493 110.75 331.548 110.44C327.634 109.877 323.76 109.174 319.881 108.494C316.031 107.803 312.111 107.094 308.255 106.209C304.394 105.342 300.567 104.363 296.764 103.326C292.961 102.283 289.176 101.17 285.414 100.015C281.652 98.8433 277.919 97.642 274.175 96.4114C266.698 93.9386 259.285 91.2607 251.954 88.3835C251.274 88.114 250.94 87.3522 251.204 86.6724C251.468 85.9986 252.23 85.6646 252.904 85.9165L252.909 85.9107Z" fill="#0073CB"/>
<path d="M401.139 84.1351C400.758 84.1351 400.378 83.971 400.114 83.6488C399.651 83.0862 399.733 82.2483 400.301 81.7912C410.943 73.0894 420.014 64.3758 427.262 55.8967C430.403 52.2226 433.708 47.8688 433.163 42.759C432.782 39.1962 430.684 36.7293 429.677 35.5397C421.889 26.3633 391.764 11.6493 375.192 4.40655C374.524 4.11355 374.219 3.3342 374.512 2.66618C374.805 1.99816 375.585 1.69345 376.253 1.98644C380.876 4.00808 421.713 22.0856 431.692 33.8345C432.776 35.112 435.325 38.1122 435.794 42.4836C436.509 49.1579 431.804 54.6661 429.278 57.6253C421.924 66.2275 412.742 75.0524 401.983 83.8539C401.737 84.0531 401.438 84.1527 401.145 84.1527L401.139 84.1351Z" fill="#0073CB"/>
<path d="M343.719 64.4461C343.461 64.4461 343.203 64.37 342.975 64.2176C342.371 63.8074 342.213 62.9871 342.623 62.3835C347.082 55.8264 352.409 49.99 358.451 45.0385C373.54 32.6743 390.023 28.3028 401.186 26.8203C401.913 26.7265 402.575 27.2305 402.669 27.9571C402.762 28.6779 402.258 29.3459 401.532 29.4396C390.703 30.8811 374.735 35.1119 360.121 47.0835C354.272 51.8769 349.116 57.5198 344.803 63.8719C344.545 64.2469 344.129 64.452 343.707 64.452L343.719 64.4461Z" fill="#0073CB"/>
<path d="M225.978 75.8317C214.241 75.861 202.439 76.8513 191.053 79.3359C188.205 79.9453 185.399 80.7129 182.592 81.5392C179.791 82.3713 176.996 83.303 174.165 84.2054C171.341 85.1254 168.458 85.9926 165.551 86.7661L163.36 87.3287C162.627 87.5103 161.889 87.6685 161.156 87.8385C159.692 88.1901 158.209 88.4537 156.726 88.7409C155.988 88.8932 155.244 89.0104 154.5 89.1276L152.273 89.4851C150.785 89.7136 149.29 89.866 147.796 90.0593C147.052 90.1472 146.302 90.2527 145.558 90.3289L143.302 90.5105C141.796 90.6219 140.301 90.7801 138.79 90.8035C132.76 91.0848 126.672 90.8504 120.636 89.8894L118.374 89.5144L116.13 89.028C115.755 88.946 115.38 88.8698 115.005 88.776L113.891 88.4772C113.153 88.2662 112.403 88.0963 111.67 87.8443C108.723 86.9478 105.822 85.7875 103.068 84.264C101.691 83.5315 100.326 82.6291 99.0953 81.7618C97.8354 80.8712 96.6048 79.9336 95.4153 78.914C94.2258 77.8885 93.0714 76.7927 92.0049 75.5153C91.4716 74.8707 90.9618 74.1792 90.5048 73.394C90.0536 72.603 89.6375 71.724 89.4266 70.6458C89.2156 69.5793 89.2566 68.2901 89.7782 67.124C89.9071 66.8369 90.0712 66.5674 90.2352 66.2978C90.4052 66.0458 90.5985 65.829 90.7919 65.6005C90.9853 65.3661 91.1904 65.2196 91.3955 65.0321C91.4951 64.9442 91.6006 64.8504 91.706 64.7684L92.0108 64.5633C92.2158 64.4285 92.4268 64.2879 92.6319 64.159L93.2413 63.8484C93.6515 63.6257 94.05 63.4792 94.4484 63.321C94.8528 63.1511 95.2395 63.028 95.6321 62.905C96.0247 62.7819 96.4173 62.653 96.8041 62.5651C99.8981 61.774 102.91 61.3873 105.922 61.1002C111.94 60.52 117.894 60.4146 123.871 60.3384C129.853 60.356 135.854 60.561 141.837 61.2291C144.825 61.5396 147.802 62.0026 150.749 62.4948C153.697 62.9987 156.592 63.5554 159.463 63.989C162.334 64.4461 165.182 64.6746 168.053 64.745H170.21C170.931 64.7567 171.651 64.6981 172.372 64.6688C173.093 64.6278 173.814 64.6219 174.534 64.5457L176.703 64.3465C182.492 63.825 188.211 62.571 194.141 61.6334C197.106 61.1705 200.154 60.8072 203.271 60.8716C206.383 60.9244 209.541 61.4693 212.483 62.5768C218.389 64.7274 223.358 68.841 227.038 73.7105C227.478 74.2906 227.366 75.1227 226.786 75.5622C226.218 75.9958 225.403 75.8903 224.958 75.3395C223.165 73.1069 221.12 71.1029 218.846 69.4269C217.71 68.589 216.52 67.8272 215.284 67.1592C214.973 67.001 214.662 66.831 214.346 66.6787L213.385 66.2509L212.424 65.8232L211.44 65.4833C208.814 64.5574 206.048 64.1414 203.242 64.1473C200.429 64.1473 197.581 64.5399 194.71 65.0497C188.973 66.0986 183.107 67.4405 177.095 68.0675L174.839 68.3077C174.089 68.3956 173.327 68.4073 172.571 68.4659C171.815 68.5011 171.06 68.5714 170.298 68.5831L168.012 68.6007C164.965 68.5656 161.895 68.3546 158.912 67.9151C155.924 67.4991 152.994 66.9775 150.099 66.5205C147.198 66.0751 144.315 65.6649 141.409 65.4013C135.608 64.8446 129.76 64.6512 123.9 64.6805C118.04 64.7918 112.139 64.9383 106.367 65.536C103.49 65.8349 100.613 66.2099 97.9702 66.9014C96.681 67.2471 95.3919 67.7042 94.5832 68.2608L94.425 68.3605L94.3137 68.4601C94.2492 68.5245 94.1437 68.589 94.1086 68.6476C94.0675 68.7062 94.0089 68.7589 93.9738 68.8117C93.9562 68.8644 93.921 68.9054 93.8917 68.9582C93.8097 69.1515 93.7804 69.4094 93.8449 69.7903C93.9093 70.1711 94.1203 70.6575 94.4074 71.1497C94.6945 71.642 95.0637 72.1518 95.4739 72.644C96.3001 73.6401 97.3022 74.5894 98.3569 75.4918C99.4176 76.3943 100.543 77.2556 101.703 78.0702C102.898 78.9081 104.012 79.6347 105.248 80.2969C110.135 82.9572 115.708 84.5335 121.351 85.4477C127.011 86.3735 132.818 86.5903 138.614 86.3794C140.061 86.3794 141.514 86.227 142.962 86.1391L145.136 85.9868C145.862 85.9165 146.583 85.8227 147.31 85.7465C148.757 85.5707 150.21 85.4418 151.652 85.2308L153.814 84.9086C154.535 84.8031 155.256 84.6976 155.971 84.557C157.4 84.2933 158.836 84.053 160.254 83.7366C160.963 83.5842 161.678 83.4436 162.387 83.2795L164.508 82.7697C167.333 82.0607 170.14 81.2638 172.958 80.3965C175.783 79.541 178.619 78.6386 181.513 77.8475C184.408 77.0623 187.332 76.3181 190.286 75.7555C196.186 74.5543 202.158 73.9156 208.117 73.4819C214.082 73.0717 220.059 72.978 226.025 73.2241C226.757 73.2534 227.32 73.8687 227.29 74.6012C227.261 75.3102 226.681 75.8669 225.978 75.8669H225.972L225.978 75.8317Z" fill="#0073CB"/>
<path d="M92.9133 68.9465C89.7607 77.619 87.4168 86.5611 85.9753 95.6672C85.2311 100.261 84.4693 104.85 83.9829 109.379C83.5259 113.874 83.397 118.45 85.3366 121.931C85.8053 122.833 86.3913 123.583 87.0593 124.199C87.241 124.345 87.3816 124.521 87.5867 124.65L88.1727 125.054C88.3544 125.201 88.6005 125.294 88.8114 125.417C89.0341 125.535 89.245 125.658 89.4677 125.769C91.3135 126.63 93.4934 127.146 95.6791 127.556C100.086 128.353 104.686 128.67 109.274 128.875L112.725 128.998L116.188 129.062L117.923 129.097H119.657L123.126 129.103C125.441 129.097 127.762 129.051 130.076 129.021L137.055 128.881C146.355 128.664 155.643 128.476 164.848 127.832C169.442 127.48 174.007 127.005 178.502 126.255C182.99 125.517 187.409 124.486 191.622 122.95L194.745 121.72C195.765 121.263 196.778 120.782 197.792 120.319C198.782 119.804 199.767 119.259 200.751 118.731C201.73 118.181 202.709 117.577 203.675 116.973C207.56 114.548 211.375 111.957 215.079 109.215C222.515 103.771 229.541 97.7768 236.174 91.331C236.695 90.8212 237.533 90.8329 238.043 91.3544C238.53 91.8525 238.535 92.6436 238.084 93.1534C231.849 100.173 224.911 106.59 217.51 112.409C213.795 115.303 209.992 118.081 206.019 120.653C205.023 121.298 204.027 121.931 202.99 122.54C201.935 123.126 200.886 123.73 199.82 124.304C198.73 124.826 197.646 125.365 196.55 125.875C195.431 126.337 194.311 126.795 193.186 127.234C188.651 128.916 183.963 130.035 179.269 130.826C174.57 131.6 169.87 132.074 165.176 132.42C155.795 133.041 146.454 133.246 137.137 133.375C127.832 133.504 118.45 133.639 109.057 133.129C104.357 132.848 99.6403 132.467 94.8939 131.541C92.5207 131.055 90.124 130.48 87.7566 129.344C87.4637 129.191 87.1707 129.027 86.8777 128.863C86.5905 128.687 86.2858 128.564 86.0104 128.347L85.1666 127.744C84.8795 127.55 84.6392 127.281 84.3755 127.052C83.3442 126.08 82.518 124.931 81.9261 123.765C81.7562 123.478 81.6214 123.173 81.4867 122.868C81.3577 122.564 81.2112 122.259 81.0999 121.948C80.9007 121.321 80.6604 120.694 80.5315 120.056C80.4612 119.739 80.3791 119.423 80.3147 119.101L80.1682 118.151L80.0979 117.677L80.0569 117.202L79.9807 116.259C79.8401 113.751 80.0451 111.336 80.3147 108.969C80.889 104.24 81.7972 99.6636 82.641 95.0812C84.3287 85.8286 86.9187 76.7107 90.4287 67.9972C90.7041 67.3175 91.4718 66.9893 92.1515 67.2647C92.8137 67.5343 93.1418 68.2785 92.9016 68.9406L92.9133 68.9465Z" fill="#0073CB"/>
<path d="M253.232 86.0865C256.173 88.2781 258.945 90.7509 261.359 93.5636C263.774 96.3705 265.865 99.4938 267.436 102.881C268.227 104.574 268.913 106.297 269.428 108.137C269.68 109.051 269.885 110.03 270.008 110.95C270.079 111.413 270.131 111.84 270.202 112.198C270.278 112.561 270.366 112.86 270.506 113.165C270.659 113.469 270.817 113.803 271.057 114.102C271.286 114.401 271.479 114.729 271.755 114.981L272.135 115.391C272.276 115.514 272.428 115.626 272.569 115.749C272.721 115.86 272.844 116.001 273.014 116.095L273.501 116.399C274.808 117.19 276.378 117.671 278.025 117.946C279.677 118.228 281.406 118.321 283.152 118.351C284.898 118.374 286.668 118.327 288.449 118.263C292.018 118.122 295.627 117.929 299.284 117.94C301.112 117.946 302.946 118.017 304.792 118.151C306.632 118.31 308.478 118.544 310.312 118.901C313.974 119.634 317.619 120.835 320.913 122.786C321.323 123.033 321.75 123.244 322.143 123.525L323.321 124.351L323.907 124.767L324.458 125.23L325.559 126.156C325.917 126.478 326.245 126.83 326.585 127.164C326.919 127.504 327.276 127.832 327.575 128.207C328.196 128.933 328.829 129.648 329.368 130.434C331.624 133.492 333.294 136.838 334.783 140.149C336.277 143.472 337.631 146.794 339.06 150.052C340.496 153.31 341.99 156.527 343.649 159.645C346.924 165.909 350.809 171.804 355.456 177.054C360.079 182.334 365.465 186.94 370.949 191.569C376.434 196.198 381.937 200.951 387.07 206.078C392.238 211.176 397.067 216.602 401.649 222.204C406.22 227.824 410.556 233.613 414.628 239.584L416.181 241.811L417.676 244.073L420.646 248.614C422.539 251.696 424.479 254.755 426.254 257.914C429.876 264.184 433.222 270.63 436.152 277.275C437.605 280.603 439.005 283.955 440.23 287.383C441.49 290.793 442.586 294.268 443.57 297.778C447.326 311.894 448.803 326.468 448.205 340.947V340.971C448.182 341.703 447.572 342.272 446.84 342.248C446.559 342.236 446.307 342.143 446.096 341.99L407.474 313.365C406.917 312.955 406.782 312.187 407.134 311.613C411.792 304.03 415.654 295.956 418.619 287.564C420.113 283.375 421.367 279.097 422.41 274.772C423.447 270.442 424.262 266.065 424.848 261.652C424.942 260.926 425.61 260.422 426.33 260.515C427.057 260.609 427.561 261.277 427.467 261.998C426.875 266.504 426.038 270.975 424.983 275.388C423.922 279.806 422.639 284.166 421.115 288.449C418.092 297.016 414.142 305.255 409.39 313.002L409.05 311.25L447.672 339.875L445.562 340.912C445.539 337.343 445.416 333.787 445.187 330.241C444.953 326.696 444.572 323.157 444.121 319.641C443.664 316.119 443.078 312.615 442.375 309.14C441.677 305.659 440.839 302.237 439.837 298.844C435.859 285.261 429.788 272.3 422.721 259.959C420.98 256.853 419.082 253.841 417.218 250.8L414.3 246.323L412.835 244.09L411.312 241.893C407.304 235.992 403.038 230.267 398.555 224.741C394.061 219.227 389.338 213.901 384.286 208.896C379.264 203.863 373.897 199.204 368.418 194.563C362.957 189.922 357.378 185.17 352.55 179.609C347.704 174.072 343.672 167.866 340.338 161.385C338.644 158.156 337.127 154.846 335.691 151.523C334.255 148.2 332.919 144.866 331.484 141.632C330.054 138.397 328.495 135.268 326.503 132.531C326.028 131.828 325.471 131.201 324.932 130.557C324.675 130.223 324.364 129.941 324.071 129.642C323.772 129.349 323.491 129.039 323.186 128.758L322.231 127.949L321.756 127.545L321.247 127.181L320.221 126.455C319.881 126.209 319.5 126.021 319.143 125.804C316.26 124.07 312.996 122.962 309.632 122.265C307.945 121.931 306.228 121.702 304.493 121.538C302.753 121.398 301.007 121.31 299.243 121.286C295.715 121.24 292.153 121.392 288.543 121.491C286.738 121.538 284.916 121.568 283.076 121.521C281.236 121.474 279.366 121.357 277.48 121.017C275.599 120.677 273.665 120.103 271.907 119.019L271.256 118.597C271.04 118.462 270.846 118.274 270.641 118.11C270.442 117.94 270.237 117.782 270.044 117.601L269.51 117.026C269.135 116.657 268.86 116.212 268.555 115.79C268.245 115.374 268.004 114.899 267.77 114.395C267.541 113.88 267.383 113.317 267.284 112.796C267.184 112.274 267.131 111.805 267.073 111.383C266.961 110.528 266.809 109.737 266.592 108.922C266.158 107.305 265.537 105.67 264.822 104.105C263.404 100.959 261.494 98.0347 259.261 95.3802C257.023 92.7198 254.433 90.3525 251.644 88.2253C251.064 87.78 250.952 86.9479 251.392 86.3678C251.831 85.7935 252.652 85.6763 253.232 86.1099V86.0865Z" fill="#0073CB"/>
<path d="M350.218 174.986C350.036 174.986 349.854 174.951 349.678 174.869C335.896 168.716 325.759 160.418 319.541 150.205C317.983 147.644 316.969 145.452 316.072 143.524C314.795 140.77 313.688 138.391 311.367 135.52C305.009 127.662 294.878 122.839 281.259 121.175C280.533 121.087 280.017 120.425 280.105 119.704C280.193 118.978 280.855 118.468 281.576 118.55C295.903 120.302 306.621 125.453 313.424 133.856C315.949 136.979 317.174 139.616 318.469 142.411C319.377 144.368 320.321 146.396 321.803 148.833C327.733 158.578 337.478 166.53 350.757 172.454C351.425 172.753 351.724 173.533 351.425 174.201C351.208 174.693 350.722 174.986 350.218 174.986Z" fill="#0073CB"/>
<path d="M442.234 304.652C442.234 304.652 442.211 304.652 442.199 304.652C441.466 304.634 440.892 304.025 440.91 303.298C441.173 292.733 440.88 281.986 440.048 271.362C437.962 244.706 436.919 231.322 428.587 220.329C424.748 215.26 421.953 213.813 417.33 211.416C413.046 209.195 407.175 206.154 397.946 198.659C392.76 194.452 390.849 192.354 383.73 184.561C380.126 180.617 375.198 175.22 367.814 167.327C355.562 154.23 344.985 142.915 331.478 129.783C323.104 121.644 314.473 113.651 305.835 106.033C305.29 105.553 305.237 104.715 305.718 104.17C306.198 103.625 307.036 103.572 307.581 104.053C316.254 111.7 324.915 119.722 333.324 127.89C346.877 141.069 357.478 152.402 369.748 165.528C377.143 173.433 382.083 178.841 385.687 182.785C392.701 190.461 394.588 192.53 399.621 196.614C408.646 203.939 414.142 206.787 418.56 209.078C423.172 211.469 426.506 213.198 430.708 218.741C439.509 230.355 440.576 243.991 442.697 271.163C443.535 281.88 443.828 292.715 443.564 303.374C443.547 304.095 442.961 304.663 442.246 304.663L442.234 304.652Z" fill="#0073CB"/>
<path d="M354.314 152.367C353.769 152.367 353.259 152.027 353.065 151.488C350.387 143.964 348.102 136.211 346.28 128.441C344.879 122.482 343.719 116.382 342.828 110.323C342.723 109.602 343.221 108.928 343.942 108.822C344.668 108.717 345.336 109.215 345.442 109.942C346.321 115.93 347.463 121.954 348.852 127.838C350.657 135.514 352.913 143.173 355.556 150.603C355.802 151.288 355.439 152.044 354.753 152.291C354.607 152.343 354.454 152.367 354.308 152.367H354.314Z" fill="#0073CB"/>
<path d="M491.035 270.624C490.8 270.624 490.56 270.559 490.355 270.436C478.524 263.316 468.046 254.486 459.222 244.184C455.055 239.32 451.223 234.082 447.836 228.615C447.695 228.392 447.631 228.128 447.637 227.864C448.012 218.354 448.164 208.709 448.094 199.187C448.065 194.938 447.988 190.614 447.865 186.342C447.848 185.609 448.422 185.006 449.149 184.982C449.16 184.982 449.172 184.982 449.19 184.982C449.905 184.982 450.491 185.551 450.508 186.266C450.631 190.561 450.707 194.903 450.737 199.169C450.807 208.592 450.655 218.143 450.291 227.566C453.555 232.793 457.229 237.803 461.226 242.461C469.318 251.907 478.823 260.088 489.511 266.815C488.263 249.452 488.872 232.371 491.333 215.993C492.148 210.584 493.121 205.439 494.064 200.464C497.445 182.644 500.117 168.569 491.908 159.844C491.374 159.275 488.808 157.576 484.554 154.752C467.818 143.647 459.421 138.075 451.164 137.495C445.773 137.114 440.418 139.657 429.753 144.726C420.5 149.12 414.605 153.293 409.402 156.973C403.132 161.408 397.717 165.235 388.828 167.573C382.845 169.143 376.569 169.729 370.176 169.319C369.449 169.272 368.893 168.645 368.94 167.913C368.986 167.186 369.625 166.635 370.346 166.676C376.458 167.075 382.446 166.512 388.154 165.012C396.586 162.797 401.567 159.275 407.872 154.81C413.164 151.066 419.158 146.829 428.616 142.335C439.697 137.067 445.258 134.424 451.346 134.852C460.3 135.485 468.89 141.18 486.013 152.543C491.017 155.865 493.091 157.236 493.83 158.027C502.965 167.731 500.182 182.392 496.66 200.95C495.722 205.902 494.75 211.018 493.947 216.373C491.398 233.361 490.859 251.128 492.347 269.176C492.388 269.668 492.148 270.149 491.726 270.407C491.515 270.542 491.269 270.606 491.029 270.606L491.035 270.624Z" fill="#0073CB"/>
<path d="M373.293 166.964C378.262 169.589 383.29 172.079 388.382 174.417C390.925 175.589 393.492 176.714 396.076 177.798C398.655 178.894 401.245 179.937 403.864 180.951C406.489 181.976 409.12 182.978 411.74 183.969C414.359 184.953 416.978 185.891 419.592 186.682C422.205 187.461 424.819 188.094 427.397 188.346C428.686 188.498 429.969 188.504 431.247 188.457C431.886 188.416 432.518 188.381 433.181 188.282C433.831 188.188 434.487 188.141 435.138 188C440.359 187.104 445.416 185.1 450.227 182.574C452.635 181.302 454.979 179.884 457.294 178.373L459.028 177.224L460.751 176.052C461.882 175.284 462.978 174.47 464.091 173.644C466.306 172.003 468.556 170.186 471.164 168.61C472.459 167.825 473.824 167.11 475.231 166.524C476.631 165.932 478.061 165.446 479.497 165.041C485.257 163.401 491.327 163.161 497.052 164.186C497.773 164.315 498.254 165.006 498.125 165.727C498.013 166.36 497.463 166.811 496.842 166.823H496.836C491.322 166.922 485.936 167.725 480.938 169.548C479.684 169.999 478.477 170.532 477.305 171.089C476.133 171.657 475.02 172.308 473.924 173.017C471.744 174.441 469.611 176.204 467.302 177.933C466.16 178.8 464.976 179.65 463.769 180.465L461.982 181.666L460.183 182.844C457.762 184.402 455.266 185.902 452.676 187.25C450.08 188.598 447.402 189.817 444.607 190.807C441.818 191.792 438.923 192.559 435.958 193.028C435.226 193.174 434.47 193.221 433.726 193.315C432.987 193.415 432.214 193.45 431.44 193.485C429.899 193.52 428.352 193.485 426.84 193.28C423.793 192.94 420.922 192.126 418.15 191.229C412.624 189.389 407.433 187.133 402.235 184.912C391.763 180.47 381.62 175.22 371.969 169.243C371.348 168.856 371.154 168.042 371.541 167.421C371.91 166.829 372.672 166.624 373.282 166.946H373.287L373.293 166.964Z" fill="#0073CB"/>
<path d="M400.629 162.569C400.594 162.569 400.559 162.569 400.524 162.569C399.797 162.51 399.252 161.871 399.311 161.145C399.721 155.982 399.434 150.837 398.467 145.862C397.219 139.487 395.514 130.756 388.945 124.246C387.615 122.927 386.513 122.113 385.23 121.175C383.466 119.88 381.468 118.409 378.362 115.274C375.93 112.819 373.645 110.176 371.571 107.416C371.131 106.83 371.248 106.004 371.834 105.564C372.42 105.125 373.247 105.242 373.686 105.828C375.684 108.494 377.893 111.043 380.237 113.417C383.202 116.405 385.113 117.811 386.794 119.048C388.101 120.009 389.338 120.917 390.802 122.37C397.946 129.449 399.745 138.643 401.057 145.358C402.077 150.568 402.376 155.953 401.942 161.356C401.889 162.047 401.309 162.575 400.624 162.575L400.629 162.569Z" fill="#0073CB"/>
<path d="M241.037 92.9893C238.875 100.648 235.424 107.943 230.66 114.372C228.263 117.577 225.444 120.501 222.356 123.015C219.292 125.558 216.039 127.744 213.174 130.228C211.715 131.447 210.402 132.801 209.142 134.195C208.539 134.916 207.953 135.655 207.373 136.393C206.845 137.172 206.289 137.934 205.779 138.731C203.757 141.919 202.245 145.382 201.624 149.044C200.939 152.707 201.208 156.539 201.044 160.553C200.945 162.557 200.716 164.602 200.212 166.6C199.714 168.593 198.97 170.526 198.05 172.343C196.186 175.988 193.719 179.169 191.047 182.123C188.364 185.076 185.399 187.766 182.17 190.121C178.947 192.483 175.454 194.505 171.745 196.046C170.837 196.474 169.87 196.761 168.927 197.106C167.983 197.458 167.016 197.739 166.049 197.997C164.11 198.513 162.17 198.882 160.348 199.351C158.52 199.825 156.762 200.446 155.033 201.214C153.304 201.988 151.611 202.849 150.04 203.851C148.458 204.847 147.075 206.031 145.593 207.343C144.86 207.994 144.069 208.65 143.249 209.26C142.833 209.558 142.423 209.869 141.983 210.139L141.339 210.56L140.676 210.947C138.919 211.967 137.079 212.817 135.256 213.572C133.44 214.334 131.664 215.032 130.076 215.928C128.488 216.825 127.093 217.938 125.963 219.327C124.808 220.698 123.912 222.298 123.279 223.991V224.003L121.462 222.35C128.998 218.506 136.692 214.996 144.497 211.709C148.406 210.074 152.349 208.504 156.328 207.056C160.301 205.591 164.303 204.238 168.159 202.743C175.876 199.773 183.236 195.923 190.139 191.405C193.585 189.137 196.884 186.664 200.054 184.051C201.589 182.685 203.177 181.384 204.625 179.925C205.357 179.205 206.119 178.525 206.822 177.775L208.92 175.536C209.641 174.81 210.279 174.013 210.941 173.234C211.592 172.448 212.277 171.681 212.904 170.884L214.744 168.452C215.336 167.632 215.881 166.782 216.456 165.95C217.018 165.112 217.499 164.233 218.026 163.383C218.518 162.51 218.969 161.619 219.432 160.735C220.288 158.918 221.085 157.096 221.794 155.144C222.532 153.216 223.212 151.195 224.085 149.161C224.489 148.148 224.993 147.14 225.462 146.138C225.702 145.634 225.989 145.153 226.253 144.661C226.529 144.175 226.769 143.665 227.079 143.202C229.388 139.37 232.201 135.959 235.201 132.836C238.213 129.724 241.412 126.894 244.331 124.04C245.784 122.605 247.149 121.134 248.362 119.575C249.581 118.017 250.648 116.364 251.579 114.618C253.413 111.114 254.65 107.252 255.306 103.279C255.951 99.3003 256.015 95.1984 255.617 91.1024C255.546 90.3699 256.08 89.7253 256.806 89.655C257.492 89.5906 258.107 90.0652 258.236 90.7274C259.027 94.9699 259.302 99.3647 258.857 103.742C258.629 105.928 258.248 108.108 257.662 110.246C257.369 111.313 257.035 112.374 256.654 113.417L256.056 114.975L255.371 116.505C254.421 118.532 253.261 120.472 251.943 122.271C250.63 124.076 249.171 125.746 247.682 127.322C246.194 128.898 244.653 130.369 243.159 131.834C241.664 133.299 240.205 134.758 238.811 136.258C236.062 139.282 233.49 142.405 231.474 145.815C229.423 149.214 228.128 152.941 226.605 156.973C225.866 158.977 224.976 161.016 224.026 163.002C223.511 163.981 223.007 164.965 222.456 165.926C221.876 166.864 221.337 167.831 220.721 168.739C220.1 169.641 219.497 170.561 218.858 171.446L216.877 174.042C216.204 174.892 215.483 175.7 214.785 176.533C214.076 177.353 213.397 178.203 212.629 178.964L210.385 181.308C209.635 182.088 208.82 182.803 208.041 183.553C206.494 185.07 204.812 186.424 203.183 187.836C199.825 190.543 196.351 193.092 192.729 195.419C189.096 197.716 185.346 199.825 181.502 201.73C179.586 202.691 177.628 203.576 175.66 204.431C173.673 205.269 171.692 206.066 169.671 206.793C165.633 208.246 161.619 209.488 157.652 210.842C153.685 212.19 149.742 213.584 145.827 215.073C137.993 218.043 130.258 221.313 122.593 224.747L122.54 224.771C121.878 225.069 121.105 224.771 120.806 224.108C120.659 223.774 120.659 223.411 120.782 223.095V223.083C121.515 221.126 122.552 219.268 123.912 217.651C125.242 216.01 126.953 214.656 128.763 213.637C130.58 212.617 132.449 211.891 134.225 211.146C136.006 210.408 137.717 209.611 139.335 208.674C140.958 207.742 142.399 206.646 143.841 205.363C145.282 204.085 146.87 202.726 148.599 201.642C150.322 200.54 152.115 199.632 153.949 198.812C155.789 197.997 157.717 197.311 159.668 196.808C161.619 196.304 163.524 195.946 165.358 195.454C166.272 195.208 167.18 194.944 168.065 194.61C168.95 194.282 169.864 194.018 170.72 193.614C174.218 192.167 177.529 190.245 180.599 188C183.67 185.756 186.518 183.178 189.084 180.353C191.645 177.529 193.989 174.476 195.683 171.159C196.526 169.501 197.188 167.766 197.64 165.973C198.097 164.18 198.302 162.328 198.396 160.442C198.566 156.668 198.267 152.642 199.011 148.593C199.696 144.544 201.378 140.717 203.535 137.33C204.08 136.481 204.671 135.666 205.24 134.834C205.861 134.037 206.488 133.246 207.138 132.473C208.486 130.973 209.904 129.519 211.44 128.236C214.475 125.611 217.727 123.431 220.663 120.987C223.628 118.573 226.259 115.837 228.538 112.795C233.074 106.684 236.42 99.6401 238.488 92.2861C238.688 91.5829 239.414 91.1727 240.117 91.3719C240.821 91.5712 241.231 92.2978 241.032 93.001L241.037 92.9893Z" fill="#0073CB"/>
<path d="M161.795 208.539C155.672 215.407 149.906 222.544 144.679 230.056C139.44 237.551 134.67 245.368 130.475 253.472C126.256 261.57 122.64 269.961 119.429 278.511C118.65 280.656 117.864 282.806 117.12 284.968C116.393 287.137 115.679 289.311 114.981 291.49C113.616 295.862 112.368 300.28 111.143 304.722L111.114 304.839C110.915 305.542 110.188 305.947 109.485 305.747C108.881 305.577 108.494 305.009 108.53 304.405C108.905 297.467 109.069 290.512 109.039 283.556C109.028 280.081 108.957 276.606 108.846 273.132L108.448 262.672C108.395 260.914 108.36 259.156 108.383 257.375C108.418 255.599 108.518 253.806 108.723 252.025C109.133 248.456 109.936 244.963 111.038 241.565C113.235 234.756 116.745 228.451 120.97 222.755C121.404 222.169 122.236 222.046 122.822 222.479C123.408 222.913 123.531 223.745 123.097 224.331C119.013 229.839 115.649 235.887 113.557 242.379C112.508 245.614 111.741 248.96 111.354 252.323C111.161 254.011 111.061 255.705 111.032 257.416C111.002 259.127 111.043 260.849 111.09 262.584L111.489 273.044C111.6 276.542 111.67 280.046 111.682 283.544C111.711 290.547 111.547 297.549 111.167 304.546L108.547 304.224C109.643 294.936 111.811 285.771 114.741 276.864C116.212 272.411 117.858 268.01 119.739 263.715C121.609 259.408 123.677 255.195 125.875 251.046C128.049 246.885 130.475 242.866 132.994 238.91C135.508 234.955 138.239 231.134 141.063 227.402C146.765 219.966 153.052 212.992 159.92 206.675C160.459 206.183 161.297 206.218 161.789 206.752C162.252 207.256 162.252 208.023 161.807 208.521H161.801L161.795 208.539Z" fill="#0073CB"/>
<path d="M119.687 367.949C119.388 367.949 119.071 367.914 118.749 367.844C116.704 367.387 115.286 365.388 114.02 361.169C112.262 355.304 110.873 345.002 109.901 330.552C109.274 321.27 108.928 311.906 108.869 302.718C108.869 301.985 109.455 301.393 110.182 301.388H110.188C110.914 301.388 111.506 301.973 111.512 302.7C111.571 311.83 111.916 321.141 112.538 330.37C114.594 360.952 117.97 364.961 119.323 365.265C120.443 365.517 121.474 364.427 123.349 362.318C125.916 359.435 129.431 355.485 136.141 353.557C137.916 353.048 139.469 352.807 140.969 352.579C143.466 352.198 145.827 351.835 149.009 350.206C151.494 348.934 153.785 347.241 155.836 345.178C145.991 334.788 137.26 323.344 129.859 311.144C124.052 301.569 119.013 291.432 114.882 281.001C114.612 280.322 114.946 279.554 115.626 279.284C116.305 279.015 117.073 279.349 117.343 280.029C121.421 290.318 126.396 300.327 132.127 309.773C139.639 322.166 148.558 333.769 158.619 344.258C159.1 344.762 159.111 345.547 158.643 346.063C156.17 348.776 153.339 350.956 150.222 352.555C146.659 354.384 143.976 354.794 141.38 355.192C139.962 355.409 138.497 355.638 136.879 356.101C130.902 357.817 127.814 361.286 125.33 364.076C123.495 366.138 121.878 367.955 119.687 367.955V367.949Z" fill="#0073CB"/>
<path d="M216.21 127.427C215.905 127.427 215.594 127.322 215.342 127.105C214.792 126.625 214.733 125.792 215.213 125.242C217.956 122.083 220.411 118.661 222.509 115.057C225.562 109.825 227.894 104.182 229.441 98.2807C229.629 97.5716 230.349 97.1497 231.052 97.3372C231.762 97.5248 232.183 98.2455 231.996 98.9487C230.384 105.078 227.964 110.944 224.794 116.382C222.614 120.126 220.059 123.683 217.212 126.964C216.948 127.263 216.585 127.422 216.215 127.422L216.21 127.427Z" fill="#0073CB"/>
<path d="M201.777 146.319C194.862 149.349 187.661 151.781 180.26 153.363C176.562 154.166 172.818 154.758 169.05 155.133C167.163 155.32 165.276 155.455 163.383 155.508C162.434 155.531 161.491 155.607 160.541 155.59L157.699 155.572C153.908 155.472 150.123 155.138 146.384 154.617C142.646 154.095 138.966 153.398 135.297 152.8C127.973 151.552 120.624 150.814 113.229 150.96C105.846 151.095 98.4098 151.664 91.214 153.14C87.6219 153.884 84.0826 154.875 80.8187 156.357C79.1779 157.101 77.6719 157.975 76.2363 159.064C74.7889 160.131 73.4529 161.309 72.1989 162.616C70.9449 163.916 69.7612 165.323 68.5834 166.753L65.0616 171.101C62.706 174.013 60.2976 176.89 57.8423 179.726C52.926 185.393 47.8162 190.889 42.5072 196.192H42.5014L41.4056 193.954C47.6404 192.805 53.8811 191.792 60.1277 190.801C66.3742 189.834 72.6325 188.92 78.8849 187.924C82.0082 187.455 85.1373 186.981 88.2313 186.465C89.7783 186.201 91.3194 185.938 92.843 185.65C93.6048 185.51 94.3607 185.346 95.1225 185.176C95.8784 185.006 96.6402 184.859 97.3961 184.672C103.438 183.26 109.291 181.256 115.022 178.812C120.759 176.363 126.414 173.544 132.151 170.831C137.887 168.112 143.683 165.475 149.531 162.985C155.379 160.488 161.268 158.109 167.216 155.865C173.158 153.621 179.129 151.453 185.153 149.454C185.844 149.226 186.594 149.601 186.823 150.292C187.045 150.96 186.7 151.687 186.049 151.939C180.16 154.236 174.288 156.562 168.464 159C162.645 161.455 156.85 163.952 151.113 166.571C145.37 169.184 139.669 171.868 134.014 174.681C128.348 177.464 122.687 180.347 116.804 182.937C110.915 185.522 104.744 187.631 98.4567 189.131C97.6715 189.33 96.8804 189.489 96.0952 189.664C95.31 189.84 94.5189 190.016 93.722 190.162C92.134 190.473 90.5577 190.748 88.9814 191C85.8288 191.504 82.6879 191.956 79.5471 192.401C76.4062 192.817 73.2712 193.251 70.1245 193.643L60.6668 194.721C54.3616 195.401 48.0506 196.057 41.7279 196.573H41.6634C40.9368 196.638 40.3039 196.098 40.2453 195.372C40.2102 194.968 40.3684 194.587 40.6379 194.323H40.6438C45.9059 189.055 50.9746 183.605 55.85 177.986C58.2877 175.173 60.6726 172.325 63.0166 169.425L66.55 165.065C67.7454 163.612 68.9643 162.158 70.3062 160.77C71.6422 159.381 73.113 158.08 74.6776 156.932C76.2187 155.76 77.9649 154.746 79.7229 153.949C83.2681 152.337 86.9715 151.318 90.6866 150.544C98.1403 149.021 105.664 148.452 113.212 148.312C120.759 148.165 128.348 148.927 135.743 150.187C139.446 150.79 143.108 151.482 146.771 151.992C150.433 152.507 154.101 152.824 157.776 152.923L160.536 152.941C161.456 152.959 162.376 152.882 163.295 152.859C165.135 152.806 166.975 152.671 168.81 152.496C172.478 152.132 176.123 151.552 179.726 150.773C186.94 149.232 193.972 146.858 200.74 143.893C201.408 143.6 202.187 143.905 202.48 144.573C202.773 145.241 202.468 146.021 201.8 146.314L201.777 146.319Z" fill="#0073CB"/>
<path d="M137.313 153.123C136.973 153.123 136.633 152.994 136.376 152.736C135.86 152.22 135.86 151.382 136.376 150.867C138.21 149.038 140.009 147.128 141.726 145.194C145.933 140.448 149.83 135.326 153.299 129.976C153.697 129.361 154.517 129.191 155.127 129.584C155.742 129.982 155.912 130.803 155.52 131.412C151.98 136.873 148.007 142.1 143.706 146.946C141.954 148.927 140.114 150.873 138.245 152.736C137.987 152.994 137.647 153.123 137.313 153.123Z" fill="#0073CB"/>
<path d="M61.7917 265.567C61.2702 265.567 60.778 265.256 60.567 264.746C57.0453 256.208 53.2657 247.806 49.3338 239.76C48.3435 237.732 47.4059 235.857 46.5328 234.105C41.3644 223.763 38.247 217.522 38.165 208.381C38.124 203.863 38.8447 199.31 40.298 194.85C40.5265 194.159 41.2707 193.778 41.9621 194.007C42.6536 194.235 43.0345 194.979 42.806 195.677C41.4406 199.861 40.7667 204.126 40.8019 208.357C40.8781 216.889 43.8959 222.925 48.8884 232.922C49.7674 234.68 50.705 236.561 51.7012 238.594C55.6565 246.686 59.4595 255.142 62.9989 263.732C63.2801 264.406 62.9578 265.18 62.2781 265.461C62.114 265.531 61.9441 265.561 61.7742 265.561L61.7917 265.567Z" fill="#0073CB"/>
<path d="M83.3383 189.875C82.8636 195.401 83.2738 201.032 84.6743 206.377C85.0259 207.713 85.4478 209.019 85.94 210.314C86.4264 211.615 86.9831 212.893 87.5398 214.229C87.821 214.891 88.0906 215.582 88.3426 216.285C88.6063 216.989 88.7821 217.733 88.9871 218.459C89.0926 218.823 89.1395 219.198 89.2215 219.567C89.286 219.936 89.3856 220.305 89.4149 220.68C89.4969 221.43 89.6141 222.175 89.6259 222.931C89.7255 224.431 89.6259 225.931 89.4852 227.413C89.2919 228.884 89.0516 230.355 88.6766 231.779C87.9734 234.65 86.9245 237.398 85.6998 240.041C83.227 245.333 80.0392 250.202 76.4237 254.726C74.6306 256.976 72.6031 259.203 70.3354 261.066C68.0852 262.965 65.671 264.588 63.2333 266.129C60.7897 267.658 58.3169 269.094 55.8382 270.512C53.3536 271.93 50.8808 273.325 48.3845 274.72C38.3935 280.275 28.1623 285.402 17.7201 290.06L18.3999 289.363C14.591 298.51 11.3388 307.886 8.70775 317.437C6.07084 326.989 4.03749 336.705 2.62527 346.508V346.52L0.808732 345.113C6.41071 342.33 12.0596 339.675 17.7084 337.033L26.2051 333.112C29.0354 331.806 31.854 330.47 34.6609 329.122C40.2863 326.467 45.9058 323.754 51.3261 320.883C52.0059 320.526 52.668 320.156 53.3361 319.787C54.0099 319.424 54.6487 319.037 55.2932 318.656C56.5765 317.883 57.8247 317.086 58.9263 316.225C61.1003 314.584 62.9637 312.363 64.5166 309.972C66.0753 307.575 67.2707 304.862 68.3255 302.055C69.3685 299.237 70.2885 296.313 71.1382 293.348C71.9937 290.383 72.7848 287.377 73.5758 284.365C74.3786 281.347 75.1873 278.335 75.9373 275.335C78.9727 263.299 81.4045 251.104 83.4262 238.811C83.5434 238.09 84.2231 237.598 84.9439 237.721C85.6295 237.832 86.0983 238.453 86.0514 239.133C85.0494 251.649 83.1391 264.102 80.4846 276.401C79.1192 282.56 77.7187 288.601 76.0897 294.725C75.2635 297.778 74.4021 300.848 73.2887 303.895C72.1636 306.931 70.8569 309.996 69.0286 312.855L68.3313 313.922C68.0969 314.273 67.8332 314.607 67.5813 314.953C67.0949 315.65 66.5265 316.289 65.9815 316.945C64.9033 318.211 63.5673 319.488 62.1961 320.508C60.8249 321.557 59.4244 322.43 58.0239 323.256C57.3207 323.667 56.6234 324.077 55.9202 324.452C55.2171 324.838 54.5139 325.225 53.8107 325.589C52.4044 326.333 50.9863 327.036 49.5682 327.739C48.1443 328.413 46.7203 329.104 45.2905 329.755C43.8608 330.411 42.4368 331.073 41.0012 331.712C39.5714 332.357 38.1416 333.007 36.7001 333.622C33.8229 334.87 30.9457 336.101 28.0568 337.302L19.3374 340.801C13.5128 343.104 7.68815 345.395 1.81662 347.557L1.7463 347.586C1.06656 347.838 0.316508 347.487 0.0645359 346.813C-0.0175014 346.596 -0.0350809 346.367 7.79937e-05 346.151V346.139C1.42987 336.224 3.48081 326.397 6.15288 316.74C8.81323 307.083 12.1006 297.596 15.9505 288.349C16.0853 288.027 16.3372 287.781 16.6302 287.652C27.0021 283.029 37.163 277.937 47.0836 272.417C52.0352 269.633 57.0336 266.867 61.8152 263.896C64.1943 262.39 66.5148 260.826 68.6243 259.05C70.7631 257.292 72.5914 255.283 74.3493 253.079C77.8418 248.708 80.9358 243.973 83.2856 238.934C84.4517 236.414 85.442 233.812 86.0924 231.146C86.444 229.816 86.6549 228.468 86.8366 227.12C86.9597 225.767 87.0593 224.413 86.9655 223.071C86.9597 222.397 86.8542 221.735 86.778 221.067C86.7487 220.733 86.6608 220.411 86.6022 220.077C86.5319 219.749 86.4909 219.415 86.3971 219.098C86.2096 218.459 86.0631 217.809 85.8229 217.176C85.5943 216.537 85.3423 215.899 85.0669 215.254C84.5278 213.959 83.9477 212.623 83.432 211.258C82.9164 209.887 82.4593 208.486 82.0843 207.062C80.5959 201.378 80.174 195.477 80.6721 189.658C80.7365 188.932 81.3753 188.393 82.1019 188.451C82.8285 188.516 83.3676 189.155 83.309 189.881L83.3383 189.875Z" fill="#0073CB"/>
<path d="M198.818 109.227C198.296 109.227 197.804 108.916 197.593 108.401C197.317 107.727 197.64 106.953 198.319 106.678C203.095 104.732 207.555 102.166 211.569 99.0425C216.778 94.9934 220.528 90.9911 221.015 89.5672C220.171 89.4265 216.866 89.5144 205.287 94.1847C199.029 96.7103 195.735 98.7143 192.829 100.484C190.092 102.148 187.731 103.584 183.799 104.803C172.138 108.406 160.301 106.045 156.949 103.713C156.123 103.138 155.689 102.488 155.648 101.773C155.537 99.7632 157.717 99.3941 162.065 98.6557C167.831 97.6772 177.482 96.0305 188.78 90.1825C190.954 89.0574 192.788 87.985 194.557 86.942C198.765 84.4809 202.398 82.3479 208.58 80.6544C214.241 79.1016 220.194 78.4335 226.265 78.6797C226.997 78.7089 227.56 79.3242 227.531 80.0508C227.501 80.7775 226.892 81.3517 226.159 81.3166C220.358 81.0822 214.68 81.715 209.277 83.1976C203.429 84.8031 199.937 86.8482 195.894 89.2156C194.089 90.2704 192.225 91.3661 189.993 92.5205C178.332 98.562 168.423 100.244 162.504 101.252C161.233 101.468 159.926 101.691 159.047 101.902C162.129 103.414 172.478 105.523 183.014 102.271C186.629 101.152 188.756 99.857 191.452 98.2221C194.294 96.4935 197.833 94.3371 204.291 91.7353C219.35 85.6528 222.374 86.4205 223.399 88.1491C224.296 89.6668 223.3 91.7294 220.065 95.052C217.891 97.2787 215.084 99.6519 213.186 101.134C208.978 104.404 204.308 107.1 199.31 109.133C199.146 109.198 198.976 109.233 198.812 109.233L198.818 109.227Z" fill="#0073CB"/>
<path d="M298.833 93.1359C298.751 93.1359 298.663 93.13 298.575 93.1124C292.698 91.9522 286.779 90.4696 280.972 88.7117C279.378 88.2253 275.645 87.0944 272.294 85.9166C266.041 83.7191 265.039 82.8226 265.35 81.4104C265.672 79.9454 267.137 79.5587 274.714 80.3146C280.029 80.8478 285.877 81.7385 287.541 81.9963C292.891 82.8343 296.559 83.6078 299.507 84.2289C304.271 85.231 306.896 85.7818 311.373 85.4361C317.59 84.9556 322.688 83.2035 325.407 81.8499C325.055 81.885 324.692 81.926 324.346 81.9671C318.721 82.5823 308.244 83.7309 296.565 79.7286C293.02 78.5156 290.553 77.2323 288.379 76.1014C285.285 74.4958 282.835 73.2242 278.435 72.6617C272.106 71.853 265.479 73.0308 258.717 76.16C258.054 76.4647 257.269 76.1776 256.964 75.5154C256.66 74.8532 256.947 74.068 257.609 73.7633C264.822 70.4232 271.948 69.1692 278.769 70.0423C283.638 70.6635 286.398 72.0991 289.598 73.7575C291.69 74.8474 294.063 76.0779 297.421 77.2323C308.542 81.0412 318.633 79.9396 324.059 79.3419C325.483 79.1836 326.608 79.0606 327.446 79.0547C328.976 79.0371 329.837 79.5411 330.025 80.5373C330.095 80.9006 330.071 81.469 329.585 82.1018C327.821 84.3989 319.746 87.4401 311.584 88.0788C306.726 88.4597 303.802 87.8386 298.968 86.8248C296.049 86.2096 292.422 85.4478 287.137 84.6215C280.726 83.6195 274.784 82.9105 271.098 82.6702C273.155 83.4554 276.454 84.5805 281.746 86.1861C287.465 87.9206 293.301 89.3797 299.091 90.5224C299.805 90.663 300.274 91.3603 300.134 92.0752C300.011 92.7022 299.454 93.1417 298.839 93.1417L298.833 93.1359Z" fill="#0073CB"/>
<path d="M99.1773 70.3295C99.5582 67.6985 113.018 67.1945 122.458 67.8801C136.692 68.9173 137.43 72.357 149.589 73.3063C154.64 73.7048 156.328 73.2477 183.898 69.2806C203.576 66.4445 205.509 66.2746 205.603 66.6554C205.89 67.8391 188.076 73.8982 169.02 77.6836C154.646 80.5373 143.278 82.6996 128.763 80.8362C113.956 78.9317 98.7671 73.2067 99.1832 70.3354L99.1773 70.3295Z" fill="#97D0FC"/>
</g>
<defs>
<clipPath id="clip0_81_116">
<rect width="500" height="367.949" fill="white"/>
</clipPath>
</defs>
</svg>
