<svg width="400" height="607" viewBox="0 0 400 607" fill="none" xmlns="http://www.w3.org/2000/svg">
<g clip-path="url(#clip0_79_52)">
<path d="M247.738 129.128C261.056 119.362 272.791 114.629 280.58 112.142C314.654 101.253 334.142 113.841 357.305 98.2698C361.222 95.6369 366.451 91.3849 370.893 93.1718C376.873 95.5785 379.754 108.254 375.991 116.955C371.075 128.304 355.679 130.973 333.668 134.795C305.742 139.637 284.256 137.019 275.343 135.641C263.842 133.868 254.412 131.272 247.738 129.128Z" fill="#53B172"/>
<path d="M250.568 137.901C251.465 136.698 262.624 147.259 282.987 154.319C300.979 160.554 304.4 156.521 316.397 162.954C331.305 170.955 327.556 178.022 343.149 186.314C358.742 194.599 377.121 196.364 377.121 196.364C386.894 197.305 391.46 196.116 393.611 199.406C394.946 201.44 394.618 204.081 383.204 227.222C379.2 235.34 377.887 237.761 375.772 237.841C371.046 238.016 370.878 226.135 361.754 218.944C352.616 211.731 345.971 218.288 333.092 212.789C321.619 207.888 323.114 201.076 305.909 184.972C297.435 177.037 297.114 178.729 280.638 165.652C265.913 153.954 249.481 139.345 250.561 137.909L250.568 137.901Z" fill="#53B172"/>
<path d="M211.498 114.403C211.571 112.886 195.387 108.546 177.241 110.442C171.611 111.033 163.472 112.463 131.943 127.144C99.6627 142.175 99.5898 144.684 87.7747 146.96C69.2935 150.519 60.1404 146.187 55.7863 152.619C49.9809 161.196 58.2296 180.72 68.5277 182.916C74.231 184.134 76.4628 179.152 88.628 174.142C102.864 168.278 107.532 171.917 118.924 167.629C129.215 163.756 128.369 159.665 146.383 143.846C160.89 131.112 171.669 121.842 187.437 117.517C201.01 113.797 211.44 115.613 211.505 114.403H211.498Z" fill="#53B172"/>
<path d="M229.899 145.552C227.769 150.03 227.003 155.077 233.013 184.338C235.376 195.847 236.463 199.763 238.396 204.438C242.37 214.072 244.318 213.343 245.754 219.163C247.199 224.998 245.776 227.922 241.225 249.175C238.199 263.295 238.381 264.068 238.68 264.177C240.015 264.673 247.395 252.938 250.291 238.695C252.574 227.441 251.348 218.164 250.006 208.683C247.724 192.492 245.076 194.614 244.347 184.053C243.071 165.558 251.027 156.791 245.105 143.473C244.223 141.497 242.188 137.063 238.972 136.771C234.377 136.363 230.336 144.655 229.913 145.545L229.899 145.552Z" fill="#53B172"/>
<path d="M204.985 159.139C197.247 181.967 193.287 200.959 191.113 213.781C183.207 260.428 189.217 282.987 171.013 304.378C160.977 316.164 148.214 322.166 142.7 324.763C123.556 333.762 114.439 330.006 91.4578 336.089C59.557 344.535 44.4016 360.441 42.4761 357.889C40.1642 354.818 58.9444 327.687 88.3436 319.665C107.846 314.348 114.891 322.115 128.829 314.005C143.809 305.282 154.041 285.612 151.197 268.991C149.089 256.665 141.65 256.906 138.74 244.923C132.76 220.315 158.045 194.402 166.768 185.468C173.974 178.087 186.27 167.425 204.985 159.139Z" fill="#53B172"/>
<path d="M240.095 310.672C244.354 310.672 251.122 310.395 259.203 308.761C270.924 306.391 276.831 302.897 296.785 294.532C320.992 284.38 325.361 284.044 329.058 286.035C336.096 289.828 337.657 300.41 337.978 307.485C322.881 304.48 311.89 306.318 304.64 308.55C293.628 311.941 291.031 316.31 275.547 320.868C257.074 326.302 250.721 323.034 248.584 321.714C243.676 318.695 241.269 313.83 240.088 310.672H240.095Z" fill="#53B172"/>
<path d="M347.963 314.282C346.963 328.315 343.164 338.328 339.896 344.856C331.37 361.893 320.168 367.8 298.281 392.422C290.98 400.627 285.379 407.665 281.82 412.297C281.193 388.659 287.917 375.072 294.459 366.94C302.948 356.394 311.839 354.169 327.162 339.335C336.993 329.817 343.74 320.657 347.97 314.282H347.963Z" fill="#53B172"/>
<path d="M274.49 418.328C282.221 417.132 287.647 446.531 310.161 491.793C339.356 550.49 374.86 590.8 368.34 596.685C364.978 599.719 355.642 588.933 336.067 589.465C323.041 589.815 319.781 594.789 313.56 592.441C302.139 588.116 305.078 568.314 297.85 541.482C287.968 504.826 272.47 504.608 266.847 472.685C262.405 447.436 267.153 419.459 274.49 418.328Z" fill="#53B172"/>
<path d="M29.1732 364.11C32.6739 364.825 24.8701 387.047 34.8327 416.483C40.4559 433.09 45.1236 432.492 50.9728 450.455C53.2337 457.406 53.715 461.125 57.2012 498.022C59.7247 524.701 60.8916 538.077 56.3552 540.206C52.0959 542.205 48.07 535.342 32.8563 532.278C23.6594 530.426 21.7997 532.264 18.9844 530.01C11.2463 523.818 21.063 506.497 22.0987 483.866C23.2364 458.915 12.3913 456.377 10.2106 430.355C7.18392 394.341 24.9503 363.242 29.1805 364.103L29.1732 364.11Z" fill="#53B172"/>
<path d="M208.099 107.328C203.388 111.609 175.863 98.9189 164.216 75.9013C158.571 64.7499 159.672 57.143 150.628 48.7192C142.073 40.755 134.371 41.302 132.789 35.1318C130.732 27.1019 140.804 14.5867 149.206 15.0316C156.215 15.4035 157.061 24.5274 172.705 39.3765C181.435 47.6617 181.792 45.4154 186.861 51.2646C191.441 56.5522 193.454 61.0595 202.432 86.6516C208.814 104.848 209.128 106.38 208.092 107.321L208.099 107.328Z" fill="#53B172"/>
<path d="M238.819 130.776C238.665 132.359 234.836 131.804 231.387 134.809C227.981 137.777 227.879 141.65 226.558 141.497C225.187 141.337 224.283 137.063 224.013 135.13C223.641 132.497 224.042 131.389 223.218 130.827C222 130.003 219.229 131.09 218.179 132.898C217.726 133.664 217.799 134.211 217.595 134.226C216.982 134.262 215.166 129.427 216.589 124.722C216.829 123.92 218.084 119.77 220.41 119.522C222.27 119.325 222.664 121.834 226.303 124.037C229.075 125.714 230.001 124.956 233.998 126.954C236.31 128.107 238.957 129.434 238.826 130.776H238.819Z" fill="#53B172"/>
<path d="M220.935 132.409C220.534 134.707 220.089 139.44 222.773 143.43C223.466 144.465 224.414 145.865 225.778 145.931C227.776 146.026 228.652 143.145 231.452 139.754C236.295 133.897 240.963 133.678 240.802 130.907C240.693 129.04 238.483 127.669 235.624 125.896C231.985 123.643 230.84 124.336 228.447 122.388C225.18 119.734 225.887 117.283 223.772 116.546C220.359 115.35 213.897 120.142 212.752 126.232C212.555 127.289 211.797 132.212 215.254 135.414C217.289 137.296 219.739 137.624 220.738 137.697" stroke="#28663D" stroke-width="3.28" stroke-linecap="round" stroke-linejoin="round"/>
<path d="M240.737 132.286C244.741 138.062 247.651 144.684 248.818 151.737C249.138 153.494 249.27 155.274 249.379 157.053C249.43 158.826 249.437 160.613 249.328 162.363C249.153 165.886 248.708 169.313 248.424 172.69C248.292 174.375 248.161 176.052 248.176 177.715L248.147 180.217C248.161 181.048 248.241 181.873 248.278 182.697L248.351 183.937C248.365 184.352 248.453 184.753 248.504 185.162L248.847 187.598L249.372 189.997L249.503 190.595L249.678 191.186L250.028 192.368C250.984 195.511 252.34 198.552 253.748 201.71C255.134 204.868 256.534 208.194 257.416 211.702C257.555 212.132 257.642 212.577 257.73 213.015L258.014 214.342L258.292 215.67L258.474 217.004C258.583 217.894 258.729 218.791 258.809 219.681L258.962 222.365C258.984 222.81 259.021 223.262 259.035 223.707L259.021 225.041L258.984 227.711C258.941 229.468 258.839 231.168 258.729 232.933C258.503 236.434 258.087 239.978 257.329 243.486C256.599 247.002 255.469 250.459 254.01 253.77C252.544 257.081 250.714 260.224 248.57 263.142C246.433 266.059 243.967 268.692 241.583 271.157C239.22 273.629 236.988 275.97 235.653 278.625C235.274 279.267 235.048 279.974 234.749 280.653C234.632 281.003 234.537 281.367 234.428 281.718L234.267 282.25C234.216 282.432 234.195 282.622 234.158 282.804L233.947 283.92C233.874 284.285 233.844 284.635 233.815 285.021C233.75 285.787 233.728 286.568 233.735 287.348C233.793 290.462 234.348 293.591 235.653 296.246C236.295 297.573 237.083 298.813 238.089 299.849C239.066 300.906 240.19 301.825 241.473 302.518C242.742 303.225 244.135 303.765 245.601 304.137C247.074 304.516 248.621 304.706 250.196 304.801C251.779 304.888 253.383 304.852 255.024 304.735C255.834 304.677 256.687 304.604 257.511 304.516C258.306 304.407 259.116 304.341 259.896 304.195C263.039 303.663 265.964 302.678 268.83 301.147C271.697 299.637 274.577 297.763 277.568 295.976C280.551 294.182 283.636 292.475 286.764 290.9C287.552 290.513 288.333 290.112 289.12 289.74L291.505 288.639C293.095 287.902 294.656 287.224 296.246 286.524C299.426 285.138 302.635 283.76 306.019 282.615C309.396 281.477 312.962 280.529 316.703 280.266C320.43 279.938 324.252 280.434 327.804 281.433C329.569 281.936 331.297 282.564 332.982 283.315C334.667 284.073 336.322 284.927 337.883 285.991L338.474 286.378L339.043 286.808C339.422 287.1 339.801 287.377 340.173 287.683C340.888 288.333 341.632 288.938 342.274 289.682C342.595 290.046 342.952 290.382 343.244 290.783L344.133 291.972C344.447 292.351 344.659 292.818 344.921 293.234L345.293 293.883L345.475 294.204L345.629 294.546C346.022 295.465 346.453 296.377 346.679 297.362C346.803 297.85 346.978 298.324 347.051 298.82L347.277 300.301C347.372 300.797 347.35 301.293 347.379 301.781C347.379 302.277 347.437 302.773 347.379 303.262L347.27 304.721C347.24 305.209 347.124 305.676 347.058 306.15C346.927 307.113 346.65 308.017 346.416 308.936C346.292 309.396 346.125 309.826 345.979 310.278C345.833 310.723 345.68 311.168 345.49 311.591C344.819 313.334 343.973 314.953 343.091 316.55C342.186 318.126 341.209 319.635 340.195 321.094C339.685 321.823 339.167 322.538 338.642 323.245L337.861 324.288L337.008 325.339L335.309 327.432C334.74 328.125 334.076 328.752 333.463 329.416C332.26 330.765 330.86 331.924 329.51 333.135C326.702 335.425 323.668 337.424 320.532 339.123C314.253 342.485 307.827 344.812 302.496 348.531C301.796 348.962 301.176 349.472 300.534 349.968C299.9 350.471 299.229 350.938 298.653 351.507L296.858 353.148C296.297 353.731 295.75 354.337 295.196 354.935C293 357.334 291.089 360.004 289.456 362.833C286.203 368.522 284.153 374.882 283.052 381.453C282.76 383.094 282.542 384.757 282.345 386.427C282.155 388.097 281.965 389.826 281.878 391.46C281.586 394.771 281.681 398.082 281.973 401.364L282.265 403.822C282.374 404.639 282.549 405.448 282.688 406.265L282.906 407.483L283.198 408.694L283.789 411.115L284.504 413.514C284.628 413.916 284.737 414.317 284.868 414.711L285.284 415.899L286.115 418.277L287.049 420.625C289.558 426.89 292.592 433.017 295.706 439.121C298.828 445.218 302.044 451.294 305.216 457.398C311.576 469.607 317.805 481.874 323.997 494.156L342.492 531.024C345.585 537.157 348.706 543.284 351.842 549.396L361.338 567.694L380.301 604.336C380.607 604.927 380.381 605.649 379.79 605.955C379.564 606.072 379.316 606.108 379.083 606.079L311.058 597.342C310.679 597.312 310.366 597.086 310.205 596.773L310.074 596.517C308.98 594.402 308.046 592.236 307.113 590.07C306.179 587.911 305.326 585.723 304.458 583.543C302.788 579.159 301.169 574.762 299.44 570.407C295.969 561.699 292.205 553.115 288.099 544.691C283.986 536.268 279.588 528.004 274.847 519.894C272.499 515.832 270.063 511.799 267.678 507.707C265.293 503.616 262.915 499.48 260.808 495.148C258.715 490.816 256.891 486.258 255.724 481.488C254.543 476.725 254.061 471.773 254.229 466.901C254.229 465.691 254.295 464.436 254.47 463.167C254.638 461.905 254.893 460.709 255.148 459.513C255.688 457.15 256.315 454.853 256.964 452.57C258.262 447.997 259.655 443.483 261.063 438.975C262.471 434.468 263.922 429.975 265.395 425.49L269.902 412.063L274.41 398.643L278.961 385.238C279.172 384.611 279.85 384.276 280.478 384.487C281.09 384.699 281.426 385.355 281.236 385.968V385.99L277.057 399.504L272.842 413.004L268.626 426.497C267.233 430.996 265.913 435.526 264.571 440.033C263.236 444.547 261.924 449.069 260.713 453.591C260.108 455.852 259.531 458.12 259.05 460.359C258.824 461.475 258.612 462.591 258.481 463.67C258.35 464.735 258.306 465.844 258.313 466.996C258.211 471.54 258.7 476.062 259.838 480.445C260.961 484.828 262.704 489.073 264.753 493.201C266.825 497.329 269.166 501.369 271.565 505.402C273.965 509.443 276.43 513.469 278.829 517.553C283.665 525.7 288.209 534.065 292.373 542.591C296.552 551.117 300.388 559.803 303.918 568.613C304.779 570.823 305.676 573.026 306.493 575.25L307.74 578.583C308.141 579.699 308.513 580.83 308.885 581.953C310.366 586.46 311.584 591.062 312.342 595.781L311.357 594.957L379.382 603.694L378.171 605.437L358.713 569.066L349.005 550.854C345.796 544.764 342.609 538.674 339.444 532.57L320.547 495.899C314.275 483.669 307.973 471.452 301.548 459.316C298.339 453.241 295.079 447.188 291.899 441.068C288.726 434.942 285.605 428.757 282.95 422.274L281.965 419.838L281.076 417.351L280.631 416.111C280.492 415.695 280.368 415.265 280.237 414.842L279.457 412.304L278.808 409.722L278.494 408.424L278.246 407.111C278.093 406.236 277.896 405.361 277.772 404.478L277.444 401.816C277.101 398.264 276.984 394.676 277.269 391.131C277.363 389.33 277.538 387.645 277.721 385.895C277.918 384.152 278.137 382.401 278.436 380.658C279.566 373.679 281.725 366.728 285.269 360.441C287.049 357.305 289.157 354.351 291.585 351.667C292.198 351.004 292.803 350.325 293.431 349.676L295.436 347.831C296.085 347.197 296.829 346.664 297.537 346.103C298.251 345.548 298.959 344.972 299.725 344.491C302.693 342.405 305.887 340.764 309.016 339.247C312.152 337.73 315.245 336.33 318.169 334.747C321.079 333.157 323.792 331.341 326.309 329.284C327.512 328.19 328.766 327.155 329.846 325.929C330.4 325.331 330.991 324.77 331.509 324.135L333.055 322.224L333.828 321.269L334.587 320.248C335.082 319.57 335.571 318.891 336.045 318.213C336.986 316.849 337.876 315.471 338.678 314.056C340.246 311.233 341.537 308.272 342.026 305.282C342.077 304.91 342.179 304.538 342.193 304.166L342.274 303.058C342.325 302.686 342.259 302.328 342.259 301.964C342.237 301.599 342.259 301.227 342.186 300.877L342.026 299.812C341.982 299.455 341.836 299.119 341.756 298.777C341.603 298.076 341.274 297.435 341.005 296.771L340.903 296.523L340.764 296.29L340.487 295.823C340.29 295.516 340.159 295.181 339.911 294.904L339.254 294.029C339.043 293.73 338.758 293.482 338.518 293.204C338.044 292.636 337.438 292.169 336.884 291.651C336.592 291.41 336.279 291.184 335.972 290.951L335.513 290.601L335.024 290.287C333.748 289.412 332.333 288.69 330.882 288.041C329.43 287.392 327.913 286.845 326.374 286.414C323.311 285.568 320.211 285.167 317.075 285.444C313.947 285.663 310.803 286.487 307.682 287.545C304.553 288.602 301.446 289.944 298.324 291.308C296.771 291.994 295.181 292.694 293.649 293.401L291.352 294.466C290.586 294.824 289.842 295.21 289.084 295.582C286.072 297.092 283.14 298.725 280.237 300.476C277.327 302.212 274.446 304.108 271.23 305.807C268.035 307.528 264.374 308.79 260.735 309.396C259.823 309.563 258.919 309.636 258.007 309.76C257.125 309.855 256.264 309.928 255.36 309.994C253.565 310.118 251.735 310.169 249.882 310.067C248.03 309.964 246.155 309.731 244.288 309.264C242.429 308.79 240.583 308.09 238.855 307.127C237.112 306.179 235.536 304.896 234.187 303.43C232.809 301.978 231.729 300.279 230.883 298.521C230.037 296.756 229.432 294.904 229.067 293.037C228.688 291.17 228.506 289.295 228.484 287.421C228.477 286.48 228.506 285.547 228.586 284.598C228.63 284.132 228.674 283.621 228.768 283.147L229.038 281.725C229.089 281.491 229.118 281.251 229.184 281.017L229.388 280.317C229.527 279.85 229.658 279.384 229.819 278.917C230.198 278.013 230.526 277.086 231.015 276.24C231.445 275.358 231.977 274.563 232.502 273.761C232.765 273.367 233.064 273.002 233.341 272.623L233.764 272.061L234.209 271.536C235.391 270.107 236.623 268.852 237.819 267.598C240.219 265.125 242.487 262.748 244.442 260.137C246.396 257.533 248.074 254.718 249.416 251.749C250.758 248.781 251.8 245.681 252.501 242.465C253.23 239.256 253.624 235.959 253.901 232.605C254.032 230.934 254.156 229.206 254.222 227.528L254.288 225.041L254.324 223.794L254.273 222.562L254.171 220.097C254.112 219.28 253.988 218.47 253.901 217.653L253.755 216.435L253.522 215.232L253.288 214.029C253.208 213.627 253.142 213.226 253.018 212.833C252.275 209.653 251.035 206.589 249.722 203.439C248.402 200.295 247.009 197.013 246.032 193.556L245.674 192.258L245.499 191.609L245.368 190.945L244.843 188.298L244.522 185.621C244.478 185.176 244.398 184.731 244.391 184.287L244.339 182.952C244.31 182.062 244.252 181.165 244.252 180.283L244.347 177.628C244.383 175.856 244.558 174.098 244.748 172.369C245.127 168.905 245.652 165.521 245.908 162.181C246.061 160.503 246.083 158.848 246.09 157.185C246.039 155.529 245.966 153.874 245.725 152.24C244.835 145.683 242.341 139.302 238.731 133.649C238.374 133.088 238.541 132.351 239.096 131.994C239.643 131.644 240.357 131.797 240.722 132.322L240.737 132.286Z" fill="#28663D"/>
<path d="M343.995 297.172C347.262 303.422 351.893 314.683 350.238 328.168C348.684 340.829 342.332 349.406 333.179 361.455C319.847 379.003 312.415 380.964 301.555 396.2C293.336 407.731 289.018 418.649 286.743 425.526" stroke="#28663D" stroke-width="3.28" stroke-linecap="round" stroke-linejoin="round"/>
<path d="M231.255 284.438C230.278 287.508 227.353 298.033 232.276 309.447C233.48 312.24 236.331 318.848 242.888 322.968C252.041 328.73 262.974 326.141 281.375 321.51C296.99 317.579 298.857 315.026 309.673 313.188C322.779 310.964 334.047 312.335 341.676 313.91" stroke="#28663D" stroke-width="3.28" stroke-linecap="round" stroke-linejoin="round"/>
<path d="M225.778 145.931C226.442 148.724 227.404 153.137 228.214 158.607C230.745 175.79 228.659 182.624 230.606 192.936C233.56 208.544 240.744 205.554 243.508 219.148C247.169 237.177 235.237 246.126 230.555 285.153C230.366 286.735 230.227 288.048 230.139 288.909" stroke="#28663D" stroke-width="3.28" stroke-linecap="round" stroke-linejoin="round"/>
<path d="M240.678 132.198C245.317 137.595 250.167 142.81 255.33 147.689C260.465 152.59 265.855 157.228 271.47 161.539C277.079 165.849 283.074 169.685 288.931 173.967C291.855 176.103 294.721 178.342 297.486 180.698C300.25 183.047 302.941 185.468 305.552 188.013C308.163 190.551 310.708 193.213 312.977 196.16C314.129 197.619 315.172 199.172 316.178 200.631C317.177 202.104 318.14 203.431 319.256 204.642C321.488 207.049 324.288 209.157 327.162 211.118C330.043 213.073 333.062 214.809 336.191 216.362C339.313 217.923 342.558 219.265 345.862 220.512C349.166 221.759 352.543 222.883 355.956 224.115C359.355 225.355 362.826 226.675 366.13 228.703C367.771 229.724 369.354 230.949 370.717 232.437C372.089 233.917 373.204 235.66 373.992 237.506C374.386 238.439 374.721 239.344 374.977 240.299C375.239 241.247 375.451 242.232 375.56 243.275C375.655 244.318 375.684 245.441 375.349 246.71C375.239 247.031 375.137 247.352 374.984 247.672C374.897 247.833 374.809 247.993 374.714 248.154C374.627 248.314 374.525 248.467 374.386 248.621C373.919 249.233 373.241 249.744 372.533 250.043C371.819 250.349 371.111 250.458 370.491 250.466C369.857 250.495 369.295 250.422 368.748 250.342C367.683 250.159 366.728 249.868 365.816 249.547C364 248.89 362.323 248.117 360.675 247.308C357.393 245.681 354.242 243.931 351.12 242.144C347.999 240.357 344.907 238.541 341.814 236.725L323.311 225.8L314.071 220.308L309.454 217.522C308.681 217.048 307.922 216.581 307.127 216.056L304.888 214.524C298.981 210.462 293.073 206.334 287.414 201.827C281.761 197.32 276.408 192.419 271.419 187.175C261.457 176.687 252.982 164.828 246.185 152.101C245.871 151.518 246.097 150.796 246.673 150.482C247.249 150.176 247.964 150.387 248.278 150.956C255.236 163.355 263.718 174.893 273.629 185.045C278.589 190.114 283.891 194.833 289.492 199.179C295.079 203.548 300.95 207.581 306.879 211.585L309.082 213.066C309.789 213.518 310.555 213.985 311.314 214.444L315.916 217.172L325.193 222.569L343.783 233.327C346.883 235.113 349.983 236.893 353.09 238.643C356.204 240.379 359.311 242.115 362.454 243.654C364.022 244.42 365.605 245.142 367.158 245.696C367.931 245.966 368.704 246.192 369.397 246.309C370.083 246.425 370.703 246.389 370.907 246.272C371.016 246.221 371.082 246.177 371.155 246.075C371.177 246.061 371.199 246.031 371.213 245.995C371.228 245.959 371.25 245.929 371.272 245.893C371.308 245.813 371.337 245.703 371.381 245.601C371.512 245.127 371.534 244.427 371.454 243.698C371.286 242.232 370.827 240.583 370.192 239.147C369.565 237.702 368.719 236.397 367.662 235.245C366.604 234.092 365.328 233.108 363.927 232.24C361.112 230.511 357.859 229.25 354.534 228.061C351.208 226.872 347.78 225.742 344.381 224.472C340.983 223.203 337.599 221.81 334.309 220.184C331.02 218.565 327.818 216.727 324.762 214.67C323.997 214.16 323.253 213.613 322.502 213.088C321.758 212.541 321.028 211.972 320.284 211.41C318.84 210.214 317.389 209.011 316.083 207.567C314.763 206.152 313.618 204.569 312.605 203.081C311.584 201.593 310.621 200.179 309.549 198.822C307.434 196.109 305.049 193.556 302.525 191.098C300.016 188.633 297.391 186.248 294.707 183.951C292.023 181.654 289.281 179.436 286.444 177.321C283.614 175.199 280.696 173.157 277.772 171.071C274.855 168.978 271.937 166.819 269.107 164.565C257.803 155.507 247.636 145.114 238.826 133.7C238.425 133.175 238.519 132.424 239.045 132.023C239.548 131.629 240.27 131.709 240.678 132.191V132.198Z" fill="#28663D"/>
<path d="M241.036 129.733C250.634 131.556 260.093 134.211 269.217 137.785C273.775 139.564 278.253 141.606 282.607 143.816C284.788 144.91 286.925 146.033 289.076 147.047C291.228 148.054 293.409 148.936 295.655 149.68C297.894 150.424 300.206 151.029 302.511 151.547C304.823 152.058 307.135 152.422 309.476 152.59C310.643 152.678 311.824 152.714 313.035 152.751C314.253 152.787 315.507 152.831 316.806 152.969C318.104 153.122 319.402 153.392 320.664 153.764C321.284 153.961 321.904 154.173 322.509 154.399C323.1 154.654 323.705 154.866 324.281 155.157C326.6 156.2 328.883 157.622 330.794 159.446C332.712 161.262 334.222 163.311 335.666 165.229C338.518 169.087 341.632 172.559 345.242 175.651C346.139 176.424 347.036 177.198 347.977 177.963C348.911 178.722 349.837 179.48 350.778 180.21C352.659 181.676 354.585 183.054 356.576 184.33C360.543 186.898 364.788 188.976 369.222 190.486C371.447 191.215 373.715 191.806 376.012 192.244C378.31 192.652 380.629 192.907 382.977 192.995C383.561 193.024 384.152 193.031 384.742 193.039C385.333 193.046 385.931 193.039 386.529 193.039C387.725 193.031 388.951 192.995 390.234 193.039C391.503 193.068 392.904 193.155 394.384 193.666C394.749 193.761 395.113 193.958 395.471 194.14C395.646 194.235 395.836 194.315 395.996 194.432L396.485 194.796L396.966 195.168L397.374 195.599C397.644 195.89 397.921 196.175 398.126 196.496C399.023 197.743 399.57 199.201 399.796 200.602C400.036 202.017 400.029 203.395 399.912 204.722C399.65 207.377 398.957 209.85 398.126 212.227C396.404 216.961 394.143 221.358 391.795 225.618C389.417 229.957 386.69 234.114 383.59 237.965C380.469 241.794 377.041 245.375 373.292 248.562C372.789 248.993 372.03 248.927 371.607 248.424C371.199 247.942 371.243 247.22 371.687 246.79C375.13 243.464 378.339 239.913 381.176 236.084C384.064 232.291 386.573 228.243 388.754 224.013C390.949 219.71 393.13 215.444 394.654 211.017C395.413 208.814 396.018 206.575 396.215 204.394C396.419 202.228 396.149 200.113 395.092 198.684C394.552 197.969 393.961 197.48 393.144 197.196C392.327 196.904 391.27 196.787 390.125 196.765C388.987 196.729 387.784 196.758 386.558 196.765C385.946 196.765 385.333 196.773 384.706 196.765C384.086 196.765 383.459 196.751 382.832 196.714C380.33 196.62 377.814 196.335 375.341 195.883C372.869 195.402 370.44 194.76 368.055 193.972C363.307 192.346 358.786 190.107 354.614 187.386C352.521 186.037 350.508 184.578 348.568 183.061C347.59 182.303 346.642 181.53 345.694 180.749C344.753 179.984 343.82 179.174 342.879 178.357C339.123 175.126 335.732 171.319 332.829 167.366C331.363 165.412 329.999 163.523 328.387 161.991C326.797 160.445 324.916 159.242 322.822 158.279C322.319 158.016 321.78 157.827 321.254 157.593C320.729 157.382 320.197 157.207 319.664 157.024C318.6 156.696 317.52 156.47 316.412 156.324C314.187 156.069 311.715 156.113 309.213 155.894C306.712 155.697 304.225 155.281 301.803 154.727C299.382 154.165 296.997 153.516 294.641 152.714C292.286 151.912 289.966 150.956 287.735 149.884C285.503 148.812 283.351 147.667 281.214 146.551C276.948 144.312 272.608 142.263 268.159 140.454C259.262 136.822 249.992 134.087 240.569 132.103C239.92 131.965 239.504 131.337 239.643 130.688C239.774 130.047 240.401 129.638 241.036 129.755V129.733Z" fill="#28663D"/>
<path d="M240.802 130.907C245.813 127.246 253.653 121.936 263.893 116.787C283.599 106.876 297.464 104.95 320.066 99.3125C350.982 91.6035 381.854 81.0356 381.439 79.3362C381.074 77.8484 356.379 81.5096 331.713 88.4893C302.401 96.7891 279.479 107.992 263.885 116.787" stroke="#28663D" stroke-width="3.28" stroke-linecap="round" stroke-linejoin="round"/>
<path d="M298.777 151.204C306.595 148.754 314.537 146.704 322.523 144.874C330.517 143.058 338.591 141.562 346.599 140.14C350.61 139.44 354.592 138.667 358.545 137.894C362.491 137.099 366.414 136.216 370.17 135.071C372.052 134.495 373.883 133.846 375.626 133.102C377.362 132.351 378.995 131.469 380.33 130.418C380.687 130.17 380.95 129.871 381.271 129.601C381.409 129.456 381.533 129.31 381.672 129.164L381.876 128.945L382.044 128.719C382.54 128.114 382.802 127.508 383.065 126.794C383.335 125.948 383.576 124.956 383.816 124.015C384.05 123.059 384.268 122.097 384.458 121.134L384.422 121.564C384.422 121.455 384.436 121.353 384.443 121.243L384.465 121.083L384.487 120.966L384.502 120.893L384.538 120.747L384.604 120.441L384.728 119.821L384.954 118.559C385.1 117.713 385.209 116.86 385.319 116C385.516 114.286 385.639 112.564 385.676 110.85C385.727 109.137 385.654 107.445 385.53 105.672C385.406 103.922 385.231 102.171 385.012 100.421C384.589 96.9276 383.955 93.4487 383.174 89.999C382.773 88.2778 382.35 86.5565 381.862 84.8499C381.402 83.136 380.877 81.4367 380.33 79.7446V79.73C380.126 79.1028 380.469 78.4245 381.096 78.2276C381.687 78.038 382.321 78.337 382.562 78.8986C383.269 80.5688 383.969 82.2535 384.597 83.9674C385.231 85.6741 385.8 87.4099 386.347 89.153C387.404 92.6464 388.272 96.2128 388.936 99.823C389.257 101.632 389.527 103.448 389.746 105.271C389.964 107.073 390.132 108.969 390.176 110.85C390.212 112.732 390.139 114.599 389.994 116.466C389.913 117.4 389.819 118.326 389.695 119.26C389.636 119.726 389.571 120.193 389.498 120.66L389.381 121.36L389.315 121.717L389.279 121.9L389.264 121.995C389.264 121.995 389.272 121.951 389.279 121.922L389.293 121.805C389.301 121.725 389.301 121.645 389.301 121.572L389.264 122.002C389.089 123.045 388.9 124.08 388.681 125.116C388.462 126.159 388.229 127.158 387.915 128.267C387.528 129.485 386.952 130.768 386.172 131.768L385.887 132.161L385.581 132.519C385.377 132.752 385.173 133 384.961 133.219C384.516 133.635 384.086 134.087 383.619 134.444C381.774 135.954 379.798 137.041 377.807 137.96C375.815 138.879 373.803 139.586 371.782 140.221C363.701 142.708 355.598 144.101 347.532 145.464C339.458 146.806 331.429 147.988 323.421 149.359C315.398 150.686 307.39 152.145 299.353 153.523C298.704 153.633 298.076 153.195 297.967 152.546C297.865 151.948 298.222 151.372 298.791 151.197L298.777 151.204Z" fill="#28663D"/>
<path d="M217.493 117.808C210.258 113.564 202.381 110.457 194.191 109.02C190.092 108.334 185.957 107.94 181.829 108.072C177.701 108.188 173.587 108.757 169.518 109.676C165.455 110.588 161.437 111.799 157.44 113.141C153.451 114.482 149.476 115.956 145.515 117.465C141.555 118.982 137.602 120.55 133.649 122.126C131.666 122.906 129.718 123.708 127.749 124.496C125.787 125.291 123.847 126.137 121.907 126.961C118.034 128.653 114.213 130.433 110.42 132.307L104.717 135.159C102.791 136.107 100.844 137.084 98.7291 137.894C96.6286 138.711 94.4115 139.338 92.187 139.739C91.0784 139.9 89.9626 140.104 88.8686 140.184L87.2203 140.344L85.6522 140.476C81.4732 140.833 77.3598 141.417 73.2464 142.248C69.1402 143.072 65.0195 144.093 60.8915 145.1C58.8203 145.61 56.7635 146.106 54.7725 146.668C53.7806 146.952 52.7887 147.244 51.8552 147.579C50.907 147.908 49.9954 148.272 49.1785 148.703C48.3617 149.126 47.6324 149.607 47.1072 150.147C46.5748 150.679 46.2321 151.277 46.0497 151.941C45.8747 152.583 45.882 153.217 46.1081 153.997C46.3269 154.771 46.7207 155.624 47.1948 156.484C48.1502 158.22 49.3317 160.022 50.4403 161.874C51.5634 163.727 52.6283 165.638 53.6274 167.578C55.6185 171.465 57.2741 175.549 58.565 179.714C59.2214 181.792 59.783 183.885 60.3445 185.92C60.9134 187.948 61.4677 189.939 62.2627 191.631C63.0577 193.33 64.1298 194.628 65.6322 195.606C67.1565 196.612 68.8193 197.159 70.6718 197.312C72.5243 197.473 74.5446 197.269 76.5794 196.991C78.6215 196.692 80.6928 196.306 82.7641 195.89C91.0566 194.242 99.2688 192.222 107.35 189.742C115.445 187.291 123.446 184.403 131.593 181.778L134.656 180.808L137.734 179.881C139.783 179.247 141.854 178.685 143.918 178.109C148.061 176.993 152.233 175.965 156.426 175.082L162.698 173.813C164.777 173.398 166.819 172.967 168.715 172.355C170.612 171.749 172.267 170.874 173.719 169.598C175.17 168.336 176.49 166.753 177.642 165.083C179.976 161.728 181.778 157.892 183.929 154.129C185.009 152.254 186.154 150.387 187.437 148.615C187.751 148.163 188.101 147.74 188.429 147.302C188.757 146.865 189.093 146.434 189.457 146.019L190.522 144.764L191.645 143.561C193.17 141.985 194.752 140.476 196.51 139.126C198.253 137.77 200.171 136.574 202.228 135.655C206.341 133.795 211.089 133.299 215.48 134.247H215.487C216.136 134.386 216.545 135.028 216.406 135.669C216.268 136.311 215.648 136.72 215.006 136.596C211.053 135.823 206.918 136.319 203.293 138.025C199.654 139.717 196.481 142.46 193.658 145.472L192.616 146.609L191.631 147.805C191.295 148.199 190.982 148.608 190.675 149.023C190.369 149.439 190.048 149.84 189.757 150.271C188.568 151.963 187.496 153.742 186.475 155.573C184.432 159.219 182.66 163.151 180.173 166.834C178.933 168.672 177.533 170.422 175.79 171.983C175.381 172.391 174.893 172.727 174.419 173.084C173.959 173.456 173.434 173.74 172.924 174.032C172.42 174.353 171.881 174.572 171.348 174.812C170.816 175.068 170.276 175.243 169.736 175.432C167.585 176.154 165.455 176.621 163.369 177.066L157.134 178.401C152.998 179.305 148.907 180.348 144.837 181.471C142.802 182.055 140.768 182.624 138.755 183.265L135.721 184.199L132.701 185.176C124.657 187.831 116.649 190.792 108.458 193.337C100.283 195.912 91.939 198.034 83.5445 199.763C81.444 200.2 79.329 200.609 77.1629 200.944C74.9895 201.258 72.7431 201.528 70.3436 201.345C69.1475 201.251 67.9223 201.025 66.7408 200.623C65.552 200.222 64.4434 199.683 63.415 199.004C62.3794 198.326 61.4021 197.487 60.5852 196.517C59.7611 195.547 59.112 194.468 58.6015 193.396C57.5804 191.23 57.0042 189.093 56.4135 187.021C55.8446 184.957 55.2903 182.937 54.6631 180.953C53.4159 176.986 51.8625 173.15 49.9589 169.467C49.0108 167.621 47.9897 165.82 46.903 164.026C45.8236 162.224 44.6567 160.467 43.5481 158.476C43.0011 157.476 42.4687 156.397 42.0968 155.121C41.7175 153.866 41.6227 152.291 42.0165 150.876C42.3812 149.476 43.1616 148.192 44.1316 147.215C45.1016 146.237 46.1883 145.545 47.2531 144.99C48.3252 144.429 49.3973 144.006 50.4622 143.634C51.527 143.254 52.5845 142.941 53.6347 142.635C55.7425 142.036 57.8284 141.533 59.8851 141.015C64.0204 139.994 68.1775 138.951 72.4149 138.091C76.6523 137.223 80.9772 136.596 85.2876 136.216L86.8994 136.078L88.431 135.925C89.4593 135.844 90.4439 135.655 91.4431 135.516C93.4123 135.152 95.3012 134.612 97.1683 133.883C99.0354 133.168 100.902 132.227 102.791 131.293C104.68 130.353 106.584 129.368 108.509 128.427C112.36 126.531 116.269 124.737 120.201 123.03C122.177 122.199 124.146 121.353 126.137 120.55C128.128 119.763 130.119 118.939 132.103 118.18C136.078 116.641 140.06 115.11 144.064 113.615C152.072 110.632 160.211 107.795 168.745 106.015C173.004 105.132 177.38 104.607 181.763 104.564C186.154 104.513 190.537 104.979 194.803 105.855C203.351 107.634 211.498 111.077 218.747 115.781C219.302 116.138 219.462 116.882 219.097 117.436C218.747 117.976 218.04 118.136 217.486 117.815L217.493 117.808Z" fill="#28663D"/>
<path d="M211.673 126.779C208.42 125.174 202.308 122.797 196.692 125.116C194.154 126.159 190.588 128.631 184.002 146.128C181.982 151.496 179.356 159.125 176.928 168.599" stroke="#28663D" stroke-width="3.28" stroke-linecap="round" stroke-linejoin="round"/>
<path d="M67.5576 198.764C67.4701 195.956 67.8275 192.09 70.1978 188.779C75.5073 181.384 86.7973 182.551 97.8685 181.501C114.198 179.947 130.834 173.485 141.978 165.062C149.447 159.417 147.908 157.834 173.186 131.775C176.534 128.325 182.347 122.498 190.872 121.79C195.941 121.367 200.193 122.899 202.899 124.197" stroke="#28663D" stroke-width="3.28" stroke-linecap="round" stroke-linejoin="round"/>
<path d="M221.278 140.264C210.061 150.008 198.742 160.022 187.335 170.32C175.914 180.625 164.784 190.88 153.947 201.061C161.393 190.916 168.044 183.375 172.829 178.277C180.676 169.919 187.569 163.821 190.464 152.845C191.252 149.855 191.529 147.317 191.645 145.639" stroke="#28663D" stroke-width="3.28" stroke-linecap="round" stroke-linejoin="round"/>
<path d="M154.865 201.805C153.509 203.607 152.225 205.459 151 207.341C150.402 208.289 149.789 209.23 149.228 210.207C148.644 211.17 148.097 212.14 147.55 213.124C145.384 217.041 143.539 221.125 142.044 225.311C140.549 229.498 139.447 233.801 138.791 238.162C138.58 239.242 138.514 240.343 138.383 241.437C138.324 241.984 138.244 242.531 138.208 243.078L138.12 244.726C137.974 246.878 137.967 249.219 137.93 251.458C137.887 255.965 137.952 260.436 138.47 264.775C138.572 265.869 138.762 266.927 138.915 268.006L139.221 269.589L139.375 270.377L139.571 271.15C140.046 273.235 140.746 275.219 141.57 277.116L142.226 278.509C142.46 278.961 142.729 279.391 142.977 279.836L143.357 280.5L143.794 281.12C144.093 281.535 144.356 281.944 144.669 282.367C145.362 283.249 146.172 284.336 146.843 285.496C147.528 286.655 148.112 287.946 148.52 289.346C148.921 290.739 149.133 292.256 149.053 293.773C148.951 295.283 148.622 296.778 148.075 298.142C146.952 300.855 145.216 303.036 143.328 304.823C142.387 305.72 141.387 306.537 140.381 307.281L139.63 307.82C139.396 307.988 139.134 308.163 138.864 308.338C138.324 308.681 137.806 309.06 137.238 309.366C135.02 310.672 132.621 311.678 130.178 312.371C125.262 313.772 120.295 313.998 115.598 313.896C110.887 313.793 106.343 313.421 101.894 313.283C97.4455 313.152 93.0768 313.225 88.8248 313.808C80.3136 314.909 72.218 318.096 65.18 323.049C58.142 327.979 52.0959 334.484 47.4209 341.763C46.8447 342.675 46.2831 343.594 45.7799 344.513C45.2766 345.388 44.8536 346.394 44.3796 347.35C43.8909 348.305 43.5335 349.312 43.1251 350.296C42.6948 351.274 42.3958 352.302 42.053 353.316C40.7475 357.385 39.9453 361.615 39.5952 365.926C38.8731 374.554 39.9817 383.415 41.382 392.335C42.053 396.718 43.0084 400.985 44.4014 405.069C45.8018 409.153 47.7272 413.07 49.7985 417.132C51.8698 421.187 53.9556 425.381 55.7717 429.662C56.2384 430.727 56.6906 431.799 57.1136 432.878C57.5439 433.958 57.9815 435.037 58.3973 436.116C59.1849 438.297 60.031 440.463 60.7457 442.658C66.6751 460.162 70.7229 478.344 72.0576 496.818C72.4076 501.435 72.5462 506.066 72.5098 510.705C72.4879 515.343 72.1524 520.018 71.62 524.606C70.5406 533.81 68.6589 542.905 66.0114 551.759L65.9969 551.802C65.6759 552.874 64.5528 553.48 63.4807 553.159C63.3932 553.13 63.291 553.093 63.2108 553.057C55.3487 549.417 47.3261 546.114 39.1357 543.247C30.9453 540.388 22.6237 537.879 14.1781 535.823H14.1708C13.6092 535.691 13.2227 535.188 13.2373 534.627V534.576C13.4269 526.152 13.1497 517.743 12.3256 509.399C11.9099 505.227 11.3483 501.078 10.6554 496.964C9.95528 492.843 9.05821 488.774 8.03715 484.711C7.03068 480.642 5.88563 476.587 4.79893 472.459C3.69036 468.338 2.74952 464.13 1.98373 459.863C0.525071 451.323 -0.0948575 442.724 0.00724848 434.103C0.0437149 425.49 0.948082 416.862 2.662 408.395C4.35404 399.913 7.14737 391.642 10.7648 383.816C14.3823 375.976 18.8896 368.581 24.0459 361.718C29.2023 354.847 35.0296 348.509 41.3893 342.799C41.878 342.354 42.6365 342.398 43.0814 342.886C43.5044 343.36 43.4825 344.082 43.0449 344.527C37.1373 350.508 31.7184 356.948 26.9559 363.818L25.1909 366.407C24.6075 367.275 24.0751 368.172 23.5062 369.047C22.3612 370.79 21.3401 372.614 20.2972 374.415C18.2915 378.069 16.3807 381.774 14.747 385.596C11.4358 393.232 8.94881 401.174 7.40263 409.335C7.05985 411.385 6.63684 413.42 6.39616 415.484L5.98774 418.576L5.68871 421.683L5.53556 423.236L5.43345 424.79L5.22924 427.904C5.1636 429.983 5.0542 432.061 5.07608 434.147C5.03961 438.312 5.19277 442.483 5.52097 446.633C5.84187 450.783 6.29406 454.933 6.97962 459.017C7.67978 463.101 8.60603 467.164 9.59791 471.248C10.5971 475.332 11.6838 479.446 12.6392 483.625C13.5873 487.804 14.3823 492.041 14.9804 496.3C15.593 500.56 15.9504 504.841 16.2129 509.115C16.6797 517.67 16.5265 526.247 15.644 534.736L14.7105 533.496H14.7178C23.3093 535.276 31.8278 537.449 40.2005 540.111C48.5732 542.773 56.8365 545.822 64.9029 549.344L62.1022 550.65C64.4653 541.956 66.0698 533.073 66.8866 524.124C67.2951 519.639 67.5357 515.197 67.4701 510.712C67.419 506.227 67.2002 501.741 66.7699 497.263C65.0779 479.351 60.928 461.679 54.9038 444.722C54.1817 442.593 53.3284 440.514 52.5408 438.421C52.125 437.378 51.6874 436.35 51.2571 435.321C50.8341 434.286 50.3819 433.265 49.9225 432.244C48.1064 428.152 46.1008 424.185 43.9857 420.129C41.8853 416.082 39.7265 411.822 38.1219 407.271C36.5247 402.735 35.4453 398.067 34.7014 393.436C34.4826 392.269 34.3221 391.146 34.1471 390.008L33.6439 386.58C33.3375 384.276 33.0312 381.964 32.8343 379.623C32.4113 374.94 32.2508 370.171 32.6155 365.379C32.9875 360.594 33.8772 355.803 35.3505 351.179C35.737 350.026 36.0798 348.867 36.5612 347.751C37.0134 346.628 37.4291 345.483 37.9761 344.403C38.5085 343.309 38.968 342.215 39.5952 341.099C40.1859 340.02 40.8059 338.984 41.4477 337.971C44.0222 333.916 46.9614 330.138 50.2361 326.644C53.518 323.158 57.1282 319.956 61.0812 317.178C63.0577 315.792 65.1144 314.515 67.2367 313.349C69.3736 312.196 71.5762 311.175 73.8298 310.271C76.0908 309.381 78.4173 308.637 80.7657 308.032C83.1215 307.441 85.5137 307.003 87.9059 306.69C92.6976 306.063 97.4892 306.019 102.15 306.179C106.817 306.347 111.376 306.741 115.781 306.858C120.179 306.967 124.445 306.828 128.347 305.771C130.294 305.246 132.147 304.502 133.875 303.525C134.32 303.298 134.721 302.999 135.152 302.744C135.356 302.62 135.575 302.482 135.808 302.314L136.45 301.862C137.289 301.264 138.069 300.636 138.791 299.98C140.242 298.667 141.38 297.179 142.029 295.677C142.642 294.16 142.788 292.672 142.365 291.068C142.153 290.265 141.832 289.448 141.373 288.639C140.921 287.807 140.388 287.042 139.703 286.108C138.266 284.044 136.953 281.827 136.027 279.515C135.093 277.21 134.342 274.847 133.861 272.47L133.664 271.58L133.511 270.69L133.212 268.903C133.08 267.714 132.891 266.526 132.825 265.344C132.439 260.604 132.548 255.921 132.752 251.319C132.884 249 132.964 246.783 133.204 244.383L133.365 242.618C133.431 242.028 133.533 241.444 133.613 240.861C133.802 239.694 133.941 238.519 134.211 237.367C135.13 232.736 136.516 228.221 138.288 223.889C141.869 215.225 146.96 207.312 153.006 200.325C153.436 199.821 154.195 199.77 154.69 200.201C155.172 200.616 155.237 201.331 154.858 201.827L154.865 201.805Z" fill="#28663D"/>
<path d="M35.2265 366.276C37.7865 363.942 40.4704 361.732 43.2491 359.639C46.0206 357.538 48.8868 355.555 51.8625 353.739C54.8236 351.908 57.8867 350.223 61.0301 348.692C64.1735 347.16 67.3826 345.76 70.6864 344.607C71.5106 344.316 72.3274 343.995 73.1589 343.718L75.6678 342.923C77.3306 342.354 79.0445 341.974 80.7366 341.515C84.1498 340.727 87.5996 340.042 91.042 339.568C94.4844 339.05 97.9123 338.693 101.318 338.291C104.724 337.905 108.101 337.496 111.47 337C118.195 336.03 124.854 334.696 131.439 333.004C138.011 331.29 144.597 329.423 150.891 327.038C157.17 324.653 163.209 321.699 167.621 317.01C169.86 314.676 171.728 311.985 173.201 309.126C174.63 306.23 175.651 303.116 176.373 299.863C177.117 296.618 177.635 293.263 178.16 289.879C178.656 286.487 179.24 283.081 179.794 279.69C180.326 276.291 180.997 272.9 181.603 269.508C181.909 267.809 182.281 266.124 182.616 264.432C182.959 262.74 183.302 261.048 183.696 259.363C185.176 252.617 186.985 245.915 189.027 239.329C190.034 236.032 191.062 232.779 191.959 229.512L192.616 227.062C192.827 226.245 193.002 225.413 193.199 224.596C193.607 222.955 193.899 221.285 194.227 219.63C195.474 212.971 196.116 206.174 196.736 199.369C197.305 192.55 197.852 185.585 199.427 178.751C200.201 175.338 201.214 171.975 202.461 168.708L203.439 166.272C203.767 165.462 204.146 164.675 204.496 163.873C205.211 162.283 205.999 160.722 206.823 159.183C210.127 153.035 214.226 147.331 218.901 142.182C219.345 141.694 220.104 141.657 220.593 142.102C221.074 142.54 221.118 143.291 220.687 143.78C216.217 148.87 212.358 154.479 209.237 160.467C208.457 161.962 207.713 163.479 207.042 165.025C206.713 165.798 206.356 166.564 206.05 167.351L205.138 169.707C203.978 172.865 203.045 176.103 202.345 179.4C200.915 185.986 200.463 192.769 199.982 199.624C199.457 206.494 198.837 213.387 197.619 220.242C197.291 221.949 197.006 223.67 196.598 225.362C196.401 226.208 196.226 227.062 196.014 227.908L195.358 230.431C194.461 233.786 193.447 237.09 192.477 240.364C190.5 246.914 188.787 253.485 187.372 260.166C186.992 261.829 186.671 263.506 186.343 265.176C186.022 266.854 185.665 268.517 185.381 270.201C184.804 273.571 184.163 276.926 183.667 280.31C183.134 283.694 182.602 287.056 182.106 290.462C181.595 293.861 181.078 297.296 180.29 300.746C179.531 304.188 178.423 307.652 176.818 310.92C175.163 314.165 173.077 317.177 170.568 319.803C168.066 322.465 165.091 324.675 161.976 326.432C158.862 328.219 155.617 329.627 152.349 330.881C145.807 333.376 139.163 335.272 132.461 337.037C125.751 338.78 118.931 340.166 112.076 341.172C105.227 342.208 98.3426 342.821 91.64 343.776C88.2778 344.221 84.9813 344.855 81.7066 345.592L79.2706 346.212L78.0527 346.518L76.8493 346.876L74.4352 347.59C73.6329 347.838 72.8453 348.137 72.0503 348.407C59.3016 352.761 47.4646 359.661 36.7727 368.063C36.2549 368.471 35.5037 368.383 35.0952 367.858C34.7087 367.362 34.7743 366.655 35.2338 366.232L35.2265 366.276Z" fill="#28663D"/>
<path d="M222.088 118.224C220.571 118.443 220.417 117.779 220.228 117.735C220.097 117.604 220.009 117.48 219.98 117.436C219.929 117.356 219.892 117.305 219.87 117.261L219.805 117.137C219.725 116.991 219.681 116.882 219.637 116.773C219.55 116.561 219.477 116.379 219.411 116.196L219.039 115.139L218.368 113.082L217.077 109.005C216.217 106.292 215.341 103.586 214.437 100.895C212.657 95.5054 210.688 90.1813 208.704 84.828C206.699 79.4966 204.73 74.1507 202.512 68.9287C201.397 66.325 200.266 63.7213 198.997 61.2051C197.743 58.6816 196.423 56.1873 194.913 53.8243C193.418 51.454 191.806 49.1639 190.026 47.0124C188.239 44.8681 186.314 42.8187 184.287 40.8641C180.239 36.9622 175.783 33.3448 171.72 29.1876C169.685 27.1236 167.76 24.9429 165.937 22.682C164.106 20.4211 162.436 18.0508 160.809 15.6586C159.227 13.2737 157.63 10.9033 156.171 8.30693C155.806 7.65783 155.456 6.98685 155.128 6.26481C154.968 5.90744 154.807 5.52819 154.669 5.11977C154.53 4.71134 154.399 4.28104 154.318 3.74134C154.297 3.61006 154.289 3.44961 154.275 3.31103C154.275 3.15058 154.275 2.98284 154.275 2.8078C154.318 2.42855 154.377 2.00554 154.669 1.50959C154.938 1.02824 155.442 0.59064 155.835 0.422894C156.258 0.211389 156.594 0.138456 156.915 0.0801102C157.535 -0.00740912 158.009 0.021764 158.468 0.0655237C158.928 0.109283 159.336 0.189509 159.745 0.277029C161.335 0.641693 162.749 1.1741 164.135 1.76486C165.514 2.35561 166.841 3.00472 168.146 3.69758C170.75 5.0833 173.23 6.63677 175.637 8.29234C180.443 11.6108 184.936 15.3668 189.042 19.5313C193.148 23.6885 196.897 28.2395 200.084 33.1916C200.871 34.446 201.652 35.613 202.396 37.1519C202.717 37.8593 203.045 38.5668 203.307 39.2596L203.723 40.3026L204.102 41.3382C205.094 44.1024 205.969 46.8446 206.779 49.6015C210.061 60.6071 212.781 71.6782 215.567 82.7494L219.666 99.3708L221.686 107.7C222.015 109.093 222.343 110.486 222.649 111.893C222.802 112.601 222.955 113.308 223.101 114.03C223.174 114.395 223.24 114.76 223.306 115.146C223.335 115.343 223.364 115.54 223.393 115.773C223.408 115.89 223.415 116.014 223.422 116.189C223.422 116.24 223.422 116.415 223.415 116.547C223.415 116.554 223.379 116.846 223.32 117.006C223.422 116.897 222.97 118.012 222.073 118.246L222.088 118.224ZM221.059 114.745C220.191 114.949 219.776 116.036 219.878 115.876C219.827 115.992 219.805 116.24 219.812 116.204C219.805 116.24 219.812 116.328 219.812 116.291L219.797 116.175C219.783 116.051 219.754 115.897 219.725 115.744C219.666 115.431 219.593 115.095 219.52 114.76C219.374 114.089 219.207 113.403 219.039 112.725C218.703 111.354 218.346 109.983 217.981 108.611L215.757 100.37L211.17 83.8945L206.582 67.4263C205.05 61.9417 203.533 56.4572 201.929 51.031C201.127 48.3179 200.295 45.6267 199.384 43.0084L199.041 42.0311L198.676 41.0829C198.443 40.4338 198.173 39.8504 197.91 39.2523C197.429 38.2167 196.663 36.9768 195.941 35.8172C192.987 31.1568 189.538 26.7808 185.701 22.7622C181.858 18.7509 177.672 15.0386 173.172 11.7639C170.925 10.1303 168.599 8.59866 166.199 7.23482C165.003 6.55654 163.785 5.92203 162.553 5.35315C161.327 4.79157 160.066 4.29563 158.891 3.9966C158.607 3.93096 158.315 3.86532 158.06 3.83615C157.812 3.79968 157.571 3.79968 157.484 3.80698C157.455 3.80698 157.44 3.81427 157.542 3.77051C157.608 3.73404 157.848 3.5663 157.929 3.38397C158.023 3.18705 158.031 3.1287 158.023 3.09953C158.023 3.09953 158.023 3.11411 158.023 3.1287C158.023 3.16517 158.023 3.18705 158.023 3.23081C158.038 3.39855 158.104 3.65382 158.184 3.92367C158.271 4.19352 158.373 4.47796 158.497 4.76969C158.745 5.35315 159.037 5.95849 159.351 6.55654C160.627 8.97062 162.151 11.3774 163.661 13.7842C165.171 16.1472 166.732 18.4811 168.438 20.7055C170.138 22.93 171.939 25.0742 173.85 27.1236C177.679 31.2151 182.033 34.8836 186.124 38.9679C188.167 41.01 190.136 43.1323 191.981 45.3933C193.804 47.6615 195.46 50.0537 196.977 52.5261C200.011 57.4709 202.425 62.7148 204.722 67.966C206.976 73.239 209.135 78.5266 211.235 83.8361L214.408 91.7931C215.458 94.4552 216.479 97.1391 217.456 99.823C218.434 102.514 219.382 105.213 220.315 107.919L221.708 111.959L222.409 113.95L222.766 114.906C222.824 115.051 222.89 115.205 222.941 115.321C222.963 115.38 222.992 115.431 222.999 115.445C222.999 115.453 222.999 115.445 222.999 115.438L222.963 115.38C222.963 115.38 222.897 115.285 222.795 115.183C222.642 115.168 222.525 114.534 221.052 114.745H221.059Z" fill="#28663D"/>
<path d="M156.9 3.3621C150.789 6.35235 145.18 10.174 140.345 14.8636C137.843 17.2047 135.465 19.6042 133.292 22.1496C131.111 24.6804 129.128 27.3497 127.596 30.1795C126.086 33.002 124.985 35.9849 124.839 38.9096C124.839 39.2742 124.817 39.6389 124.839 39.9963C124.876 40.3536 124.861 40.7183 124.919 41.0684C124.985 41.7904 125.189 42.4395 125.342 43.1032C125.751 44.3503 126.422 45.3641 127.421 46.3925C128.413 47.4135 129.704 48.4054 131.082 49.4046L135.283 52.4751C136.691 53.5326 138.106 54.612 139.469 55.7497C140.162 56.304 140.826 56.8948 141.497 57.4855C142.161 58.0763 142.846 58.6452 143.481 59.2651L145.413 61.0957C146.055 61.7084 146.661 62.3502 147.288 62.9774C148.55 64.2245 149.731 65.5373 150.927 66.8355C152.131 68.1264 153.276 69.4684 154.413 70.8323C155.536 72.2034 156.63 73.6037 157.681 75.004C158.738 76.4043 159.745 77.7827 160.78 79.081C161.816 80.3864 162.895 81.619 164.04 82.8297C166.331 85.2438 168.818 87.5776 171.377 89.7802C176.534 94.1635 182.055 98.1383 187.977 101.449C193.885 104.79 200.149 107.532 206.64 109.72C207.268 109.932 207.603 110.61 207.399 111.237C207.202 111.828 206.582 112.163 205.984 112.025C199.165 110.398 192.521 107.962 186.19 104.841C179.867 101.697 173.886 97.8466 168.373 93.4123C165.623 91.1805 162.954 88.8758 160.423 86.3305C159.161 85.0542 157.936 83.7049 156.791 82.3192C155.646 80.9334 154.581 79.5404 153.524 78.1985C151.423 75.5145 149.25 72.9546 146.945 70.4676C145.793 69.2277 144.648 67.9733 143.437 66.7991C142.839 66.2083 142.255 65.5957 141.635 65.0195L139.783 63.2983C137.281 61.0374 134.7 58.9004 132.001 56.851L127.844 53.766C126.436 52.7157 124.956 51.5999 123.541 50.1412C123.191 49.7765 122.833 49.4192 122.513 48.9743L122.031 48.3325L121.79 48.0116L121.586 47.6542C121.324 47.1728 121.032 46.6988 120.82 46.2028C120.624 45.6923 120.441 45.1818 120.259 44.6712C119.705 42.6291 119.5 40.6016 119.654 38.5959C119.807 36.5976 120.259 34.6795 120.901 32.8707C121.535 31.062 122.367 29.3627 123.307 27.7654C127.107 21.3838 132.337 16.4025 137.675 11.8879C143.08 7.26401 149.323 3.56631 155.952 1.15953C156.572 0.933439 157.258 1.25434 157.484 1.88157C157.695 2.45773 157.425 3.09954 156.886 3.36939L156.9 3.3621Z" fill="#28663D"/>
</g>
<defs>
<clipPath id="clip0_79_52">
<rect width="400" height="606.079" fill="white"/>
</clipPath>
</defs>
</svg>
