<svg width="400" height="567" viewBox="0 0 400 567" fill="none" xmlns="http://www.w3.org/2000/svg">
<g clip-path="url(#clip0_81_85)">
<path d="M132.945 36.5192C131.114 29.0588 105.283 28.7655 90.0967 28.5908C71.2782 28.3743 70.6426 31.2732 54.9047 30.4C30.2605 29.0239 23.0516 21.4309 15.1163 26.9213C5.60931 33.5015 3.68136 52.9207 11.2185 60.5836C16.234 65.6828 22.9818 63.0843 45.4396 63.9225C64.1392 64.6211 65.0613 66.6328 74.5124 66.563C104.94 66.3534 135.082 45.2508 132.938 36.5122L132.945 36.5192Z" fill="#FC97C5"/>
<path d="M181.66 40.7873C180.78 32.1325 200.485 21.3751 217.25 18.1549C232.464 15.235 234.846 20.5229 252.512 18.7835C278.993 16.171 286.118 3.06658 297.581 8.7666C305.496 12.6993 308.988 22.367 314.688 38.1887C317.496 45.9774 317.154 48.031 316.358 49.4561C312.914 55.652 299.705 52.4597 281.927 52.5855C260.343 52.7322 259.393 57.573 241.028 58.4252C214.868 59.6406 182.729 51.405 181.653 40.7873H181.66Z" fill="#FC97C5"/>
<path d="M90.7951 73.6602C91.7242 75.8047 107.148 71.7672 120.008 66.0113C131.568 60.8352 144.875 52.5715 143.932 50.434C142.941 48.1708 126.064 52.7322 111.94 59.473C102.279 64.0833 89.908 71.6135 90.7951 73.6602Z" fill="#FC97C5"/>
<path d="M117.507 73.6601C114 76.6708 111.06 80.0866 104.57 90.7672C100.037 98.2275 87.2396 119.288 89.4051 120.818C89.936 121.188 91.6613 120.608 110.55 99.6734C130.723 77.3134 140.775 66.0811 139.064 63.9226C137.241 61.6174 125.694 66.6329 117.5 73.6601H117.507Z" fill="#FC97C5"/>
<path d="M178.23 59.8852C181.36 66.0741 186.634 75.5462 194.716 85.9683C208.994 104.389 217.076 106.505 227.477 121.021C243.089 142.815 244.437 165.363 244.794 165.259C245.15 165.154 243.732 143.171 230.187 119.77C222.378 106.282 212.605 95.8945 193.046 75.1131C187.018 68.7076 181.87 63.4966 178.23 59.8782V59.8852Z" fill="#FC97C5"/>
<path d="M185.53 56.4764C184.859 57.7268 191.083 62.4907 195.826 65.3827C204.034 70.3841 213.981 73.5206 214.742 72.0606C215.455 70.6985 208.19 65.3058 202.155 61.9738C195.051 58.0551 186.263 55.1212 185.53 56.4764Z" fill="#FC97C5"/>
<path d="M246.044 109.551C241.468 110.682 250.871 150.254 256.061 204.285C264.08 287.774 270.157 351.089 262.32 387.489C261.467 391.457 257.667 408.005 265.239 424.211C269.214 432.726 276.654 441.835 280.265 440.487C286.049 438.328 279.364 410.289 274.837 382.893C264.185 318.321 266.35 262.117 267.328 236.83C268.641 202.846 272.525 169.939 257.311 129.997C256.284 127.293 249.222 108.761 246.044 109.551Z" fill="#FC97C5"/>
<path d="M12.3433 518.946C2.82925 514.776 18.3367 467.304 26.9495 421.291C34.4727 381.112 34.3819 340.492 34.2143 259.239C34.1584 234.364 33.5088 168.765 59.5011 117.891C61.436 114.105 67.3945 102.447 69.9372 103.285C74.6103 104.829 62.5188 146.866 54.9118 188.834C45.8588 238.814 45.3978 279.049 44.4757 359.52C43.9937 401.718 29.7297 443.435 32.3701 485.556C32.5937 489.168 33.6974 503.411 24.8609 512.68C21.997 515.684 15.8778 520.49 12.3433 518.939V518.946Z" fill="#FC97C5"/>
<path d="M154.543 40.1656C152.608 39.9491 150.576 42.352 149.849 44.4406C148.277 48.9531 151.791 54.7789 154.858 54.9814C156.904 55.1142 157.191 52.6414 160.18 51.852C164.413 50.7344 166.816 54.9116 170.092 53.7311C173.012 52.6833 174.521 48.1428 174.06 44.5524C173.69 41.7163 171.867 37.7557 169.366 37.5601C165.503 37.2667 163.065 46.166 159.663 45.5932C157.239 45.188 157.142 40.459 154.55 40.1656H154.543Z" fill="#FC97C5"/>
<path d="M302.143 562.436C299.852 562.436 297.56 562.283 295.276 561.982C288.766 561.116 282.535 559.063 276.751 555.863C276.465 555.703 276.255 555.43 276.171 555.116C272.127 539.678 268.837 523.857 266.392 508.098C263.109 486.974 261.258 465.41 260.887 444.007C260.874 443.344 261.404 442.792 262.075 442.778C262.082 442.778 262.089 442.778 262.096 442.778C262.753 442.778 263.29 443.302 263.304 443.966C263.675 465.257 265.519 486.709 268.781 507.728C271.191 523.235 274.418 538.798 278.379 553.998C283.764 556.911 289.555 558.79 295.597 559.593C300.278 560.215 305.007 560.166 309.687 559.454C305.573 548.326 301.919 536.898 298.832 525.463C293.732 506.582 290.016 487.135 287.781 467.66C287.704 466.996 288.179 466.402 288.843 466.326C289.499 466.249 290.1 466.724 290.177 467.387C292.398 486.744 296.093 506.079 301.165 524.842C304.357 536.675 308.164 548.494 312.46 559.985C312.586 560.32 312.558 560.69 312.376 561.005C312.202 561.312 311.894 561.528 311.545 561.598C308.43 562.164 305.286 562.45 302.15 562.45L302.143 562.436Z" fill="#B21454"/>
<path d="M153.691 61.2264C153.048 61.2264 152.392 61.1496 151.728 60.9679C145.344 59.2496 143.814 49.994 145.204 44.2521C146.308 39.6767 150.296 33.1804 155.326 33.7392C157.812 34.0186 159.615 35.9256 160.683 37.4903C163.477 34.4587 166.963 31.8601 170.267 32.6634C174.382 33.6623 176.812 39.4671 177.651 44.1333C178.573 49.3025 178.091 55.8198 173.962 58.5999C169.981 61.2753 164.281 59.2775 161.375 57.9363C159.922 59.1657 156.988 61.2264 153.691 61.2264ZM154.704 36.1142C151.442 36.1142 148.431 41.1576 147.544 44.8179C146.384 49.6098 147.684 57.3775 152.35 58.6348C155.891 59.5848 159.622 56.2878 160.334 55.6172C160.704 55.2679 161.249 55.1911 161.703 55.4146C163.401 56.2668 169.219 58.8723 172.607 56.5951C175.22 54.8418 176.261 50.1128 175.269 44.5525C174.382 39.5859 172.034 35.5693 169.694 35.0035C166.635 34.2561 162.171 38.8943 159.014 43.4837C158.637 44.0355 157.882 44.1683 157.337 43.7911C156.786 43.4138 156.653 42.6594 157.03 42.1146C157.603 41.2833 158.28 40.3473 159.049 39.3903C158.308 38.1679 156.904 36.3307 155.06 36.1282C154.941 36.1142 154.83 36.1072 154.711 36.1072L154.704 36.1142Z" fill="#B21454"/>
<path d="M177.315 48.7716C181.925 50.8951 186.648 52.7532 191.453 54.3598C193.856 55.1561 196.287 55.8826 198.732 56.5253C201.177 57.1819 203.636 57.7826 206.116 58.2786C216.028 60.3462 226.163 60.9749 236.313 60.5278C241.391 60.3183 246.491 59.9201 251.611 59.5709L266.958 58.53C277.191 57.8734 287.432 57.2657 297.7 56.8955C302.834 56.7139 307.975 56.5811 313.138 56.637C315.722 56.672 318.307 56.7418 320.94 56.9863C322.267 57.133 323.56 57.2587 325.041 57.7197C325.418 57.8525 325.816 57.9852 326.319 58.3554C326.452 58.4602 326.563 58.53 326.717 58.7256C326.787 58.8095 326.857 58.9003 326.92 58.9911C326.982 59.0749 327.045 59.2356 327.094 59.3613C327.206 59.6267 327.241 59.9201 327.22 60.2065C327.206 60.3323 327.185 60.451 327.157 60.5767C327.129 60.6885 327.094 60.7723 327.059 60.8701C327.017 60.9749 326.982 61.0448 326.941 61.1146C326.899 61.1845 326.857 61.2613 326.815 61.3242C326.738 61.4359 326.647 61.5687 326.57 61.6525C326.41 61.8481 326.249 62.0017 326.095 62.1414C325.781 62.4209 325.481 62.6444 325.18 62.847C323.979 63.6573 322.784 64.2301 321.576 64.7819C320.367 65.3268 319.152 65.8087 317.923 66.2628C315.471 67.1639 312.991 67.9393 310.49 68.6378C305.489 70.0209 300.41 71.0757 295.283 71.8301C285.036 73.3808 274.53 73.4507 264.261 71.9768C253.986 70.5029 243.955 67.5062 234.525 63.2172C233.917 62.9378 233.652 62.2253 233.924 61.6176C234.197 61.0168 234.909 60.7444 235.517 61.0168C244.772 65.1521 254.594 68.0021 264.625 69.3712C274.655 70.7474 284.854 70.5657 294.871 69.0499C299.879 68.2955 304.853 67.2547 309.729 65.8926C312.167 65.208 314.577 64.4466 316.931 63.5734C318.104 63.1334 319.271 62.6654 320.395 62.1554C321.513 61.6455 322.631 61.0867 323.553 60.458C323.783 60.3043 323.993 60.1436 324.16 59.99C324.244 59.9131 324.314 59.8433 324.356 59.7944C324.391 59.7595 324.384 59.7525 324.398 59.7385C324.398 59.7385 324.398 59.7385 324.384 59.7664C324.37 59.7874 324.377 59.8014 324.363 59.8363C324.349 59.8782 324.342 59.9271 324.342 59.969C324.328 60.0948 324.349 60.2275 324.384 60.3532C324.398 60.4091 324.454 60.4789 324.461 60.5069C324.475 60.5348 324.489 60.5628 324.51 60.5837C324.573 60.6396 324.545 60.6256 324.552 60.6326C324.538 60.6187 324.335 60.5069 324.105 60.444C323.141 60.1367 321.862 59.976 320.647 59.8573C318.174 59.6267 315.631 59.5639 313.096 59.5359C308.01 59.494 302.904 59.6337 297.798 59.8293C287.585 60.2275 277.359 60.8492 267.146 61.5337L251.821 62.6095C246.714 62.9727 241.594 63.3918 236.432 63.6154C226.122 64.0904 215.623 63.5176 205.48 61.2892C202.937 60.7653 200.423 60.1367 197.922 59.4451C195.428 58.7326 192.955 57.9433 190.51 57.0771C185.621 55.3517 180.857 53.298 176.246 50.937C175.653 50.6366 175.415 49.9032 175.723 49.3094C176.016 48.7296 176.721 48.4991 177.301 48.7646L177.315 48.7716Z" fill="#B21454"/>
<path d="M171.51 33.3339C177.867 27.8225 184.817 22.9398 192.313 19.0071C196.057 17.0372 199.934 15.3048 203.915 13.8519C207.904 12.4059 211.99 11.2324 216.14 10.3313L217.704 10.003L219.283 9.73057C220.331 9.52799 221.399 9.40924 222.461 9.26255C224.599 9.02505 226.75 8.88534 228.881 8.87137C231.011 8.85042 233.107 8.89931 235.181 8.93424C237.249 8.96218 239.31 8.98314 241.363 8.93424C245.471 8.84343 249.571 8.55005 253.679 8.1449C257.786 7.73975 261.879 7.18093 265.952 6.51034C270.024 5.83975 274.076 5.03643 278.106 4.12136C282.144 3.21327 286.153 2.17246 290.275 1.22944C292.342 0.775393 294.445 0.335318 296.68 0.125759C297.791 0.0139938 298.943 -0.0139475 300.117 0.0559057C301.291 0.118773 302.506 0.342303 303.672 0.726496C304.839 1.11069 305.964 1.65554 306.963 2.33312C307.968 3.00371 308.828 3.80702 309.666 4.61732C311.279 6.30078 312.516 8.21475 313.571 10.1637C315.652 14.0894 316.91 18.2457 317.888 22.388C318.873 26.5372 319.508 30.7144 320.116 34.8358C321.275 42.9597 323.42 50.909 326.556 58.53C326.808 59.1447 326.514 59.8502 325.9 60.1086C325.306 60.3531 324.635 60.0877 324.356 59.5219C320.633 51.9428 318.02 43.763 316.588 35.4156C315.869 31.3082 315.135 27.2567 314.15 23.303C313.641 21.3332 313.103 19.3773 312.411 17.4912C311.741 15.6052 311 13.7471 310.057 12.0427C309.121 10.3383 308.059 8.72468 306.781 7.40446C306.117 6.78276 305.461 6.14011 304.727 5.65114C304.001 5.1482 303.232 4.78496 302.422 4.51254C300.809 3.9607 298.971 3.90481 297.05 4.07246C295.129 4.24709 293.139 4.64526 291.134 5.07835C287.131 5.97247 283.059 7.01328 278.965 7.91438C274.865 8.82247 270.73 9.63277 266.573 10.2964C262.417 10.96 258.247 11.5188 254.056 11.91C249.865 12.3221 245.645 12.5876 241.419 12.6155C239.303 12.6434 237.193 12.5945 235.098 12.5387C233.002 12.4758 230.941 12.4059 228.902 12.399C226.862 12.392 224.85 12.5037 222.838 12.6923C221.833 12.8181 220.827 12.9159 219.828 13.0975L218.326 13.342L216.824 13.6423C208.812 15.2769 201.016 17.9942 193.668 21.6615C186.319 25.3288 179.453 29.96 173.061 35.1781C172.544 35.6042 171.783 35.5273 171.364 35.0104C170.952 34.5075 171.021 33.76 171.51 33.3339Z" fill="#B21454"/>
<path d="M147.949 40.6475C145.309 39.4531 142.654 38.2865 139.972 37.1898L137.96 36.3655L135.934 35.5762C134.593 35.0383 133.224 34.5564 131.869 34.0464C126.427 32.0766 120.895 30.3582 115.307 28.8703C109.725 27.3824 104.053 26.139 98.3952 25.203C95.5661 24.735 92.758 24.4067 89.922 24.2879C87.0859 24.1622 84.187 24.1901 81.2672 24.1901C75.4205 24.1971 69.5458 24.0993 63.6991 23.8968C57.8454 23.6802 51.9987 23.3938 46.166 23.0166C40.3263 22.6673 34.4935 22.2203 28.6957 21.8431C25.8038 21.6545 22.9049 21.4659 20.0688 21.424C19.3494 21.396 18.6578 21.424 17.9523 21.424C17.2468 21.417 16.5622 21.4659 15.8777 21.5008C15.1791 21.5148 14.5365 21.6265 13.8659 21.6964C13.5236 21.7173 13.2302 21.8082 12.9089 21.864C12.6015 21.9339 12.2593 21.9618 11.9729 22.0666C10.7504 22.374 9.70963 22.8699 8.80154 23.5265L8.14492 24.0644L7.55117 24.7001L7.39749 24.8607L7.27175 25.0354L7.02028 25.3777C6.92249 25.4894 6.86661 25.6012 6.80374 25.7129L6.60815 26.0482C5.72101 27.6898 5.97947 30.7563 6.00741 33.6343C6.16808 39.5089 6.00741 45.4534 5.62322 51.3211L5.28793 55.7218L4.88278 60.1016C4.60336 63.0075 4.303 65.9064 4.14932 68.7215C4.08645 70.1116 4.05152 71.5226 4.2052 72.7241C4.24711 73.0175 4.28903 73.3039 4.35888 73.5414C4.41476 73.7859 4.49859 73.9815 4.56145 74.0932C4.62432 74.212 4.65226 74.2259 4.61035 74.198C4.58241 74.177 4.51256 74.1631 4.55447 74.1701C4.62432 74.198 5.11329 74.0443 5.58829 73.744C6.08425 73.4506 6.62212 73.0454 7.20889 72.5984C7.49528 72.3748 7.83756 72.1373 8.17286 71.9068C8.50117 71.6693 8.85044 71.4598 9.1997 71.2572C9.54198 71.0406 9.90522 70.852 10.2685 70.6704C10.6247 70.4748 10.9949 70.3212 11.3651 70.1535C14.3479 68.8542 17.5402 68.3723 20.5997 68.2954C23.6803 68.2186 26.677 68.512 29.6178 68.9031C35.4994 69.7134 41.1994 70.88 46.9204 71.7881C52.6344 72.6962 58.3903 73.3458 64.1741 73.7579C69.958 74.1561 75.7558 74.3447 81.5606 74.3237C82.2242 74.3237 82.769 74.8616 82.769 75.5252C82.769 76.1749 82.2521 76.7127 81.6095 76.7337C69.8881 77.1807 58.1039 76.6289 46.4384 75.0642C40.6057 74.3028 34.8568 73.1781 29.1637 72.4866C26.3207 72.1513 23.4847 71.9208 20.7255 72.0326C17.9733 72.1373 15.2909 72.6123 12.9229 73.6881C12.6295 73.8278 12.3291 73.9535 12.0497 74.1142C11.7633 74.2679 11.4769 74.4145 11.2045 74.5962C10.9251 74.7638 10.6526 74.9384 10.3942 75.1271C10.1287 75.3087 9.87029 75.4903 9.58389 75.7208C9.0111 76.1609 8.39639 76.6568 7.64198 77.1179C7.27175 77.3484 6.84565 77.5789 6.37065 77.7745C5.89565 77.9701 5.3019 78.1377 4.61035 78.1587C3.9188 78.1796 3.11549 77.998 2.46586 77.5859C1.80225 77.1737 1.35519 76.601 1.06181 76.084C0.761442 75.5601 0.586809 75.0642 0.461074 74.6101C0.328353 74.1421 0.251514 73.709 0.188647 73.2829C-0.0418688 71.5925 -0.00694219 70.0697 0.0349697 68.5469C0.146735 65.5292 0.454089 62.6233 0.698574 59.7174L1.0688 55.3796L1.36916 51.0487C1.71144 45.2718 1.80924 39.5369 1.62762 33.7391C1.59968 32.2722 1.53681 30.8192 1.57872 29.2475C1.58571 28.8563 1.62064 28.4372 1.64858 28.0321C1.66953 27.6269 1.75336 27.1729 1.80924 26.7468C1.87211 26.3137 2.0188 25.8457 2.13056 25.3986C2.29123 24.9515 2.46586 24.4975 2.67542 24.0714C3.12248 23.2192 3.63241 22.4787 4.21917 21.8221L5.12028 20.8651C5.45557 20.5718 5.80484 20.2923 6.1541 20.0129C7.59308 18.9512 9.2486 18.2107 10.8552 17.8056C11.2604 17.6728 11.6585 17.6309 12.0567 17.5401C12.4549 17.4703 12.86 17.3655 13.2512 17.3306C14.0335 17.2467 14.8299 17.121 15.5913 17.1001C16.3596 17.0581 17.135 17.0023 17.8824 17.0092C18.6369 17.0092 19.3983 16.9813 20.1387 17.0092C23.1354 17.0512 26.0692 17.2328 28.9961 17.4144C34.8428 17.8126 40.6406 18.2806 46.4524 18.6368L50.8112 18.9162L55.1701 19.1607C58.0759 19.3284 60.9748 19.4681 63.8807 19.6078C69.6925 19.8593 75.4833 20.0129 81.3091 20.0618C84.222 20.1037 87.1628 20.1177 90.1525 20.2993C93.1422 20.474 96.1459 20.8721 99.0588 21.396C101.986 21.9199 104.857 22.5346 107.728 23.2262C110.592 23.9177 113.442 24.6721 116.271 25.4894C127.573 28.8005 138.554 33.1523 149.018 38.4891C149.611 38.7895 149.849 39.5159 149.542 40.1097C149.248 40.6825 148.557 40.927 147.97 40.6615H147.963L147.949 40.6475Z" fill="#B21454"/>
<path d="M146.21 47.4373C135.913 48.6388 125.785 51.2653 116.208 55.191C111.416 57.1539 106.757 59.4241 102.314 62.0716C97.8783 64.712 93.5474 67.569 89.5448 70.8312L88.022 72.0256C87.526 72.4378 87.051 72.8779 86.562 73.297L83.6562 75.8606L82.9297 76.5032L82.2451 77.1878L80.869 78.5569C79.9609 79.472 79.0249 80.3661 78.1378 81.3021L75.5532 84.1871C75.1271 84.6691 74.687 85.1441 74.2679 85.633L73.0525 87.1419L70.6285 90.1665L68.3583 93.3029C65.3965 97.536 62.6374 101.916 60.2833 106.512C59.1028 108.81 57.9781 111.136 56.9513 113.497C56.4204 114.671 55.9664 115.879 55.4634 117.067C55.0234 118.275 54.5414 119.47 54.1432 120.692C53.9337 121.3 53.7311 121.908 53.5495 122.515C53.4587 122.816 53.3539 123.123 53.27 123.424L53.1443 123.871L53.0814 124.094L53.0535 124.199C53.0884 124.059 53.1094 123.843 53.0535 123.598C52.9976 123.354 52.837 123.088 52.6414 122.921C52.5436 122.837 52.4458 122.767 52.348 122.725C52.1245 122.62 52.4528 122.781 51.7682 122.481C51.0627 122.103 49.7425 123.025 49.7983 123.459C49.7425 123.626 49.7983 123.472 49.7844 123.493L49.8193 123.375L49.973 122.893L50.2943 121.929C50.5108 121.293 50.7414 120.657 50.9719 120.029C51.9149 117.521 52.9836 115.069 54.1642 112.666C56.5252 107.874 59.3263 103.285 62.5885 99.0309C65.8436 94.7698 69.6017 90.872 73.7789 87.4702C75.8815 85.7867 78.1028 84.243 80.408 82.8389C82.7131 81.4418 85.1301 80.1915 87.6727 79.1856C90.2084 78.1657 92.7999 77.4183 95.3146 76.7058C97.8363 75.9863 100.316 75.2668 102.782 74.4705C105.248 73.6812 107.693 72.822 110.117 71.8929C112.547 70.9918 114.957 70.0139 117.353 69.015C126.937 65.0054 136.2 60.2344 145.12 54.8557C145.693 54.5135 146.433 54.6951 146.775 55.2609C147.111 55.8127 146.943 56.5252 146.419 56.8885C137.681 62.7981 128.355 67.8624 118.681 72.1165C113.833 74.219 108.908 76.154 103.858 77.7955C101.343 78.6268 98.7864 79.3602 96.2716 80.0727C93.7499 80.7852 91.2911 81.4907 88.965 82.4268C86.6249 83.3419 84.3756 84.5014 82.1962 85.8147C80.0238 87.1279 77.9352 88.5808 75.9444 90.1665C71.9907 93.3728 68.4142 97.061 65.2988 101.126C62.1833 105.185 59.48 109.579 57.2028 114.182C56.0712 116.487 55.0373 118.841 54.1292 121.23C53.9057 121.831 53.6892 122.432 53.4796 123.032L53.1792 123.934L53.0325 124.388L52.9976 124.506L52.9487 124.66C52.9906 125.128 51.6564 126.099 50.9369 125.757C50.2314 125.533 50.5877 125.575 50.3642 125.456C50.2803 125.372 50.1895 125.268 50.0987 125.142C49.9241 124.897 49.7844 124.555 49.7494 124.227C49.7075 123.899 49.7494 123.612 49.8053 123.389L49.8403 123.256L49.9101 123.011L50.0498 122.515C50.1406 122.187 50.2454 121.873 50.3432 121.545C50.5388 120.895 50.7553 120.266 50.9719 119.631C54.4785 109.537 59.5638 100.1 65.7458 91.4658L68.1069 88.2525L70.6146 85.158L71.8719 83.6143C72.305 83.1113 72.7591 82.6294 73.2061 82.1334L75.8815 79.1856C76.7966 78.2216 77.7675 77.3135 78.7036 76.3775L80.1216 74.9804L80.8341 74.2819L81.5815 73.6253L84.5852 71.0058C85.0881 70.5727 85.5771 70.1256 86.094 69.7065L87.6657 68.4841C91.808 65.1521 96.2647 62.2322 100.854 59.5778C105.443 56.9094 110.256 54.6322 115.181 52.6763C125.037 48.7646 135.417 46.187 145.944 45.0763C146.608 45.0065 147.202 45.4884 147.271 46.152C147.341 46.8087 146.866 47.4024 146.21 47.4793V47.4373Z" fill="#B21454"/>
<path d="M39.1247 84.2639C31.0566 84.2639 24.7419 83.8308 20.2504 82.9716C14.3268 81.833 8.49408 80.0797 2.91281 77.7605C2.2981 77.5021 2.00472 76.7966 2.26318 76.1819C2.52163 75.5671 3.22715 75.2738 3.84186 75.5322C9.27643 77.7885 14.9485 79.4929 20.7044 80.6036C27.2636 81.8679 37.9721 82.1753 52.5295 81.5256C60.2203 81.1833 68.0509 80.6036 75.8115 79.8002C76.4751 79.7304 77.0689 80.2124 77.1388 80.876C77.2086 81.5396 76.7266 82.1333 76.063 82.2032C68.2534 83.0065 60.374 83.5933 52.6413 83.9356C47.7026 84.1591 43.1901 84.2639 39.1247 84.2639Z" fill="#B21454"/>
<path d="M52.5087 124.359C52.0896 128.6 51.5098 132.805 50.8811 136.996C50.2664 141.194 49.6098 145.378 48.8833 149.549C48.1848 153.726 47.4513 157.896 46.7109 162.066L44.6223 174.598C41.919 191.321 39.5998 208.099 37.6509 224.92L36.9245 231.228L36.2608 237.543C35.7998 241.755 35.4156 245.967 35.0035 250.179C34.2421 258.61 33.5156 267.049 32.9498 275.494C32.7891 277.603 32.6704 279.72 32.5377 281.829C32.405 283.939 32.2722 286.056 32.1605 288.165L31.427 300.864L29.9112 326.284L26.8446 377.123L25.2869 402.543C24.7351 411.016 24.1413 419.496 23.4149 427.969C21.9549 444.916 19.8873 461.82 17.184 478.613C15.8428 487.009 14.3409 495.384 12.6994 503.725C11.0439 512.065 9.23467 520.371 7.27878 528.648L5.97952 527.182L31.1616 524.667L30.0928 525.645C36.9035 489.188 41.9259 452.39 45.0484 415.444C46.641 396.982 47.123 378.443 47.7657 359.883C48.3874 341.33 49.0929 322.77 49.9101 304.217C50.7344 285.671 51.6076 267.118 52.6484 248.579C53.1863 239.31 53.7381 230.04 54.4157 220.771C55.0793 211.501 55.8337 202.239 56.8047 192.99C57.7686 183.742 58.9422 174.507 60.423 165.314C61.8969 156.122 63.6922 146.992 65.669 137.904C69.6227 119.728 74.3867 101.727 79.961 83.9844C80.1635 83.3487 80.8411 82.9925 81.4768 83.195C82.1124 83.3976 82.4687 84.0752 82.2661 84.7109C76.7128 102.391 71.9698 120.315 68.0301 138.421C66.0602 147.474 64.272 156.562 62.805 165.706C61.3311 174.842 60.1646 184.028 59.2006 193.249C58.2297 202.462 57.4752 211.704 56.8186 220.952C56.141 230.201 55.5892 239.463 55.0513 248.726C54.0105 267.251 53.1374 285.797 52.3131 304.336C51.4958 322.882 50.7903 341.421 50.1686 359.974C49.526 378.52 49.044 397.115 47.4443 415.654C44.3079 452.697 39.2785 489.566 32.4539 526.106C32.3561 526.644 31.909 527.035 31.3851 527.084L6.20305 529.598C5.53944 529.661 4.94569 529.179 4.88282 528.516C4.86885 528.39 4.88282 528.264 4.90378 528.146V528.132C6.72694 519.861 8.38945 511.548 9.91923 503.222C11.456 494.895 12.8531 486.541 14.0895 478.159C15.3328 469.783 16.4295 461.387 17.3586 452.97C18.2876 444.552 19.056 436.128 19.7126 427.683C20.3623 419.238 20.8862 410.785 21.3612 402.312L22.7093 376.893L25.4616 326.06L26.8586 300.648L27.5432 287.928C27.648 285.804 27.7737 283.681 27.8994 281.557C28.0321 279.433 28.1439 277.31 28.2906 275.193C28.8285 266.706 29.52 258.226 30.2605 249.753C30.6656 245.52 31.0289 241.28 31.4899 237.054L32.1535 230.711L32.873 224.375C34.8079 207.478 37.12 190.622 39.8094 173.829L41.891 161.242C42.6315 157.058 43.323 152.86 44.1473 148.689C44.9855 144.519 45.8587 140.356 46.8296 136.221C47.8425 132.085 48.9043 127.964 50.1267 123.878C50.3153 123.235 50.9929 122.872 51.6355 123.067C52.2013 123.235 52.5506 123.78 52.4947 124.346V124.359H52.5087Z" fill="#B21454"/>
<path d="M262.096 432.244C261.474 432.244 260.943 431.769 260.895 431.134C258.233 398.17 256.019 364.857 254.307 332.124C253.644 319.438 252.268 293.048 251.234 258.596C250.333 228.574 249.69 192.438 249.662 190.916V190.636C249.313 171.315 248.265 112.526 231.039 90.9279C226.59 85.3466 222.028 81.861 221.812 81.7003C216.161 77.4392 211.446 75.9304 206.458 74.3238C202.937 73.1922 199.298 72.0256 195.219 69.8392C188.359 66.165 182.296 60.6396 177.176 53.4237C176.791 52.8789 176.917 52.1245 177.462 51.7403C178.007 51.3561 178.761 51.4818 179.145 52.0267C184.042 58.9421 189.833 64.216 196.357 67.7087C200.241 69.7903 203.776 70.9289 207.198 72.0256C212.158 73.6183 217.292 75.2668 223.265 79.7723C223.474 79.926 228.28 83.6003 232.925 89.426C250.661 111.667 251.723 171.077 252.065 190.594V190.874C252.1 192.397 252.743 228.518 253.644 258.527C254.671 292.95 256.054 319.32 256.71 331.998C258.422 364.71 260.629 398.002 263.291 430.945C263.346 431.609 262.85 432.188 262.187 432.244C262.152 432.244 262.124 432.244 262.089 432.244H262.096Z" fill="#B21454"/>
<path d="M382.118 510.612C382.013 510.612 381.915 510.599 381.817 510.571C339.374 499.548 264.268 471.432 238.108 406.936C223.013 369.712 220.589 312.628 232.073 264.883C232.813 261.796 233.666 258.541 234.567 255.104C239.89 234.728 246.519 209.364 242.754 176.233C241.308 163.533 239.512 147.732 229.391 131.408C224.263 123.137 219.213 118.213 212.815 111.982C207.89 107.176 202.302 101.734 195.498 93.5683C186.662 82.9646 178.852 71.4598 172.286 59.3822C171.964 58.7955 172.181 58.062 172.768 57.7477C173.354 57.4263 174.088 57.6429 174.402 58.2296C180.892 70.1675 188.61 81.5396 197.349 92.0246C204.076 100.093 209.608 105.492 214.498 110.256C220.757 116.354 226.163 121.621 231.444 130.143C241.852 146.929 243.683 163.03 245.15 175.967C248.964 209.546 241.992 236.236 236.9 255.718C236.006 259.148 235.161 262.389 234.42 265.456C223.041 312.747 225.423 369.244 240.344 406.035C266.05 469.42 340.108 497.222 382.153 508.175C384.975 507.609 388.998 506.219 392.623 502.859C394.356 501.252 395.795 499.387 396.919 497.298C372.611 495.894 349.363 490.285 327.8 480.611C310.637 472.906 265.037 452.446 244.619 405.078C239.359 392.882 237.619 383.235 235.202 369.879C228.748 334.17 232.506 305.622 235.824 280.439C237.787 265.512 240.658 250.843 244.353 236.851C246.114 230.173 248.104 223.481 250.256 216.95C250.465 216.314 251.15 215.972 251.779 216.182C252.414 216.391 252.757 217.076 252.547 217.704C250.409 224.187 248.433 230.837 246.686 237.466C243.019 251.36 240.169 265.924 238.22 280.747C234.923 305.761 231.193 334.108 237.584 369.446C239.973 382.642 241.692 392.177 246.84 404.121C266.888 450.63 311.859 470.81 328.792 478.403C350.621 488.197 374.189 493.771 398.861 494.979C399.26 495 399.616 495.21 399.825 495.552C400.035 495.887 400.063 496.307 399.902 496.67C398.568 499.715 396.675 502.391 394.265 504.626C390.102 508.482 385.484 509.998 382.341 510.592C382.264 510.606 382.194 510.612 382.118 510.612Z" fill="#B21454"/>
<path d="M249.026 153.426C248.509 153.426 248.027 153.09 247.874 152.566C243.012 136.325 235.698 122.481 226.142 111.423C224.578 109.614 222.88 107.79 221.085 105.863C216.859 101.322 212.06 96.1739 205.948 88.0709C201.142 81.7073 196.664 75.0154 192.641 68.1838C192.306 67.611 192.494 66.8705 193.067 66.5352C193.64 66.1999 194.38 66.3885 194.716 66.9613C198.697 73.7161 203.119 80.3312 207.869 86.618C213.911 94.6162 218.661 99.7224 222.845 104.221C224.655 106.163 226.366 108 227.959 109.851C237.738 121.174 245.212 135.313 250.172 151.882C250.361 152.517 249.997 153.195 249.362 153.384C249.243 153.419 249.131 153.433 249.012 153.433L249.026 153.426Z" fill="#B21454"/>
<path d="M202.323 57.8524C209.755 62.7072 216.873 68.0509 223.649 73.8138C227.023 76.7057 230.327 79.6605 233.561 82.7131C236.781 85.7797 239.925 88.9231 242.956 92.1992C243.711 93.0234 244.472 93.8337 245.198 94.6859C245.939 95.5242 246.679 96.3624 247.385 97.2356L248.461 98.5279C248.817 98.961 249.152 99.415 249.501 99.8551L250.535 101.189L251.506 102.579C252.149 103.508 252.805 104.43 253.441 105.366L255.201 108.258C255.488 108.747 255.809 109.215 256.068 109.718L256.864 111.213L257.66 112.708C257.926 113.204 258.191 113.707 258.422 114.224L259.84 117.297C260.084 117.807 260.28 118.331 260.496 118.855L261.125 120.427L261.747 121.999L262.292 123.598C262.641 124.667 263.039 125.729 263.346 126.804C264.674 131.107 265.665 135.501 266.455 139.916C267.237 144.331 267.782 148.78 268.145 153.23C268.522 157.679 268.704 162.108 268.962 166.502C269.437 175.31 270.003 184.112 270.569 192.913C271.694 210.523 273 228.119 274.355 245.722L278.483 298.538C279.818 316.148 281.047 333.772 282.109 351.417C282.654 360.233 283.087 369.069 283.597 377.864C284.114 386.665 284.672 395.474 285.301 404.268C286.558 421.864 288.123 439.439 289.877 457C289.946 457.664 289.457 458.258 288.794 458.32C288.137 458.383 287.55 457.915 287.474 457.259C285.413 439.712 283.681 422.116 282.207 404.506C281.473 395.697 280.803 386.889 280.237 378.066C279.664 369.237 279.168 360.442 278.56 351.634C277.387 334.031 275.997 316.435 274.593 298.839L270.339 246.037C268.935 228.434 267.593 210.817 266.42 193.179C266.105 188.771 265.868 184.356 265.61 179.949C265.337 175.541 265.121 171.126 264.89 166.712C264.646 162.29 264.478 157.896 264.129 153.544C263.793 149.192 263.283 144.861 262.536 140.586C261.789 136.311 260.846 132.071 259.588 127.929C259.295 126.888 258.918 125.875 258.582 124.849L258.072 123.312L257.493 121.803L256.913 120.294C256.717 119.791 256.536 119.281 256.305 118.792L254.992 115.837C254.782 115.342 254.531 114.86 254.286 114.385L253.546 112.946L252.805 111.507C252.568 111.025 252.268 110.578 252.002 110.11L250.354 107.329C249.76 106.428 249.145 105.548 248.544 104.654C246.121 101.098 243.305 97.7665 240.393 94.5113C237.466 91.2701 234.406 88.1267 231.27 85.0672C228.14 81.9936 224.927 78.9969 221.651 76.0771C215.092 70.2723 208.155 64.8587 200.953 59.8432C200.409 59.466 200.269 58.7116 200.653 58.1667C201.023 57.6289 201.757 57.4891 202.302 57.8454L202.323 57.8524Z" fill="#B21454"/>
<path d="M116.704 72.277C109.725 80.331 103.334 88.888 97.7316 97.941C92.1853 107.022 87.3864 116.571 83.6423 126.525C79.94 136.493 77.2647 146.838 75.7838 157.358C74.9595 162.618 74.5334 167.899 74.5474 173.194C74.5474 178.496 74.9106 183.818 75.3786 189.134C75.8536 194.45 76.4404 199.766 77.09 205.075C77.7397 210.384 78.4382 215.692 79.1786 220.994C80.6386 231.598 82.2522 242.181 84.0334 252.736C85.8147 263.29 87.8055 273.803 89.943 284.295C92.0735 294.787 94.3368 305.272 96.2787 315.834C97.2706 321.108 98.1508 326.41 98.989 331.712L101.413 347.61C102.992 358.214 104.486 368.845 105.611 379.533C106.736 390.221 107.469 400.964 107.483 411.735C107.504 422.5 106.778 433.292 105.143 443.952C104.326 449.281 103.292 454.576 102.042 459.815L101.595 461.785L101.085 463.741C100.735 465.04 100.421 466.353 100.03 467.646L98.9052 471.53L97.6827 475.385C95.9923 480.506 94.1691 485.584 92.0735 490.544C91.0746 493.051 89.943 495.489 88.8393 497.955C88.3015 499.191 87.6868 500.393 87.107 501.601L85.3327 505.234C80.436 514.832 74.8408 524.073 68.6448 532.882C62.4488 541.697 55.6661 550.079 48.4223 558.043L48.3036 556.303L57.7477 564.169L56.0363 564.336C70.2165 546.524 82.3779 527.077 91.5496 506.261L93.2051 502.335C93.75 501.022 94.3228 499.722 94.8188 498.388L96.3485 494.413L96.7327 493.422L97.089 492.416L97.7945 490.404C98.7724 487.735 99.6107 485.025 100.484 482.322C100.91 480.967 101.287 479.598 101.692 478.242L102.286 476.196L102.831 474.135C103.585 471.397 104.235 468.638 104.878 465.871L105.779 461.708L106.554 457.524L107.329 453.34L107.944 449.128L108.552 444.916L108.999 440.682C110.193 429.394 110.473 418.022 110.061 406.664C109.649 395.306 108.559 383.962 107.134 372.652C105.702 361.343 103.942 350.062 102.097 338.788C100.246 327.513 98.3394 316.232 96.4463 304.958C94.5463 293.683 92.6603 282.409 90.5787 271.191C89.5448 265.582 88.4551 259.986 87.2397 254.426C86.0242 248.873 84.697 243.347 83.0904 237.934C81.4768 232.52 79.6257 227.106 77.8933 221.623C77.0272 218.885 76.1819 216.119 75.4415 213.31C75.0503 211.913 74.729 210.495 74.3797 209.077C74.0724 207.652 73.7511 206.234 73.5066 204.788C72.4169 199.046 71.9838 193.179 71.9768 187.36C71.9768 184.461 72.0955 181.541 72.3121 178.642C72.5426 175.743 72.8779 172.852 73.311 169.974C74.1772 164.218 75.5114 158.539 77.2507 152.978C77.7117 151.595 78.1518 150.205 78.6408 148.836L80.1915 144.75L81.9239 140.733C82.1963 140.055 82.5456 139.413 82.8599 138.756L83.8239 136.793C86.4853 131.61 89.454 126.56 93.1004 121.922C94.9165 119.602 96.8934 117.423 98.9191 115.327C100.952 113.246 103.026 111.262 105.073 109.271C109.153 105.304 113.099 101.28 116.816 97.0119C120.532 92.7509 124.122 88.3571 127.552 83.8376C129.27 81.5814 130.961 79.3042 132.602 76.9851C134.251 74.6729 135.878 72.3468 137.45 69.9858C140.621 65.2707 143.632 60.4438 146.552 55.5611C146.894 54.9883 147.635 54.7997 148.208 55.142C148.752 55.4703 148.948 56.1618 148.669 56.7207C143.478 66.9821 137.394 76.8034 130.618 86.1218C128.942 88.4619 127.175 90.7391 125.386 93.0094L124.052 94.7138L122.676 96.3833C121.761 97.5009 120.846 98.6186 119.882 99.6943C116.103 104.067 112.079 108.251 107.944 112.24C105.89 114.238 103.83 116.201 101.86 118.212C99.9111 120.231 98.039 122.285 96.3276 124.464C92.8908 128.816 90.0338 133.664 87.4702 138.644L86.5412 140.53C86.2408 141.166 85.8985 141.781 85.6401 142.43L83.9636 146.286L82.4687 150.219C81.9937 151.539 81.5746 152.88 81.1275 154.208C79.4441 159.558 78.1448 165.042 77.3066 170.595C76.8805 173.368 76.5522 176.163 76.3286 178.964C76.1191 181.765 76.0003 184.566 75.9933 187.381C75.9933 192.99 76.3985 198.578 77.4323 204.076C77.6628 205.452 77.9772 206.821 78.2636 208.19C78.5919 209.552 78.9062 210.921 79.2834 212.284C79.9959 215.008 80.8202 217.711 81.6724 220.428C83.3768 225.856 85.2279 231.27 86.8695 236.816C88.511 242.362 89.8452 247.972 91.0676 253.588C92.2901 259.204 93.3728 264.841 94.4066 270.478C96.4743 281.753 98.3603 293.034 100.232 304.322C102.083 315.61 103.949 326.892 105.758 338.194C107.553 349.496 109.278 360.826 110.675 372.212C112.065 383.598 113.127 395.047 113.497 406.545C113.875 418.043 113.546 429.583 112.289 441.039L111.814 445.335L111.178 449.61L110.536 453.885L109.725 458.132L108.908 462.372L107.972 466.591C107.302 469.392 106.617 472.193 105.842 474.959L105.276 477.041L104.661 479.109C104.242 480.485 103.851 481.868 103.404 483.244C102.503 485.975 101.629 488.72 100.624 491.417L99.8901 493.449L99.5269 494.462L99.1357 495.468L97.557 499.485C97.0471 500.833 96.4603 502.146 95.9015 503.466L94.204 507.434C89.4959 517.933 84.0404 528.09 77.9562 537.834C71.865 547.579 65.1242 556.911 57.9014 565.838C57.4823 566.355 56.7209 566.439 56.2039 566.02C56.2039 566.02 56.19 566.013 56.19 566.006L46.7458 558.14C46.2359 557.714 46.166 556.953 46.5922 556.443L46.6201 556.408C53.794 548.508 60.5139 540.202 66.647 531.478C72.7801 522.76 78.3125 513.616 83.1603 504.123L84.9136 500.533C85.4934 499.331 86.1011 498.151 86.632 496.921C87.7217 494.49 88.8463 492.073 89.8312 489.601C91.9059 484.697 93.7081 479.674 95.3776 474.617L96.586 470.81L97.6967 466.975C98.0809 465.697 98.3952 464.405 98.7375 463.119L99.2405 461.184L99.6805 459.235C100.917 454.052 101.937 448.827 102.747 443.56C104.361 433.033 105.08 422.374 105.059 411.714C105.045 401.048 104.319 390.388 103.201 379.757C102.083 369.125 100.596 358.528 99.0169 347.938L96.593 332.054C95.7548 326.773 94.8816 321.499 93.8967 316.246C91.9618 305.726 89.7055 295.255 87.568 284.749C85.4305 274.243 83.4257 263.696 81.6445 253.113C79.8632 242.53 78.2426 231.926 76.7827 221.295C76.0422 215.986 75.3437 210.663 74.6941 205.34C74.0375 200.017 73.4507 194.674 72.9687 189.316C72.5007 183.958 72.1305 178.579 72.1235 173.166C72.1025 167.745 72.5426 162.318 73.3808 156.988C74.8897 146.286 77.6069 135.766 81.372 125.645C85.172 115.53 90.0408 105.848 95.664 96.6417C101.336 87.463 107.811 78.7942 114.867 70.6564C115.3 70.1534 116.068 70.0975 116.571 70.5376C117.074 70.9707 117.13 71.7391 116.69 72.242L116.704 72.277Z" fill="#B21454"/>
<path d="M181.66 40.7874C179.397 40.7874 177.043 40.5708 174.605 40.1447C173.948 40.026 173.508 39.4043 173.627 38.7477C173.746 38.0911 174.367 37.651 175.024 37.7697C181.374 38.8874 187.081 38.4613 191.984 36.4984C193.395 35.9326 194.744 35.248 196.162 34.5216C199.221 32.9569 202.693 31.1826 208.107 29.9392C212.926 28.8355 215.679 28.5491 216.405 30.2116C216.985 31.5388 216.636 33.1315 206.479 39.2786C205.906 39.6208 205.166 39.4392 204.823 38.8734C204.481 38.3006 204.663 37.5602 205.229 37.2179C210.544 34.0046 212.696 32.2932 213.569 31.448C212.759 31.4899 211.292 31.6855 208.644 32.2932C203.524 33.4668 200.192 35.1712 197.258 36.673C195.784 37.4275 194.387 38.14 192.879 38.7477C189.463 40.1168 185.705 40.8014 181.66 40.8014V40.7874Z" fill="#B21454"/>
<path d="M101.699 51.9009C101.064 51.9009 100.428 51.8729 99.7993 51.824C93.3099 51.2931 86.6879 47.9821 84.7948 45.3347C84.257 44.5872 84.0754 43.8608 84.25 43.1902C84.8437 40.8641 88.05 41.0596 97.585 41.6534C104.57 42.0865 114.133 42.6802 126.735 42.4916C133.091 42.4008 139.49 42.1214 145.756 41.6534C146.419 41.6115 146.999 42.1005 147.048 42.771C147.097 43.4347 146.601 44.0144 145.93 44.0633C139.616 44.5314 133.168 44.8108 126.763 44.9086C114.07 45.0902 104.452 44.4964 97.4313 44.0633C92.5905 43.763 88.0011 43.4836 86.7018 43.8957C87.582 45.2858 93.2122 48.8762 99.9879 49.4281C102.565 49.6376 105.171 49.3722 107.742 48.6317C108.384 48.4501 109.048 48.8203 109.236 49.456C109.418 50.0986 109.048 50.7622 108.412 50.9509C106.191 51.5865 103.942 51.9078 101.699 51.9078V51.9009Z" fill="#B21454"/>
<path d="M268.02 456.902C261.335 459.529 274.739 485.975 276.646 528.963C276.856 533.727 277.128 543.29 283.883 549.276C289.653 554.389 299.537 556.352 303.079 552.615C307.34 548.117 298.762 539.21 293.621 518.394C287.977 495.552 293.76 487.903 285.273 473.045C280.914 465.41 272.399 455.191 268.027 456.909L268.02 456.902Z" fill="#FC97C5"/>
</g>
<defs>
<clipPath id="clip0_81_85">
<rect width="400" height="566.32" fill="white"/>
</clipPath>
</defs>
</svg>
