<svg width="400" height="530" viewBox="0 0 400 530" fill="none" xmlns="http://www.w3.org/2000/svg">
<g clip-path="url(#clip0_81_161)">
<path d="M132.844 491.404C130.592 499.095 126.479 513.139 130.957 515.919C132.925 517.143 137.749 514.85 147.395 510.264C152.056 508.045 154.396 506.922 154.937 505.955C158.428 499.738 147.003 492.161 145.508 475.777C144.966 469.831 146.069 466.408 144.966 466.077C142.734 465.407 136.463 479.038 132.844 491.404Z" fill="#FFF530"/>
<path d="M17.9333 24.2174C36.7255 23.3786 50.9312 26.0101 59.6914 28.2559C76.0889 32.4635 92.3579 40.2429 98.4866 43.0772C102.315 44.809 106.976 47.0143 113.572 47.3863C120.857 47.799 123.218 45.5531 131.627 45.499C141.55 45.4313 147.523 48.4957 147.794 47.7922C148.274 46.5407 128.718 38.8088 104.818 27.7215C84.477 18.2781 70.3863 10.7626 49.7203 7.51552C41.8936 6.28436 33.3296 5.69583 26.4161 10.8843C21.045 14.9093 18.8668 20.7607 17.9265 24.2242L17.9333 24.2174Z" fill="#FFF530"/>
<path d="M9.24066 34.7905C13.5633 33.512 16.2759 49.0977 31.2663 59.2379C47.0685 69.9328 66.483 67.7817 79.762 66.3137C107.619 63.2223 110.047 52.8048 130.077 55.4024C141.286 56.8568 141.056 60.185 164.631 65.7049C181.13 69.5675 189.207 69.8043 189.484 72.5778C189.843 76.1157 177.328 82.258 164.225 82.4812C149.959 82.7248 145.311 75.7707 129.875 72.3749C120.702 70.359 111.096 71.7052 91.8843 74.3975C59.7319 78.9027 54.0361 84.5918 37.9295 81.2704C31.936 80.0324 18.4338 77.2522 10.9115 65.7387C2.87513 53.4406 4.86393 36.0893 9.24066 34.7905Z" fill="#FFF530"/>
<path d="M167.06 90.1591C146.752 92.2088 133.291 107.984 108.863 137.444C93.7039 155.729 87.8796 166.173 84.2131 177.856C80.4588 189.816 78.5444 204.414 81.5885 205.537C85.2955 206.903 90.5178 186.122 110.69 166.336C113.288 163.785 126.228 154.734 152.117 136.632C153.125 135.929 166.884 126.309 180 109.756C185.852 102.383 188.105 98.0061 186.67 94.7996C183.89 88.5897 168.649 89.99 167.066 90.1523L167.06 90.1591Z" fill="#FFF530"/>
<path d="M236.573 85.309C233.002 89.3069 250.941 112.834 268.705 129.766C285.116 145.406 286.219 140.968 329.526 172.404C342.819 182.05 350.327 187.996 353.777 185.541C358.256 182.341 353.507 166.6 346.905 155.634C342.656 148.572 337.089 142.585 324.676 133.406C310.308 122.785 299.356 117.204 284.264 109.154C245.489 88.4884 238.535 83.1105 236.573 85.309Z" fill="#FFF530"/>
<path d="M363.674 185.737C361.509 185.872 365.331 201.16 356.402 217.26C349.698 229.342 340.485 233.461 342.257 239.083C343.867 244.183 351.937 242.337 359.23 249.994C366.576 257.713 365.683 267.258 367.516 267.17C370.033 267.048 372.272 248.979 371.359 227.968C370.398 205.862 366.17 185.574 363.681 185.737H363.674Z" fill="#FFF530"/>
<path d="M87.3114 229.254C84.0711 231.96 96.2069 253.904 110.21 271.553C128.467 294.56 137.667 294.85 159.788 321.131C173.939 337.948 179.047 348.365 181.34 347.263C184.749 345.626 179.595 319.805 165.172 297.15C156.892 284.142 143.038 272.493 115.331 249.189C90.8628 228.618 88.184 228.523 87.3114 229.254Z" fill="#FFF530"/>
<path d="M190.77 342.413C187.814 341.817 184.993 351.937 175.685 370.161C160.802 399.296 152.962 402.861 142.815 427.816C138.506 438.41 130.693 457.628 135.273 460.686C140.752 464.345 162.812 444.092 176.226 422.425C179.331 417.419 189.248 400.582 192.664 376.621C194.707 362.28 194.727 343.204 190.777 342.406L190.77 342.413Z" fill="#FFF530"/>
<path d="M224.045 66.1784C226.345 63.3238 232.453 65.2855 240.28 66.9834C258.166 70.8663 267.745 69.6013 267.765 71.0219C267.785 72.6522 255.264 73.5384 242.303 74.4584C230.857 75.2701 225.777 75.0063 223.916 71.9013C222.902 70.2034 222.854 67.6667 224.052 66.1784H224.045Z" fill="#FFF530"/>
<path d="M232.061 60.8548C231.398 58.1016 248.317 48.6785 268.097 45.5667C282.194 43.3479 289.791 45.587 305.816 40.243C309.09 39.1539 312.75 37.7333 313.021 38.288C313.636 39.5191 296.697 48.8543 287.153 54.1172C270.809 63.1277 267.725 63.9057 264.315 64.156C260.446 64.4401 260.473 63.7298 244.847 62.4716C234.395 61.6328 232.271 61.7748 232.048 60.8548H232.061Z" fill="#FFF530"/>
<path d="M326.09 85.7148C326.976 80.8781 353.838 89.9224 371.149 74.1947C383.346 63.1142 383.454 46.4123 387.716 46.9129C391.172 47.3187 393.871 58.6427 392.16 68.5326C390.009 80.9728 380.565 92.9936 367.51 97.4312C347.074 104.372 325.264 90.1795 326.083 85.7081L326.09 85.7148Z" fill="#FFF530"/>
<path d="M210.604 65.7049C208.216 67.166 207.999 68.2213 204.137 72.5778C200.741 76.4065 198.989 78.463 196.155 80.56C192.427 83.32 189.877 84.0438 189.992 85.5118C190.107 87.027 193.009 88.6167 195.749 88.5423C201.938 88.38 205.645 79.8159 207.472 80.763C208.487 81.2906 208.114 84.3753 207.878 86.3167C207.492 89.4691 206.599 90.6867 207.073 91.0655C207.945 91.769 212.823 89.0294 215.156 84.2941C216.78 80.993 215.589 79.9444 216.875 73.4842C218.086 67.4096 219.756 65.2719 218.593 64.0881C217.159 62.627 213.026 64.2234 210.611 65.7049H210.604Z" fill="#FFF530"/>
<path d="M207.736 96.1728C205.294 96.1728 202.784 95.1717 200.43 93.2573C200.362 93.2031 200.301 93.1355 200.247 93.0679C198.772 93.7781 197.142 94.1367 195.458 94.0623C192.657 93.9337 189.836 92.5402 187.895 90.3417C186.4 88.6438 185.622 86.6685 185.757 84.9232C185.953 82.4744 187.814 81.3786 190.384 79.8565C192.062 78.8689 194.152 77.6377 196.655 75.6286C200.497 72.5507 202.567 69.7163 204.232 67.4366C206.396 64.4737 208.108 62.1331 212.16 61.0102C215.955 59.9617 221.908 60.0699 223.22 63.0058C223.869 64.4467 223.105 65.9416 222.699 66.7466L222.638 66.8684C220.988 70.1425 221.116 72.7942 221.245 75.6015C221.373 78.348 221.508 81.1891 220.162 84.815C220 85.2547 216.063 95.6384 208.311 96.1525C208.114 96.1661 207.925 96.1728 207.729 96.1728H207.736ZM202.162 91.884C203.636 93.007 205.781 94.1705 208.182 94.0081C214.561 93.5887 218.126 84.1656 218.16 84.0709C219.351 80.8577 219.236 78.3548 219.107 75.703C218.965 72.7401 218.823 69.6825 220.724 65.9078L220.791 65.7793C221.069 65.2314 221.495 64.3993 221.265 63.8852C220.71 62.654 216.476 62.0452 212.735 63.0802C209.4 64.007 208.04 65.874 205.97 68.7016C204.232 71.0828 202.067 74.0457 198.001 77.2995C195.383 79.4033 193.219 80.675 191.48 81.6965C189.011 83.1509 188.003 83.7935 187.902 85.0788C187.814 86.2288 188.409 87.6629 189.512 88.9076C191.074 90.6799 193.334 91.7961 195.559 91.8976C199.517 92.0735 203.203 89.1308 204.117 85.0382C204.245 84.4632 204.82 84.0979 205.395 84.2265C205.977 84.355 206.335 84.93 206.207 85.505C205.625 88.1094 204.137 90.3417 202.148 91.8705L202.162 91.884Z" fill="#9E6C33"/>
<path d="M324.913 84.8555C313.676 84.8555 306.391 81.7709 297.326 77.9285C289.601 74.6545 280.969 70.9948 267.711 68.316C267.663 68.316 267.616 68.3025 267.569 68.2889C265.769 67.9304 263.889 67.5854 261.913 67.2607C248.966 65.1501 235.694 64.5819 222.462 65.5763C221.867 65.6237 221.359 65.1772 221.312 64.5887C221.265 64.0001 221.711 63.486 222.3 63.4387C235.694 62.4375 249.142 63.0057 262.252 65.1501C264.146 65.4613 265.952 65.786 267.677 66.131C270.281 64.7307 274.117 62.681 278.744 60.2255C296.136 50.985 302.319 47.8868 308.86 44.6127C313.372 42.3533 318.04 40.0195 326.712 35.494C328.687 34.4657 330.568 33.4781 332.354 32.5378C353.432 21.4844 362.152 16.9047 371.46 20.6117C376.824 22.7494 380.166 26.9232 380.301 27.099C384.543 32.4702 385.909 39.9316 384.245 48.6782C382.595 57.3843 375.323 66.3542 364.303 73.288C353.392 80.1541 339.883 84.3617 327.246 84.8217C326.448 84.8488 325.67 84.8623 324.906 84.8623L324.913 84.8555ZM270.944 66.8075C282.836 69.4592 290.893 72.8686 298.158 75.9533C307.595 79.9512 315.05 83.1103 327.172 82.6706C352.702 81.7438 378.901 65.3463 382.141 48.2724C383.684 40.1548 382.466 33.2887 378.624 28.4249C378.495 28.2693 375.505 24.5217 370.669 22.6005C362.287 19.2656 353.818 23.7032 333.355 34.4319C331.562 35.3722 329.682 36.3598 327.706 37.388C319.021 41.9204 314.346 44.2609 309.827 46.5203C303.299 49.7876 297.13 52.8791 279.759 62.106C276.322 63.9325 273.332 65.529 270.944 66.8075Z" fill="#9E6C33"/>
<path d="M249.034 77.6784C245.394 77.6784 241.694 77.5093 237.635 77.3266L236.188 77.259C230.796 77.0155 225.351 76.5284 219.993 75.8114C219.405 75.7302 218.992 75.1958 219.073 74.6072C219.154 74.0187 219.689 73.6061 220.277 73.6873C225.567 74.3975 230.952 74.8778 236.282 75.1146L237.73 75.1822C247.099 75.6084 254.493 75.9466 263.754 74.2893C266.378 73.8225 267.657 73.4099 268.78 73.0514C269.984 72.6658 271.026 72.3343 273.19 72.0502C280.171 71.1302 287.383 71.9487 294.621 74.4652C295.182 74.6614 295.473 75.2702 295.284 75.8316C295.087 76.3931 294.479 76.684 293.917 76.4946C286.997 74.0864 280.117 73.3017 273.468 74.1743C271.499 74.4314 270.586 74.7222 269.429 75.0943C268.239 75.4731 266.892 75.9061 264.126 76.3999C258.687 77.374 253.904 77.6784 249.02 77.6784H249.034Z" fill="#9E6C33"/>
<path d="M287.815 71.7999C301.067 79.5048 314.461 86.9527 327.943 94.2315C331.319 96.0444 334.687 97.8708 338.09 99.5349C339.795 100.36 341.506 101.145 343.245 101.788C344.983 102.43 346.749 102.917 348.555 103.228C352.188 103.817 355.956 103.81 359.635 103.35C363.329 102.897 366.955 101.909 370.398 100.509C377.291 97.7085 383.481 93.1559 388.006 87.2436C390.3 84.3077 392.261 81.1013 393.817 77.719C395.366 74.3434 396.543 70.7785 397.03 67.1323C397.531 63.4929 397.402 59.7792 396.408 56.2818C395.434 52.7845 393.52 49.5375 391.571 46.2566L390.09 43.8011C389.596 42.9961 389.095 42.1911 388.581 41.3929C387.553 39.8032 386.484 38.2338 385.368 36.705C383.136 33.6406 380.734 30.698 378.171 27.9042C377.771 27.4712 377.799 26.788 378.231 26.3889C378.664 25.9898 379.334 26.0168 379.733 26.4362C382.405 29.2436 384.922 32.1997 387.262 35.2979C388.433 36.847 389.562 38.4232 390.631 40.0467C391.165 40.8585 391.693 41.6702 392.207 42.4955L393.723 44.9511C394.73 46.5949 395.732 48.2522 396.645 50.0042C397.558 51.7495 398.377 53.603 398.938 55.5445C400.081 59.4342 400.21 63.5471 399.689 67.4908C399.175 71.4549 397.923 75.2566 396.293 78.8487C395.495 80.6548 394.528 82.3798 393.533 84.071C392.478 85.7351 391.389 87.3789 390.151 88.9145C385.314 95.1785 378.698 100.015 371.386 102.951C367.726 104.426 363.884 105.454 359.96 105.928C356.037 106.401 352.059 106.408 348.115 105.752C346.147 105.407 344.199 104.859 342.345 104.169C340.485 103.472 338.712 102.653 336.967 101.801C333.49 100.083 330.121 98.2429 326.746 96.4164C313.244 89.1106 299.917 81.4666 286.713 73.6399C286.205 73.3355 286.036 72.6793 286.334 72.172C286.631 71.6646 287.288 71.4955 287.795 71.7932L287.815 71.7999Z" fill="#9E6C33"/>
<path d="M383.522 38.4366C383.353 38.4366 383.183 38.396 383.021 38.3148C376.27 34.7634 369.025 32.4228 361.489 31.3405C353.419 30.1838 345.281 30.5085 337.312 32.3146C336.737 32.4431 336.162 32.0846 336.027 31.5029C335.899 30.9279 336.257 30.3529 336.839 30.2176C345.065 28.3505 353.46 28.0123 361.794 29.2096C369.573 30.3258 377.048 32.7475 384.015 36.4072C384.543 36.6846 384.739 37.334 384.469 37.8549C384.279 38.2201 383.907 38.4298 383.515 38.4298L383.522 38.4366Z" fill="#9E6C33"/>
<path d="M321.625 84.7608C321.456 84.7608 321.28 84.7202 321.117 84.6323C318.127 83.0223 315.097 81.3447 312.12 79.6332C306.858 76.6162 303.482 74.5056 301.013 72.97C298.172 71.1977 296.46 70.1289 294.309 69.1886C287.876 66.3813 280.137 65.9348 271.316 67.856C270.741 67.9845 270.166 67.6124 270.038 67.0375C269.909 66.4557 270.281 65.8875 270.856 65.7589C280.13 63.7431 288.316 64.2369 295.168 67.2201C297.461 68.2213 299.227 69.3239 302.149 71.1436C304.598 72.6724 307.96 74.7694 313.189 77.7662C316.152 79.4641 319.156 81.135 322.132 82.7314C322.653 83.0088 322.849 83.6649 322.572 84.1858C322.376 84.5443 322.01 84.7541 321.625 84.7541V84.7608Z" fill="#9E6C33"/>
<path d="M221.576 62.6068C229.497 55.673 238.664 50.0854 248.486 46.1078C253.41 44.1528 258.511 42.5361 263.713 41.4808C268.901 40.3714 274.117 39.6814 279.299 39.0388C289.655 37.8144 299.911 36.5088 310.125 34.6891C315.233 33.7962 320.326 32.8018 325.4 31.7397C330.48 30.6709 335.533 29.4939 340.586 28.2762C341.161 28.1342 341.743 28.4927 341.885 29.0677C342.02 29.6224 341.689 30.1838 341.148 30.3462C336.142 31.8412 331.096 33.1806 326.022 34.4456C320.955 35.7241 315.848 36.8403 310.72 37.8752C305.593 38.8967 300.438 39.8099 295.27 40.6014C290.102 41.3996 284.92 42.0626 279.765 42.7458C274.618 43.4358 269.497 44.119 264.511 45.2081C259.512 46.2702 254.635 47.7584 249.866 49.5984C247.478 50.5116 245.124 51.5195 242.81 52.6019C240.483 53.6707 238.204 54.8342 235.958 56.0721C231.452 58.5277 227.123 61.308 222.909 64.2912C222.422 64.6362 221.752 64.5212 221.414 64.0341C221.096 63.5809 221.177 62.9653 221.583 62.6068H221.576Z" fill="#9E6C33"/>
<path d="M224.302 88.0959C221.562 88.0959 219.33 87.575 218.092 87.2029C217.524 87.0338 217.206 86.4318 217.375 85.8635C217.544 85.2953 218.146 84.9774 218.714 85.1465C220.94 85.8162 226.764 87.0406 232.663 83.9153C236.343 81.9671 238.548 79.1124 239.746 77.0695C240.043 76.5554 240.706 76.3863 241.214 76.6839C241.728 76.9816 241.897 77.6377 241.599 78.1518C240.26 80.4383 237.797 83.6244 233.671 85.8094C230.356 87.5615 227.075 88.0959 224.309 88.0959H224.302Z" fill="#9E6C33"/>
<path d="M199.868 74.8169C191.656 71.3195 183.369 68.0184 175.008 64.8864L162.46 60.1849C158.272 58.6426 154.078 57.1138 149.864 55.7473C145.636 54.4012 141.415 53.1497 137.085 52.6018C132.77 51.9524 128.406 51.7765 124.138 52.4124C119.856 53.0212 115.682 54.3876 111.447 55.7947C107.213 57.2153 102.89 58.5952 98.4864 59.6708C96.2676 60.1444 94.0623 60.6788 91.8232 61.017L90.1456 61.3011C89.5909 61.4026 89.0294 61.4905 88.4679 61.5514L85.0992 61.964C84.5377 62.0249 83.9762 62.1196 83.4148 62.1602L81.7236 62.2887L78.3413 62.5458C76.0954 62.7014 73.8699 62.7961 71.624 62.9111C67.139 63.114 62.6135 63.2223 58.0744 63.0058C53.5353 62.7961 48.9692 62.2549 44.4978 61.0982C40.0331 59.9549 35.6767 58.1826 31.7397 55.6932L30.2853 54.7259L29.5615 54.2388C29.3179 54.0765 29.1015 53.8803 28.8715 53.7044L27.505 52.6153C27.0518 52.25 26.5918 51.8983 26.1656 51.4991C24.4339 49.95 22.8442 48.2656 21.3627 46.4933C18.4201 42.9419 15.9104 39.0184 14.0501 34.7499C13.1369 32.6123 12.359 30.3935 11.8787 28.0732C11.3713 25.7664 11.1549 23.365 11.3037 20.95C11.4052 19.7459 11.5743 18.535 11.8855 17.3445C12.2102 16.1674 12.5957 14.9904 13.1572 13.8877C14.226 11.6689 15.7548 9.70718 17.5136 8.06337C19.2724 6.41957 21.2883 5.0734 23.3448 3.97753C25.4215 2.88166 27.6403 1.98873 29.8997 1.35285C32.1658 0.703444 34.4861 0.365212 36.7996 0.141979L38.5381 0.02698C39.1199 -0.0136078 39.6949 -7.85365e-05 40.2699 -0.0136078C41.4266 -0.0541957 42.5766 0.0134507 43.7266 0.0540386C48.3266 0.284036 52.8318 1.05521 57.2627 2.03608C66.1243 4.03165 74.6478 7.00809 83.0359 10.2213C91.4106 13.4819 99.6431 17.0603 107.788 20.7944C124.084 28.2694 140.008 36.4546 155.851 44.7818C159.808 46.8654 163.758 48.9692 167.695 51.0933C171.632 53.2241 175.556 55.3685 179.473 57.5264C187.306 61.849 195.106 66.2325 202.851 70.704C203.365 71.0016 203.541 71.6578 203.244 72.1719C202.953 72.6792 202.31 72.8551 201.796 72.5778C193.963 68.2755 186.122 64.007 178.235 59.7994C174.291 57.6956 170.34 55.612 166.383 53.5421L154.504 47.3524C138.628 39.1672 122.636 31.2052 106.421 23.7709C98.3037 20.0774 90.1185 16.5462 81.8251 13.3466C73.5249 10.1875 65.1029 7.30573 56.505 5.37105C52.2162 4.41047 47.8733 3.66636 43.5372 3.44312C42.4549 3.4093 41.3725 3.33489 40.2902 3.37548C39.749 3.38901 39.2078 3.37548 38.6734 3.4093L37.0634 3.51077C34.9326 3.71371 32.8152 4.01812 30.7791 4.59988C28.7362 5.17487 26.7812 5.95281 24.9074 6.94044C23.02 7.94161 21.2883 9.10513 19.773 10.5122C18.2713 11.9125 17.0063 13.5427 16.1336 15.3489C15.6736 16.2418 15.3625 17.2024 15.0919 18.1765C14.8348 19.1574 14.6928 20.1653 14.6048 21.18C14.3275 25.2862 15.3828 29.5141 17.0672 33.4375C18.7719 37.3746 21.1192 41.0613 23.8724 44.3963C25.2591 46.0536 26.7406 47.6365 28.3371 49.0639C28.7294 49.4359 29.1556 49.7606 29.5682 50.0921L30.8197 51.0933C31.0294 51.2556 31.2323 51.4383 31.4556 51.5871L32.1253 52.0335L33.4579 52.9265C37.077 55.2197 41.0952 56.8703 45.2825 57.9526C49.4766 59.0417 53.8262 59.5761 58.2165 59.8061C62.6067 60.0361 67.0308 59.9549 71.4752 59.7791C73.694 59.6844 75.9331 59.5964 78.1451 59.4544L81.453 59.2176L83.1036 59.0958C83.6583 59.062 84.1995 58.9741 84.7474 58.9132L88.035 58.5276C88.5829 58.4735 89.1309 58.3855 89.6721 58.2908L91.3023 58.0203C93.4873 57.7023 95.6317 57.195 97.7829 56.7485C102.072 55.727 106.279 54.4079 110.527 53.0077C114.769 51.6209 119.139 50.2071 123.732 49.578C128.318 48.9218 132.986 49.1248 137.491 49.8486C139.751 50.153 142.003 50.6536 144.195 51.2421C146.394 51.8306 148.545 52.5071 150.682 53.2174C154.958 54.6447 159.152 56.2209 163.339 57.8038L175.86 62.627C184.215 65.8469 192.508 69.236 200.714 72.8281C201.255 73.0648 201.505 73.7007 201.268 74.2419C201.032 74.783 200.402 75.0266 199.861 74.7966L199.868 74.8169Z" fill="#9E6C33"/>
<path d="M187.239 64.3452C186.725 64.3452 186.271 63.9731 186.184 63.4455C186.089 62.8637 186.481 62.309 187.07 62.2143C190.804 61.5988 194.612 61.1658 198.387 60.9358C203.075 60.6517 207.83 60.6652 212.518 60.9832C213.107 61.0238 213.553 61.5379 213.519 62.1264C213.479 62.7149 212.978 63.1614 212.376 63.1276C207.776 62.8164 203.115 62.8029 198.515 63.0802C194.815 63.3034 191.081 63.7296 187.415 64.3317C187.354 64.3384 187.3 64.3452 187.239 64.3452Z" fill="#9E6C33"/>
<path d="M15.0785 16.1336C11.8585 20.0233 9.17295 24.3459 7.15708 28.9526C6.14915 31.2526 5.31034 33.627 4.67446 36.0555C4.49181 36.6575 4.37682 37.2731 4.22799 37.8819C4.07241 38.4907 3.96417 39.1063 3.84917 39.7219C3.60565 40.9396 3.40947 42.2248 3.24036 43.4628C2.55036 48.4348 2.66536 53.4677 3.99123 58.1961C4.6677 60.557 5.60798 62.8367 6.81885 64.9811C8.03649 67.1187 9.47059 69.1413 11.1144 70.9881C14.3952 74.6951 18.3796 77.8001 22.7022 80.2962C27.0248 82.7924 31.706 84.7271 36.5224 85.9447C41.3388 87.1556 46.3379 87.575 51.3234 87.2976C53.8196 87.1691 56.3157 86.8647 58.8119 86.4656C60.0633 86.2694 61.3148 86.0394 62.5663 85.8094C63.838 85.5659 65.0692 85.3427 66.2868 85.0585C68.7356 84.5241 71.0559 83.7733 73.4303 82.8736C75.8047 81.9671 78.267 81.02 80.7496 80.2015C81.9875 79.7889 83.239 79.3965 84.4837 79.0245L88.1772 77.9083C90.6463 77.1642 93.1357 76.4269 95.6521 75.7436C100.685 74.4042 105.853 73.2948 111.143 72.9092C112.462 72.7807 113.788 72.7604 115.114 72.7131C116.447 72.7266 117.772 72.7131 119.098 72.8145C120.431 72.8619 121.75 73.0445 123.076 73.1798C124.388 73.3828 125.701 73.5722 127.006 73.8631C129.611 74.4042 132.188 75.1686 134.664 76.0819C137.14 76.9883 139.521 78.0098 141.882 78.9501C144.243 79.8971 146.603 80.7495 149.018 81.4665C151.427 82.2039 153.889 82.7518 156.365 83.2456C161.33 84.1994 166.383 84.7 171.457 84.8353C176.53 84.9571 181.61 84.6121 186.664 83.9356C187.252 83.8544 187.793 84.2671 187.868 84.8556C187.942 85.4238 187.557 85.9515 186.995 86.0529C176.76 87.9267 166.14 88.0756 155.81 86.2829C153.233 85.8229 150.655 85.3021 148.119 84.585C145.582 83.8883 143.079 83.0427 140.644 82.1159C138.208 81.1959 135.848 80.1948 133.48 79.3627C131.112 78.5171 128.731 77.8407 126.296 77.3604C125.078 77.1033 123.847 76.941 122.616 76.7516C121.378 76.6366 120.147 76.4607 118.902 76.4269C117.664 76.3322 116.413 76.3524 115.175 76.3457C113.93 76.3998 112.685 76.4201 111.434 76.5419C108.945 76.738 106.455 77.0966 103.979 77.5701C101.504 78.0368 99.0412 78.6051 96.5856 79.2612C94.1301 79.9106 91.6745 80.6277 89.2189 81.365L85.5187 82.4744C84.3011 82.8397 83.0902 83.2118 81.8861 83.6109C79.4711 84.4024 77.1238 85.2953 74.6885 86.2153C72.2532 87.1353 69.6556 87.9606 67.0715 88.5153C65.7795 88.8129 64.4807 89.0429 63.2157 89.2797C61.9371 89.5097 60.6586 89.7397 59.3666 89.9358C56.7825 90.3417 54.1578 90.6529 51.5128 90.7814C46.2297 91.0588 40.845 90.6055 35.6836 89.2729C30.5289 87.9132 25.6246 85.8229 21.0652 83.1238C16.5058 80.4315 12.2914 77.083 8.78736 73.0378C7.03532 71.0151 5.49298 68.8031 4.18741 66.4558C2.89536 64.1017 1.88066 61.5852 1.17038 58.9876C-0.256964 53.7653 -0.23667 48.2792 0.568322 43.0839C0.771262 41.7716 0.980966 40.5201 1.26508 39.2146C1.39361 38.5652 1.52214 37.9225 1.69802 37.2799C1.86713 36.644 2.00243 35.9946 2.1986 35.3655C2.91565 32.822 3.83564 30.3461 4.93152 27.9514C7.10973 23.1553 10.0321 18.7177 13.4617 14.7469C13.8473 14.3004 14.5238 14.2463 14.977 14.6386C15.4167 15.0174 15.4708 15.6871 15.1055 16.1336H15.0785Z" fill="#9E6C33"/>
<path d="M234.172 84.4971C239.265 97.9452 246.05 110.764 254.851 122.048C259.248 127.683 264.139 132.918 269.517 137.606C274.868 142.342 280.611 146.691 286.483 150.838C289.418 152.915 292.408 154.91 295.419 156.885C298.449 158.827 301.493 160.741 304.591 162.561L306.912 163.927L309.259 165.253C310.815 166.146 312.405 166.985 313.981 167.837C315.557 168.69 317.16 169.495 318.757 170.307C320.367 171.078 321.97 171.889 323.6 172.593L328.559 174.805C330.229 175.569 331.894 176.368 333.524 177.213C336.791 178.904 339.957 180.785 343.042 182.787C349.177 186.826 354.887 191.514 359.994 196.763C360.407 197.189 360.4 197.866 359.974 198.278C359.568 198.671 358.925 198.677 358.512 198.312C353.148 193.55 347.385 189.268 341.283 185.568C338.239 183.701 335.107 181.996 331.914 180.413C330.317 179.621 328.701 178.877 327.07 178.167C326.252 177.809 325.433 177.464 324.601 177.119C323.762 176.78 322.917 176.388 322.078 176.023C315.347 173.06 308.934 169.542 302.664 165.815C296.393 162.081 290.271 158.11 284.352 153.855C282.87 152.793 281.389 151.724 279.934 150.621C278.466 149.539 277.032 148.409 275.591 147.286C274.151 146.164 272.744 144.993 271.33 143.836C269.943 142.639 268.529 141.476 267.19 140.217C261.724 135.306 256.765 129.827 252.341 123.976C250.102 121.067 248.073 118.009 246.098 114.924C245.151 113.355 244.17 111.806 243.297 110.196L241.958 107.801L240.693 105.366C237.351 98.8584 234.496 92.1208 232.162 85.2141C231.973 84.6526 232.271 84.0438 232.832 83.8544C233.38 83.6718 233.975 83.9559 234.178 84.4903L234.172 84.4971Z" fill="#9E6C33"/>
<path d="M241.613 78.5712C255.298 88.0078 269.598 96.5719 284.379 104.148C288.079 106.029 291.806 107.862 295.574 109.601C299.342 111.353 303.144 113.03 306.952 114.782C310.754 116.541 314.549 118.422 318.195 120.6C321.841 122.771 325.305 125.24 328.633 127.818C335.222 132.925 341.81 138.33 347.351 144.824C350.117 148.064 352.661 151.528 354.758 155.275C356.862 159.016 358.553 162.994 359.804 167.107C360.089 168.142 360.386 169.177 360.664 170.219L361.313 173.378C361.435 173.898 361.496 174.433 361.57 174.967L361.793 176.564C361.969 177.626 362.023 178.695 362.111 179.763C362.429 184.039 362.314 188.334 361.82 192.582C361.326 196.824 360.481 201.018 359.284 205.124C358.682 207.181 358.005 209.203 357.153 211.226C356.321 213.208 355.367 215.129 354.332 217.01C352.262 220.771 349.806 224.295 347.202 227.617C345.903 229.281 344.57 230.904 343.292 232.521C342.013 234.131 340.769 235.741 339.781 237.385C338.807 239.028 338.137 240.699 338.171 242.289C338.171 243.074 338.361 243.899 338.692 244.636C338.976 245.408 339.443 246.023 340.011 246.612L340.464 247.045L340.992 247.45C341.161 247.586 341.351 247.721 341.553 247.85L342.149 248.242C342.994 248.756 343.88 249.257 344.814 249.798C346.661 250.873 348.541 252.132 350.199 253.633C351.856 255.135 353.358 256.813 354.609 258.632C355.901 260.425 356.97 262.373 357.863 264.396C358.749 266.418 359.419 268.536 359.933 270.619L360.664 273.657C360.785 274.13 360.914 274.597 361.049 274.996C361.184 275.388 361.347 275.727 361.462 275.862C361.516 275.923 361.55 275.963 361.556 275.957C361.556 275.97 361.57 275.957 361.57 275.97C361.59 275.97 361.59 275.977 361.617 275.977C361.692 276.011 361.908 275.977 362.186 275.896C362.761 275.706 363.498 275.226 364.174 274.638C365.548 273.433 366.813 271.891 367.956 270.274C369.106 268.651 370.154 266.919 371.122 265.147C372.096 263.374 372.989 261.548 373.8 259.688C377.108 252.247 378.989 244.264 379.598 236.167C379.835 232.108 379.76 228.036 379.402 223.97C378.996 219.912 378.326 215.873 377.399 211.882C376.473 207.891 375.289 203.947 373.915 200.064C373.225 198.123 372.502 196.195 371.737 194.26C370.98 192.339 370.188 190.445 369.349 188.564C366.008 181.035 361.807 173.892 356.97 167.195C356.625 166.714 356.733 166.045 357.214 165.693C357.68 165.355 358.33 165.449 358.682 165.896C363.904 172.498 368.348 179.723 372.008 187.326C372.935 189.22 373.773 191.169 374.578 193.11C375.383 195.038 376.161 197 376.899 198.975C378.373 202.926 379.665 206.964 380.7 211.077C381.722 215.19 382.52 219.377 382.98 223.612C383.393 227.853 383.515 232.129 383.305 236.397C382.777 244.927 380.741 253.403 377.305 261.223C375.593 265.14 373.591 268.935 371.074 272.493C370.445 273.379 369.776 274.252 369.052 275.098C368.328 275.943 367.55 276.768 366.657 277.533C365.757 278.29 364.756 279.041 363.356 279.522C362.646 279.738 361.8 279.907 360.846 279.704C360.616 279.664 360.373 279.582 360.143 279.495C359.913 279.386 359.676 279.285 359.473 279.136C359.033 278.859 358.709 278.507 358.438 278.169C357.917 277.472 357.674 276.836 357.457 276.248C357.254 275.659 357.112 275.118 356.97 274.583L356.239 271.539C355.759 269.578 355.164 267.704 354.379 265.904C353.588 264.112 352.647 262.387 351.504 260.79L350.638 259.606C350.341 259.221 350.016 258.862 349.705 258.49C349.4 258.112 349.055 257.767 348.717 257.428C348.379 257.083 348.048 256.732 347.675 256.427C346.241 255.128 344.645 254.046 342.893 253.018C342.027 252.504 341.1 251.983 340.16 251.415L339.45 250.948C339.213 250.799 338.976 250.637 338.739 250.447L338.029 249.899L337.346 249.257C337.109 249.054 336.913 248.797 336.71 248.546C336.514 248.289 336.284 248.066 336.128 247.775L335.628 246.943C335.452 246.666 335.364 246.361 335.235 246.07C334.735 244.907 334.451 243.649 334.437 242.35C334.417 241.058 334.674 239.793 335.073 238.65C335.472 237.506 336.006 236.465 336.581 235.491C337.752 233.563 339.078 231.871 340.39 230.228C341.709 228.584 343.021 226.987 344.293 225.364C346.83 222.13 349.164 218.795 351.125 215.251C352.106 213.478 353.006 211.665 353.797 209.805C354.569 207.992 355.225 206.051 355.8 204.109C356.943 200.213 357.762 196.208 358.235 192.17C358.709 188.131 358.83 184.059 358.56 180.02C358.485 179.013 358.438 177.998 358.282 176.997L358.086 175.495C358.019 174.994 357.964 174.487 357.856 174L357.268 171.03L356.483 168.108C355.333 164.239 353.77 160.498 351.809 156.953C349.854 153.408 347.466 150.1 344.841 146.982C342.21 143.87 339.308 140.968 336.243 138.229C333.186 135.482 329.959 132.891 326.692 130.314C323.451 127.764 320.123 125.369 316.619 123.245C313.122 121.114 309.448 119.267 305.694 117.502C301.946 115.729 298.138 113.998 294.37 112.191C290.589 110.399 286.855 108.505 283.141 106.57C268.333 98.7636 254.053 89.9966 240.395 80.3435C239.908 79.9985 239.793 79.3288 240.138 78.8485C240.476 78.3682 241.139 78.2532 241.626 78.5847L241.613 78.5712Z" fill="#9E6C33"/>
<path d="M198.38 93.2911C196.838 97.0387 195.113 100.712 193.171 104.277C191.243 107.849 189.139 111.332 186.846 114.694C182.239 121.398 176.97 127.669 170.902 133.196C164.814 138.702 157.799 143.207 150.642 146.928C147.07 148.829 143.525 150.655 140.069 152.597C138.351 153.584 136.626 154.558 134.968 155.62C134.136 156.148 133.284 156.649 132.465 157.197L130.023 158.868C123.536 163.346 117.597 168.615 112.05 174.264L109.966 176.381L107.991 178.593L106.016 180.805C105.359 181.549 104.764 182.334 104.142 183.098L102.275 185.398C101.652 186.17 101.098 186.981 100.509 187.773L98.7571 190.161L97.1335 192.63C94.935 195.911 93.0409 199.374 91.2957 202.899C89.5842 206.443 88.1704 210.123 87.0204 213.871C85.884 217.625 85.0654 221.468 84.7813 225.371C84.4837 229.294 84.5446 233.245 84.9572 237.175V237.209C85.0181 237.797 84.5851 238.325 83.9966 238.386C83.496 238.44 83.036 238.129 82.8737 237.669C81.5613 233.901 80.4384 230.059 79.532 226.169C79.3155 225.195 79.0652 224.227 78.8826 223.247L78.3143 220.304C78.0031 218.329 77.6514 216.367 77.4417 214.378C76.9208 210.414 76.7246 206.416 76.657 202.425L76.6908 199.428C76.6976 198.928 76.6908 198.427 76.7179 197.927L76.8126 196.432L76.9952 193.442C77.0696 192.447 77.2117 191.453 77.3132 190.458C78.2129 182.51 80.134 174.683 82.9616 167.202C85.8434 159.74 89.5842 152.617 94.1098 146.028C96.3624 142.727 98.7977 139.554 101.416 136.531C102.721 135.015 104.067 133.541 105.447 132.107C106.834 130.666 108.275 129.259 109.783 127.933C112.794 125.274 115.966 122.873 119.125 120.485C122.291 118.104 125.477 115.756 128.664 113.409L166.836 85.2073C167.31 84.8556 167.986 84.957 168.338 85.4306C168.69 85.9041 168.588 86.5805 168.115 86.9323L129.942 115.134C126.763 117.481 123.577 119.829 120.424 122.196C117.279 124.571 114.133 126.959 111.218 129.536C109.756 130.828 108.363 132.181 107.01 133.588C105.65 135.002 104.331 136.443 103.053 137.931C100.489 140.894 98.1077 144.006 95.8956 147.232C91.458 153.686 87.7983 160.667 84.9775 167.959C82.2108 175.272 80.3369 182.923 79.4575 190.695C79.3561 191.669 79.2208 192.637 79.1464 193.611L78.9705 196.54L78.8826 198.001C78.8623 198.488 78.869 198.982 78.8555 199.469L78.8217 202.405C78.8893 206.315 79.0787 210.231 79.5861 214.114C79.7822 216.063 80.134 217.99 80.4384 219.925L80.9999 222.807C81.1758 223.767 81.4261 224.721 81.6358 225.675C82.5287 229.49 83.6246 233.252 84.9166 236.952L82.8399 237.446C82.2243 233.407 81.9943 229.301 82.1837 225.208C82.346 221.089 83.0834 217.003 84.1387 213.046C86.2966 205.117 89.8413 197.642 94.1774 190.729L95.8144 188.138L97.5733 185.635C98.1685 184.81 98.73 183.951 99.3524 183.146L101.24 180.738C101.882 179.946 102.484 179.121 103.154 178.35L105.163 176.05L107.172 173.75L109.29 171.551C114.911 165.673 121.047 160.241 127.757 155.566L130.28 153.828C131.126 153.26 132.005 152.739 132.871 152.191C134.589 151.081 136.368 150.101 138.134 149.086C141.679 147.111 145.284 145.277 148.809 143.417C149.695 142.957 150.574 142.49 151.44 142.003L154.044 140.576C155.729 139.561 157.467 138.614 159.084 137.505C162.419 135.421 165.47 132.952 168.48 130.429C169.218 129.786 169.921 129.09 170.645 128.427C171.355 127.75 172.093 127.094 172.789 126.397C174.142 124.963 175.515 123.543 176.862 122.095C179.507 119.152 181.996 116.074 184.323 112.868C189.031 106.489 193.016 99.5822 196.438 92.3981C196.696 91.857 197.331 91.6337 197.866 91.884C198.38 92.1276 198.61 92.7364 198.4 93.264L198.38 93.2911Z" fill="#9E6C33"/>
<path d="M84.5919 234.084C85.3901 235.551 85.9516 237.074 86.5266 238.589C86.8175 239.346 87.088 240.111 87.3383 240.875C87.5886 241.646 87.8254 242.418 88.1027 243.175C88.6304 244.704 89.1445 246.233 89.733 247.741C90.0239 248.492 90.2945 249.257 90.5921 250.007L91.5054 252.247C91.803 252.997 92.1277 253.735 92.4524 254.472L93.4333 256.684C94.13 258.139 94.793 259.613 95.5371 261.041C96.9712 263.929 98.5473 266.75 100.211 269.51C103.533 275.037 107.308 280.3 111.495 285.19C113.572 287.653 115.811 289.966 118.097 292.239C120.404 294.499 122.805 296.67 125.234 298.835C130.118 303.137 135.117 307.372 140.028 311.708C144.946 316.037 149.796 320.454 154.572 324.939C159.341 329.438 164.029 334.018 168.649 338.658C173.276 343.299 177.829 348.014 182.287 352.803C182.693 353.236 182.666 353.919 182.233 354.318C181.807 354.717 181.137 354.697 180.731 354.284C171.599 344.949 162.257 335.824 152.624 327.023C147.821 322.606 142.957 318.263 138.012 314.001C133.074 309.733 128.055 305.565 123.083 301.27C120.607 299.105 118.131 296.927 115.763 294.607C113.403 292.287 111.082 289.899 108.931 287.369C104.595 282.336 100.705 276.951 97.2688 271.276C95.5506 268.441 93.9271 265.553 92.4389 262.59C91.6677 261.122 90.9845 259.613 90.2674 258.125L89.2527 255.859C88.9145 255.101 88.5763 254.344 88.2719 253.579L87.3248 251.286C87.0136 250.522 86.7295 249.744 86.4319 248.973C85.8231 247.43 85.2887 245.868 84.7475 244.305C84.186 242.749 83.7125 241.166 83.2998 239.563C82.9278 237.953 82.6234 236.316 82.5084 234.645C82.4678 234.043 82.921 233.522 83.5231 233.481C83.9628 233.448 84.3619 233.684 84.5581 234.05L84.5784 234.084H84.5919Z" fill="#9E6C33"/>
<path d="M87.1356 210.299C90.3014 213.979 93.4943 217.632 96.8022 221.177C100.09 224.742 103.445 228.239 106.888 231.648C113.788 238.453 120.945 244.981 128.42 251.124C132.188 254.154 135.976 257.164 139.879 260.053C143.756 262.975 147.713 265.81 151.609 268.806C155.499 271.796 159.328 274.949 162.886 278.426C166.451 281.896 169.644 285.738 172.573 289.736L174.711 292.78C175.407 293.802 176.07 294.81 176.747 295.838C178.1 297.881 179.398 299.978 180.67 302.102C183.173 306.37 185.426 310.828 187.151 315.53C188.876 320.224 190.073 325.183 190.35 330.25L190.405 332.151C190.425 332.786 190.452 333.415 190.405 334.051L190.303 335.952L190.249 336.906C190.215 337.224 190.161 337.535 190.12 337.853L189.85 339.74L189.715 340.681L189.498 341.635C189.214 342.913 188.808 344.137 188.368 345.342C187.469 347.743 186.332 349.989 185.128 352.167C183.917 354.339 182.632 356.449 181.313 358.519C178.668 362.659 175.908 366.684 173.148 370.709C170.388 374.72 167.614 378.745 164.76 382.716C161.905 386.687 158.942 390.604 155.898 394.433C154.383 396.347 152.847 398.221 151.467 400.142C150.081 402.056 148.849 404.065 147.693 406.156C145.393 410.357 143.336 414.699 141.679 419.191C138.297 428.161 136.396 437.665 134.623 447.217L133.325 454.394C132.912 456.775 132.499 459.157 132.208 461.538C131.904 463.919 131.708 466.287 131.6 468.695C131.491 471.103 131.41 473.559 131.275 476.007C130.707 485.809 129.482 495.51 128.231 505.176C127.622 510 126.939 514.83 126.682 519.585C126.628 520.769 126.607 521.946 126.682 523.076C126.715 523.644 126.783 524.192 126.878 524.699C126.979 525.207 127.121 525.68 127.304 525.985C127.487 526.296 127.642 526.37 127.764 526.404C127.811 526.417 127.859 526.424 127.987 526.384C128.116 526.343 128.285 526.269 128.481 526.147C128.867 525.91 129.313 525.545 129.746 525.166C130.186 524.787 130.632 524.375 131.085 523.962C132.898 522.305 134.86 520.668 136.977 519.301C139.095 517.914 141.361 516.778 143.708 515.844C146.062 514.911 148.559 514.275 151.061 513.93C152.306 513.754 153.558 513.646 154.741 513.531C155.918 513.409 157.035 513.247 157.88 512.861C158.076 512.746 158.279 512.645 158.469 512.516C158.631 512.361 158.827 512.252 158.983 512.07C159.294 511.725 159.612 511.346 159.815 510.906C160.025 510.48 160.173 510.02 160.268 509.526C160.349 509.032 160.37 508.511 160.356 507.977C160.234 505.806 159.504 503.506 158.733 501.239C157.143 496.694 155.343 492.121 153.842 487.453C150.771 478.131 148.599 468.512 147.381 458.778C147.307 458.189 147.726 457.655 148.315 457.58C148.904 457.506 149.438 457.919 149.512 458.507C150.777 468.093 152.989 477.556 156.074 486.716C157.596 491.316 159.395 495.801 161.053 500.435C161.459 501.598 161.851 502.782 162.182 504.006C162.507 505.231 162.778 506.502 162.859 507.855C162.886 508.539 162.859 509.235 162.751 509.946C162.629 510.656 162.406 511.366 162.081 512.029C161.763 512.699 161.31 513.281 160.809 513.835C160.566 514.113 160.241 514.343 159.95 514.586C159.639 514.803 159.301 514.985 158.969 515.168C157.589 515.797 156.243 515.946 155.012 516.095C153.767 516.223 152.597 516.338 151.427 516.507C149.106 516.845 146.854 517.441 144.682 518.313C142.511 519.193 140.414 520.268 138.466 521.567C136.504 522.859 134.711 524.361 132.946 526.005C132.499 526.417 132.053 526.83 131.572 527.256C131.085 527.676 130.598 528.109 129.956 528.514C129.638 528.717 129.259 528.914 128.806 529.062C128.359 529.211 127.778 529.272 127.23 529.164C126.14 528.961 125.302 528.163 124.882 527.419C124.443 526.668 124.253 525.957 124.111 525.274C123.969 524.591 123.888 523.928 123.847 523.279C123.753 521.98 123.773 520.715 123.82 519.463C124.064 514.478 124.733 509.655 125.329 504.811C126.54 495.151 127.717 485.505 128.238 475.845C128.366 473.43 128.434 471.015 128.535 468.559C128.63 466.104 128.826 463.608 129.13 461.159C129.421 458.697 129.834 456.282 130.24 453.86L131.512 446.656C133.25 437.063 135.144 427.356 138.608 418.055C140.306 413.401 142.409 408.902 144.77 404.552C145.961 402.381 147.273 400.223 148.734 398.187C150.196 396.144 151.738 394.243 153.24 392.336C156.25 388.534 159.165 384.678 161.993 380.734C164.821 376.797 167.567 372.792 170.32 368.774C173.067 364.756 175.813 360.745 178.404 356.672C179.703 354.636 180.948 352.58 182.104 350.496C183.261 348.413 184.316 346.295 185.121 344.131C185.514 343.048 185.872 341.959 186.116 340.857L186.298 340.031L186.42 339.165L186.664 337.434C186.704 337.143 186.752 336.859 186.785 336.568L186.833 335.695L186.928 333.95C186.982 333.368 186.948 332.786 186.928 332.205L186.873 330.453C186.616 325.785 185.5 321.165 183.863 316.727C182.226 312.283 180.068 308.014 177.64 303.881C176.402 301.825 175.137 299.782 173.797 297.766C173.134 296.758 172.458 295.736 171.782 294.742L169.712 291.806C166.877 287.957 163.826 284.284 160.397 280.962C156.974 277.634 153.273 274.583 149.438 271.641C145.609 268.698 141.645 265.864 137.735 262.928C133.812 260.019 129.942 256.995 126.147 253.897C124.28 252.307 122.379 250.752 120.546 249.128C118.72 247.491 116.859 245.895 115.087 244.197C113.315 242.505 111.509 240.848 109.763 239.13C108.011 237.418 106.307 235.66 104.602 233.901C101.22 230.363 97.8981 226.757 94.7052 223.05C91.5326 219.323 88.4208 215.548 85.4715 211.645C85.1129 211.172 85.2076 210.502 85.6812 210.143C86.1344 209.798 86.777 209.88 87.1423 210.299H87.1356Z" fill="#9E6C33"/>
<path d="M188.443 322.234C192.062 329.262 195.16 336.581 197.548 344.144C198.732 347.932 199.747 351.781 200.524 355.678C201.289 359.581 201.823 363.538 202.087 367.523C202.642 375.485 202.006 383.575 199.977 391.355C198.969 395.244 197.595 399.039 195.884 402.679C194.159 406.318 192.109 409.768 189.918 413.076C187.733 416.391 185.433 419.597 183.146 422.79C182.023 424.386 180.785 425.976 179.601 427.573L177.721 429.893L176.774 431.05L175.793 432.172C170.598 438.227 164.652 443.524 158.915 448.82C156.054 451.479 153.28 454.198 150.635 457.026C148.011 459.874 145.508 462.83 143.147 465.908C138.479 472.097 134.332 478.72 130.707 485.613C130.429 486.141 129.78 486.344 129.259 486.066C128.752 485.796 128.549 485.18 128.785 484.659C132.134 477.482 136.145 470.616 140.82 464.176C143.181 460.976 145.656 457.851 148.349 454.922C151.041 451.993 153.862 449.199 156.73 446.486C162.467 441.068 168.311 435.92 173.371 430.062L174.332 428.973L175.252 427.85L177.085 425.597C178.248 424.041 179.426 422.54 180.569 420.93C182.862 417.75 185.155 414.578 187.3 411.344C189.451 408.111 191.426 404.803 193.077 401.346C194.714 397.889 196.033 394.27 197.041 390.57C199.043 383.163 199.733 375.397 199.273 367.692C198.833 359.98 197.325 352.329 195.126 344.875C192.907 337.427 189.978 330.182 186.522 323.187C186.258 322.653 186.474 322.01 187.009 321.753C187.536 321.496 188.172 321.706 188.436 322.227L188.443 322.234Z" fill="#9E6C33"/>
<path d="M112.293 55.0575C112.138 55.0575 111.982 55.0236 111.826 54.9492C99.4065 48.9896 86.6146 43.6658 73.8023 39.1267C50.1328 30.7386 39.1876 29.5006 31.5977 29.3924C25.7801 29.3112 19.9017 29.7645 14.1382 30.7521C13.5564 30.8536 13.0017 30.4612 12.9003 29.8727C12.7988 29.2909 13.1911 28.7362 13.7797 28.6348C19.6717 27.6268 25.6787 27.1601 31.6315 27.248C39.3974 27.3562 50.559 28.6145 74.5194 37.1041C87.3993 41.6702 100.266 47.0211 112.753 53.0145C113.288 53.2716 113.511 53.9142 113.254 54.4486C113.071 54.8342 112.685 55.0575 112.286 55.0575H112.293Z" fill="#9E6C33"/>
</g>
<defs>
<clipPath id="clip0_81_161">
<rect width="400" height="529.225" fill="white"/>
</clipPath>
</defs>
</svg>
